M48
; DRILL file {KiCad (6.0.7)} date Sun Feb 12 17:10:24 2023
; FORMAT={-:-/ absolute / inch / decimal}
; #@! TF.CreationDate,2023-02-12T17:10:24-05:00
; #@! TF.GenerationSoftware,Kicad,Pcbnew,(6.0.7)
; #@! TF.FileFunction,Plated,1,2,PTH
FMAT,2
INCH
; #@! TA.AperFunction,Plated,PTH,ViaDrill
T1C0.0157
; #@! TA.AperFunction,Plated,PTH,ComponentDrill
T2C0.0236
; #@! TA.AperFunction,Plated,PTH,ComponentDrill
T3C0.0256
; #@! TA.AperFunction,Plated,PTH,ComponentDrill
T4C0.0433
; #@! TA.AperFunction,Plated,PTH,ComponentDrill
T5C0.1063
%
G90
G05
T1
X3.1751Y-4.2192
X3.1921Y-4.3947
X3.2322Y-4.7374
X3.38Y-4.18
X3.41Y-4.26
X3.7135Y-5.3776
X3.79Y-4.27
X3.793Y-4.9419
X3.7959Y-3.2755
X3.8125Y-4.6166
X4.0117Y-3.6103
X4.04Y-4.78
X4.0566Y-5.3481
X4.12Y-4.4767
X4.16Y-3.96
X4.1828Y-5.2947
X4.2282Y-5.0079
X4.3128Y-4.8765
X4.3824Y-5.2188
X4.384Y-5.4557
X4.3988Y-5.1693
X4.4253Y-3.3723
X4.437Y-3.9671
X4.453Y-5.041
X4.5757Y-5.0096
X4.5757Y-5.2124
X4.5882Y-3.7129
X4.8766Y-3.208
X4.9344Y-3.695
X4.9802Y-4.7968
X5.1775Y-5.53
X5.18Y-5.58
X5.3272Y-4.8975
X5.4318Y-5.6557
X5.4421Y-5.3599
X5.4931Y-3.6451
X5.5253Y-3.5591
X5.5261Y-3.4019
T3
X3.0545Y-5.2948
X3.0545Y-5.3448
X3.0545Y-5.3948
X3.0545Y-5.4448
X3.0545Y-5.4948
X3.0545Y-5.5448
X3.0545Y-5.5948
X3.0545Y-5.6448
T4
X3.5Y-3.9
X3.9Y-3.9
T5
X3.2183Y-3.3218
X3.5017Y-3.3218
T2
G00X3.0943Y-3.0639
M15
G01X3.0943Y-3.1072
M16
G05
G00X3.6257Y-3.0639
M15
G01X3.6257Y-3.1072
M16
G05
T0
M30
