%TF.GenerationSoftware,KiCad,Pcbnew,(6.0.7)*%
%TF.CreationDate,2023-02-12T17:10:21-05:00*%
%TF.ProjectId,PDB,5044422e-6b69-4636-9164-5f7063625858,rev?*%
%TF.SameCoordinates,Original*%
%TF.FileFunction,Soldermask,Top*%
%TF.FilePolarity,Negative*%
%FSLAX46Y46*%
G04 Gerber Fmt 4.6, Leading zero omitted, Abs format (unit mm)*
G04 Created by KiCad (PCBNEW (6.0.7)) date 2023-02-12 17:10:21*
%MOMM*%
%LPD*%
G01*
G04 APERTURE LIST*
G04 Aperture macros list*
%AMRoundRect*
0 Rectangle with rounded corners*
0 $1 Rounding radius*
0 $2 $3 $4 $5 $6 $7 $8 $9 X,Y pos of 4 corners*
0 Add a 4 corners polygon primitive as box body*
4,1,4,$2,$3,$4,$5,$6,$7,$8,$9,$2,$3,0*
0 Add four circle primitives for the rounded corners*
1,1,$1+$1,$2,$3*
1,1,$1+$1,$4,$5*
1,1,$1+$1,$6,$7*
1,1,$1+$1,$8,$9*
0 Add four rect primitives between the rounded corners*
20,1,$1+$1,$2,$3,$4,$5,0*
20,1,$1+$1,$4,$5,$6,$7,0*
20,1,$1+$1,$6,$7,$8,$9,0*
20,1,$1+$1,$8,$9,$2,$3,0*%
G04 Aperture macros list end*
%ADD10RoundRect,0.250000X-0.337500X-0.475000X0.337500X-0.475000X0.337500X0.475000X-0.337500X0.475000X0*%
%ADD11R,2.200000X1.200000*%
%ADD12R,6.400000X5.800000*%
%ADD13R,1.560000X0.650000*%
%ADD14RoundRect,0.250000X0.475000X-0.337500X0.475000X0.337500X-0.475000X0.337500X-0.475000X-0.337500X0*%
%ADD15R,1.000000X1.000000*%
%ADD16O,1.000000X1.000000*%
%ADD17RoundRect,0.147500X-0.147500X-0.172500X0.147500X-0.172500X0.147500X0.172500X-0.147500X0.172500X0*%
%ADD18RoundRect,0.250000X-0.625000X0.400000X-0.625000X-0.400000X0.625000X-0.400000X0.625000X0.400000X0*%
%ADD19R,2.200000X2.200000*%
%ADD20O,2.200000X2.200000*%
%ADD21RoundRect,0.250000X0.450000X-0.325000X0.450000X0.325000X-0.450000X0.325000X-0.450000X-0.325000X0*%
%ADD22C,3.200000*%
%ADD23RoundRect,0.250000X-0.350000X-0.450000X0.350000X-0.450000X0.350000X0.450000X-0.350000X0.450000X0*%
%ADD24RoundRect,0.250000X-0.475000X0.337500X-0.475000X-0.337500X0.475000X-0.337500X0.475000X0.337500X0*%
%ADD25RoundRect,0.150000X0.150000X-0.825000X0.150000X0.825000X-0.150000X0.825000X-0.150000X-0.825000X0*%
%ADD26RoundRect,0.250000X0.337500X0.475000X-0.337500X0.475000X-0.337500X-0.475000X0.337500X-0.475000X0*%
%ADD27RoundRect,0.250000X-0.450000X0.350000X-0.450000X-0.350000X0.450000X-0.350000X0.450000X0.350000X0*%
%ADD28RoundRect,0.250000X0.325000X0.450000X-0.325000X0.450000X-0.325000X-0.450000X0.325000X-0.450000X0*%
%ADD29RoundRect,0.250000X0.350000X0.450000X-0.350000X0.450000X-0.350000X-0.450000X0.350000X-0.450000X0*%
%ADD30R,2.400000X2.000000*%
%ADD31C,2.374900*%
%ADD32C,0.990600*%
%ADD33C,0.787400*%
%ADD34R,1.000000X1.500000*%
%ADD35RoundRect,0.075000X-0.662500X-0.075000X0.662500X-0.075000X0.662500X0.075000X-0.662500X0.075000X0*%
%ADD36RoundRect,0.075000X-0.075000X-0.662500X0.075000X-0.662500X0.075000X0.662500X-0.075000X0.662500X0*%
%ADD37R,0.900000X2.000000*%
%ADD38RoundRect,1.025000X-1.025000X-1.025000X1.025000X-1.025000X1.025000X1.025000X-1.025000X1.025000X0*%
%ADD39C,4.100000*%
G04 APERTURE END LIST*
D10*
%TO.C,C105*%
X136962500Y-90000000D03*
X139037500Y-90000000D03*
%TD*%
D11*
%TO.C,U101*%
X122733800Y-83645000D03*
D12*
X129033800Y-85925000D03*
D11*
X122733800Y-88205000D03*
%TD*%
D13*
%TO.C,U104*%
X128000000Y-121100000D03*
X128000000Y-122050000D03*
X128000000Y-123000000D03*
X130700000Y-123000000D03*
X130700000Y-121100000D03*
%TD*%
D14*
%TO.C,C116*%
X113000000Y-142037500D03*
X113000000Y-139962500D03*
%TD*%
D15*
%TO.C,J102*%
X77585000Y-134488000D03*
D16*
X77585000Y-135758000D03*
X77585000Y-137028000D03*
X77585000Y-138298000D03*
X77585000Y-139568000D03*
X77585000Y-140838000D03*
X77585000Y-142108000D03*
X77585000Y-143378000D03*
%TD*%
D17*
%TO.C,L101*%
X105585000Y-99000000D03*
X106555000Y-99000000D03*
%TD*%
D18*
%TO.C,R107*%
X99000000Y-113450000D03*
X99000000Y-116550000D03*
%TD*%
D19*
%TO.C,D101*%
X99060000Y-99060000D03*
D20*
X88900000Y-99060000D03*
%TD*%
D21*
%TO.C,D102*%
X104902000Y-107959000D03*
X104902000Y-105909000D03*
%TD*%
D22*
%TO.C,*%
X142494000Y-94996000D03*
%TD*%
D14*
%TO.C,C112*%
X105000000Y-142037500D03*
X105000000Y-139962500D03*
%TD*%
D23*
%TO.C,R108*%
X106000000Y-123950000D03*
X108000000Y-123950000D03*
%TD*%
D10*
%TO.C,C117*%
X110962500Y-102530000D03*
X113037500Y-102530000D03*
%TD*%
D14*
%TO.C,C114*%
X109000000Y-142075000D03*
X109000000Y-140000000D03*
%TD*%
%TO.C,C111*%
X95000000Y-128037500D03*
X95000000Y-125962500D03*
%TD*%
D24*
%TO.C,C109*%
X136000000Y-120962500D03*
X136000000Y-123037500D03*
%TD*%
D10*
%TO.C,C108*%
X110461200Y-87830000D03*
X112536200Y-87830000D03*
%TD*%
D25*
%TO.C,U102*%
X81095000Y-118475000D03*
X82365000Y-118475000D03*
X83635000Y-118475000D03*
X84905000Y-118475000D03*
X84905000Y-113525000D03*
X83635000Y-113525000D03*
X82365000Y-113525000D03*
X81095000Y-113525000D03*
%TD*%
D26*
%TO.C,C102*%
X84037500Y-122000000D03*
X81962500Y-122000000D03*
%TD*%
D14*
%TO.C,C110*%
X101000000Y-142037500D03*
X101000000Y-139962500D03*
%TD*%
D10*
%TO.C,C104*%
X98283800Y-91440000D03*
X100358800Y-91440000D03*
%TD*%
D18*
%TO.C,R106*%
X99000000Y-105450000D03*
X99000000Y-108550000D03*
%TD*%
D10*
%TO.C,C107*%
X137000000Y-85835000D03*
X139075000Y-85835000D03*
%TD*%
D27*
%TO.C,R103*%
X104648000Y-110506000D03*
X104648000Y-112506000D03*
%TD*%
D28*
%TO.C,D103*%
X134883000Y-94742000D03*
X132833000Y-94742000D03*
%TD*%
D29*
%TO.C,R102*%
X130000000Y-126000000D03*
X128000000Y-126000000D03*
%TD*%
D10*
%TO.C,C106*%
X110461200Y-83485000D03*
X112536200Y-83485000D03*
%TD*%
D14*
%TO.C,C113*%
X95000000Y-140037500D03*
X95000000Y-137962500D03*
%TD*%
D22*
%TO.C,M3*%
X78486000Y-93980000D03*
%TD*%
D23*
%TO.C,R105*%
X114824000Y-92710000D03*
X116824000Y-92710000D03*
%TD*%
D30*
%TO.C,Y101*%
X95000000Y-131150000D03*
X95000000Y-134850000D03*
%TD*%
D31*
%TO.C,J104*%
X137668000Y-141351000D03*
X142748000Y-138176000D03*
D32*
X139192000Y-143256000D03*
D31*
X137668000Y-138176000D03*
D32*
X140208000Y-138176000D03*
D31*
X142748000Y-141351000D03*
D32*
X141224000Y-143256000D03*
D33*
X139573000Y-139446000D03*
X140843000Y-139446000D03*
X139573000Y-140716000D03*
X140843000Y-140716000D03*
X139573000Y-141986000D03*
X140843000Y-141986000D03*
%TD*%
D26*
%TO.C,C101*%
X84037500Y-106940000D03*
X81962500Y-106940000D03*
%TD*%
D34*
%TO.C,JP101*%
X100350000Y-124000000D03*
X101650000Y-124000000D03*
%TD*%
D28*
%TO.C,D104*%
X112023000Y-92710000D03*
X109973000Y-92710000D03*
%TD*%
D22*
%TO.C,*%
X143002000Y-127508000D03*
%TD*%
D10*
%TO.C,C103*%
X122962500Y-92320000D03*
X125037500Y-92320000D03*
%TD*%
D35*
%TO.C,U105*%
X104837500Y-130250000D03*
X104837500Y-130750000D03*
X104837500Y-131250000D03*
X104837500Y-131750000D03*
X104837500Y-132250000D03*
X104837500Y-132750000D03*
X104837500Y-133250000D03*
X104837500Y-133750000D03*
X104837500Y-134250000D03*
X104837500Y-134750000D03*
X104837500Y-135250000D03*
X104837500Y-135750000D03*
D36*
X106250000Y-137162500D03*
X106750000Y-137162500D03*
X107250000Y-137162500D03*
X107750000Y-137162500D03*
X108250000Y-137162500D03*
X108750000Y-137162500D03*
X109250000Y-137162500D03*
X109750000Y-137162500D03*
X110250000Y-137162500D03*
X110750000Y-137162500D03*
X111250000Y-137162500D03*
X111750000Y-137162500D03*
D35*
X113162500Y-135750000D03*
X113162500Y-135250000D03*
X113162500Y-134750000D03*
X113162500Y-134250000D03*
X113162500Y-133750000D03*
X113162500Y-133250000D03*
X113162500Y-132750000D03*
X113162500Y-132250000D03*
X113162500Y-131750000D03*
X113162500Y-131250000D03*
X113162500Y-130750000D03*
X113162500Y-130250000D03*
D36*
X111750000Y-128837500D03*
X111250000Y-128837500D03*
X110750000Y-128837500D03*
X110250000Y-128837500D03*
X109750000Y-128837500D03*
X109250000Y-128837500D03*
X108750000Y-128837500D03*
X108250000Y-128837500D03*
X107750000Y-128837500D03*
X107250000Y-128837500D03*
X106750000Y-128837500D03*
X106250000Y-128837500D03*
%TD*%
D23*
%TO.C,R104*%
X137938000Y-94488000D03*
X139938000Y-94488000D03*
%TD*%
D14*
%TO.C,C118*%
X117000000Y-142037500D03*
X117000000Y-139962500D03*
%TD*%
D22*
%TO.C,*%
X78486000Y-127254000D03*
%TD*%
D10*
%TO.C,C115*%
X110962500Y-99000000D03*
X113037500Y-99000000D03*
%TD*%
D11*
%TO.C,U103*%
X98726200Y-83255000D03*
D12*
X105026200Y-85535000D03*
D11*
X98726200Y-85535000D03*
X98726200Y-87815000D03*
%TD*%
D23*
%TO.C,R101*%
X82000000Y-110000000D03*
X84000000Y-110000000D03*
%TD*%
D37*
%TO.C,J101*%
X78594000Y-78374000D03*
X92094000Y-78374000D03*
D38*
X88944000Y-84374000D03*
D39*
X81744000Y-84374000D03*
%TD*%
M02*
