%TF.GenerationSoftware,KiCad,Pcbnew,(6.0.7)*%
%TF.CreationDate,2023-02-12T17:10:21-05:00*%
%TF.ProjectId,PDB,5044422e-6b69-4636-9164-5f7063625858,rev?*%
%TF.SameCoordinates,Original*%
%TF.FileFunction,Legend,Top*%
%TF.FilePolarity,Positive*%
%FSLAX46Y46*%
G04 Gerber Fmt 4.6, Leading zero omitted, Abs format (unit mm)*
G04 Created by KiCad (PCBNEW (6.0.7)) date 2023-02-12 17:10:21*
%MOMM*%
%LPD*%
G01*
G04 APERTURE LIST*
%ADD10C,0.150000*%
%ADD11C,0.300000*%
%ADD12C,0.120000*%
%ADD13C,0.010000*%
G04 APERTURE END LIST*
D10*
X123770190Y-103712666D02*
X124246380Y-103712666D01*
X123674952Y-103998380D02*
X124008285Y-102998380D01*
X124341619Y-103998380D01*
X124532095Y-103331714D02*
X124913047Y-103331714D01*
X124674952Y-102998380D02*
X124674952Y-103855523D01*
X124722571Y-103950761D01*
X124817809Y-103998380D01*
X124913047Y-103998380D01*
X125246380Y-103998380D02*
X125246380Y-102998380D01*
X125674952Y-103998380D02*
X125674952Y-103474571D01*
X125627333Y-103379333D01*
X125532095Y-103331714D01*
X125389238Y-103331714D01*
X125294000Y-103379333D01*
X125246380Y-103426952D01*
X126579714Y-103998380D02*
X126579714Y-103474571D01*
X126532095Y-103379333D01*
X126436857Y-103331714D01*
X126246380Y-103331714D01*
X126151142Y-103379333D01*
X126579714Y-103950761D02*
X126484476Y-103998380D01*
X126246380Y-103998380D01*
X126151142Y-103950761D01*
X126103523Y-103855523D01*
X126103523Y-103760285D01*
X126151142Y-103665047D01*
X126246380Y-103617428D01*
X126484476Y-103617428D01*
X126579714Y-103569809D01*
X127055904Y-103998380D02*
X127055904Y-103331714D01*
X127055904Y-103522190D02*
X127103523Y-103426952D01*
X127151142Y-103379333D01*
X127246380Y-103331714D01*
X127341619Y-103331714D01*
X127579714Y-103331714D02*
X127817809Y-103998380D01*
X128055904Y-103331714D01*
X128865428Y-103998380D02*
X128865428Y-103474571D01*
X128817809Y-103379333D01*
X128722571Y-103331714D01*
X128532095Y-103331714D01*
X128436857Y-103379333D01*
X128865428Y-103950761D02*
X128770190Y-103998380D01*
X128532095Y-103998380D01*
X128436857Y-103950761D01*
X128389238Y-103855523D01*
X128389238Y-103760285D01*
X128436857Y-103665047D01*
X128532095Y-103617428D01*
X128770190Y-103617428D01*
X128865428Y-103569809D01*
X130103523Y-103998380D02*
X130103523Y-102998380D01*
X130674952Y-103998380D02*
X130246380Y-103426952D01*
X130674952Y-102998380D02*
X130103523Y-103569809D01*
X131532095Y-103331714D02*
X131532095Y-103998380D01*
X131103523Y-103331714D02*
X131103523Y-103855523D01*
X131151142Y-103950761D01*
X131246380Y-103998380D01*
X131389238Y-103998380D01*
X131484476Y-103950761D01*
X131532095Y-103903142D01*
X132151142Y-103998380D02*
X132055904Y-103950761D01*
X132008285Y-103855523D01*
X132008285Y-102998380D01*
X132532095Y-103998380D02*
X132532095Y-102998380D01*
X132627333Y-103617428D02*
X132913047Y-103998380D01*
X132913047Y-103331714D02*
X132532095Y-103712666D01*
X133770190Y-103998380D02*
X133770190Y-103474571D01*
X133722571Y-103379333D01*
X133627333Y-103331714D01*
X133436857Y-103331714D01*
X133341619Y-103379333D01*
X133770190Y-103950761D02*
X133674952Y-103998380D01*
X133436857Y-103998380D01*
X133341619Y-103950761D01*
X133294000Y-103855523D01*
X133294000Y-103760285D01*
X133341619Y-103665047D01*
X133436857Y-103617428D01*
X133674952Y-103617428D01*
X133770190Y-103569809D01*
X134246380Y-103998380D02*
X134246380Y-103331714D01*
X134246380Y-103522190D02*
X134294000Y-103426952D01*
X134341619Y-103379333D01*
X134436857Y-103331714D01*
X134532095Y-103331714D01*
X134865428Y-103331714D02*
X134865428Y-103998380D01*
X134865428Y-103426952D02*
X134913047Y-103379333D01*
X135008285Y-103331714D01*
X135151142Y-103331714D01*
X135246380Y-103379333D01*
X135294000Y-103474571D01*
X135294000Y-103998380D01*
X135770190Y-103998380D02*
X135770190Y-103331714D01*
X135770190Y-102998380D02*
X135722571Y-103046000D01*
X135770190Y-103093619D01*
X135817809Y-103046000D01*
X135770190Y-102998380D01*
X135770190Y-103093619D01*
X124055904Y-105513142D02*
X124008285Y-105560761D01*
X123865428Y-105608380D01*
X123770190Y-105608380D01*
X123627333Y-105560761D01*
X123532095Y-105465523D01*
X123484476Y-105370285D01*
X123436857Y-105179809D01*
X123436857Y-105036952D01*
X123484476Y-104846476D01*
X123532095Y-104751238D01*
X123627333Y-104656000D01*
X123770190Y-104608380D01*
X123865428Y-104608380D01*
X124008285Y-104656000D01*
X124055904Y-104703619D01*
X124627333Y-105608380D02*
X124532095Y-105560761D01*
X124484476Y-105513142D01*
X124436857Y-105417904D01*
X124436857Y-105132190D01*
X124484476Y-105036952D01*
X124532095Y-104989333D01*
X124627333Y-104941714D01*
X124770190Y-104941714D01*
X124865428Y-104989333D01*
X124913047Y-105036952D01*
X124960666Y-105132190D01*
X124960666Y-105417904D01*
X124913047Y-105513142D01*
X124865428Y-105560761D01*
X124770190Y-105608380D01*
X124627333Y-105608380D01*
X125532095Y-105608380D02*
X125436857Y-105560761D01*
X125389238Y-105465523D01*
X125389238Y-104608380D01*
X125770190Y-104941714D02*
X126151142Y-104941714D01*
X125913047Y-104608380D02*
X125913047Y-105465523D01*
X125960666Y-105560761D01*
X126055904Y-105608380D01*
X126151142Y-105608380D01*
X126627333Y-105608380D02*
X126532095Y-105560761D01*
X126484476Y-105513142D01*
X126436857Y-105417904D01*
X126436857Y-105132190D01*
X126484476Y-105036952D01*
X126532095Y-104989333D01*
X126627333Y-104941714D01*
X126770190Y-104941714D01*
X126865428Y-104989333D01*
X126913047Y-105036952D01*
X126960666Y-105132190D01*
X126960666Y-105417904D01*
X126913047Y-105513142D01*
X126865428Y-105560761D01*
X126770190Y-105608380D01*
X126627333Y-105608380D01*
X127389238Y-104941714D02*
X127389238Y-105608380D01*
X127389238Y-105036952D02*
X127436857Y-104989333D01*
X127532095Y-104941714D01*
X127674952Y-104941714D01*
X127770190Y-104989333D01*
X127817809Y-105084571D01*
X127817809Y-105608380D01*
X129389238Y-105084571D02*
X129532095Y-105132190D01*
X129579714Y-105179809D01*
X129627333Y-105275047D01*
X129627333Y-105417904D01*
X129579714Y-105513142D01*
X129532095Y-105560761D01*
X129436857Y-105608380D01*
X129055904Y-105608380D01*
X129055904Y-104608380D01*
X129389238Y-104608380D01*
X129484476Y-104656000D01*
X129532095Y-104703619D01*
X129579714Y-104798857D01*
X129579714Y-104894095D01*
X129532095Y-104989333D01*
X129484476Y-105036952D01*
X129389238Y-105084571D01*
X129055904Y-105084571D01*
X130055904Y-105608380D02*
X130055904Y-104941714D01*
X130055904Y-105132190D02*
X130103523Y-105036952D01*
X130151142Y-104989333D01*
X130246380Y-104941714D01*
X130341619Y-104941714D01*
X131055904Y-105560761D02*
X130960666Y-105608380D01*
X130770190Y-105608380D01*
X130674952Y-105560761D01*
X130627333Y-105465523D01*
X130627333Y-105084571D01*
X130674952Y-104989333D01*
X130770190Y-104941714D01*
X130960666Y-104941714D01*
X131055904Y-104989333D01*
X131103523Y-105084571D01*
X131103523Y-105179809D01*
X130627333Y-105275047D01*
X131532095Y-105608380D02*
X131532095Y-104941714D01*
X131532095Y-104608380D02*
X131484476Y-104656000D01*
X131532095Y-104703619D01*
X131579714Y-104656000D01*
X131532095Y-104608380D01*
X131532095Y-104703619D01*
X131865428Y-104941714D02*
X132246380Y-104941714D01*
X132008285Y-104608380D02*
X132008285Y-105465523D01*
X132055904Y-105560761D01*
X132151142Y-105608380D01*
X132246380Y-105608380D01*
X132579714Y-105608380D02*
X132579714Y-104608380D01*
X132674952Y-105227428D02*
X132960666Y-105608380D01*
X132960666Y-104941714D02*
X132579714Y-105322666D01*
X133389238Y-105608380D02*
X133389238Y-104941714D01*
X133389238Y-105132190D02*
X133436857Y-105036952D01*
X133484476Y-104989333D01*
X133579714Y-104941714D01*
X133674952Y-104941714D01*
X134389238Y-105560761D02*
X134294000Y-105608380D01*
X134103523Y-105608380D01*
X134008285Y-105560761D01*
X133960666Y-105465523D01*
X133960666Y-105084571D01*
X134008285Y-104989333D01*
X134103523Y-104941714D01*
X134294000Y-104941714D01*
X134389238Y-104989333D01*
X134436857Y-105084571D01*
X134436857Y-105179809D01*
X133960666Y-105275047D01*
X135294000Y-104941714D02*
X135294000Y-105608380D01*
X134865428Y-104941714D02*
X134865428Y-105465523D01*
X134913047Y-105560761D01*
X135008285Y-105608380D01*
X135151142Y-105608380D01*
X135246380Y-105560761D01*
X135294000Y-105513142D01*
X135674952Y-104941714D02*
X136198761Y-104941714D01*
X135674952Y-105608380D01*
X136198761Y-105608380D01*
X124889238Y-106218380D02*
X124889238Y-106932666D01*
X124841619Y-107075523D01*
X124746380Y-107170761D01*
X124603523Y-107218380D01*
X124508285Y-107218380D01*
X125508285Y-107218380D02*
X125413047Y-107170761D01*
X125365428Y-107123142D01*
X125317809Y-107027904D01*
X125317809Y-106742190D01*
X125365428Y-106646952D01*
X125413047Y-106599333D01*
X125508285Y-106551714D01*
X125651142Y-106551714D01*
X125746380Y-106599333D01*
X125794000Y-106646952D01*
X125841619Y-106742190D01*
X125841619Y-107027904D01*
X125794000Y-107123142D01*
X125746380Y-107170761D01*
X125651142Y-107218380D01*
X125508285Y-107218380D01*
X126222571Y-107170761D02*
X126317809Y-107218380D01*
X126508285Y-107218380D01*
X126603523Y-107170761D01*
X126651142Y-107075523D01*
X126651142Y-107027904D01*
X126603523Y-106932666D01*
X126508285Y-106885047D01*
X126365428Y-106885047D01*
X126270190Y-106837428D01*
X126222571Y-106742190D01*
X126222571Y-106694571D01*
X126270190Y-106599333D01*
X126365428Y-106551714D01*
X126508285Y-106551714D01*
X126603523Y-106599333D01*
X127079714Y-107218380D02*
X127079714Y-106218380D01*
X127508285Y-107218380D02*
X127508285Y-106694571D01*
X127460666Y-106599333D01*
X127365428Y-106551714D01*
X127222571Y-106551714D01*
X127127333Y-106599333D01*
X127079714Y-106646952D01*
X128413047Y-106551714D02*
X128413047Y-107218380D01*
X127984476Y-106551714D02*
X127984476Y-107075523D01*
X128032095Y-107170761D01*
X128127333Y-107218380D01*
X128270190Y-107218380D01*
X128365428Y-107170761D01*
X128413047Y-107123142D01*
X129317809Y-107218380D02*
X129317809Y-106694571D01*
X129270190Y-106599333D01*
X129174952Y-106551714D01*
X128984476Y-106551714D01*
X128889238Y-106599333D01*
X129317809Y-107170761D02*
X129222571Y-107218380D01*
X128984476Y-107218380D01*
X128889238Y-107170761D01*
X128841619Y-107075523D01*
X128841619Y-106980285D01*
X128889238Y-106885047D01*
X128984476Y-106837428D01*
X129222571Y-106837428D01*
X129317809Y-106789809D01*
X130555904Y-107218380D02*
X130555904Y-106218380D01*
X130794000Y-106218380D01*
X130936857Y-106266000D01*
X131032095Y-106361238D01*
X131079714Y-106456476D01*
X131127333Y-106646952D01*
X131127333Y-106789809D01*
X131079714Y-106980285D01*
X131032095Y-107075523D01*
X130936857Y-107170761D01*
X130794000Y-107218380D01*
X130555904Y-107218380D01*
X131555904Y-107218380D02*
X131555904Y-106551714D01*
X131555904Y-106742190D02*
X131603523Y-106646952D01*
X131651142Y-106599333D01*
X131746380Y-106551714D01*
X131841619Y-106551714D01*
X132603523Y-107218380D02*
X132603523Y-106694571D01*
X132555904Y-106599333D01*
X132460666Y-106551714D01*
X132270190Y-106551714D01*
X132174952Y-106599333D01*
X132603523Y-107170761D02*
X132508285Y-107218380D01*
X132270190Y-107218380D01*
X132174952Y-107170761D01*
X132127333Y-107075523D01*
X132127333Y-106980285D01*
X132174952Y-106885047D01*
X132270190Y-106837428D01*
X132508285Y-106837428D01*
X132603523Y-106789809D01*
X133508285Y-107218380D02*
X133508285Y-106218380D01*
X133508285Y-107170761D02*
X133413047Y-107218380D01*
X133222571Y-107218380D01*
X133127333Y-107170761D01*
X133079714Y-107123142D01*
X133032095Y-107027904D01*
X133032095Y-106742190D01*
X133079714Y-106646952D01*
X133127333Y-106599333D01*
X133222571Y-106551714D01*
X133413047Y-106551714D01*
X133508285Y-106599333D01*
X134365428Y-107170761D02*
X134270190Y-107218380D01*
X134079714Y-107218380D01*
X133984476Y-107170761D01*
X133936857Y-107075523D01*
X133936857Y-106694571D01*
X133984476Y-106599333D01*
X134079714Y-106551714D01*
X134270190Y-106551714D01*
X134365428Y-106599333D01*
X134413047Y-106694571D01*
X134413047Y-106789809D01*
X133936857Y-106885047D01*
X134841619Y-107218380D02*
X134841619Y-106551714D01*
X134841619Y-106742190D02*
X134889238Y-106646952D01*
X134936857Y-106599333D01*
X135032095Y-106551714D01*
X135127333Y-106551714D01*
D11*
X85397904Y-142977428D02*
X84407428Y-143348857D01*
X85397904Y-143720285D01*
X86016952Y-143348857D02*
X87007428Y-143348857D01*
X89050285Y-143163142D02*
X89236000Y-143225047D01*
X89297904Y-143286952D01*
X89359809Y-143410761D01*
X89359809Y-143596476D01*
X89297904Y-143720285D01*
X89236000Y-143782190D01*
X89112190Y-143844095D01*
X88616952Y-143844095D01*
X88616952Y-142544095D01*
X89050285Y-142544095D01*
X89174095Y-142606000D01*
X89236000Y-142667904D01*
X89297904Y-142791714D01*
X89297904Y-142915523D01*
X89236000Y-143039333D01*
X89174095Y-143101238D01*
X89050285Y-143163142D01*
X88616952Y-143163142D01*
X90102666Y-143844095D02*
X89978857Y-143782190D01*
X89916952Y-143720285D01*
X89855047Y-143596476D01*
X89855047Y-143225047D01*
X89916952Y-143101238D01*
X89978857Y-143039333D01*
X90102666Y-142977428D01*
X90288380Y-142977428D01*
X90412190Y-143039333D01*
X90474095Y-143101238D01*
X90536000Y-143225047D01*
X90536000Y-143596476D01*
X90474095Y-143720285D01*
X90412190Y-143782190D01*
X90288380Y-143844095D01*
X90102666Y-143844095D01*
X91650285Y-143844095D02*
X91650285Y-143163142D01*
X91588380Y-143039333D01*
X91464571Y-142977428D01*
X91216952Y-142977428D01*
X91093142Y-143039333D01*
X91650285Y-143782190D02*
X91526476Y-143844095D01*
X91216952Y-143844095D01*
X91093142Y-143782190D01*
X91031238Y-143658380D01*
X91031238Y-143534571D01*
X91093142Y-143410761D01*
X91216952Y-143348857D01*
X91526476Y-143348857D01*
X91650285Y-143286952D01*
X92269333Y-143844095D02*
X92269333Y-142977428D01*
X92269333Y-143225047D02*
X92331238Y-143101238D01*
X92393142Y-143039333D01*
X92516952Y-142977428D01*
X92640761Y-142977428D01*
X93631238Y-143844095D02*
X93631238Y-142544095D01*
X93631238Y-143782190D02*
X93507428Y-143844095D01*
X93259809Y-143844095D01*
X93136000Y-143782190D01*
X93074095Y-143720285D01*
X93012190Y-143596476D01*
X93012190Y-143225047D01*
X93074095Y-143101238D01*
X93136000Y-143039333D01*
X93259809Y-142977428D01*
X93507428Y-142977428D01*
X93631238Y-143039333D01*
X95240761Y-143844095D02*
X95240761Y-142544095D01*
X96788380Y-142482190D02*
X95674095Y-144153619D01*
X97469333Y-142544095D02*
X97716952Y-142544095D01*
X97840761Y-142606000D01*
X97964571Y-142729809D01*
X98026476Y-142977428D01*
X98026476Y-143410761D01*
X97964571Y-143658380D01*
X97840761Y-143782190D01*
X97716952Y-143844095D01*
X97469333Y-143844095D01*
X97345523Y-143782190D01*
X97221714Y-143658380D01*
X97159809Y-143410761D01*
X97159809Y-142977428D01*
X97221714Y-142729809D01*
X97345523Y-142606000D01*
X97469333Y-142544095D01*
X124563714Y-77664571D02*
X125492285Y-77664571D01*
X124992285Y-78236000D01*
X125206571Y-78236000D01*
X125349428Y-78307428D01*
X125420857Y-78378857D01*
X125492285Y-78521714D01*
X125492285Y-78878857D01*
X125420857Y-79021714D01*
X125349428Y-79093142D01*
X125206571Y-79164571D01*
X124778000Y-79164571D01*
X124635142Y-79093142D01*
X124563714Y-79021714D01*
X125920857Y-77664571D02*
X126420857Y-79164571D01*
X126920857Y-77664571D01*
X127278000Y-77664571D02*
X128206571Y-77664571D01*
X127706571Y-78236000D01*
X127920857Y-78236000D01*
X128063714Y-78307428D01*
X128135142Y-78378857D01*
X128206571Y-78521714D01*
X128206571Y-78878857D01*
X128135142Y-79021714D01*
X128063714Y-79093142D01*
X127920857Y-79164571D01*
X127492285Y-79164571D01*
X127349428Y-79093142D01*
X127278000Y-79021714D01*
X129992285Y-79164571D02*
X129992285Y-78164571D01*
X129992285Y-78450285D02*
X130063714Y-78307428D01*
X130135142Y-78236000D01*
X130278000Y-78164571D01*
X130420857Y-78164571D01*
X131492285Y-79093142D02*
X131349428Y-79164571D01*
X131063714Y-79164571D01*
X130920857Y-79093142D01*
X130849428Y-78950285D01*
X130849428Y-78378857D01*
X130920857Y-78236000D01*
X131063714Y-78164571D01*
X131349428Y-78164571D01*
X131492285Y-78236000D01*
X131563714Y-78378857D01*
X131563714Y-78521714D01*
X130849428Y-78664571D01*
X132849428Y-78164571D02*
X132849428Y-79378857D01*
X132778000Y-79521714D01*
X132706571Y-79593142D01*
X132563714Y-79664571D01*
X132349428Y-79664571D01*
X132206571Y-79593142D01*
X132849428Y-79093142D02*
X132706571Y-79164571D01*
X132420857Y-79164571D01*
X132278000Y-79093142D01*
X132206571Y-79021714D01*
X132135142Y-78878857D01*
X132135142Y-78450285D01*
X132206571Y-78307428D01*
X132278000Y-78236000D01*
X132420857Y-78164571D01*
X132706571Y-78164571D01*
X132849428Y-78236000D01*
X80149428Y-87824571D02*
X81078000Y-87824571D01*
X80578000Y-88396000D01*
X80792285Y-88396000D01*
X80935142Y-88467428D01*
X81006571Y-88538857D01*
X81078000Y-88681714D01*
X81078000Y-89038857D01*
X81006571Y-89181714D01*
X80935142Y-89253142D01*
X80792285Y-89324571D01*
X80363714Y-89324571D01*
X80220857Y-89253142D01*
X80149428Y-89181714D01*
X81649428Y-89253142D02*
X81863714Y-89324571D01*
X82220857Y-89324571D01*
X82363714Y-89253142D01*
X82435142Y-89181714D01*
X82506571Y-89038857D01*
X82506571Y-88896000D01*
X82435142Y-88753142D01*
X82363714Y-88681714D01*
X82220857Y-88610285D01*
X81935142Y-88538857D01*
X81792285Y-88467428D01*
X81720857Y-88396000D01*
X81649428Y-88253142D01*
X81649428Y-88110285D01*
X81720857Y-87967428D01*
X81792285Y-87896000D01*
X81935142Y-87824571D01*
X82292285Y-87824571D01*
X82506571Y-87896000D01*
X85006571Y-89324571D02*
X84292285Y-89324571D01*
X84292285Y-87824571D01*
X85506571Y-89324571D02*
X85506571Y-88324571D01*
X85506571Y-87824571D02*
X85435142Y-87896000D01*
X85506571Y-87967428D01*
X85578000Y-87896000D01*
X85506571Y-87824571D01*
X85506571Y-87967428D01*
X86220857Y-89324571D02*
X86220857Y-87824571D01*
X86792285Y-87824571D01*
X86935142Y-87896000D01*
X87006571Y-87967428D01*
X87078000Y-88110285D01*
X87078000Y-88324571D01*
X87006571Y-88467428D01*
X86935142Y-88538857D01*
X86792285Y-88610285D01*
X86220857Y-88610285D01*
X87935142Y-89324571D02*
X87792285Y-89253142D01*
X87720857Y-89181714D01*
X87649428Y-89038857D01*
X87649428Y-88610285D01*
X87720857Y-88467428D01*
X87792285Y-88396000D01*
X87935142Y-88324571D01*
X88149428Y-88324571D01*
X88292285Y-88396000D01*
X88363714Y-88467428D01*
X88435142Y-88610285D01*
X88435142Y-89038857D01*
X88363714Y-89181714D01*
X88292285Y-89253142D01*
X88149428Y-89324571D01*
X87935142Y-89324571D01*
D10*
X121960761Y-99528380D02*
X121960761Y-100337904D01*
X122008380Y-100433142D01*
X122055999Y-100480761D01*
X122151238Y-100528380D01*
X122341714Y-100528380D01*
X122436952Y-100480761D01*
X122484571Y-100433142D01*
X122532190Y-100337904D01*
X122532190Y-99528380D01*
X122960761Y-100480761D02*
X123103619Y-100528380D01*
X123341714Y-100528380D01*
X123436952Y-100480761D01*
X123484571Y-100433142D01*
X123532190Y-100337904D01*
X123532190Y-100242666D01*
X123484571Y-100147428D01*
X123436952Y-100099809D01*
X123341714Y-100052190D01*
X123151238Y-100004571D01*
X123055999Y-99956952D01*
X123008380Y-99909333D01*
X122960761Y-99814095D01*
X122960761Y-99718857D01*
X123008380Y-99623619D01*
X123055999Y-99576000D01*
X123151238Y-99528380D01*
X123389333Y-99528380D01*
X123532190Y-99576000D01*
X123913142Y-100480761D02*
X124055999Y-100528380D01*
X124294095Y-100528380D01*
X124389333Y-100480761D01*
X124436952Y-100433142D01*
X124484571Y-100337904D01*
X124484571Y-100242666D01*
X124436952Y-100147428D01*
X124389333Y-100099809D01*
X124294095Y-100052190D01*
X124103619Y-100004571D01*
X124008380Y-99956952D01*
X123960761Y-99909333D01*
X123913142Y-99814095D01*
X123913142Y-99718857D01*
X123960761Y-99623619D01*
X124008380Y-99576000D01*
X124103619Y-99528380D01*
X124341714Y-99528380D01*
X124484571Y-99576000D01*
X124770285Y-99528380D02*
X125341714Y-99528380D01*
X125055999Y-100528380D02*
X125055999Y-99528380D01*
X127008380Y-100528380D02*
X126675047Y-100052190D01*
X126436952Y-100528380D02*
X126436952Y-99528380D01*
X126817904Y-99528380D01*
X126913142Y-99576000D01*
X126960761Y-99623619D01*
X127008380Y-99718857D01*
X127008380Y-99861714D01*
X126960761Y-99956952D01*
X126913142Y-100004571D01*
X126817904Y-100052190D01*
X126436952Y-100052190D01*
X127579809Y-100528380D02*
X127484571Y-100480761D01*
X127436952Y-100433142D01*
X127389333Y-100337904D01*
X127389333Y-100052190D01*
X127436952Y-99956952D01*
X127484571Y-99909333D01*
X127579809Y-99861714D01*
X127722666Y-99861714D01*
X127817904Y-99909333D01*
X127865523Y-99956952D01*
X127913142Y-100052190D01*
X127913142Y-100337904D01*
X127865523Y-100433142D01*
X127817904Y-100480761D01*
X127722666Y-100528380D01*
X127579809Y-100528380D01*
X128770285Y-100480761D02*
X128675047Y-100528380D01*
X128484571Y-100528380D01*
X128389333Y-100480761D01*
X128341714Y-100433142D01*
X128294095Y-100337904D01*
X128294095Y-100052190D01*
X128341714Y-99956952D01*
X128389333Y-99909333D01*
X128484571Y-99861714D01*
X128675047Y-99861714D01*
X128770285Y-99909333D01*
X129198857Y-100528380D02*
X129198857Y-99528380D01*
X129294095Y-100147428D02*
X129579809Y-100528380D01*
X129579809Y-99861714D02*
X129198857Y-100242666D01*
X130389333Y-100480761D02*
X130294095Y-100528380D01*
X130103619Y-100528380D01*
X130008380Y-100480761D01*
X129960761Y-100385523D01*
X129960761Y-100004571D01*
X130008380Y-99909333D01*
X130103619Y-99861714D01*
X130294095Y-99861714D01*
X130389333Y-99909333D01*
X130436952Y-100004571D01*
X130436952Y-100099809D01*
X129960761Y-100195047D01*
X130722666Y-99861714D02*
X131103619Y-99861714D01*
X130865523Y-99528380D02*
X130865523Y-100385523D01*
X130913142Y-100480761D01*
X131008380Y-100528380D01*
X131103619Y-100528380D01*
X131436952Y-100528380D02*
X131436952Y-99861714D01*
X131436952Y-100052190D02*
X131484571Y-99956952D01*
X131532190Y-99909333D01*
X131627428Y-99861714D01*
X131722666Y-99861714D01*
X131960761Y-99861714D02*
X132198857Y-100528380D01*
X132436952Y-99861714D02*
X132198857Y-100528380D01*
X132103619Y-100766476D01*
X132055999Y-100814095D01*
X131960761Y-100861714D01*
X133532190Y-100242666D02*
X134008380Y-100242666D01*
X133436952Y-100528380D02*
X133770285Y-99528380D01*
X134103619Y-100528380D01*
X134341714Y-99861714D02*
X134579809Y-100528380D01*
X134817904Y-99861714D01*
X135198857Y-100528380D02*
X135198857Y-99861714D01*
X135198857Y-99528380D02*
X135151238Y-99576000D01*
X135198857Y-99623619D01*
X135246476Y-99576000D01*
X135198857Y-99528380D01*
X135198857Y-99623619D01*
X135817904Y-100528380D02*
X135722666Y-100480761D01*
X135675047Y-100433142D01*
X135627428Y-100337904D01*
X135627428Y-100052190D01*
X135675047Y-99956952D01*
X135722666Y-99909333D01*
X135817904Y-99861714D01*
X135960761Y-99861714D01*
X136056000Y-99909333D01*
X136103619Y-99956952D01*
X136151238Y-100052190D01*
X136151238Y-100337904D01*
X136103619Y-100433142D01*
X136056000Y-100480761D01*
X135960761Y-100528380D01*
X135817904Y-100528380D01*
X136579809Y-99861714D02*
X136579809Y-100528380D01*
X136579809Y-99956952D02*
X136627428Y-99909333D01*
X136722666Y-99861714D01*
X136865523Y-99861714D01*
X136960761Y-99909333D01*
X137008380Y-100004571D01*
X137008380Y-100528380D01*
X137484571Y-100528380D02*
X137484571Y-99861714D01*
X137484571Y-99528380D02*
X137436952Y-99576000D01*
X137484571Y-99623619D01*
X137532190Y-99576000D01*
X137484571Y-99528380D01*
X137484571Y-99623619D01*
X138389333Y-100480761D02*
X138294095Y-100528380D01*
X138103619Y-100528380D01*
X138008380Y-100480761D01*
X137960761Y-100433142D01*
X137913142Y-100337904D01*
X137913142Y-100052190D01*
X137960761Y-99956952D01*
X138008380Y-99909333D01*
X138103619Y-99861714D01*
X138294095Y-99861714D01*
X138389333Y-99909333D01*
X138770285Y-100480761D02*
X138865523Y-100528380D01*
X139056000Y-100528380D01*
X139151238Y-100480761D01*
X139198857Y-100385523D01*
X139198857Y-100337904D01*
X139151238Y-100242666D01*
X139056000Y-100195047D01*
X138913142Y-100195047D01*
X138817904Y-100147428D01*
X138770285Y-100052190D01*
X138770285Y-100004571D01*
X138817904Y-99909333D01*
X138913142Y-99861714D01*
X139056000Y-99861714D01*
X139151238Y-99909333D01*
X130373809Y-96226380D02*
X130992857Y-96226380D01*
X130659523Y-96607333D01*
X130802380Y-96607333D01*
X130897619Y-96654952D01*
X130945238Y-96702571D01*
X130992857Y-96797809D01*
X130992857Y-97035904D01*
X130945238Y-97131142D01*
X130897619Y-97178761D01*
X130802380Y-97226380D01*
X130516666Y-97226380D01*
X130421428Y-97178761D01*
X130373809Y-97131142D01*
X131278571Y-96226380D02*
X131611904Y-97226380D01*
X131945238Y-96226380D01*
X132183333Y-96226380D02*
X132802380Y-96226380D01*
X132469047Y-96607333D01*
X132611904Y-96607333D01*
X132707142Y-96654952D01*
X132754761Y-96702571D01*
X132802380Y-96797809D01*
X132802380Y-97035904D01*
X132754761Y-97131142D01*
X132707142Y-97178761D01*
X132611904Y-97226380D01*
X132326190Y-97226380D01*
X132230952Y-97178761D01*
X132183333Y-97131142D01*
X134469047Y-97226380D02*
X133992857Y-97226380D01*
X133992857Y-96226380D01*
X134802380Y-96702571D02*
X135135714Y-96702571D01*
X135278571Y-97226380D02*
X134802380Y-97226380D01*
X134802380Y-96226380D01*
X135278571Y-96226380D01*
X135707142Y-97226380D02*
X135707142Y-96226380D01*
X135945238Y-96226380D01*
X136088095Y-96274000D01*
X136183333Y-96369238D01*
X136230952Y-96464476D01*
X136278571Y-96654952D01*
X136278571Y-96797809D01*
X136230952Y-96988285D01*
X136183333Y-97083523D01*
X136088095Y-97178761D01*
X135945238Y-97226380D01*
X135707142Y-97226380D01*
D11*
X112093428Y-125408571D02*
X112093428Y-126408571D01*
X111450571Y-125408571D02*
X111450571Y-126194285D01*
X111522000Y-126337142D01*
X111664857Y-126408571D01*
X111879142Y-126408571D01*
X112022000Y-126337142D01*
X112093428Y-126265714D01*
X113664857Y-126265714D02*
X113593428Y-126337142D01*
X113379142Y-126408571D01*
X113236285Y-126408571D01*
X113022000Y-126337142D01*
X112879142Y-126194285D01*
X112807714Y-126051428D01*
X112736285Y-125765714D01*
X112736285Y-125551428D01*
X112807714Y-125265714D01*
X112879142Y-125122857D01*
X113022000Y-124980000D01*
X113236285Y-124908571D01*
X113379142Y-124908571D01*
X113593428Y-124980000D01*
X113664857Y-125051428D01*
X88165714Y-122665142D02*
X88237142Y-122736571D01*
X88308571Y-122950857D01*
X88308571Y-123093714D01*
X88237142Y-123308000D01*
X88094285Y-123450857D01*
X87951428Y-123522285D01*
X87665714Y-123593714D01*
X87451428Y-123593714D01*
X87165714Y-123522285D01*
X87022857Y-123450857D01*
X86880000Y-123308000D01*
X86808571Y-123093714D01*
X86808571Y-122950857D01*
X86880000Y-122736571D01*
X86951428Y-122665142D01*
X87880000Y-122093714D02*
X87880000Y-121379428D01*
X88308571Y-122236571D02*
X86808571Y-121736571D01*
X88308571Y-121236571D01*
X88308571Y-120736571D02*
X86808571Y-120736571D01*
X88308571Y-119879428D01*
X86808571Y-119879428D01*
X86808571Y-118236571D02*
X86808571Y-117379428D01*
X88308571Y-117808000D02*
X86808571Y-117808000D01*
X88308571Y-116879428D02*
X87308571Y-116879428D01*
X87594285Y-116879428D02*
X87451428Y-116808000D01*
X87380000Y-116736571D01*
X87308571Y-116593714D01*
X87308571Y-116450857D01*
X88308571Y-115308000D02*
X87522857Y-115308000D01*
X87380000Y-115379428D01*
X87308571Y-115522285D01*
X87308571Y-115808000D01*
X87380000Y-115950857D01*
X88237142Y-115308000D02*
X88308571Y-115450857D01*
X88308571Y-115808000D01*
X88237142Y-115950857D01*
X88094285Y-116022285D01*
X87951428Y-116022285D01*
X87808571Y-115950857D01*
X87737142Y-115808000D01*
X87737142Y-115450857D01*
X87665714Y-115308000D01*
X87308571Y-114593714D02*
X88308571Y-114593714D01*
X87451428Y-114593714D02*
X87380000Y-114522285D01*
X87308571Y-114379428D01*
X87308571Y-114165142D01*
X87380000Y-114022285D01*
X87522857Y-113950857D01*
X88308571Y-113950857D01*
X88237142Y-113308000D02*
X88308571Y-113165142D01*
X88308571Y-112879428D01*
X88237142Y-112736571D01*
X88094285Y-112665142D01*
X88022857Y-112665142D01*
X87880000Y-112736571D01*
X87808571Y-112879428D01*
X87808571Y-113093714D01*
X87737142Y-113236571D01*
X87594285Y-113308000D01*
X87522857Y-113308000D01*
X87380000Y-113236571D01*
X87308571Y-113093714D01*
X87308571Y-112879428D01*
X87380000Y-112736571D01*
X88237142Y-111379428D02*
X88308571Y-111522285D01*
X88308571Y-111808000D01*
X88237142Y-111950857D01*
X88165714Y-112022285D01*
X88022857Y-112093714D01*
X87594285Y-112093714D01*
X87451428Y-112022285D01*
X87380000Y-111950857D01*
X87308571Y-111808000D01*
X87308571Y-111522285D01*
X87380000Y-111379428D01*
X88308571Y-110736571D02*
X87308571Y-110736571D01*
X86808571Y-110736571D02*
X86880000Y-110808000D01*
X86951428Y-110736571D01*
X86880000Y-110665142D01*
X86808571Y-110736571D01*
X86951428Y-110736571D01*
X88237142Y-109450857D02*
X88308571Y-109593714D01*
X88308571Y-109879428D01*
X88237142Y-110022285D01*
X88094285Y-110093714D01*
X87522857Y-110093714D01*
X87380000Y-110022285D01*
X87308571Y-109879428D01*
X87308571Y-109593714D01*
X87380000Y-109450857D01*
X87522857Y-109379428D01*
X87665714Y-109379428D01*
X87808571Y-110093714D01*
X87308571Y-108879428D02*
X88308571Y-108522285D01*
X87308571Y-108165142D01*
X88237142Y-107022285D02*
X88308571Y-107165142D01*
X88308571Y-107450857D01*
X88237142Y-107593714D01*
X88094285Y-107665142D01*
X87522857Y-107665142D01*
X87380000Y-107593714D01*
X87308571Y-107450857D01*
X87308571Y-107165142D01*
X87380000Y-107022285D01*
X87522857Y-106950857D01*
X87665714Y-106950857D01*
X87808571Y-107665142D01*
X88308571Y-106308000D02*
X87308571Y-106308000D01*
X87594285Y-106308000D02*
X87451428Y-106236571D01*
X87380000Y-106165142D01*
X87308571Y-106022285D01*
X87308571Y-105879428D01*
D10*
X104243428Y-92924380D02*
X103767238Y-92924380D01*
X103719619Y-93400571D01*
X103767238Y-93352952D01*
X103862476Y-93305333D01*
X104100571Y-93305333D01*
X104195809Y-93352952D01*
X104243428Y-93400571D01*
X104291047Y-93495809D01*
X104291047Y-93733904D01*
X104243428Y-93829142D01*
X104195809Y-93876761D01*
X104100571Y-93924380D01*
X103862476Y-93924380D01*
X103767238Y-93876761D01*
X103719619Y-93829142D01*
X104576761Y-92924380D02*
X104910095Y-93924380D01*
X105243428Y-92924380D01*
X106814857Y-93924380D02*
X106338666Y-93924380D01*
X106338666Y-92924380D01*
X107148190Y-93400571D02*
X107481523Y-93400571D01*
X107624380Y-93924380D02*
X107148190Y-93924380D01*
X107148190Y-92924380D01*
X107624380Y-92924380D01*
X108052952Y-93924380D02*
X108052952Y-92924380D01*
X108291047Y-92924380D01*
X108433904Y-92972000D01*
X108529142Y-93067238D01*
X108576761Y-93162476D01*
X108624380Y-93352952D01*
X108624380Y-93495809D01*
X108576761Y-93686285D01*
X108529142Y-93781523D01*
X108433904Y-93876761D01*
X108291047Y-93924380D01*
X108052952Y-93924380D01*
X126032095Y-102560380D02*
X126032095Y-101560380D01*
X126413047Y-101560380D01*
X126508285Y-101608000D01*
X126555904Y-101655619D01*
X126603523Y-101750857D01*
X126603523Y-101893714D01*
X126555904Y-101988952D01*
X126508285Y-102036571D01*
X126413047Y-102084190D01*
X126032095Y-102084190D01*
X127032095Y-102560380D02*
X127032095Y-101560380D01*
X127270190Y-101560380D01*
X127413047Y-101608000D01*
X127508285Y-101703238D01*
X127555904Y-101798476D01*
X127603523Y-101988952D01*
X127603523Y-102131809D01*
X127555904Y-102322285D01*
X127508285Y-102417523D01*
X127413047Y-102512761D01*
X127270190Y-102560380D01*
X127032095Y-102560380D01*
X128365428Y-102036571D02*
X128508285Y-102084190D01*
X128555904Y-102131809D01*
X128603523Y-102227047D01*
X128603523Y-102369904D01*
X128555904Y-102465142D01*
X128508285Y-102512761D01*
X128413047Y-102560380D01*
X128032095Y-102560380D01*
X128032095Y-101560380D01*
X128365428Y-101560380D01*
X128460666Y-101608000D01*
X128508285Y-101655619D01*
X128555904Y-101750857D01*
X128555904Y-101846095D01*
X128508285Y-101941333D01*
X128460666Y-101988952D01*
X128365428Y-102036571D01*
X128032095Y-102036571D01*
X130365428Y-102560380D02*
X130032095Y-102084190D01*
X129794000Y-102560380D02*
X129794000Y-101560380D01*
X130174952Y-101560380D01*
X130270190Y-101608000D01*
X130317809Y-101655619D01*
X130365428Y-101750857D01*
X130365428Y-101893714D01*
X130317809Y-101988952D01*
X130270190Y-102036571D01*
X130174952Y-102084190D01*
X129794000Y-102084190D01*
X131174952Y-102512761D02*
X131079714Y-102560380D01*
X130889238Y-102560380D01*
X130794000Y-102512761D01*
X130746380Y-102417523D01*
X130746380Y-102036571D01*
X130794000Y-101941333D01*
X130889238Y-101893714D01*
X131079714Y-101893714D01*
X131174952Y-101941333D01*
X131222571Y-102036571D01*
X131222571Y-102131809D01*
X130746380Y-102227047D01*
X131555904Y-101893714D02*
X131794000Y-102560380D01*
X132032095Y-101893714D01*
X133127333Y-102274666D02*
X133603523Y-102274666D01*
X133032095Y-102560380D02*
X133365428Y-101560380D01*
X133698761Y-102560380D01*
D11*
X102259142Y-77410571D02*
X101544857Y-77410571D01*
X101473428Y-78124857D01*
X101544857Y-78053428D01*
X101687714Y-77982000D01*
X102044857Y-77982000D01*
X102187714Y-78053428D01*
X102259142Y-78124857D01*
X102330571Y-78267714D01*
X102330571Y-78624857D01*
X102259142Y-78767714D01*
X102187714Y-78839142D01*
X102044857Y-78910571D01*
X101687714Y-78910571D01*
X101544857Y-78839142D01*
X101473428Y-78767714D01*
X102759142Y-77410571D02*
X103259142Y-78910571D01*
X103759142Y-77410571D01*
X105402000Y-78910571D02*
X105402000Y-77910571D01*
X105402000Y-78196285D02*
X105473428Y-78053428D01*
X105544857Y-77982000D01*
X105687714Y-77910571D01*
X105830571Y-77910571D01*
X106902000Y-78839142D02*
X106759142Y-78910571D01*
X106473428Y-78910571D01*
X106330571Y-78839142D01*
X106259142Y-78696285D01*
X106259142Y-78124857D01*
X106330571Y-77982000D01*
X106473428Y-77910571D01*
X106759142Y-77910571D01*
X106902000Y-77982000D01*
X106973428Y-78124857D01*
X106973428Y-78267714D01*
X106259142Y-78410571D01*
X108259142Y-77910571D02*
X108259142Y-79124857D01*
X108187714Y-79267714D01*
X108116285Y-79339142D01*
X107973428Y-79410571D01*
X107759142Y-79410571D01*
X107616285Y-79339142D01*
X108259142Y-78839142D02*
X108116285Y-78910571D01*
X107830571Y-78910571D01*
X107687714Y-78839142D01*
X107616285Y-78767714D01*
X107544857Y-78624857D01*
X107544857Y-78196285D01*
X107616285Y-78053428D01*
X107687714Y-77982000D01*
X107830571Y-77910571D01*
X108116285Y-77910571D01*
X108259142Y-77982000D01*
D10*
X106331142Y-107402380D02*
X106664476Y-108402380D01*
X106997809Y-107402380D01*
X107093047Y-108497619D02*
X107854952Y-108497619D01*
X108093047Y-108402380D02*
X108093047Y-107735714D01*
X108093047Y-107402380D02*
X108045428Y-107450000D01*
X108093047Y-107497619D01*
X108140666Y-107450000D01*
X108093047Y-107402380D01*
X108093047Y-107497619D01*
X108569238Y-107735714D02*
X108569238Y-108402380D01*
X108569238Y-107830952D02*
X108616857Y-107783333D01*
X108712095Y-107735714D01*
X108854952Y-107735714D01*
X108950190Y-107783333D01*
X108997809Y-107878571D01*
X108997809Y-108402380D01*
X110712095Y-108402380D02*
X110235904Y-108402380D01*
X110235904Y-107402380D01*
X111045428Y-107878571D02*
X111378761Y-107878571D01*
X111521619Y-108402380D02*
X111045428Y-108402380D01*
X111045428Y-107402380D01*
X111521619Y-107402380D01*
X111950190Y-108402380D02*
X111950190Y-107402380D01*
X112188285Y-107402380D01*
X112331142Y-107450000D01*
X112426380Y-107545238D01*
X112474000Y-107640476D01*
X112521619Y-107830952D01*
X112521619Y-107973809D01*
X112474000Y-108164285D01*
X112426380Y-108259523D01*
X112331142Y-108354761D01*
X112188285Y-108402380D01*
X111950190Y-108402380D01*
X142851142Y-121847523D02*
X142898761Y-121895142D01*
X142946380Y-122038000D01*
X142946380Y-122133238D01*
X142898761Y-122276095D01*
X142803523Y-122371333D01*
X142708285Y-122418952D01*
X142517809Y-122466571D01*
X142374952Y-122466571D01*
X142184476Y-122418952D01*
X142089238Y-122371333D01*
X141994000Y-122276095D01*
X141946380Y-122133238D01*
X141946380Y-122038000D01*
X141994000Y-121895142D01*
X142041619Y-121847523D01*
X142946380Y-120990380D02*
X142422571Y-120990380D01*
X142327333Y-121038000D01*
X142279714Y-121133238D01*
X142279714Y-121323714D01*
X142327333Y-121418952D01*
X142898761Y-120990380D02*
X142946380Y-121085619D01*
X142946380Y-121323714D01*
X142898761Y-121418952D01*
X142803523Y-121466571D01*
X142708285Y-121466571D01*
X142613047Y-121418952D01*
X142565428Y-121323714D01*
X142565428Y-121085619D01*
X142517809Y-120990380D01*
X142279714Y-120514190D02*
X143279714Y-120514190D01*
X142327333Y-120514190D02*
X142279714Y-120418952D01*
X142279714Y-120228476D01*
X142327333Y-120133238D01*
X142374952Y-120085619D01*
X142470190Y-120038000D01*
X142755904Y-120038000D01*
X142851142Y-120085619D01*
X142898761Y-120133238D01*
X142946380Y-120228476D01*
X142946380Y-120418952D01*
X142898761Y-120514190D01*
X142898761Y-119657047D02*
X142946380Y-119561809D01*
X142946380Y-119371333D01*
X142898761Y-119276095D01*
X142803523Y-119228476D01*
X142755904Y-119228476D01*
X142660666Y-119276095D01*
X142613047Y-119371333D01*
X142613047Y-119514190D01*
X142565428Y-119609428D01*
X142470190Y-119657047D01*
X142422571Y-119657047D01*
X142327333Y-119609428D01*
X142279714Y-119514190D01*
X142279714Y-119371333D01*
X142327333Y-119276095D01*
X142898761Y-118752285D02*
X142946380Y-118752285D01*
X143041619Y-118799904D01*
X143089238Y-118847523D01*
X142946380Y-117561809D02*
X141946380Y-117561809D01*
X141946380Y-117323714D01*
X141994000Y-117180857D01*
X142089238Y-117085619D01*
X142184476Y-117038000D01*
X142374952Y-116990380D01*
X142517809Y-116990380D01*
X142708285Y-117038000D01*
X142803523Y-117085619D01*
X142898761Y-117180857D01*
X142946380Y-117323714D01*
X142946380Y-117561809D01*
X142946380Y-116561809D02*
X142279714Y-116561809D01*
X141946380Y-116561809D02*
X141994000Y-116609428D01*
X142041619Y-116561809D01*
X141994000Y-116514190D01*
X141946380Y-116561809D01*
X142041619Y-116561809D01*
X142946380Y-115942761D02*
X142898761Y-116038000D01*
X142851142Y-116085619D01*
X142755904Y-116133238D01*
X142470190Y-116133238D01*
X142374952Y-116085619D01*
X142327333Y-116038000D01*
X142279714Y-115942761D01*
X142279714Y-115799904D01*
X142327333Y-115704666D01*
X142374952Y-115657047D01*
X142470190Y-115609428D01*
X142755904Y-115609428D01*
X142851142Y-115657047D01*
X142898761Y-115704666D01*
X142946380Y-115799904D01*
X142946380Y-115942761D01*
X142946380Y-114752285D02*
X141946380Y-114752285D01*
X142898761Y-114752285D02*
X142946380Y-114847523D01*
X142946380Y-115038000D01*
X142898761Y-115133238D01*
X142851142Y-115180857D01*
X142755904Y-115228476D01*
X142470190Y-115228476D01*
X142374952Y-115180857D01*
X142327333Y-115133238D01*
X142279714Y-115038000D01*
X142279714Y-114847523D01*
X142327333Y-114752285D01*
X142898761Y-113895142D02*
X142946380Y-113990380D01*
X142946380Y-114180857D01*
X142898761Y-114276095D01*
X142803523Y-114323714D01*
X142422571Y-114323714D01*
X142327333Y-114276095D01*
X142279714Y-114180857D01*
X142279714Y-113990380D01*
X142327333Y-113895142D01*
X142422571Y-113847523D01*
X142517809Y-113847523D01*
X142613047Y-114323714D01*
X142898761Y-113466571D02*
X142946380Y-113371333D01*
X142946380Y-113180857D01*
X142898761Y-113085619D01*
X142803523Y-113038000D01*
X142755904Y-113038000D01*
X142660666Y-113085619D01*
X142613047Y-113180857D01*
X142613047Y-113323714D01*
X142565428Y-113418952D01*
X142470190Y-113466571D01*
X142422571Y-113466571D01*
X142327333Y-113418952D01*
X142279714Y-113323714D01*
X142279714Y-113180857D01*
X142327333Y-113085619D01*
X142946380Y-111418952D02*
X142422571Y-111418952D01*
X142327333Y-111466571D01*
X142279714Y-111561809D01*
X142279714Y-111752285D01*
X142327333Y-111847523D01*
X142898761Y-111418952D02*
X142946380Y-111514190D01*
X142946380Y-111752285D01*
X142898761Y-111847523D01*
X142803523Y-111895142D01*
X142708285Y-111895142D01*
X142613047Y-111847523D01*
X142565428Y-111752285D01*
X142565428Y-111514190D01*
X142517809Y-111418952D01*
X142279714Y-110942761D02*
X142946380Y-110942761D01*
X142374952Y-110942761D02*
X142327333Y-110895142D01*
X142279714Y-110799904D01*
X142279714Y-110657047D01*
X142327333Y-110561809D01*
X142422571Y-110514190D01*
X142946380Y-110514190D01*
X142946380Y-109609428D02*
X141946380Y-109609428D01*
X142898761Y-109609428D02*
X142946380Y-109704666D01*
X142946380Y-109895142D01*
X142898761Y-109990380D01*
X142851142Y-110038000D01*
X142755904Y-110085619D01*
X142470190Y-110085619D01*
X142374952Y-110038000D01*
X142327333Y-109990380D01*
X142279714Y-109895142D01*
X142279714Y-109704666D01*
X142327333Y-109609428D01*
X142946380Y-108371333D02*
X141946380Y-108371333D01*
X142422571Y-108371333D02*
X142422571Y-107799904D01*
X142946380Y-107799904D02*
X141946380Y-107799904D01*
X142946380Y-107180857D02*
X142898761Y-107276095D01*
X142851142Y-107323714D01*
X142755904Y-107371333D01*
X142470190Y-107371333D01*
X142374952Y-107323714D01*
X142327333Y-107276095D01*
X142279714Y-107180857D01*
X142279714Y-107038000D01*
X142327333Y-106942761D01*
X142374952Y-106895142D01*
X142470190Y-106847523D01*
X142755904Y-106847523D01*
X142851142Y-106895142D01*
X142898761Y-106942761D01*
X142946380Y-107038000D01*
X142946380Y-107180857D01*
X142279714Y-106418952D02*
X143279714Y-106418952D01*
X142327333Y-106418952D02*
X142279714Y-106323714D01*
X142279714Y-106133238D01*
X142327333Y-106038000D01*
X142374952Y-105990380D01*
X142470190Y-105942761D01*
X142755904Y-105942761D01*
X142851142Y-105990380D01*
X142898761Y-106038000D01*
X142946380Y-106133238D01*
X142946380Y-106323714D01*
X142898761Y-106418952D01*
X142898761Y-105133238D02*
X142946380Y-105228476D01*
X142946380Y-105418952D01*
X142898761Y-105514190D01*
X142803523Y-105561809D01*
X142422571Y-105561809D01*
X142327333Y-105514190D01*
X142279714Y-105418952D01*
X142279714Y-105228476D01*
X142327333Y-105133238D01*
X142422571Y-105085619D01*
X142517809Y-105085619D01*
X142613047Y-105561809D01*
X142851142Y-104657047D02*
X142898761Y-104609428D01*
X142946380Y-104657047D01*
X142898761Y-104704666D01*
X142851142Y-104657047D01*
X142946380Y-104657047D01*
D11*
X129675714Y-134973142D02*
X129890000Y-135044571D01*
X130247142Y-135044571D01*
X130390000Y-134973142D01*
X130461428Y-134901714D01*
X130532857Y-134758857D01*
X130532857Y-134616000D01*
X130461428Y-134473142D01*
X130390000Y-134401714D01*
X130247142Y-134330285D01*
X129961428Y-134258857D01*
X129818571Y-134187428D01*
X129747142Y-134116000D01*
X129675714Y-133973142D01*
X129675714Y-133830285D01*
X129747142Y-133687428D01*
X129818571Y-133616000D01*
X129961428Y-133544571D01*
X130318571Y-133544571D01*
X130532857Y-133616000D01*
X130961428Y-133544571D02*
X131818571Y-133544571D01*
X131390000Y-135044571D02*
X131390000Y-133544571D01*
X132318571Y-135044571D02*
X132318571Y-133544571D01*
X132818571Y-134616000D01*
X133318571Y-133544571D01*
X133318571Y-135044571D01*
X135175714Y-135044571D02*
X135175714Y-133544571D01*
X135818571Y-135044571D02*
X135818571Y-134258857D01*
X135747142Y-134116000D01*
X135604285Y-134044571D01*
X135390000Y-134044571D01*
X135247142Y-134116000D01*
X135175714Y-134187428D01*
X137104285Y-134973142D02*
X136961428Y-135044571D01*
X136675714Y-135044571D01*
X136532857Y-134973142D01*
X136461428Y-134830285D01*
X136461428Y-134258857D01*
X136532857Y-134116000D01*
X136675714Y-134044571D01*
X136961428Y-134044571D01*
X137104285Y-134116000D01*
X137175714Y-134258857D01*
X137175714Y-134401714D01*
X136461428Y-134544571D01*
X138461428Y-135044571D02*
X138461428Y-134258857D01*
X138390000Y-134116000D01*
X138247142Y-134044571D01*
X137961428Y-134044571D01*
X137818571Y-134116000D01*
X138461428Y-134973142D02*
X138318571Y-135044571D01*
X137961428Y-135044571D01*
X137818571Y-134973142D01*
X137747142Y-134830285D01*
X137747142Y-134687428D01*
X137818571Y-134544571D01*
X137961428Y-134473142D01*
X138318571Y-134473142D01*
X138461428Y-134401714D01*
X139818571Y-135044571D02*
X139818571Y-133544571D01*
X139818571Y-134973142D02*
X139675714Y-135044571D01*
X139390000Y-135044571D01*
X139247142Y-134973142D01*
X139175714Y-134901714D01*
X139104285Y-134758857D01*
X139104285Y-134330285D01*
X139175714Y-134187428D01*
X139247142Y-134116000D01*
X139390000Y-134044571D01*
X139675714Y-134044571D01*
X139818571Y-134116000D01*
X141104285Y-134973142D02*
X140961428Y-135044571D01*
X140675714Y-135044571D01*
X140532857Y-134973142D01*
X140461428Y-134830285D01*
X140461428Y-134258857D01*
X140532857Y-134116000D01*
X140675714Y-134044571D01*
X140961428Y-134044571D01*
X141104285Y-134116000D01*
X141175714Y-134258857D01*
X141175714Y-134401714D01*
X140461428Y-134544571D01*
X141818571Y-135044571D02*
X141818571Y-134044571D01*
X141818571Y-134330285D02*
X141890000Y-134187428D01*
X141961428Y-134116000D01*
X142104285Y-134044571D01*
X142247142Y-134044571D01*
D10*
%TO.C,C105*%
X136880952Y-92897142D02*
X136833333Y-92944761D01*
X136690476Y-92992380D01*
X136595238Y-92992380D01*
X136452380Y-92944761D01*
X136357142Y-92849523D01*
X136309523Y-92754285D01*
X136261904Y-92563809D01*
X136261904Y-92420952D01*
X136309523Y-92230476D01*
X136357142Y-92135238D01*
X136452380Y-92040000D01*
X136595238Y-91992380D01*
X136690476Y-91992380D01*
X136833333Y-92040000D01*
X136880952Y-92087619D01*
X137833333Y-92992380D02*
X137261904Y-92992380D01*
X137547619Y-92992380D02*
X137547619Y-91992380D01*
X137452380Y-92135238D01*
X137357142Y-92230476D01*
X137261904Y-92278095D01*
X138452380Y-91992380D02*
X138547619Y-91992380D01*
X138642857Y-92040000D01*
X138690476Y-92087619D01*
X138738095Y-92182857D01*
X138785714Y-92373333D01*
X138785714Y-92611428D01*
X138738095Y-92801904D01*
X138690476Y-92897142D01*
X138642857Y-92944761D01*
X138547619Y-92992380D01*
X138452380Y-92992380D01*
X138357142Y-92944761D01*
X138309523Y-92897142D01*
X138261904Y-92801904D01*
X138214285Y-92611428D01*
X138214285Y-92373333D01*
X138261904Y-92182857D01*
X138309523Y-92087619D01*
X138357142Y-92040000D01*
X138452380Y-91992380D01*
X139690476Y-91992380D02*
X139214285Y-91992380D01*
X139166666Y-92468571D01*
X139214285Y-92420952D01*
X139309523Y-92373333D01*
X139547619Y-92373333D01*
X139642857Y-92420952D01*
X139690476Y-92468571D01*
X139738095Y-92563809D01*
X139738095Y-92801904D01*
X139690476Y-92897142D01*
X139642857Y-92944761D01*
X139547619Y-92992380D01*
X139309523Y-92992380D01*
X139214285Y-92944761D01*
X139166666Y-92897142D01*
%TO.C,U101*%
X125219514Y-80297380D02*
X125219514Y-81106904D01*
X125267133Y-81202142D01*
X125314752Y-81249761D01*
X125409990Y-81297380D01*
X125600466Y-81297380D01*
X125695704Y-81249761D01*
X125743323Y-81202142D01*
X125790942Y-81106904D01*
X125790942Y-80297380D01*
X126790942Y-81297380D02*
X126219514Y-81297380D01*
X126505228Y-81297380D02*
X126505228Y-80297380D01*
X126409990Y-80440238D01*
X126314752Y-80535476D01*
X126219514Y-80583095D01*
X127409990Y-80297380D02*
X127505228Y-80297380D01*
X127600466Y-80345000D01*
X127648085Y-80392619D01*
X127695704Y-80487857D01*
X127743323Y-80678333D01*
X127743323Y-80916428D01*
X127695704Y-81106904D01*
X127648085Y-81202142D01*
X127600466Y-81249761D01*
X127505228Y-81297380D01*
X127409990Y-81297380D01*
X127314752Y-81249761D01*
X127267133Y-81202142D01*
X127219514Y-81106904D01*
X127171895Y-80916428D01*
X127171895Y-80678333D01*
X127219514Y-80487857D01*
X127267133Y-80392619D01*
X127314752Y-80345000D01*
X127409990Y-80297380D01*
X128695704Y-81297380D02*
X128124276Y-81297380D01*
X128409990Y-81297380D02*
X128409990Y-80297380D01*
X128314752Y-80440238D01*
X128219514Y-80535476D01*
X128124276Y-80583095D01*
%TO.C,U104*%
X127635714Y-118602380D02*
X127635714Y-119411904D01*
X127683333Y-119507142D01*
X127730952Y-119554761D01*
X127826190Y-119602380D01*
X128016666Y-119602380D01*
X128111904Y-119554761D01*
X128159523Y-119507142D01*
X128207142Y-119411904D01*
X128207142Y-118602380D01*
X129207142Y-119602380D02*
X128635714Y-119602380D01*
X128921428Y-119602380D02*
X128921428Y-118602380D01*
X128826190Y-118745238D01*
X128730952Y-118840476D01*
X128635714Y-118888095D01*
X129826190Y-118602380D02*
X129921428Y-118602380D01*
X130016666Y-118650000D01*
X130064285Y-118697619D01*
X130111904Y-118792857D01*
X130159523Y-118983333D01*
X130159523Y-119221428D01*
X130111904Y-119411904D01*
X130064285Y-119507142D01*
X130016666Y-119554761D01*
X129921428Y-119602380D01*
X129826190Y-119602380D01*
X129730952Y-119554761D01*
X129683333Y-119507142D01*
X129635714Y-119411904D01*
X129588095Y-119221428D01*
X129588095Y-118983333D01*
X129635714Y-118792857D01*
X129683333Y-118697619D01*
X129730952Y-118650000D01*
X129826190Y-118602380D01*
X131016666Y-118935714D02*
X131016666Y-119602380D01*
X130778571Y-118554761D02*
X130540476Y-119269047D01*
X131159523Y-119269047D01*
%TO.C,C116*%
X111677142Y-142119047D02*
X111724761Y-142166666D01*
X111772380Y-142309523D01*
X111772380Y-142404761D01*
X111724761Y-142547619D01*
X111629523Y-142642857D01*
X111534285Y-142690476D01*
X111343809Y-142738095D01*
X111200952Y-142738095D01*
X111010476Y-142690476D01*
X110915238Y-142642857D01*
X110820000Y-142547619D01*
X110772380Y-142404761D01*
X110772380Y-142309523D01*
X110820000Y-142166666D01*
X110867619Y-142119047D01*
X111772380Y-141166666D02*
X111772380Y-141738095D01*
X111772380Y-141452380D02*
X110772380Y-141452380D01*
X110915238Y-141547619D01*
X111010476Y-141642857D01*
X111058095Y-141738095D01*
X111772380Y-140214285D02*
X111772380Y-140785714D01*
X111772380Y-140500000D02*
X110772380Y-140500000D01*
X110915238Y-140595238D01*
X111010476Y-140690476D01*
X111058095Y-140785714D01*
X110772380Y-139357142D02*
X110772380Y-139547619D01*
X110820000Y-139642857D01*
X110867619Y-139690476D01*
X111010476Y-139785714D01*
X111200952Y-139833333D01*
X111581904Y-139833333D01*
X111677142Y-139785714D01*
X111724761Y-139738095D01*
X111772380Y-139642857D01*
X111772380Y-139452380D01*
X111724761Y-139357142D01*
X111677142Y-139309523D01*
X111581904Y-139261904D01*
X111343809Y-139261904D01*
X111248571Y-139309523D01*
X111200952Y-139357142D01*
X111153333Y-139452380D01*
X111153333Y-139642857D01*
X111200952Y-139738095D01*
X111248571Y-139785714D01*
X111343809Y-139833333D01*
%TO.C,J102*%
X78731785Y-132305380D02*
X78731785Y-133019666D01*
X78684166Y-133162523D01*
X78588928Y-133257761D01*
X78446071Y-133305380D01*
X78350833Y-133305380D01*
X79731785Y-133305380D02*
X79160357Y-133305380D01*
X79446071Y-133305380D02*
X79446071Y-132305380D01*
X79350833Y-132448238D01*
X79255595Y-132543476D01*
X79160357Y-132591095D01*
X80350833Y-132305380D02*
X80446071Y-132305380D01*
X80541309Y-132353000D01*
X80588928Y-132400619D01*
X80636547Y-132495857D01*
X80684166Y-132686333D01*
X80684166Y-132924428D01*
X80636547Y-133114904D01*
X80588928Y-133210142D01*
X80541309Y-133257761D01*
X80446071Y-133305380D01*
X80350833Y-133305380D01*
X80255595Y-133257761D01*
X80207976Y-133210142D01*
X80160357Y-133114904D01*
X80112738Y-132924428D01*
X80112738Y-132686333D01*
X80160357Y-132495857D01*
X80207976Y-132400619D01*
X80255595Y-132353000D01*
X80350833Y-132305380D01*
X81065119Y-132400619D02*
X81112738Y-132353000D01*
X81207976Y-132305380D01*
X81446071Y-132305380D01*
X81541309Y-132353000D01*
X81588928Y-132400619D01*
X81636547Y-132495857D01*
X81636547Y-132591095D01*
X81588928Y-132733952D01*
X81017500Y-133305380D01*
X81636547Y-133305380D01*
%TO.C,L101*%
X104950952Y-98282380D02*
X104474761Y-98282380D01*
X104474761Y-97282380D01*
X105808095Y-98282380D02*
X105236666Y-98282380D01*
X105522380Y-98282380D02*
X105522380Y-97282380D01*
X105427142Y-97425238D01*
X105331904Y-97520476D01*
X105236666Y-97568095D01*
X106427142Y-97282380D02*
X106522380Y-97282380D01*
X106617619Y-97330000D01*
X106665238Y-97377619D01*
X106712857Y-97472857D01*
X106760476Y-97663333D01*
X106760476Y-97901428D01*
X106712857Y-98091904D01*
X106665238Y-98187142D01*
X106617619Y-98234761D01*
X106522380Y-98282380D01*
X106427142Y-98282380D01*
X106331904Y-98234761D01*
X106284285Y-98187142D01*
X106236666Y-98091904D01*
X106189047Y-97901428D01*
X106189047Y-97663333D01*
X106236666Y-97472857D01*
X106284285Y-97377619D01*
X106331904Y-97330000D01*
X106427142Y-97282380D01*
X107712857Y-98282380D02*
X107141428Y-98282380D01*
X107427142Y-98282380D02*
X107427142Y-97282380D01*
X107331904Y-97425238D01*
X107236666Y-97520476D01*
X107141428Y-97568095D01*
%TO.C,R107*%
X101272380Y-116119047D02*
X100796190Y-116452380D01*
X101272380Y-116690476D02*
X100272380Y-116690476D01*
X100272380Y-116309523D01*
X100320000Y-116214285D01*
X100367619Y-116166666D01*
X100462857Y-116119047D01*
X100605714Y-116119047D01*
X100700952Y-116166666D01*
X100748571Y-116214285D01*
X100796190Y-116309523D01*
X100796190Y-116690476D01*
X101272380Y-115166666D02*
X101272380Y-115738095D01*
X101272380Y-115452380D02*
X100272380Y-115452380D01*
X100415238Y-115547619D01*
X100510476Y-115642857D01*
X100558095Y-115738095D01*
X100272380Y-114547619D02*
X100272380Y-114452380D01*
X100320000Y-114357142D01*
X100367619Y-114309523D01*
X100462857Y-114261904D01*
X100653333Y-114214285D01*
X100891428Y-114214285D01*
X101081904Y-114261904D01*
X101177142Y-114309523D01*
X101224761Y-114357142D01*
X101272380Y-114452380D01*
X101272380Y-114547619D01*
X101224761Y-114642857D01*
X101177142Y-114690476D01*
X101081904Y-114738095D01*
X100891428Y-114785714D01*
X100653333Y-114785714D01*
X100462857Y-114738095D01*
X100367619Y-114690476D01*
X100320000Y-114642857D01*
X100272380Y-114547619D01*
X100272380Y-113880952D02*
X100272380Y-113214285D01*
X101272380Y-113642857D01*
%TO.C,D101*%
X92289523Y-101982380D02*
X92289523Y-100982380D01*
X92527619Y-100982380D01*
X92670476Y-101030000D01*
X92765714Y-101125238D01*
X92813333Y-101220476D01*
X92860952Y-101410952D01*
X92860952Y-101553809D01*
X92813333Y-101744285D01*
X92765714Y-101839523D01*
X92670476Y-101934761D01*
X92527619Y-101982380D01*
X92289523Y-101982380D01*
X93813333Y-101982380D02*
X93241904Y-101982380D01*
X93527619Y-101982380D02*
X93527619Y-100982380D01*
X93432380Y-101125238D01*
X93337142Y-101220476D01*
X93241904Y-101268095D01*
X94432380Y-100982380D02*
X94527619Y-100982380D01*
X94622857Y-101030000D01*
X94670476Y-101077619D01*
X94718095Y-101172857D01*
X94765714Y-101363333D01*
X94765714Y-101601428D01*
X94718095Y-101791904D01*
X94670476Y-101887142D01*
X94622857Y-101934761D01*
X94527619Y-101982380D01*
X94432380Y-101982380D01*
X94337142Y-101934761D01*
X94289523Y-101887142D01*
X94241904Y-101791904D01*
X94194285Y-101601428D01*
X94194285Y-101363333D01*
X94241904Y-101172857D01*
X94289523Y-101077619D01*
X94337142Y-101030000D01*
X94432380Y-100982380D01*
X95718095Y-101982380D02*
X95146666Y-101982380D01*
X95432380Y-101982380D02*
X95432380Y-100982380D01*
X95337142Y-101125238D01*
X95241904Y-101220476D01*
X95146666Y-101268095D01*
X98798095Y-101612380D02*
X98798095Y-100612380D01*
X99369523Y-101612380D02*
X98940952Y-101040952D01*
X99369523Y-100612380D02*
X98798095Y-101183809D01*
%TO.C,D102*%
X103354380Y-108624476D02*
X102354380Y-108624476D01*
X102354380Y-108386380D01*
X102402000Y-108243523D01*
X102497238Y-108148285D01*
X102592476Y-108100666D01*
X102782952Y-108053047D01*
X102925809Y-108053047D01*
X103116285Y-108100666D01*
X103211523Y-108148285D01*
X103306761Y-108243523D01*
X103354380Y-108386380D01*
X103354380Y-108624476D01*
X103354380Y-107100666D02*
X103354380Y-107672095D01*
X103354380Y-107386380D02*
X102354380Y-107386380D01*
X102497238Y-107481619D01*
X102592476Y-107576857D01*
X102640095Y-107672095D01*
X102354380Y-106481619D02*
X102354380Y-106386380D01*
X102402000Y-106291142D01*
X102449619Y-106243523D01*
X102544857Y-106195904D01*
X102735333Y-106148285D01*
X102973428Y-106148285D01*
X103163904Y-106195904D01*
X103259142Y-106243523D01*
X103306761Y-106291142D01*
X103354380Y-106386380D01*
X103354380Y-106481619D01*
X103306761Y-106576857D01*
X103259142Y-106624476D01*
X103163904Y-106672095D01*
X102973428Y-106719714D01*
X102735333Y-106719714D01*
X102544857Y-106672095D01*
X102449619Y-106624476D01*
X102402000Y-106576857D01*
X102354380Y-106481619D01*
X102449619Y-105767333D02*
X102402000Y-105719714D01*
X102354380Y-105624476D01*
X102354380Y-105386380D01*
X102402000Y-105291142D01*
X102449619Y-105243523D01*
X102544857Y-105195904D01*
X102640095Y-105195904D01*
X102782952Y-105243523D01*
X103354380Y-105814952D01*
X103354380Y-105195904D01*
%TO.C,*%
%TO.C,C112*%
X103677142Y-142119047D02*
X103724761Y-142166666D01*
X103772380Y-142309523D01*
X103772380Y-142404761D01*
X103724761Y-142547619D01*
X103629523Y-142642857D01*
X103534285Y-142690476D01*
X103343809Y-142738095D01*
X103200952Y-142738095D01*
X103010476Y-142690476D01*
X102915238Y-142642857D01*
X102820000Y-142547619D01*
X102772380Y-142404761D01*
X102772380Y-142309523D01*
X102820000Y-142166666D01*
X102867619Y-142119047D01*
X103772380Y-141166666D02*
X103772380Y-141738095D01*
X103772380Y-141452380D02*
X102772380Y-141452380D01*
X102915238Y-141547619D01*
X103010476Y-141642857D01*
X103058095Y-141738095D01*
X103772380Y-140214285D02*
X103772380Y-140785714D01*
X103772380Y-140500000D02*
X102772380Y-140500000D01*
X102915238Y-140595238D01*
X103010476Y-140690476D01*
X103058095Y-140785714D01*
X102867619Y-139833333D02*
X102820000Y-139785714D01*
X102772380Y-139690476D01*
X102772380Y-139452380D01*
X102820000Y-139357142D01*
X102867619Y-139309523D01*
X102962857Y-139261904D01*
X103058095Y-139261904D01*
X103200952Y-139309523D01*
X103772380Y-139880952D01*
X103772380Y-139261904D01*
%TO.C,R108*%
X105880952Y-122752380D02*
X105547619Y-122276190D01*
X105309523Y-122752380D02*
X105309523Y-121752380D01*
X105690476Y-121752380D01*
X105785714Y-121800000D01*
X105833333Y-121847619D01*
X105880952Y-121942857D01*
X105880952Y-122085714D01*
X105833333Y-122180952D01*
X105785714Y-122228571D01*
X105690476Y-122276190D01*
X105309523Y-122276190D01*
X106833333Y-122752380D02*
X106261904Y-122752380D01*
X106547619Y-122752380D02*
X106547619Y-121752380D01*
X106452380Y-121895238D01*
X106357142Y-121990476D01*
X106261904Y-122038095D01*
X107452380Y-121752380D02*
X107547619Y-121752380D01*
X107642857Y-121800000D01*
X107690476Y-121847619D01*
X107738095Y-121942857D01*
X107785714Y-122133333D01*
X107785714Y-122371428D01*
X107738095Y-122561904D01*
X107690476Y-122657142D01*
X107642857Y-122704761D01*
X107547619Y-122752380D01*
X107452380Y-122752380D01*
X107357142Y-122704761D01*
X107309523Y-122657142D01*
X107261904Y-122561904D01*
X107214285Y-122371428D01*
X107214285Y-122133333D01*
X107261904Y-121942857D01*
X107309523Y-121847619D01*
X107357142Y-121800000D01*
X107452380Y-121752380D01*
X108357142Y-122180952D02*
X108261904Y-122133333D01*
X108214285Y-122085714D01*
X108166666Y-121990476D01*
X108166666Y-121942857D01*
X108214285Y-121847619D01*
X108261904Y-121800000D01*
X108357142Y-121752380D01*
X108547619Y-121752380D01*
X108642857Y-121800000D01*
X108690476Y-121847619D01*
X108738095Y-121942857D01*
X108738095Y-121990476D01*
X108690476Y-122085714D01*
X108642857Y-122133333D01*
X108547619Y-122180952D01*
X108357142Y-122180952D01*
X108261904Y-122228571D01*
X108214285Y-122276190D01*
X108166666Y-122371428D01*
X108166666Y-122561904D01*
X108214285Y-122657142D01*
X108261904Y-122704761D01*
X108357142Y-122752380D01*
X108547619Y-122752380D01*
X108642857Y-122704761D01*
X108690476Y-122657142D01*
X108738095Y-122561904D01*
X108738095Y-122371428D01*
X108690476Y-122276190D01*
X108642857Y-122228571D01*
X108547619Y-122180952D01*
%TO.C,C117*%
X110880952Y-104887142D02*
X110833333Y-104934761D01*
X110690476Y-104982380D01*
X110595238Y-104982380D01*
X110452380Y-104934761D01*
X110357142Y-104839523D01*
X110309523Y-104744285D01*
X110261904Y-104553809D01*
X110261904Y-104410952D01*
X110309523Y-104220476D01*
X110357142Y-104125238D01*
X110452380Y-104030000D01*
X110595238Y-103982380D01*
X110690476Y-103982380D01*
X110833333Y-104030000D01*
X110880952Y-104077619D01*
X111833333Y-104982380D02*
X111261904Y-104982380D01*
X111547619Y-104982380D02*
X111547619Y-103982380D01*
X111452380Y-104125238D01*
X111357142Y-104220476D01*
X111261904Y-104268095D01*
X112785714Y-104982380D02*
X112214285Y-104982380D01*
X112500000Y-104982380D02*
X112500000Y-103982380D01*
X112404761Y-104125238D01*
X112309523Y-104220476D01*
X112214285Y-104268095D01*
X113119047Y-103982380D02*
X113785714Y-103982380D01*
X113357142Y-104982380D01*
%TO.C,C114*%
X107677142Y-142156547D02*
X107724761Y-142204166D01*
X107772380Y-142347023D01*
X107772380Y-142442261D01*
X107724761Y-142585119D01*
X107629523Y-142680357D01*
X107534285Y-142727976D01*
X107343809Y-142775595D01*
X107200952Y-142775595D01*
X107010476Y-142727976D01*
X106915238Y-142680357D01*
X106820000Y-142585119D01*
X106772380Y-142442261D01*
X106772380Y-142347023D01*
X106820000Y-142204166D01*
X106867619Y-142156547D01*
X107772380Y-141204166D02*
X107772380Y-141775595D01*
X107772380Y-141489880D02*
X106772380Y-141489880D01*
X106915238Y-141585119D01*
X107010476Y-141680357D01*
X107058095Y-141775595D01*
X107772380Y-140251785D02*
X107772380Y-140823214D01*
X107772380Y-140537500D02*
X106772380Y-140537500D01*
X106915238Y-140632738D01*
X107010476Y-140727976D01*
X107058095Y-140823214D01*
X107105714Y-139394642D02*
X107772380Y-139394642D01*
X106724761Y-139632738D02*
X107439047Y-139870833D01*
X107439047Y-139251785D01*
%TO.C,C111*%
X93677142Y-128119047D02*
X93724761Y-128166666D01*
X93772380Y-128309523D01*
X93772380Y-128404761D01*
X93724761Y-128547619D01*
X93629523Y-128642857D01*
X93534285Y-128690476D01*
X93343809Y-128738095D01*
X93200952Y-128738095D01*
X93010476Y-128690476D01*
X92915238Y-128642857D01*
X92820000Y-128547619D01*
X92772380Y-128404761D01*
X92772380Y-128309523D01*
X92820000Y-128166666D01*
X92867619Y-128119047D01*
X93772380Y-127166666D02*
X93772380Y-127738095D01*
X93772380Y-127452380D02*
X92772380Y-127452380D01*
X92915238Y-127547619D01*
X93010476Y-127642857D01*
X93058095Y-127738095D01*
X93772380Y-126214285D02*
X93772380Y-126785714D01*
X93772380Y-126500000D02*
X92772380Y-126500000D01*
X92915238Y-126595238D01*
X93010476Y-126690476D01*
X93058095Y-126785714D01*
X93772380Y-125261904D02*
X93772380Y-125833333D01*
X93772380Y-125547619D02*
X92772380Y-125547619D01*
X92915238Y-125642857D01*
X93010476Y-125738095D01*
X93058095Y-125833333D01*
%TO.C,C109*%
X138037142Y-123119047D02*
X138084761Y-123166666D01*
X138132380Y-123309523D01*
X138132380Y-123404761D01*
X138084761Y-123547619D01*
X137989523Y-123642857D01*
X137894285Y-123690476D01*
X137703809Y-123738095D01*
X137560952Y-123738095D01*
X137370476Y-123690476D01*
X137275238Y-123642857D01*
X137180000Y-123547619D01*
X137132380Y-123404761D01*
X137132380Y-123309523D01*
X137180000Y-123166666D01*
X137227619Y-123119047D01*
X138132380Y-122166666D02*
X138132380Y-122738095D01*
X138132380Y-122452380D02*
X137132380Y-122452380D01*
X137275238Y-122547619D01*
X137370476Y-122642857D01*
X137418095Y-122738095D01*
X137132380Y-121547619D02*
X137132380Y-121452380D01*
X137180000Y-121357142D01*
X137227619Y-121309523D01*
X137322857Y-121261904D01*
X137513333Y-121214285D01*
X137751428Y-121214285D01*
X137941904Y-121261904D01*
X138037142Y-121309523D01*
X138084761Y-121357142D01*
X138132380Y-121452380D01*
X138132380Y-121547619D01*
X138084761Y-121642857D01*
X138037142Y-121690476D01*
X137941904Y-121738095D01*
X137751428Y-121785714D01*
X137513333Y-121785714D01*
X137322857Y-121738095D01*
X137227619Y-121690476D01*
X137180000Y-121642857D01*
X137132380Y-121547619D01*
X138132380Y-120738095D02*
X138132380Y-120547619D01*
X138084761Y-120452380D01*
X138037142Y-120404761D01*
X137894285Y-120309523D01*
X137703809Y-120261904D01*
X137322857Y-120261904D01*
X137227619Y-120309523D01*
X137180000Y-120357142D01*
X137132380Y-120452380D01*
X137132380Y-120642857D01*
X137180000Y-120738095D01*
X137227619Y-120785714D01*
X137322857Y-120833333D01*
X137560952Y-120833333D01*
X137656190Y-120785714D01*
X137703809Y-120738095D01*
X137751428Y-120642857D01*
X137751428Y-120452380D01*
X137703809Y-120357142D01*
X137656190Y-120309523D01*
X137560952Y-120261904D01*
%TO.C,C108*%
X110118400Y-90727142D02*
X110070781Y-90774761D01*
X109927924Y-90822380D01*
X109832686Y-90822380D01*
X109689828Y-90774761D01*
X109594590Y-90679523D01*
X109546971Y-90584285D01*
X109499352Y-90393809D01*
X109499352Y-90250952D01*
X109546971Y-90060476D01*
X109594590Y-89965238D01*
X109689828Y-89870000D01*
X109832686Y-89822380D01*
X109927924Y-89822380D01*
X110070781Y-89870000D01*
X110118400Y-89917619D01*
X111070781Y-90822380D02*
X110499352Y-90822380D01*
X110785067Y-90822380D02*
X110785067Y-89822380D01*
X110689828Y-89965238D01*
X110594590Y-90060476D01*
X110499352Y-90108095D01*
X111689828Y-89822380D02*
X111785067Y-89822380D01*
X111880305Y-89870000D01*
X111927924Y-89917619D01*
X111975543Y-90012857D01*
X112023162Y-90203333D01*
X112023162Y-90441428D01*
X111975543Y-90631904D01*
X111927924Y-90727142D01*
X111880305Y-90774761D01*
X111785067Y-90822380D01*
X111689828Y-90822380D01*
X111594590Y-90774761D01*
X111546971Y-90727142D01*
X111499352Y-90631904D01*
X111451733Y-90441428D01*
X111451733Y-90203333D01*
X111499352Y-90012857D01*
X111546971Y-89917619D01*
X111594590Y-89870000D01*
X111689828Y-89822380D01*
X112594590Y-90250952D02*
X112499352Y-90203333D01*
X112451733Y-90155714D01*
X112404114Y-90060476D01*
X112404114Y-90012857D01*
X112451733Y-89917619D01*
X112499352Y-89870000D01*
X112594590Y-89822380D01*
X112785067Y-89822380D01*
X112880305Y-89870000D01*
X112927924Y-89917619D01*
X112975543Y-90012857D01*
X112975543Y-90060476D01*
X112927924Y-90155714D01*
X112880305Y-90203333D01*
X112785067Y-90250952D01*
X112594590Y-90250952D01*
X112499352Y-90298571D01*
X112451733Y-90346190D01*
X112404114Y-90441428D01*
X112404114Y-90631904D01*
X112451733Y-90727142D01*
X112499352Y-90774761D01*
X112594590Y-90822380D01*
X112785067Y-90822380D01*
X112880305Y-90774761D01*
X112927924Y-90727142D01*
X112975543Y-90631904D01*
X112975543Y-90441428D01*
X112927924Y-90346190D01*
X112880305Y-90298571D01*
X112785067Y-90250952D01*
%TO.C,U102*%
X77452380Y-117714285D02*
X78261904Y-117714285D01*
X78357142Y-117666666D01*
X78404761Y-117619047D01*
X78452380Y-117523809D01*
X78452380Y-117333333D01*
X78404761Y-117238095D01*
X78357142Y-117190476D01*
X78261904Y-117142857D01*
X77452380Y-117142857D01*
X78452380Y-116142857D02*
X78452380Y-116714285D01*
X78452380Y-116428571D02*
X77452380Y-116428571D01*
X77595238Y-116523809D01*
X77690476Y-116619047D01*
X77738095Y-116714285D01*
X77452380Y-115523809D02*
X77452380Y-115428571D01*
X77500000Y-115333333D01*
X77547619Y-115285714D01*
X77642857Y-115238095D01*
X77833333Y-115190476D01*
X78071428Y-115190476D01*
X78261904Y-115238095D01*
X78357142Y-115285714D01*
X78404761Y-115333333D01*
X78452380Y-115428571D01*
X78452380Y-115523809D01*
X78404761Y-115619047D01*
X78357142Y-115666666D01*
X78261904Y-115714285D01*
X78071428Y-115761904D01*
X77833333Y-115761904D01*
X77642857Y-115714285D01*
X77547619Y-115666666D01*
X77500000Y-115619047D01*
X77452380Y-115523809D01*
X77547619Y-114809523D02*
X77500000Y-114761904D01*
X77452380Y-114666666D01*
X77452380Y-114428571D01*
X77500000Y-114333333D01*
X77547619Y-114285714D01*
X77642857Y-114238095D01*
X77738095Y-114238095D01*
X77880952Y-114285714D01*
X78452380Y-114857142D01*
X78452380Y-114238095D01*
%TO.C,C102*%
X81880952Y-124037142D02*
X81833333Y-124084761D01*
X81690476Y-124132380D01*
X81595238Y-124132380D01*
X81452380Y-124084761D01*
X81357142Y-123989523D01*
X81309523Y-123894285D01*
X81261904Y-123703809D01*
X81261904Y-123560952D01*
X81309523Y-123370476D01*
X81357142Y-123275238D01*
X81452380Y-123180000D01*
X81595238Y-123132380D01*
X81690476Y-123132380D01*
X81833333Y-123180000D01*
X81880952Y-123227619D01*
X82833333Y-124132380D02*
X82261904Y-124132380D01*
X82547619Y-124132380D02*
X82547619Y-123132380D01*
X82452380Y-123275238D01*
X82357142Y-123370476D01*
X82261904Y-123418095D01*
X83452380Y-123132380D02*
X83547619Y-123132380D01*
X83642857Y-123180000D01*
X83690476Y-123227619D01*
X83738095Y-123322857D01*
X83785714Y-123513333D01*
X83785714Y-123751428D01*
X83738095Y-123941904D01*
X83690476Y-124037142D01*
X83642857Y-124084761D01*
X83547619Y-124132380D01*
X83452380Y-124132380D01*
X83357142Y-124084761D01*
X83309523Y-124037142D01*
X83261904Y-123941904D01*
X83214285Y-123751428D01*
X83214285Y-123513333D01*
X83261904Y-123322857D01*
X83309523Y-123227619D01*
X83357142Y-123180000D01*
X83452380Y-123132380D01*
X84166666Y-123227619D02*
X84214285Y-123180000D01*
X84309523Y-123132380D01*
X84547619Y-123132380D01*
X84642857Y-123180000D01*
X84690476Y-123227619D01*
X84738095Y-123322857D01*
X84738095Y-123418095D01*
X84690476Y-123560952D01*
X84119047Y-124132380D01*
X84738095Y-124132380D01*
%TO.C,C110*%
X99677142Y-142119047D02*
X99724761Y-142166666D01*
X99772380Y-142309523D01*
X99772380Y-142404761D01*
X99724761Y-142547619D01*
X99629523Y-142642857D01*
X99534285Y-142690476D01*
X99343809Y-142738095D01*
X99200952Y-142738095D01*
X99010476Y-142690476D01*
X98915238Y-142642857D01*
X98820000Y-142547619D01*
X98772380Y-142404761D01*
X98772380Y-142309523D01*
X98820000Y-142166666D01*
X98867619Y-142119047D01*
X99772380Y-141166666D02*
X99772380Y-141738095D01*
X99772380Y-141452380D02*
X98772380Y-141452380D01*
X98915238Y-141547619D01*
X99010476Y-141642857D01*
X99058095Y-141738095D01*
X99772380Y-140214285D02*
X99772380Y-140785714D01*
X99772380Y-140500000D02*
X98772380Y-140500000D01*
X98915238Y-140595238D01*
X99010476Y-140690476D01*
X99058095Y-140785714D01*
X98772380Y-139595238D02*
X98772380Y-139500000D01*
X98820000Y-139404761D01*
X98867619Y-139357142D01*
X98962857Y-139309523D01*
X99153333Y-139261904D01*
X99391428Y-139261904D01*
X99581904Y-139309523D01*
X99677142Y-139357142D01*
X99724761Y-139404761D01*
X99772380Y-139500000D01*
X99772380Y-139595238D01*
X99724761Y-139690476D01*
X99677142Y-139738095D01*
X99581904Y-139785714D01*
X99391428Y-139833333D01*
X99153333Y-139833333D01*
X98962857Y-139785714D01*
X98867619Y-139738095D01*
X98820000Y-139690476D01*
X98772380Y-139595238D01*
%TO.C,C104*%
X98449000Y-90273142D02*
X98401381Y-90320761D01*
X98258524Y-90368380D01*
X98163286Y-90368380D01*
X98020428Y-90320761D01*
X97925190Y-90225523D01*
X97877571Y-90130285D01*
X97829952Y-89939809D01*
X97829952Y-89796952D01*
X97877571Y-89606476D01*
X97925190Y-89511238D01*
X98020428Y-89416000D01*
X98163286Y-89368380D01*
X98258524Y-89368380D01*
X98401381Y-89416000D01*
X98449000Y-89463619D01*
X99401381Y-90368380D02*
X98829952Y-90368380D01*
X99115667Y-90368380D02*
X99115667Y-89368380D01*
X99020428Y-89511238D01*
X98925190Y-89606476D01*
X98829952Y-89654095D01*
X100020428Y-89368380D02*
X100115667Y-89368380D01*
X100210905Y-89416000D01*
X100258524Y-89463619D01*
X100306143Y-89558857D01*
X100353762Y-89749333D01*
X100353762Y-89987428D01*
X100306143Y-90177904D01*
X100258524Y-90273142D01*
X100210905Y-90320761D01*
X100115667Y-90368380D01*
X100020428Y-90368380D01*
X99925190Y-90320761D01*
X99877571Y-90273142D01*
X99829952Y-90177904D01*
X99782333Y-89987428D01*
X99782333Y-89749333D01*
X99829952Y-89558857D01*
X99877571Y-89463619D01*
X99925190Y-89416000D01*
X100020428Y-89368380D01*
X101210905Y-89701714D02*
X101210905Y-90368380D01*
X100972809Y-89320761D02*
X100734714Y-90035047D01*
X101353762Y-90035047D01*
%TO.C,R106*%
X101272380Y-108119047D02*
X100796190Y-108452380D01*
X101272380Y-108690476D02*
X100272380Y-108690476D01*
X100272380Y-108309523D01*
X100320000Y-108214285D01*
X100367619Y-108166666D01*
X100462857Y-108119047D01*
X100605714Y-108119047D01*
X100700952Y-108166666D01*
X100748571Y-108214285D01*
X100796190Y-108309523D01*
X100796190Y-108690476D01*
X101272380Y-107166666D02*
X101272380Y-107738095D01*
X101272380Y-107452380D02*
X100272380Y-107452380D01*
X100415238Y-107547619D01*
X100510476Y-107642857D01*
X100558095Y-107738095D01*
X100272380Y-106547619D02*
X100272380Y-106452380D01*
X100320000Y-106357142D01*
X100367619Y-106309523D01*
X100462857Y-106261904D01*
X100653333Y-106214285D01*
X100891428Y-106214285D01*
X101081904Y-106261904D01*
X101177142Y-106309523D01*
X101224761Y-106357142D01*
X101272380Y-106452380D01*
X101272380Y-106547619D01*
X101224761Y-106642857D01*
X101177142Y-106690476D01*
X101081904Y-106738095D01*
X100891428Y-106785714D01*
X100653333Y-106785714D01*
X100462857Y-106738095D01*
X100367619Y-106690476D01*
X100320000Y-106642857D01*
X100272380Y-106547619D01*
X100272380Y-105357142D02*
X100272380Y-105547619D01*
X100320000Y-105642857D01*
X100367619Y-105690476D01*
X100510476Y-105785714D01*
X100700952Y-105833333D01*
X101081904Y-105833333D01*
X101177142Y-105785714D01*
X101224761Y-105738095D01*
X101272380Y-105642857D01*
X101272380Y-105452380D01*
X101224761Y-105357142D01*
X101177142Y-105309523D01*
X101081904Y-105261904D01*
X100843809Y-105261904D01*
X100748571Y-105309523D01*
X100700952Y-105357142D01*
X100653333Y-105452380D01*
X100653333Y-105642857D01*
X100700952Y-105738095D01*
X100748571Y-105785714D01*
X100843809Y-105833333D01*
%TO.C,C107*%
X136918452Y-82182142D02*
X136870833Y-82229761D01*
X136727976Y-82277380D01*
X136632738Y-82277380D01*
X136489880Y-82229761D01*
X136394642Y-82134523D01*
X136347023Y-82039285D01*
X136299404Y-81848809D01*
X136299404Y-81705952D01*
X136347023Y-81515476D01*
X136394642Y-81420238D01*
X136489880Y-81325000D01*
X136632738Y-81277380D01*
X136727976Y-81277380D01*
X136870833Y-81325000D01*
X136918452Y-81372619D01*
X137870833Y-82277380D02*
X137299404Y-82277380D01*
X137585119Y-82277380D02*
X137585119Y-81277380D01*
X137489880Y-81420238D01*
X137394642Y-81515476D01*
X137299404Y-81563095D01*
X138489880Y-81277380D02*
X138585119Y-81277380D01*
X138680357Y-81325000D01*
X138727976Y-81372619D01*
X138775595Y-81467857D01*
X138823214Y-81658333D01*
X138823214Y-81896428D01*
X138775595Y-82086904D01*
X138727976Y-82182142D01*
X138680357Y-82229761D01*
X138585119Y-82277380D01*
X138489880Y-82277380D01*
X138394642Y-82229761D01*
X138347023Y-82182142D01*
X138299404Y-82086904D01*
X138251785Y-81896428D01*
X138251785Y-81658333D01*
X138299404Y-81467857D01*
X138347023Y-81372619D01*
X138394642Y-81325000D01*
X138489880Y-81277380D01*
X139156547Y-81277380D02*
X139823214Y-81277380D01*
X139394642Y-82277380D01*
%TO.C,R103*%
X103100380Y-112625047D02*
X102624190Y-112958380D01*
X103100380Y-113196476D02*
X102100380Y-113196476D01*
X102100380Y-112815523D01*
X102148000Y-112720285D01*
X102195619Y-112672666D01*
X102290857Y-112625047D01*
X102433714Y-112625047D01*
X102528952Y-112672666D01*
X102576571Y-112720285D01*
X102624190Y-112815523D01*
X102624190Y-113196476D01*
X103100380Y-111672666D02*
X103100380Y-112244095D01*
X103100380Y-111958380D02*
X102100380Y-111958380D01*
X102243238Y-112053619D01*
X102338476Y-112148857D01*
X102386095Y-112244095D01*
X102100380Y-111053619D02*
X102100380Y-110958380D01*
X102148000Y-110863142D01*
X102195619Y-110815523D01*
X102290857Y-110767904D01*
X102481333Y-110720285D01*
X102719428Y-110720285D01*
X102909904Y-110767904D01*
X103005142Y-110815523D01*
X103052761Y-110863142D01*
X103100380Y-110958380D01*
X103100380Y-111053619D01*
X103052761Y-111148857D01*
X103005142Y-111196476D01*
X102909904Y-111244095D01*
X102719428Y-111291714D01*
X102481333Y-111291714D01*
X102290857Y-111244095D01*
X102195619Y-111196476D01*
X102148000Y-111148857D01*
X102100380Y-111053619D01*
X102100380Y-110386952D02*
X102100380Y-109767904D01*
X102481333Y-110101238D01*
X102481333Y-109958380D01*
X102528952Y-109863142D01*
X102576571Y-109815523D01*
X102671809Y-109767904D01*
X102909904Y-109767904D01*
X103005142Y-109815523D01*
X103052761Y-109863142D01*
X103100380Y-109958380D01*
X103100380Y-110244095D01*
X103052761Y-110339333D01*
X103005142Y-110386952D01*
%TO.C,D103*%
X132167523Y-93194380D02*
X132167523Y-92194380D01*
X132405619Y-92194380D01*
X132548476Y-92242000D01*
X132643714Y-92337238D01*
X132691333Y-92432476D01*
X132738952Y-92622952D01*
X132738952Y-92765809D01*
X132691333Y-92956285D01*
X132643714Y-93051523D01*
X132548476Y-93146761D01*
X132405619Y-93194380D01*
X132167523Y-93194380D01*
X133691333Y-93194380D02*
X133119904Y-93194380D01*
X133405619Y-93194380D02*
X133405619Y-92194380D01*
X133310380Y-92337238D01*
X133215142Y-92432476D01*
X133119904Y-92480095D01*
X134310380Y-92194380D02*
X134405619Y-92194380D01*
X134500857Y-92242000D01*
X134548476Y-92289619D01*
X134596095Y-92384857D01*
X134643714Y-92575333D01*
X134643714Y-92813428D01*
X134596095Y-93003904D01*
X134548476Y-93099142D01*
X134500857Y-93146761D01*
X134405619Y-93194380D01*
X134310380Y-93194380D01*
X134215142Y-93146761D01*
X134167523Y-93099142D01*
X134119904Y-93003904D01*
X134072285Y-92813428D01*
X134072285Y-92575333D01*
X134119904Y-92384857D01*
X134167523Y-92289619D01*
X134215142Y-92242000D01*
X134310380Y-92194380D01*
X134977047Y-92194380D02*
X135596095Y-92194380D01*
X135262761Y-92575333D01*
X135405619Y-92575333D01*
X135500857Y-92622952D01*
X135548476Y-92670571D01*
X135596095Y-92765809D01*
X135596095Y-93003904D01*
X135548476Y-93099142D01*
X135500857Y-93146761D01*
X135405619Y-93194380D01*
X135119904Y-93194380D01*
X135024666Y-93146761D01*
X134977047Y-93099142D01*
%TO.C,R102*%
X127880952Y-128102380D02*
X127547619Y-127626190D01*
X127309523Y-128102380D02*
X127309523Y-127102380D01*
X127690476Y-127102380D01*
X127785714Y-127150000D01*
X127833333Y-127197619D01*
X127880952Y-127292857D01*
X127880952Y-127435714D01*
X127833333Y-127530952D01*
X127785714Y-127578571D01*
X127690476Y-127626190D01*
X127309523Y-127626190D01*
X128833333Y-128102380D02*
X128261904Y-128102380D01*
X128547619Y-128102380D02*
X128547619Y-127102380D01*
X128452380Y-127245238D01*
X128357142Y-127340476D01*
X128261904Y-127388095D01*
X129452380Y-127102380D02*
X129547619Y-127102380D01*
X129642857Y-127150000D01*
X129690476Y-127197619D01*
X129738095Y-127292857D01*
X129785714Y-127483333D01*
X129785714Y-127721428D01*
X129738095Y-127911904D01*
X129690476Y-128007142D01*
X129642857Y-128054761D01*
X129547619Y-128102380D01*
X129452380Y-128102380D01*
X129357142Y-128054761D01*
X129309523Y-128007142D01*
X129261904Y-127911904D01*
X129214285Y-127721428D01*
X129214285Y-127483333D01*
X129261904Y-127292857D01*
X129309523Y-127197619D01*
X129357142Y-127150000D01*
X129452380Y-127102380D01*
X130166666Y-127197619D02*
X130214285Y-127150000D01*
X130309523Y-127102380D01*
X130547619Y-127102380D01*
X130642857Y-127150000D01*
X130690476Y-127197619D01*
X130738095Y-127292857D01*
X130738095Y-127388095D01*
X130690476Y-127530952D01*
X130119047Y-128102380D01*
X130738095Y-128102380D01*
%TO.C,C106*%
X110379652Y-81572142D02*
X110332033Y-81619761D01*
X110189176Y-81667380D01*
X110093938Y-81667380D01*
X109951080Y-81619761D01*
X109855842Y-81524523D01*
X109808223Y-81429285D01*
X109760604Y-81238809D01*
X109760604Y-81095952D01*
X109808223Y-80905476D01*
X109855842Y-80810238D01*
X109951080Y-80715000D01*
X110093938Y-80667380D01*
X110189176Y-80667380D01*
X110332033Y-80715000D01*
X110379652Y-80762619D01*
X111332033Y-81667380D02*
X110760604Y-81667380D01*
X111046319Y-81667380D02*
X111046319Y-80667380D01*
X110951080Y-80810238D01*
X110855842Y-80905476D01*
X110760604Y-80953095D01*
X111951080Y-80667380D02*
X112046319Y-80667380D01*
X112141557Y-80715000D01*
X112189176Y-80762619D01*
X112236795Y-80857857D01*
X112284414Y-81048333D01*
X112284414Y-81286428D01*
X112236795Y-81476904D01*
X112189176Y-81572142D01*
X112141557Y-81619761D01*
X112046319Y-81667380D01*
X111951080Y-81667380D01*
X111855842Y-81619761D01*
X111808223Y-81572142D01*
X111760604Y-81476904D01*
X111712985Y-81286428D01*
X111712985Y-81048333D01*
X111760604Y-80857857D01*
X111808223Y-80762619D01*
X111855842Y-80715000D01*
X111951080Y-80667380D01*
X113141557Y-80667380D02*
X112951080Y-80667380D01*
X112855842Y-80715000D01*
X112808223Y-80762619D01*
X112712985Y-80905476D01*
X112665366Y-81095952D01*
X112665366Y-81476904D01*
X112712985Y-81572142D01*
X112760604Y-81619761D01*
X112855842Y-81667380D01*
X113046319Y-81667380D01*
X113141557Y-81619761D01*
X113189176Y-81572142D01*
X113236795Y-81476904D01*
X113236795Y-81238809D01*
X113189176Y-81143571D01*
X113141557Y-81095952D01*
X113046319Y-81048333D01*
X112855842Y-81048333D01*
X112760604Y-81095952D01*
X112712985Y-81143571D01*
X112665366Y-81238809D01*
%TO.C,C113*%
X93677142Y-140119047D02*
X93724761Y-140166666D01*
X93772380Y-140309523D01*
X93772380Y-140404761D01*
X93724761Y-140547619D01*
X93629523Y-140642857D01*
X93534285Y-140690476D01*
X93343809Y-140738095D01*
X93200952Y-140738095D01*
X93010476Y-140690476D01*
X92915238Y-140642857D01*
X92820000Y-140547619D01*
X92772380Y-140404761D01*
X92772380Y-140309523D01*
X92820000Y-140166666D01*
X92867619Y-140119047D01*
X93772380Y-139166666D02*
X93772380Y-139738095D01*
X93772380Y-139452380D02*
X92772380Y-139452380D01*
X92915238Y-139547619D01*
X93010476Y-139642857D01*
X93058095Y-139738095D01*
X93772380Y-138214285D02*
X93772380Y-138785714D01*
X93772380Y-138500000D02*
X92772380Y-138500000D01*
X92915238Y-138595238D01*
X93010476Y-138690476D01*
X93058095Y-138785714D01*
X92772380Y-137880952D02*
X92772380Y-137261904D01*
X93153333Y-137595238D01*
X93153333Y-137452380D01*
X93200952Y-137357142D01*
X93248571Y-137309523D01*
X93343809Y-137261904D01*
X93581904Y-137261904D01*
X93677142Y-137309523D01*
X93724761Y-137357142D01*
X93772380Y-137452380D01*
X93772380Y-137738095D01*
X93724761Y-137833333D01*
X93677142Y-137880952D01*
%TO.C,M3*%
X78692476Y-98750380D02*
X78692476Y-97750380D01*
X79025809Y-98464666D01*
X79359142Y-97750380D01*
X79359142Y-98750380D01*
X79740095Y-97750380D02*
X80359142Y-97750380D01*
X80025809Y-98131333D01*
X80168666Y-98131333D01*
X80263904Y-98178952D01*
X80311523Y-98226571D01*
X80359142Y-98321809D01*
X80359142Y-98559904D01*
X80311523Y-98655142D01*
X80263904Y-98702761D01*
X80168666Y-98750380D01*
X79882952Y-98750380D01*
X79787714Y-98702761D01*
X79740095Y-98655142D01*
%TO.C,R105*%
X114477888Y-95162380D02*
X114144555Y-94686190D01*
X113906459Y-95162380D02*
X113906459Y-94162380D01*
X114287412Y-94162380D01*
X114382650Y-94210000D01*
X114430269Y-94257619D01*
X114477888Y-94352857D01*
X114477888Y-94495714D01*
X114430269Y-94590952D01*
X114382650Y-94638571D01*
X114287412Y-94686190D01*
X113906459Y-94686190D01*
X115430269Y-95162380D02*
X114858840Y-95162380D01*
X115144555Y-95162380D02*
X115144555Y-94162380D01*
X115049316Y-94305238D01*
X114954078Y-94400476D01*
X114858840Y-94448095D01*
X116049316Y-94162380D02*
X116144555Y-94162380D01*
X116239793Y-94210000D01*
X116287412Y-94257619D01*
X116335031Y-94352857D01*
X116382650Y-94543333D01*
X116382650Y-94781428D01*
X116335031Y-94971904D01*
X116287412Y-95067142D01*
X116239793Y-95114761D01*
X116144555Y-95162380D01*
X116049316Y-95162380D01*
X115954078Y-95114761D01*
X115906459Y-95067142D01*
X115858840Y-94971904D01*
X115811221Y-94781428D01*
X115811221Y-94543333D01*
X115858840Y-94352857D01*
X115906459Y-94257619D01*
X115954078Y-94210000D01*
X116049316Y-94162380D01*
X117287412Y-94162380D02*
X116811221Y-94162380D01*
X116763602Y-94638571D01*
X116811221Y-94590952D01*
X116906459Y-94543333D01*
X117144555Y-94543333D01*
X117239793Y-94590952D01*
X117287412Y-94638571D01*
X117335031Y-94733809D01*
X117335031Y-94971904D01*
X117287412Y-95067142D01*
X117239793Y-95114761D01*
X117144555Y-95162380D01*
X116906459Y-95162380D01*
X116811221Y-95114761D01*
X116763602Y-95067142D01*
%TO.C,Y101*%
X91976190Y-134428571D02*
X92452380Y-134428571D01*
X91452380Y-134761904D02*
X91976190Y-134428571D01*
X91452380Y-134095238D01*
X92452380Y-133238095D02*
X92452380Y-133809523D01*
X92452380Y-133523809D02*
X91452380Y-133523809D01*
X91595238Y-133619047D01*
X91690476Y-133714285D01*
X91738095Y-133809523D01*
X91452380Y-132619047D02*
X91452380Y-132523809D01*
X91500000Y-132428571D01*
X91547619Y-132380952D01*
X91642857Y-132333333D01*
X91833333Y-132285714D01*
X92071428Y-132285714D01*
X92261904Y-132333333D01*
X92357142Y-132380952D01*
X92404761Y-132428571D01*
X92452380Y-132523809D01*
X92452380Y-132619047D01*
X92404761Y-132714285D01*
X92357142Y-132761904D01*
X92261904Y-132809523D01*
X92071428Y-132857142D01*
X91833333Y-132857142D01*
X91642857Y-132809523D01*
X91547619Y-132761904D01*
X91500000Y-132714285D01*
X91452380Y-132619047D01*
X92452380Y-131333333D02*
X92452380Y-131904761D01*
X92452380Y-131619047D02*
X91452380Y-131619047D01*
X91595238Y-131714285D01*
X91690476Y-131809523D01*
X91738095Y-131904761D01*
%TO.C,J104*%
X134660380Y-142001714D02*
X135374666Y-142001714D01*
X135517523Y-142049333D01*
X135612761Y-142144571D01*
X135660380Y-142287428D01*
X135660380Y-142382666D01*
X135660380Y-141001714D02*
X135660380Y-141573142D01*
X135660380Y-141287428D02*
X134660380Y-141287428D01*
X134803238Y-141382666D01*
X134898476Y-141477904D01*
X134946095Y-141573142D01*
X134660380Y-140382666D02*
X134660380Y-140287428D01*
X134708000Y-140192190D01*
X134755619Y-140144571D01*
X134850857Y-140096952D01*
X135041333Y-140049333D01*
X135279428Y-140049333D01*
X135469904Y-140096952D01*
X135565142Y-140144571D01*
X135612761Y-140192190D01*
X135660380Y-140287428D01*
X135660380Y-140382666D01*
X135612761Y-140477904D01*
X135565142Y-140525523D01*
X135469904Y-140573142D01*
X135279428Y-140620761D01*
X135041333Y-140620761D01*
X134850857Y-140573142D01*
X134755619Y-140525523D01*
X134708000Y-140477904D01*
X134660380Y-140382666D01*
X134993714Y-139192190D02*
X135660380Y-139192190D01*
X134612761Y-139430285D02*
X135327047Y-139668380D01*
X135327047Y-139049333D01*
%TO.C,C101*%
X77880952Y-107297142D02*
X77833333Y-107344761D01*
X77690476Y-107392380D01*
X77595238Y-107392380D01*
X77452380Y-107344761D01*
X77357142Y-107249523D01*
X77309523Y-107154285D01*
X77261904Y-106963809D01*
X77261904Y-106820952D01*
X77309523Y-106630476D01*
X77357142Y-106535238D01*
X77452380Y-106440000D01*
X77595238Y-106392380D01*
X77690476Y-106392380D01*
X77833333Y-106440000D01*
X77880952Y-106487619D01*
X78833333Y-107392380D02*
X78261904Y-107392380D01*
X78547619Y-107392380D02*
X78547619Y-106392380D01*
X78452380Y-106535238D01*
X78357142Y-106630476D01*
X78261904Y-106678095D01*
X79452380Y-106392380D02*
X79547619Y-106392380D01*
X79642857Y-106440000D01*
X79690476Y-106487619D01*
X79738095Y-106582857D01*
X79785714Y-106773333D01*
X79785714Y-107011428D01*
X79738095Y-107201904D01*
X79690476Y-107297142D01*
X79642857Y-107344761D01*
X79547619Y-107392380D01*
X79452380Y-107392380D01*
X79357142Y-107344761D01*
X79309523Y-107297142D01*
X79261904Y-107201904D01*
X79214285Y-107011428D01*
X79214285Y-106773333D01*
X79261904Y-106582857D01*
X79309523Y-106487619D01*
X79357142Y-106440000D01*
X79452380Y-106392380D01*
X80738095Y-107392380D02*
X80166666Y-107392380D01*
X80452380Y-107392380D02*
X80452380Y-106392380D01*
X80357142Y-106535238D01*
X80261904Y-106630476D01*
X80166666Y-106678095D01*
%TO.C,JP101*%
X99214285Y-121652380D02*
X99214285Y-122366666D01*
X99166666Y-122509523D01*
X99071428Y-122604761D01*
X98928571Y-122652380D01*
X98833333Y-122652380D01*
X99690476Y-122652380D02*
X99690476Y-121652380D01*
X100071428Y-121652380D01*
X100166666Y-121700000D01*
X100214285Y-121747619D01*
X100261904Y-121842857D01*
X100261904Y-121985714D01*
X100214285Y-122080952D01*
X100166666Y-122128571D01*
X100071428Y-122176190D01*
X99690476Y-122176190D01*
X101214285Y-122652380D02*
X100642857Y-122652380D01*
X100928571Y-122652380D02*
X100928571Y-121652380D01*
X100833333Y-121795238D01*
X100738095Y-121890476D01*
X100642857Y-121938095D01*
X101833333Y-121652380D02*
X101928571Y-121652380D01*
X102023809Y-121700000D01*
X102071428Y-121747619D01*
X102119047Y-121842857D01*
X102166666Y-122033333D01*
X102166666Y-122271428D01*
X102119047Y-122461904D01*
X102071428Y-122557142D01*
X102023809Y-122604761D01*
X101928571Y-122652380D01*
X101833333Y-122652380D01*
X101738095Y-122604761D01*
X101690476Y-122557142D01*
X101642857Y-122461904D01*
X101595238Y-122271428D01*
X101595238Y-122033333D01*
X101642857Y-121842857D01*
X101690476Y-121747619D01*
X101738095Y-121700000D01*
X101833333Y-121652380D01*
X103119047Y-122652380D02*
X102547619Y-122652380D01*
X102833333Y-122652380D02*
X102833333Y-121652380D01*
X102738095Y-121795238D01*
X102642857Y-121890476D01*
X102547619Y-121938095D01*
%TO.C,D104*%
X109307523Y-95162380D02*
X109307523Y-94162380D01*
X109545619Y-94162380D01*
X109688476Y-94210000D01*
X109783714Y-94305238D01*
X109831333Y-94400476D01*
X109878952Y-94590952D01*
X109878952Y-94733809D01*
X109831333Y-94924285D01*
X109783714Y-95019523D01*
X109688476Y-95114761D01*
X109545619Y-95162380D01*
X109307523Y-95162380D01*
X110831333Y-95162380D02*
X110259904Y-95162380D01*
X110545619Y-95162380D02*
X110545619Y-94162380D01*
X110450380Y-94305238D01*
X110355142Y-94400476D01*
X110259904Y-94448095D01*
X111450380Y-94162380D02*
X111545619Y-94162380D01*
X111640857Y-94210000D01*
X111688476Y-94257619D01*
X111736095Y-94352857D01*
X111783714Y-94543333D01*
X111783714Y-94781428D01*
X111736095Y-94971904D01*
X111688476Y-95067142D01*
X111640857Y-95114761D01*
X111545619Y-95162380D01*
X111450380Y-95162380D01*
X111355142Y-95114761D01*
X111307523Y-95067142D01*
X111259904Y-94971904D01*
X111212285Y-94781428D01*
X111212285Y-94543333D01*
X111259904Y-94352857D01*
X111307523Y-94257619D01*
X111355142Y-94210000D01*
X111450380Y-94162380D01*
X112640857Y-94495714D02*
X112640857Y-95162380D01*
X112402761Y-94114761D02*
X112164666Y-94829047D01*
X112783714Y-94829047D01*
%TO.C,*%
%TO.C,C103*%
X122832952Y-91035142D02*
X122785333Y-91082761D01*
X122642476Y-91130380D01*
X122547238Y-91130380D01*
X122404380Y-91082761D01*
X122309142Y-90987523D01*
X122261523Y-90892285D01*
X122213904Y-90701809D01*
X122213904Y-90558952D01*
X122261523Y-90368476D01*
X122309142Y-90273238D01*
X122404380Y-90178000D01*
X122547238Y-90130380D01*
X122642476Y-90130380D01*
X122785333Y-90178000D01*
X122832952Y-90225619D01*
X123785333Y-91130380D02*
X123213904Y-91130380D01*
X123499619Y-91130380D02*
X123499619Y-90130380D01*
X123404380Y-90273238D01*
X123309142Y-90368476D01*
X123213904Y-90416095D01*
X124404380Y-90130380D02*
X124499619Y-90130380D01*
X124594857Y-90178000D01*
X124642476Y-90225619D01*
X124690095Y-90320857D01*
X124737714Y-90511333D01*
X124737714Y-90749428D01*
X124690095Y-90939904D01*
X124642476Y-91035142D01*
X124594857Y-91082761D01*
X124499619Y-91130380D01*
X124404380Y-91130380D01*
X124309142Y-91082761D01*
X124261523Y-91035142D01*
X124213904Y-90939904D01*
X124166285Y-90749428D01*
X124166285Y-90511333D01*
X124213904Y-90320857D01*
X124261523Y-90225619D01*
X124309142Y-90178000D01*
X124404380Y-90130380D01*
X125071047Y-90130380D02*
X125690095Y-90130380D01*
X125356761Y-90511333D01*
X125499619Y-90511333D01*
X125594857Y-90558952D01*
X125642476Y-90606571D01*
X125690095Y-90701809D01*
X125690095Y-90939904D01*
X125642476Y-91035142D01*
X125594857Y-91082761D01*
X125499619Y-91130380D01*
X125213904Y-91130380D01*
X125118666Y-91082761D01*
X125071047Y-91035142D01*
%TO.C,U105*%
X107285714Y-126602380D02*
X107285714Y-127411904D01*
X107333333Y-127507142D01*
X107380952Y-127554761D01*
X107476190Y-127602380D01*
X107666666Y-127602380D01*
X107761904Y-127554761D01*
X107809523Y-127507142D01*
X107857142Y-127411904D01*
X107857142Y-126602380D01*
X108857142Y-127602380D02*
X108285714Y-127602380D01*
X108571428Y-127602380D02*
X108571428Y-126602380D01*
X108476190Y-126745238D01*
X108380952Y-126840476D01*
X108285714Y-126888095D01*
X109476190Y-126602380D02*
X109571428Y-126602380D01*
X109666666Y-126650000D01*
X109714285Y-126697619D01*
X109761904Y-126792857D01*
X109809523Y-126983333D01*
X109809523Y-127221428D01*
X109761904Y-127411904D01*
X109714285Y-127507142D01*
X109666666Y-127554761D01*
X109571428Y-127602380D01*
X109476190Y-127602380D01*
X109380952Y-127554761D01*
X109333333Y-127507142D01*
X109285714Y-127411904D01*
X109238095Y-127221428D01*
X109238095Y-126983333D01*
X109285714Y-126792857D01*
X109333333Y-126697619D01*
X109380952Y-126650000D01*
X109476190Y-126602380D01*
X110714285Y-126602380D02*
X110238095Y-126602380D01*
X110190476Y-127078571D01*
X110238095Y-127030952D01*
X110333333Y-126983333D01*
X110571428Y-126983333D01*
X110666666Y-127030952D01*
X110714285Y-127078571D01*
X110761904Y-127173809D01*
X110761904Y-127411904D01*
X110714285Y-127507142D01*
X110666666Y-127554761D01*
X110571428Y-127602380D01*
X110333333Y-127602380D01*
X110238095Y-127554761D01*
X110190476Y-127507142D01*
%TO.C,R104*%
X137818952Y-96940380D02*
X137485619Y-96464190D01*
X137247523Y-96940380D02*
X137247523Y-95940380D01*
X137628476Y-95940380D01*
X137723714Y-95988000D01*
X137771333Y-96035619D01*
X137818952Y-96130857D01*
X137818952Y-96273714D01*
X137771333Y-96368952D01*
X137723714Y-96416571D01*
X137628476Y-96464190D01*
X137247523Y-96464190D01*
X138771333Y-96940380D02*
X138199904Y-96940380D01*
X138485619Y-96940380D02*
X138485619Y-95940380D01*
X138390380Y-96083238D01*
X138295142Y-96178476D01*
X138199904Y-96226095D01*
X139390380Y-95940380D02*
X139485619Y-95940380D01*
X139580857Y-95988000D01*
X139628476Y-96035619D01*
X139676095Y-96130857D01*
X139723714Y-96321333D01*
X139723714Y-96559428D01*
X139676095Y-96749904D01*
X139628476Y-96845142D01*
X139580857Y-96892761D01*
X139485619Y-96940380D01*
X139390380Y-96940380D01*
X139295142Y-96892761D01*
X139247523Y-96845142D01*
X139199904Y-96749904D01*
X139152285Y-96559428D01*
X139152285Y-96321333D01*
X139199904Y-96130857D01*
X139247523Y-96035619D01*
X139295142Y-95988000D01*
X139390380Y-95940380D01*
X140580857Y-96273714D02*
X140580857Y-96940380D01*
X140342761Y-95892761D02*
X140104666Y-96607047D01*
X140723714Y-96607047D01*
%TO.C,C118*%
X115677142Y-142119047D02*
X115724761Y-142166666D01*
X115772380Y-142309523D01*
X115772380Y-142404761D01*
X115724761Y-142547619D01*
X115629523Y-142642857D01*
X115534285Y-142690476D01*
X115343809Y-142738095D01*
X115200952Y-142738095D01*
X115010476Y-142690476D01*
X114915238Y-142642857D01*
X114820000Y-142547619D01*
X114772380Y-142404761D01*
X114772380Y-142309523D01*
X114820000Y-142166666D01*
X114867619Y-142119047D01*
X115772380Y-141166666D02*
X115772380Y-141738095D01*
X115772380Y-141452380D02*
X114772380Y-141452380D01*
X114915238Y-141547619D01*
X115010476Y-141642857D01*
X115058095Y-141738095D01*
X115772380Y-140214285D02*
X115772380Y-140785714D01*
X115772380Y-140500000D02*
X114772380Y-140500000D01*
X114915238Y-140595238D01*
X115010476Y-140690476D01*
X115058095Y-140785714D01*
X115200952Y-139642857D02*
X115153333Y-139738095D01*
X115105714Y-139785714D01*
X115010476Y-139833333D01*
X114962857Y-139833333D01*
X114867619Y-139785714D01*
X114820000Y-139738095D01*
X114772380Y-139642857D01*
X114772380Y-139452380D01*
X114820000Y-139357142D01*
X114867619Y-139309523D01*
X114962857Y-139261904D01*
X115010476Y-139261904D01*
X115105714Y-139309523D01*
X115153333Y-139357142D01*
X115200952Y-139452380D01*
X115200952Y-139642857D01*
X115248571Y-139738095D01*
X115296190Y-139785714D01*
X115391428Y-139833333D01*
X115581904Y-139833333D01*
X115677142Y-139785714D01*
X115724761Y-139738095D01*
X115772380Y-139642857D01*
X115772380Y-139452380D01*
X115724761Y-139357142D01*
X115677142Y-139309523D01*
X115581904Y-139261904D01*
X115391428Y-139261904D01*
X115296190Y-139309523D01*
X115248571Y-139357142D01*
X115200952Y-139452380D01*
%TO.C,*%
%TO.C,C115*%
X110880952Y-97677142D02*
X110833333Y-97724761D01*
X110690476Y-97772380D01*
X110595238Y-97772380D01*
X110452380Y-97724761D01*
X110357142Y-97629523D01*
X110309523Y-97534285D01*
X110261904Y-97343809D01*
X110261904Y-97200952D01*
X110309523Y-97010476D01*
X110357142Y-96915238D01*
X110452380Y-96820000D01*
X110595238Y-96772380D01*
X110690476Y-96772380D01*
X110833333Y-96820000D01*
X110880952Y-96867619D01*
X111833333Y-97772380D02*
X111261904Y-97772380D01*
X111547619Y-97772380D02*
X111547619Y-96772380D01*
X111452380Y-96915238D01*
X111357142Y-97010476D01*
X111261904Y-97058095D01*
X112785714Y-97772380D02*
X112214285Y-97772380D01*
X112500000Y-97772380D02*
X112500000Y-96772380D01*
X112404761Y-96915238D01*
X112309523Y-97010476D01*
X112214285Y-97058095D01*
X113690476Y-96772380D02*
X113214285Y-96772380D01*
X113166666Y-97248571D01*
X113214285Y-97200952D01*
X113309523Y-97153333D01*
X113547619Y-97153333D01*
X113642857Y-97200952D01*
X113690476Y-97248571D01*
X113738095Y-97343809D01*
X113738095Y-97581904D01*
X113690476Y-97677142D01*
X113642857Y-97724761D01*
X113547619Y-97772380D01*
X113309523Y-97772380D01*
X113214285Y-97724761D01*
X113166666Y-97677142D01*
%TO.C,U103*%
X99624434Y-79662380D02*
X99624434Y-80471904D01*
X99672053Y-80567142D01*
X99719672Y-80614761D01*
X99814910Y-80662380D01*
X100005386Y-80662380D01*
X100100624Y-80614761D01*
X100148243Y-80567142D01*
X100195862Y-80471904D01*
X100195862Y-79662380D01*
X101195862Y-80662380D02*
X100624434Y-80662380D01*
X100910148Y-80662380D02*
X100910148Y-79662380D01*
X100814910Y-79805238D01*
X100719672Y-79900476D01*
X100624434Y-79948095D01*
X101814910Y-79662380D02*
X101910148Y-79662380D01*
X102005386Y-79710000D01*
X102053005Y-79757619D01*
X102100624Y-79852857D01*
X102148243Y-80043333D01*
X102148243Y-80281428D01*
X102100624Y-80471904D01*
X102053005Y-80567142D01*
X102005386Y-80614761D01*
X101910148Y-80662380D01*
X101814910Y-80662380D01*
X101719672Y-80614761D01*
X101672053Y-80567142D01*
X101624434Y-80471904D01*
X101576815Y-80281428D01*
X101576815Y-80043333D01*
X101624434Y-79852857D01*
X101672053Y-79757619D01*
X101719672Y-79710000D01*
X101814910Y-79662380D01*
X102481577Y-79662380D02*
X103100624Y-79662380D01*
X102767291Y-80043333D01*
X102910148Y-80043333D01*
X103005386Y-80090952D01*
X103053005Y-80138571D01*
X103100624Y-80233809D01*
X103100624Y-80471904D01*
X103053005Y-80567142D01*
X103005386Y-80614761D01*
X102910148Y-80662380D01*
X102624434Y-80662380D01*
X102529196Y-80614761D01*
X102481577Y-80567142D01*
%TO.C,R101*%
X77880952Y-110452380D02*
X77547619Y-109976190D01*
X77309523Y-110452380D02*
X77309523Y-109452380D01*
X77690476Y-109452380D01*
X77785714Y-109500000D01*
X77833333Y-109547619D01*
X77880952Y-109642857D01*
X77880952Y-109785714D01*
X77833333Y-109880952D01*
X77785714Y-109928571D01*
X77690476Y-109976190D01*
X77309523Y-109976190D01*
X78833333Y-110452380D02*
X78261904Y-110452380D01*
X78547619Y-110452380D02*
X78547619Y-109452380D01*
X78452380Y-109595238D01*
X78357142Y-109690476D01*
X78261904Y-109738095D01*
X79452380Y-109452380D02*
X79547619Y-109452380D01*
X79642857Y-109500000D01*
X79690476Y-109547619D01*
X79738095Y-109642857D01*
X79785714Y-109833333D01*
X79785714Y-110071428D01*
X79738095Y-110261904D01*
X79690476Y-110357142D01*
X79642857Y-110404761D01*
X79547619Y-110452380D01*
X79452380Y-110452380D01*
X79357142Y-110404761D01*
X79309523Y-110357142D01*
X79261904Y-110261904D01*
X79214285Y-110071428D01*
X79214285Y-109833333D01*
X79261904Y-109642857D01*
X79309523Y-109547619D01*
X79357142Y-109500000D01*
X79452380Y-109452380D01*
X80738095Y-110452380D02*
X80166666Y-110452380D01*
X80452380Y-110452380D02*
X80452380Y-109452380D01*
X80357142Y-109595238D01*
X80261904Y-109690476D01*
X80166666Y-109738095D01*
%TO.C,J101*%
X84058285Y-80478380D02*
X84058285Y-81192666D01*
X84010666Y-81335523D01*
X83915428Y-81430761D01*
X83772571Y-81478380D01*
X83677333Y-81478380D01*
X85058285Y-81478380D02*
X84486857Y-81478380D01*
X84772571Y-81478380D02*
X84772571Y-80478380D01*
X84677333Y-80621238D01*
X84582095Y-80716476D01*
X84486857Y-80764095D01*
X85677333Y-80478380D02*
X85772571Y-80478380D01*
X85867809Y-80526000D01*
X85915428Y-80573619D01*
X85963047Y-80668857D01*
X86010666Y-80859333D01*
X86010666Y-81097428D01*
X85963047Y-81287904D01*
X85915428Y-81383142D01*
X85867809Y-81430761D01*
X85772571Y-81478380D01*
X85677333Y-81478380D01*
X85582095Y-81430761D01*
X85534476Y-81383142D01*
X85486857Y-81287904D01*
X85439238Y-81097428D01*
X85439238Y-80859333D01*
X85486857Y-80668857D01*
X85534476Y-80573619D01*
X85582095Y-80526000D01*
X85677333Y-80478380D01*
X86963047Y-81478380D02*
X86391619Y-81478380D01*
X86677333Y-81478380D02*
X86677333Y-80478380D01*
X86582095Y-80621238D01*
X86486857Y-80716476D01*
X86391619Y-80764095D01*
X91363047Y-86945428D02*
X92124952Y-86945428D01*
X78872571Y-86981142D02*
X80015428Y-86981142D01*
X79444000Y-87552571D02*
X79444000Y-86409714D01*
D12*
%TO.C,C105*%
X137738748Y-90735000D02*
X138261252Y-90735000D01*
X137738748Y-89265000D02*
X138261252Y-89265000D01*
%TO.C,U101*%
X124463800Y-82475000D02*
X124463800Y-82745000D01*
X125963800Y-89375000D02*
X124463800Y-89375000D01*
X124463800Y-89105000D02*
X123363800Y-89105000D01*
X124463800Y-82745000D02*
X121633800Y-82745000D01*
X125963800Y-82475000D02*
X124463800Y-82475000D01*
X124463800Y-89375000D02*
X124463800Y-89105000D01*
%TO.C,U104*%
X128450000Y-123660000D02*
X130250000Y-123660000D01*
X130250000Y-120440000D02*
X127800000Y-120440000D01*
%TO.C,C116*%
X112265000Y-141261252D02*
X112265000Y-140738748D01*
X113735000Y-141261252D02*
X113735000Y-140738748D01*
%TO.C,J102*%
X83145000Y-141848000D02*
X83145000Y-142368000D01*
X79145000Y-134288000D02*
X83145000Y-134288000D01*
X78025000Y-141473000D02*
X79145000Y-141473000D01*
X83145000Y-143638000D02*
X79145000Y-143638000D01*
X83145000Y-140578000D02*
X83145000Y-141098000D01*
X78025000Y-137647677D02*
X78025000Y-137678323D01*
X79145000Y-134648000D02*
X83145000Y-134648000D01*
X78025000Y-138933000D02*
X79145000Y-138933000D01*
X78025000Y-142743000D02*
X79145000Y-142743000D01*
X83145000Y-134748000D02*
X79145000Y-134748000D01*
X79145000Y-135498000D02*
X83145000Y-135498000D01*
X79145000Y-139308000D02*
X83145000Y-139308000D01*
X83145000Y-137288000D02*
X79145000Y-137288000D01*
X78025000Y-136393000D02*
X79145000Y-136393000D01*
X78345000Y-135123000D02*
X79145000Y-135123000D01*
X83145000Y-142368000D02*
X79145000Y-142368000D01*
X76825000Y-133728000D02*
X77585000Y-133728000D01*
X76825000Y-134488000D02*
X76825000Y-133728000D01*
X79145000Y-134408000D02*
X83145000Y-134408000D01*
X78025000Y-140187677D02*
X78025000Y-140218323D01*
X78025000Y-144073000D02*
X78025000Y-143997677D01*
X79145000Y-140578000D02*
X83145000Y-140578000D01*
X78025000Y-141457677D02*
X78025000Y-141488323D01*
X83145000Y-135498000D02*
X83145000Y-136018000D01*
X78025000Y-137663000D02*
X79145000Y-137663000D01*
X83145000Y-138558000D02*
X79145000Y-138558000D01*
X78025000Y-138917677D02*
X78025000Y-138948323D01*
X83145000Y-138038000D02*
X83145000Y-138558000D01*
X83145000Y-139308000D02*
X83145000Y-139828000D01*
X79145000Y-138038000D02*
X83145000Y-138038000D01*
X78025000Y-136377677D02*
X78025000Y-136408323D01*
X79145000Y-136768000D02*
X83145000Y-136768000D01*
X79145000Y-144073000D02*
X78025000Y-144073000D01*
X78345000Y-133793000D02*
X79145000Y-133793000D01*
X79145000Y-134228000D02*
X83145000Y-134228000D01*
X78025000Y-142727677D02*
X78025000Y-142758323D01*
X83145000Y-139828000D02*
X79145000Y-139828000D01*
X79145000Y-141848000D02*
X83145000Y-141848000D01*
X83145000Y-136018000D02*
X79145000Y-136018000D01*
X79145000Y-133793000D02*
X79145000Y-144073000D01*
X83145000Y-134228000D02*
X83145000Y-134748000D01*
X83145000Y-141098000D02*
X79145000Y-141098000D01*
X83145000Y-136768000D02*
X83145000Y-137288000D01*
X83145000Y-143118000D02*
X83145000Y-143638000D01*
X79145000Y-134528000D02*
X83145000Y-134528000D01*
X78025000Y-140203000D02*
X79145000Y-140203000D01*
X79145000Y-143118000D02*
X83145000Y-143118000D01*
%TO.C,R107*%
X98090000Y-114272936D02*
X98090000Y-115727064D01*
X99910000Y-114272936D02*
X99910000Y-115727064D01*
%TO.C,REF\u002A\u002A*%
G36*
X140568242Y-109047364D02*
G01*
X140546203Y-109086059D01*
X140510971Y-109147513D01*
X140463711Y-109229702D01*
X140405589Y-109330604D01*
X140337771Y-109448195D01*
X140261424Y-109580454D01*
X140177714Y-109725358D01*
X140087806Y-109880883D01*
X139992867Y-110045008D01*
X139956732Y-110107451D01*
X139860083Y-110274513D01*
X139767938Y-110433926D01*
X139681475Y-110583645D01*
X139601871Y-110721624D01*
X139530305Y-110845815D01*
X139467955Y-110954173D01*
X139415998Y-111044652D01*
X139375613Y-111115204D01*
X139347978Y-111163785D01*
X139334272Y-111188346D01*
X139332974Y-111190915D01*
X139321220Y-111183431D01*
X139289795Y-111157386D01*
X139241594Y-111115441D01*
X139179510Y-111060254D01*
X139106439Y-110994483D01*
X139025276Y-110920788D01*
X138938916Y-110841827D01*
X138850253Y-110760260D01*
X138762182Y-110678746D01*
X138677599Y-110599943D01*
X138599397Y-110526510D01*
X138530472Y-110461107D01*
X138473719Y-110406392D01*
X138432032Y-110365023D01*
X138418363Y-110350836D01*
X138374201Y-110303820D01*
X138410619Y-110280472D01*
X138429693Y-110269092D01*
X138473421Y-110243512D01*
X138539619Y-110204998D01*
X138626102Y-110154814D01*
X138730685Y-110094225D01*
X138851183Y-110024497D01*
X138985412Y-109946893D01*
X139131187Y-109862680D01*
X139286323Y-109773121D01*
X139446000Y-109681002D01*
X139609117Y-109586924D01*
X139765709Y-109496598D01*
X139913506Y-109411335D01*
X140050240Y-109332443D01*
X140173642Y-109261231D01*
X140281444Y-109199009D01*
X140371377Y-109147087D01*
X140441173Y-109106772D01*
X140488564Y-109079376D01*
X140510786Y-109066493D01*
X140548330Y-109045493D01*
X140571831Y-109034075D01*
X140575920Y-109033449D01*
X140568242Y-109047364D01*
G37*
D13*
X140568242Y-109047364D02*
X140546203Y-109086059D01*
X140510971Y-109147513D01*
X140463711Y-109229702D01*
X140405589Y-109330604D01*
X140337771Y-109448195D01*
X140261424Y-109580454D01*
X140177714Y-109725358D01*
X140087806Y-109880883D01*
X139992867Y-110045008D01*
X139956732Y-110107451D01*
X139860083Y-110274513D01*
X139767938Y-110433926D01*
X139681475Y-110583645D01*
X139601871Y-110721624D01*
X139530305Y-110845815D01*
X139467955Y-110954173D01*
X139415998Y-111044652D01*
X139375613Y-111115204D01*
X139347978Y-111163785D01*
X139334272Y-111188346D01*
X139332974Y-111190915D01*
X139321220Y-111183431D01*
X139289795Y-111157386D01*
X139241594Y-111115441D01*
X139179510Y-111060254D01*
X139106439Y-110994483D01*
X139025276Y-110920788D01*
X138938916Y-110841827D01*
X138850253Y-110760260D01*
X138762182Y-110678746D01*
X138677599Y-110599943D01*
X138599397Y-110526510D01*
X138530472Y-110461107D01*
X138473719Y-110406392D01*
X138432032Y-110365023D01*
X138418363Y-110350836D01*
X138374201Y-110303820D01*
X138410619Y-110280472D01*
X138429693Y-110269092D01*
X138473421Y-110243512D01*
X138539619Y-110204998D01*
X138626102Y-110154814D01*
X138730685Y-110094225D01*
X138851183Y-110024497D01*
X138985412Y-109946893D01*
X139131187Y-109862680D01*
X139286323Y-109773121D01*
X139446000Y-109681002D01*
X139609117Y-109586924D01*
X139765709Y-109496598D01*
X139913506Y-109411335D01*
X140050240Y-109332443D01*
X140173642Y-109261231D01*
X140281444Y-109199009D01*
X140371377Y-109147087D01*
X140441173Y-109106772D01*
X140488564Y-109079376D01*
X140510786Y-109066493D01*
X140548330Y-109045493D01*
X140571831Y-109034075D01*
X140575920Y-109033449D01*
X140568242Y-109047364D01*
G36*
X137307965Y-110949499D02*
G01*
X137335882Y-110986886D01*
X137370725Y-111043765D01*
X137409754Y-111115688D01*
X137446843Y-111190985D01*
X137491817Y-111293440D01*
X137532226Y-111401183D01*
X137568969Y-111517927D01*
X137602942Y-111647382D01*
X137635044Y-111793260D01*
X137666173Y-111959274D01*
X137697227Y-112149134D01*
X137726145Y-112345531D01*
X137751800Y-112516166D01*
X137777198Y-112659455D01*
X137803602Y-112778992D01*
X137832273Y-112878370D01*
X137864473Y-112961182D01*
X137901465Y-113031022D01*
X137944512Y-113091482D01*
X137994875Y-113146155D01*
X138013583Y-113163786D01*
X138057139Y-113202000D01*
X138092682Y-113230268D01*
X138113583Y-113243382D01*
X138115297Y-113243732D01*
X138125806Y-113248320D01*
X138125924Y-113264242D01*
X138114254Y-113294734D01*
X138089396Y-113343032D01*
X138049952Y-113412373D01*
X138021587Y-113460561D01*
X137977247Y-113532417D01*
X137939279Y-113588258D01*
X137910416Y-113624333D01*
X137893388Y-113636887D01*
X137893264Y-113636879D01*
X137877037Y-113629094D01*
X137836400Y-113607108D01*
X137773567Y-113572197D01*
X137690752Y-113525637D01*
X137590172Y-113468705D01*
X137474040Y-113402677D01*
X137344571Y-113328828D01*
X137203980Y-113248436D01*
X137054482Y-113162776D01*
X136898292Y-113073124D01*
X136737624Y-112980757D01*
X136574693Y-112886951D01*
X136411713Y-112792982D01*
X136250900Y-112700126D01*
X136094468Y-112609660D01*
X135944633Y-112522859D01*
X135803608Y-112441000D01*
X135673609Y-112365359D01*
X135556849Y-112297213D01*
X135455545Y-112237837D01*
X135371911Y-112188507D01*
X135308162Y-112150500D01*
X135266511Y-112125093D01*
X135249175Y-112113560D01*
X135248805Y-112113077D01*
X135261835Y-112103957D01*
X135299245Y-112080935D01*
X135358514Y-112045466D01*
X135437118Y-111999004D01*
X135532538Y-111943004D01*
X135642250Y-111878919D01*
X135763734Y-111808204D01*
X135894468Y-111732313D01*
X136031930Y-111652701D01*
X136173598Y-111570822D01*
X136316951Y-111488130D01*
X136459467Y-111406079D01*
X136598624Y-111326124D01*
X136731901Y-111249719D01*
X136856776Y-111178318D01*
X136970727Y-111113376D01*
X137071233Y-111056347D01*
X137155772Y-111008685D01*
X137221822Y-110971845D01*
X137266862Y-110947280D01*
X137288370Y-110936446D01*
X137289714Y-110936049D01*
X137307965Y-110949499D01*
G37*
X137307965Y-110949499D02*
X137335882Y-110986886D01*
X137370725Y-111043765D01*
X137409754Y-111115688D01*
X137446843Y-111190985D01*
X137491817Y-111293440D01*
X137532226Y-111401183D01*
X137568969Y-111517927D01*
X137602942Y-111647382D01*
X137635044Y-111793260D01*
X137666173Y-111959274D01*
X137697227Y-112149134D01*
X137726145Y-112345531D01*
X137751800Y-112516166D01*
X137777198Y-112659455D01*
X137803602Y-112778992D01*
X137832273Y-112878370D01*
X137864473Y-112961182D01*
X137901465Y-113031022D01*
X137944512Y-113091482D01*
X137994875Y-113146155D01*
X138013583Y-113163786D01*
X138057139Y-113202000D01*
X138092682Y-113230268D01*
X138113583Y-113243382D01*
X138115297Y-113243732D01*
X138125806Y-113248320D01*
X138125924Y-113264242D01*
X138114254Y-113294734D01*
X138089396Y-113343032D01*
X138049952Y-113412373D01*
X138021587Y-113460561D01*
X137977247Y-113532417D01*
X137939279Y-113588258D01*
X137910416Y-113624333D01*
X137893388Y-113636887D01*
X137893264Y-113636879D01*
X137877037Y-113629094D01*
X137836400Y-113607108D01*
X137773567Y-113572197D01*
X137690752Y-113525637D01*
X137590172Y-113468705D01*
X137474040Y-113402677D01*
X137344571Y-113328828D01*
X137203980Y-113248436D01*
X137054482Y-113162776D01*
X136898292Y-113073124D01*
X136737624Y-112980757D01*
X136574693Y-112886951D01*
X136411713Y-112792982D01*
X136250900Y-112700126D01*
X136094468Y-112609660D01*
X135944633Y-112522859D01*
X135803608Y-112441000D01*
X135673609Y-112365359D01*
X135556849Y-112297213D01*
X135455545Y-112237837D01*
X135371911Y-112188507D01*
X135308162Y-112150500D01*
X135266511Y-112125093D01*
X135249175Y-112113560D01*
X135248805Y-112113077D01*
X135261835Y-112103957D01*
X135299245Y-112080935D01*
X135358514Y-112045466D01*
X135437118Y-111999004D01*
X135532538Y-111943004D01*
X135642250Y-111878919D01*
X135763734Y-111808204D01*
X135894468Y-111732313D01*
X136031930Y-111652701D01*
X136173598Y-111570822D01*
X136316951Y-111488130D01*
X136459467Y-111406079D01*
X136598624Y-111326124D01*
X136731901Y-111249719D01*
X136856776Y-111178318D01*
X136970727Y-111113376D01*
X137071233Y-111056347D01*
X137155772Y-111008685D01*
X137221822Y-110971845D01*
X137266862Y-110947280D01*
X137288370Y-110936446D01*
X137289714Y-110936049D01*
X137307965Y-110949499D01*
G36*
X141122280Y-109347598D02*
G01*
X141123559Y-109390896D01*
X141124796Y-109462286D01*
X141125983Y-109560327D01*
X141127115Y-109683578D01*
X141128186Y-109830597D01*
X141129189Y-109999943D01*
X141130119Y-110190174D01*
X141130968Y-110399849D01*
X141131732Y-110627527D01*
X141132403Y-110871765D01*
X141132976Y-111131123D01*
X141133444Y-111404159D01*
X141133802Y-111689432D01*
X141134042Y-111985500D01*
X141134159Y-112290921D01*
X141134171Y-112419076D01*
X141134171Y-115519030D01*
X140750847Y-115297947D01*
X140669680Y-115251144D01*
X140565166Y-115190898D01*
X140440801Y-115119222D01*
X140300082Y-115038131D01*
X140146503Y-114949638D01*
X139983562Y-114855760D01*
X139814754Y-114758509D01*
X139643575Y-114659900D01*
X139473521Y-114561947D01*
X139430512Y-114537175D01*
X139273857Y-114446848D01*
X139124803Y-114360711D01*
X138985568Y-114280058D01*
X138858371Y-114206184D01*
X138745432Y-114140383D01*
X138648968Y-114083950D01*
X138571200Y-114038179D01*
X138514346Y-114004365D01*
X138480625Y-113983802D01*
X138472040Y-113978047D01*
X138465189Y-113965942D01*
X138467158Y-113945906D01*
X138479736Y-113913381D01*
X138504712Y-113863807D01*
X138543876Y-113792626D01*
X138546988Y-113787084D01*
X138584476Y-113721526D01*
X138617319Y-113666202D01*
X138642205Y-113626545D01*
X138655820Y-113607988D01*
X138656487Y-113607469D01*
X138675390Y-113611952D01*
X138717605Y-113632514D01*
X138780832Y-113667817D01*
X138862772Y-113716520D01*
X138961122Y-113777282D01*
X139073585Y-113848764D01*
X139101165Y-113866555D01*
X139177699Y-113912907D01*
X139243556Y-113946658D01*
X139292782Y-113964847D01*
X139302507Y-113966714D01*
X139345312Y-113965885D01*
X139413209Y-113956606D01*
X139501843Y-113940032D01*
X139606859Y-113917320D01*
X139723902Y-113889627D01*
X139848616Y-113858110D01*
X139976645Y-113823925D01*
X140103634Y-113788229D01*
X140225228Y-113752179D01*
X140337072Y-113716932D01*
X140434810Y-113683644D01*
X140514087Y-113653472D01*
X140561122Y-113632439D01*
X140611225Y-113607663D01*
X140659168Y-113584270D01*
X140661793Y-113583003D01*
X140710220Y-113544301D01*
X140742828Y-113487816D01*
X140758454Y-113422061D01*
X140755937Y-113355549D01*
X140734114Y-113296795D01*
X140705382Y-113263742D01*
X140626583Y-113216141D01*
X140528378Y-113181261D01*
X140420779Y-113162123D01*
X140359780Y-113159412D01*
X140245935Y-113170330D01*
X140151660Y-113202376D01*
X140072379Y-113257274D01*
X140054733Y-113274393D01*
X140005235Y-113325339D01*
X139655362Y-113328837D01*
X139305489Y-113332336D01*
X139170531Y-113243182D01*
X139109445Y-113201346D01*
X139054493Y-113161055D01*
X139013336Y-113128057D01*
X138998192Y-113113874D01*
X138960810Y-113073719D01*
X138990098Y-113019335D01*
X139011084Y-112984961D01*
X139027378Y-112966154D01*
X139030307Y-112964951D01*
X139042728Y-112952097D01*
X139051977Y-112930104D01*
X139060313Y-112908850D01*
X139076149Y-112876306D01*
X139101033Y-112829678D01*
X139136509Y-112766171D01*
X139184123Y-112682992D01*
X139245422Y-112577347D01*
X139278932Y-112519938D01*
X139319071Y-112452406D01*
X139347659Y-112408115D01*
X139368039Y-112383145D01*
X139383553Y-112373577D01*
X139397546Y-112375492D01*
X139400796Y-112377089D01*
X139421266Y-112392624D01*
X139459665Y-112425864D01*
X139511696Y-112472938D01*
X139573066Y-112529972D01*
X139625090Y-112579300D01*
X139748567Y-112692970D01*
X139855591Y-112781895D01*
X139947240Y-112846866D01*
X140024588Y-112888679D01*
X140063866Y-112902783D01*
X140098249Y-112908608D01*
X140156899Y-112914625D01*
X140233117Y-112920304D01*
X140320202Y-112925116D01*
X140375268Y-112927381D01*
X140470464Y-112930541D01*
X140540062Y-112931931D01*
X140589409Y-112931142D01*
X140623854Y-112927765D01*
X140648743Y-112921392D01*
X140669425Y-112911613D01*
X140682053Y-112903933D01*
X140730726Y-112859579D01*
X140764645Y-112802426D01*
X140779438Y-112742292D01*
X140774086Y-112697227D01*
X140750930Y-112656424D01*
X140709462Y-112605276D01*
X140656912Y-112550958D01*
X140600516Y-112500643D01*
X140547505Y-112461506D01*
X140521889Y-112447095D01*
X140486814Y-112425509D01*
X140433389Y-112386247D01*
X140365789Y-112332898D01*
X140288190Y-112269048D01*
X140204768Y-112198285D01*
X140119698Y-112124196D01*
X140037155Y-112050368D01*
X139961316Y-111980389D01*
X139896356Y-111917845D01*
X139848669Y-111868740D01*
X139801032Y-111814221D01*
X139765908Y-111768358D01*
X139746949Y-111736189D01*
X139744864Y-111725511D01*
X139753274Y-111709147D01*
X139775846Y-111668329D01*
X139811224Y-111605414D01*
X139858054Y-111522756D01*
X139914981Y-111422711D01*
X139980649Y-111307634D01*
X140053703Y-111179881D01*
X140132788Y-111041806D01*
X140216548Y-110895766D01*
X140303629Y-110744116D01*
X140392676Y-110589210D01*
X140482332Y-110433405D01*
X140571243Y-110279056D01*
X140658054Y-110128518D01*
X140741409Y-109984146D01*
X140819954Y-109848296D01*
X140892333Y-109723323D01*
X140957190Y-109611583D01*
X141013171Y-109515430D01*
X141058920Y-109437221D01*
X141093083Y-109379311D01*
X141114304Y-109344054D01*
X141120963Y-109333835D01*
X141122280Y-109347598D01*
G37*
X141122280Y-109347598D02*
X141123559Y-109390896D01*
X141124796Y-109462286D01*
X141125983Y-109560327D01*
X141127115Y-109683578D01*
X141128186Y-109830597D01*
X141129189Y-109999943D01*
X141130119Y-110190174D01*
X141130968Y-110399849D01*
X141131732Y-110627527D01*
X141132403Y-110871765D01*
X141132976Y-111131123D01*
X141133444Y-111404159D01*
X141133802Y-111689432D01*
X141134042Y-111985500D01*
X141134159Y-112290921D01*
X141134171Y-112419076D01*
X141134171Y-115519030D01*
X140750847Y-115297947D01*
X140669680Y-115251144D01*
X140565166Y-115190898D01*
X140440801Y-115119222D01*
X140300082Y-115038131D01*
X140146503Y-114949638D01*
X139983562Y-114855760D01*
X139814754Y-114758509D01*
X139643575Y-114659900D01*
X139473521Y-114561947D01*
X139430512Y-114537175D01*
X139273857Y-114446848D01*
X139124803Y-114360711D01*
X138985568Y-114280058D01*
X138858371Y-114206184D01*
X138745432Y-114140383D01*
X138648968Y-114083950D01*
X138571200Y-114038179D01*
X138514346Y-114004365D01*
X138480625Y-113983802D01*
X138472040Y-113978047D01*
X138465189Y-113965942D01*
X138467158Y-113945906D01*
X138479736Y-113913381D01*
X138504712Y-113863807D01*
X138543876Y-113792626D01*
X138546988Y-113787084D01*
X138584476Y-113721526D01*
X138617319Y-113666202D01*
X138642205Y-113626545D01*
X138655820Y-113607988D01*
X138656487Y-113607469D01*
X138675390Y-113611952D01*
X138717605Y-113632514D01*
X138780832Y-113667817D01*
X138862772Y-113716520D01*
X138961122Y-113777282D01*
X139073585Y-113848764D01*
X139101165Y-113866555D01*
X139177699Y-113912907D01*
X139243556Y-113946658D01*
X139292782Y-113964847D01*
X139302507Y-113966714D01*
X139345312Y-113965885D01*
X139413209Y-113956606D01*
X139501843Y-113940032D01*
X139606859Y-113917320D01*
X139723902Y-113889627D01*
X139848616Y-113858110D01*
X139976645Y-113823925D01*
X140103634Y-113788229D01*
X140225228Y-113752179D01*
X140337072Y-113716932D01*
X140434810Y-113683644D01*
X140514087Y-113653472D01*
X140561122Y-113632439D01*
X140611225Y-113607663D01*
X140659168Y-113584270D01*
X140661793Y-113583003D01*
X140710220Y-113544301D01*
X140742828Y-113487816D01*
X140758454Y-113422061D01*
X140755937Y-113355549D01*
X140734114Y-113296795D01*
X140705382Y-113263742D01*
X140626583Y-113216141D01*
X140528378Y-113181261D01*
X140420779Y-113162123D01*
X140359780Y-113159412D01*
X140245935Y-113170330D01*
X140151660Y-113202376D01*
X140072379Y-113257274D01*
X140054733Y-113274393D01*
X140005235Y-113325339D01*
X139655362Y-113328837D01*
X139305489Y-113332336D01*
X139170531Y-113243182D01*
X139109445Y-113201346D01*
X139054493Y-113161055D01*
X139013336Y-113128057D01*
X138998192Y-113113874D01*
X138960810Y-113073719D01*
X138990098Y-113019335D01*
X139011084Y-112984961D01*
X139027378Y-112966154D01*
X139030307Y-112964951D01*
X139042728Y-112952097D01*
X139051977Y-112930104D01*
X139060313Y-112908850D01*
X139076149Y-112876306D01*
X139101033Y-112829678D01*
X139136509Y-112766171D01*
X139184123Y-112682992D01*
X139245422Y-112577347D01*
X139278932Y-112519938D01*
X139319071Y-112452406D01*
X139347659Y-112408115D01*
X139368039Y-112383145D01*
X139383553Y-112373577D01*
X139397546Y-112375492D01*
X139400796Y-112377089D01*
X139421266Y-112392624D01*
X139459665Y-112425864D01*
X139511696Y-112472938D01*
X139573066Y-112529972D01*
X139625090Y-112579300D01*
X139748567Y-112692970D01*
X139855591Y-112781895D01*
X139947240Y-112846866D01*
X140024588Y-112888679D01*
X140063866Y-112902783D01*
X140098249Y-112908608D01*
X140156899Y-112914625D01*
X140233117Y-112920304D01*
X140320202Y-112925116D01*
X140375268Y-112927381D01*
X140470464Y-112930541D01*
X140540062Y-112931931D01*
X140589409Y-112931142D01*
X140623854Y-112927765D01*
X140648743Y-112921392D01*
X140669425Y-112911613D01*
X140682053Y-112903933D01*
X140730726Y-112859579D01*
X140764645Y-112802426D01*
X140779438Y-112742292D01*
X140774086Y-112697227D01*
X140750930Y-112656424D01*
X140709462Y-112605276D01*
X140656912Y-112550958D01*
X140600516Y-112500643D01*
X140547505Y-112461506D01*
X140521889Y-112447095D01*
X140486814Y-112425509D01*
X140433389Y-112386247D01*
X140365789Y-112332898D01*
X140288190Y-112269048D01*
X140204768Y-112198285D01*
X140119698Y-112124196D01*
X140037155Y-112050368D01*
X139961316Y-111980389D01*
X139896356Y-111917845D01*
X139848669Y-111868740D01*
X139801032Y-111814221D01*
X139765908Y-111768358D01*
X139746949Y-111736189D01*
X139744864Y-111725511D01*
X139753274Y-111709147D01*
X139775846Y-111668329D01*
X139811224Y-111605414D01*
X139858054Y-111522756D01*
X139914981Y-111422711D01*
X139980649Y-111307634D01*
X140053703Y-111179881D01*
X140132788Y-111041806D01*
X140216548Y-110895766D01*
X140303629Y-110744116D01*
X140392676Y-110589210D01*
X140482332Y-110433405D01*
X140571243Y-110279056D01*
X140658054Y-110128518D01*
X140741409Y-109984146D01*
X140819954Y-109848296D01*
X140892333Y-109723323D01*
X140957190Y-109611583D01*
X141013171Y-109515430D01*
X141058920Y-109437221D01*
X141093083Y-109379311D01*
X141114304Y-109344054D01*
X141120963Y-109333835D01*
X141122280Y-109347598D01*
D12*
%TO.C,D101*%
X90240000Y-99060000D02*
X91260000Y-99060000D01*
X96700000Y-100530000D02*
X96700000Y-97590000D01*
X95920000Y-100530000D02*
X95920000Y-97590000D01*
X95680000Y-100530000D02*
X95680000Y-97590000D01*
X95800000Y-100530000D02*
X95800000Y-97590000D01*
X91260000Y-100530000D02*
X96700000Y-100530000D01*
X91260000Y-97590000D02*
X91260000Y-100530000D01*
X97720000Y-99060000D02*
X96700000Y-99060000D01*
X96700000Y-97590000D02*
X91260000Y-97590000D01*
%TO.C,D102*%
X103942000Y-105934000D02*
X103942000Y-108794000D01*
X103942000Y-108794000D02*
X105862000Y-108794000D01*
X105862000Y-108794000D02*
X105862000Y-105934000D01*
%TO.C,C112*%
X104265000Y-141261252D02*
X104265000Y-140738748D01*
X105735000Y-141261252D02*
X105735000Y-140738748D01*
%TO.C,R108*%
X106772936Y-123215000D02*
X107227064Y-123215000D01*
X106772936Y-124685000D02*
X107227064Y-124685000D01*
%TO.C,C117*%
X111738748Y-101795000D02*
X112261252Y-101795000D01*
X111738748Y-103265000D02*
X112261252Y-103265000D01*
%TO.C,C114*%
X108265000Y-141298752D02*
X108265000Y-140776248D01*
X109735000Y-141298752D02*
X109735000Y-140776248D01*
%TO.C,C111*%
X94265000Y-127261252D02*
X94265000Y-126738748D01*
X95735000Y-127261252D02*
X95735000Y-126738748D01*
%TO.C,C109*%
X136735000Y-121738748D02*
X136735000Y-122261252D01*
X135265000Y-121738748D02*
X135265000Y-122261252D01*
%TO.C,C108*%
X111237448Y-88565000D02*
X111759952Y-88565000D01*
X111237448Y-87095000D02*
X111759952Y-87095000D01*
%TO.C,U102*%
X85560000Y-116000000D02*
X85560000Y-114050000D01*
X80440000Y-116000000D02*
X80440000Y-119450000D01*
X85560000Y-116000000D02*
X85560000Y-117950000D01*
X80440000Y-116000000D02*
X80440000Y-114050000D01*
%TO.C,C102*%
X83261252Y-122735000D02*
X82738748Y-122735000D01*
X83261252Y-121265000D02*
X82738748Y-121265000D01*
%TO.C,C110*%
X101735000Y-141261252D02*
X101735000Y-140738748D01*
X100265000Y-141261252D02*
X100265000Y-140738748D01*
%TO.C,C104*%
X99060048Y-92175000D02*
X99582552Y-92175000D01*
X99060048Y-90705000D02*
X99582552Y-90705000D01*
%TO.C,R106*%
X98090000Y-106272936D02*
X98090000Y-107727064D01*
X99910000Y-106272936D02*
X99910000Y-107727064D01*
%TO.C,C107*%
X137776248Y-85100000D02*
X138298752Y-85100000D01*
X137776248Y-86570000D02*
X138298752Y-86570000D01*
%TO.C,R103*%
X105383000Y-111278936D02*
X105383000Y-111733064D01*
X103913000Y-111278936D02*
X103913000Y-111733064D01*
%TO.C,D103*%
X135718000Y-95702000D02*
X135718000Y-93782000D01*
X132858000Y-95702000D02*
X135718000Y-95702000D01*
X135718000Y-93782000D02*
X132858000Y-93782000D01*
%TO.C,R102*%
X129227064Y-126735000D02*
X128772936Y-126735000D01*
X129227064Y-125265000D02*
X128772936Y-125265000D01*
%TO.C,C106*%
X111237448Y-84220000D02*
X111759952Y-84220000D01*
X111237448Y-82750000D02*
X111759952Y-82750000D01*
%TO.C,C113*%
X94265000Y-139261252D02*
X94265000Y-138738748D01*
X95735000Y-139261252D02*
X95735000Y-138738748D01*
%TO.C,R105*%
X115596936Y-93445000D02*
X116051064Y-93445000D01*
X115596936Y-91975000D02*
X116051064Y-91975000D01*
%TO.C,Y101*%
X93200000Y-129950000D02*
X93200000Y-135700000D01*
X96800000Y-135700000D02*
X96800000Y-129950000D01*
X96800000Y-129950000D02*
X93200000Y-129950000D01*
%TO.C,J104*%
X138938000Y-138811000D02*
X139573000Y-138811000D01*
X138938000Y-139446000D02*
X138938000Y-138811000D01*
%TO.C,C101*%
X83261252Y-106205000D02*
X82738748Y-106205000D01*
X83261252Y-107675000D02*
X82738748Y-107675000D01*
%TO.C,JP101*%
X102400000Y-123000000D02*
X102400000Y-125000000D01*
X99600000Y-123000000D02*
X102400000Y-123000000D01*
X102400000Y-125000000D02*
X99600000Y-125000000D01*
X99600000Y-125000000D02*
X99600000Y-123000000D01*
%TO.C,D104*%
X109998000Y-93670000D02*
X112858000Y-93670000D01*
X112858000Y-93670000D02*
X112858000Y-91750000D01*
X112858000Y-91750000D02*
X109998000Y-91750000D01*
%TO.C,C103*%
X123738748Y-93055000D02*
X124261252Y-93055000D01*
X123738748Y-91585000D02*
X124261252Y-91585000D01*
%TO.C,U105*%
X105390000Y-136610000D02*
X105390000Y-136160000D01*
X112160000Y-129390000D02*
X112610000Y-129390000D01*
X112160000Y-136610000D02*
X112610000Y-136610000D01*
X112610000Y-129390000D02*
X112610000Y-129840000D01*
X105390000Y-129390000D02*
X105390000Y-129840000D01*
X112610000Y-136610000D02*
X112610000Y-136160000D01*
X105840000Y-136610000D02*
X105390000Y-136610000D01*
X105390000Y-129840000D02*
X104100000Y-129840000D01*
X105840000Y-129390000D02*
X105390000Y-129390000D01*
%TO.C,R104*%
X138710936Y-95223000D02*
X139165064Y-95223000D01*
X138710936Y-93753000D02*
X139165064Y-93753000D01*
%TO.C,C118*%
X116265000Y-141261252D02*
X116265000Y-140738748D01*
X117735000Y-141261252D02*
X117735000Y-140738748D01*
%TO.C,C115*%
X111738748Y-98265000D02*
X112261252Y-98265000D01*
X111738748Y-99735000D02*
X112261252Y-99735000D01*
%TO.C,U103*%
X100456200Y-88715000D02*
X99356200Y-88715000D01*
X101956200Y-88985000D02*
X100456200Y-88985000D01*
X100456200Y-82355000D02*
X97626200Y-82355000D01*
X100456200Y-88985000D02*
X100456200Y-88715000D01*
X100456200Y-82085000D02*
X100456200Y-82355000D01*
X101956200Y-82085000D02*
X100456200Y-82085000D01*
%TO.C,R101*%
X82772936Y-110735000D02*
X83227064Y-110735000D01*
X82772936Y-109265000D02*
X83227064Y-109265000D01*
%TO.C,J101*%
X77484000Y-76614000D02*
X77484000Y-82224000D01*
X93204000Y-76614000D02*
X93204000Y-82224000D01*
X82894000Y-86334000D02*
X86634000Y-86334000D01*
X92354000Y-76614000D02*
X93204000Y-76614000D01*
X78334000Y-68914000D02*
X92354000Y-68914000D01*
X77484000Y-76614000D02*
X78334000Y-76614000D01*
X78334000Y-68914000D02*
X78334000Y-76614000D01*
X92354000Y-68914000D02*
X92354000Y-76614000D01*
X77484001Y-82224000D02*
G75*
G03*
X80354100Y-86182718I4109997J-40002D01*
G01*
X91210806Y-85746958D02*
G75*
G03*
X93204000Y-82224000I-2116806J3522958D01*
G01*
%TD*%
M02*
