%TF.GenerationSoftware,KiCad,Pcbnew,(6.0.7)*%
%TF.CreationDate,2023-02-12T17:10:20-05:00*%
%TF.ProjectId,PDB,5044422e-6b69-4636-9164-5f7063625858,rev?*%
%TF.SameCoordinates,Original*%
%TF.FileFunction,Copper,L2,Bot*%
%TF.FilePolarity,Positive*%
%FSLAX46Y46*%
G04 Gerber Fmt 4.6, Leading zero omitted, Abs format (unit mm)*
G04 Created by KiCad (PCBNEW (6.0.7)) date 2023-02-12 17:10:20*
%MOMM*%
%LPD*%
G01*
G04 APERTURE LIST*
G04 Aperture macros list*
%AMRoundRect*
0 Rectangle with rounded corners*
0 $1 Rounding radius*
0 $2 $3 $4 $5 $6 $7 $8 $9 X,Y pos of 4 corners*
0 Add a 4 corners polygon primitive as box body*
4,1,4,$2,$3,$4,$5,$6,$7,$8,$9,$2,$3,0*
0 Add four circle primitives for the rounded corners*
1,1,$1+$1,$2,$3*
1,1,$1+$1,$4,$5*
1,1,$1+$1,$6,$7*
1,1,$1+$1,$8,$9*
0 Add four rect primitives between the rounded corners*
20,1,$1+$1,$2,$3,$4,$5,0*
20,1,$1+$1,$4,$5,$6,$7,0*
20,1,$1+$1,$6,$7,$8,$9,0*
20,1,$1+$1,$8,$9,$2,$3,0*%
G04 Aperture macros list end*
%TA.AperFunction,ComponentPad*%
%ADD10R,1.000000X1.000000*%
%TD*%
%TA.AperFunction,ComponentPad*%
%ADD11O,1.000000X1.000000*%
%TD*%
%TA.AperFunction,ComponentPad*%
%ADD12R,2.200000X2.200000*%
%TD*%
%TA.AperFunction,ComponentPad*%
%ADD13O,2.200000X2.200000*%
%TD*%
%TA.AperFunction,ComponentPad*%
%ADD14R,0.900000X2.000000*%
%TD*%
%TA.AperFunction,ComponentPad*%
%ADD15RoundRect,1.025000X-1.025000X-1.025000X1.025000X-1.025000X1.025000X1.025000X-1.025000X1.025000X0*%
%TD*%
%TA.AperFunction,ComponentPad*%
%ADD16C,4.100000*%
%TD*%
%TA.AperFunction,ViaPad*%
%ADD17C,0.800000*%
%TD*%
%TA.AperFunction,Conductor*%
%ADD18C,0.250000*%
%TD*%
G04 APERTURE END LIST*
D10*
%TO.P,J102,1,Pin_1*%
%TO.N,+5V*%
X77585000Y-134488000D03*
D11*
%TO.P,J102,2,Pin_2*%
X77585000Y-135758000D03*
%TO.P,J102,3,Pin_3*%
%TO.N,/CANH*%
X77585000Y-137028000D03*
%TO.P,J102,4,Pin_4*%
%TO.N,/CANL*%
X77585000Y-138298000D03*
%TO.P,J102,5,Pin_5*%
%TO.N,+3.3V*%
X77585000Y-139568000D03*
%TO.P,J102,6,Pin_6*%
X77585000Y-140838000D03*
%TO.P,J102,7,Pin_7*%
%TO.N,GND*%
X77585000Y-142108000D03*
%TO.P,J102,8,Pin_8*%
X77585000Y-143378000D03*
%TD*%
D12*
%TO.P,D101,1,K*%
%TO.N,/V_in*%
X99060000Y-99060000D03*
D13*
%TO.P,D101,2,A*%
%TO.N,Net-(D101-Pad2)*%
X88900000Y-99060000D03*
%TD*%
D14*
%TO.P,J101,*%
%TO.N,*%
X78594000Y-78374000D03*
X92094000Y-78374000D03*
D15*
%TO.P,J101,1,Pin_1*%
%TO.N,Net-(D101-Pad2)*%
X88944000Y-84374000D03*
D16*
%TO.P,J101,2,Pin_2*%
%TO.N,GND*%
X81744000Y-84374000D03*
%TD*%
D17*
%TO.N,+3.3V*%
X96266000Y-108458000D03*
X85852000Y-106172000D03*
X102616000Y-121412000D03*
X86614000Y-108204000D03*
X138228282Y-136140723D03*
X105664000Y-100584000D03*
X131572000Y-141732000D03*
%TO.N,GND*%
X106244100Y-134485200D03*
X125333300Y-93853700D03*
X94322900Y-136590500D03*
X140362000Y-86409100D03*
X81080600Y-111625200D03*
X140343200Y-90402200D03*
X109545900Y-123863400D03*
X112699800Y-100765000D03*
X96343300Y-125524000D03*
X135310800Y-124396900D03*
X112401400Y-85657500D03*
X80647600Y-107167000D03*
X126497800Y-121838900D03*
X104648000Y-113708700D03*
X123865000Y-81482300D03*
X96836800Y-117260700D03*
X111353100Y-138575700D03*
X96416100Y-83197900D03*
X137968000Y-143654200D03*
X111730000Y-131299200D03*
X101897900Y-91701000D03*
X139525100Y-92585100D03*
X107397300Y-127200700D03*
X82097500Y-120329200D03*
X116541100Y-94307700D03*
%TO.N,/CANH*%
X111311800Y-132557800D03*
%TO.N,/CANL*%
X116222600Y-132395700D03*
%TO.N,/SWO*%
X116222600Y-127243200D03*
X131507400Y-140462200D03*
%TO.N,/Batt_curr_sense*%
X113106200Y-128040300D03*
X103037100Y-135842000D03*
%TD*%
D18*
%TO.N,+3.3V*%
X102616000Y-103886000D02*
X102616000Y-103632000D01*
X102616000Y-103886000D02*
X100838000Y-103886000D01*
X131572000Y-141732000D02*
X137163277Y-136140723D01*
X100838000Y-103886000D02*
X96266000Y-108458000D01*
X102616000Y-103632000D02*
X105664000Y-100584000D01*
X86614000Y-106934000D02*
X85852000Y-106172000D01*
X137163277Y-136140723D02*
X138228282Y-136140723D01*
X86614000Y-108204000D02*
X86614000Y-106934000D01*
X102616000Y-121412000D02*
X102616000Y-103886000D01*
%TO.N,+5V*%
X77585000Y-135758000D02*
X77585000Y-134488000D01*
%TO.N,Net-(D101-Pad2)*%
X88944000Y-97590700D02*
X88900000Y-97634700D01*
X88944000Y-84374000D02*
X88944000Y-97590700D01*
X88900000Y-99060000D02*
X88900000Y-97634700D01*
%TO.N,/CANH*%
X100988900Y-135817500D02*
X101750500Y-136579100D01*
X101750500Y-136579100D02*
X107290500Y-136579100D01*
X77585000Y-137028000D02*
X78410300Y-137028000D01*
X79620800Y-135817500D02*
X100988900Y-135817500D01*
X78410300Y-137028000D02*
X79620800Y-135817500D01*
X107290500Y-136579100D02*
X111311800Y-132557800D01*
%TO.N,/CANL*%
X110320300Y-138298000D02*
X116222600Y-132395700D01*
X77585000Y-138298000D02*
X110320300Y-138298000D01*
%TO.N,/SWO*%
X116222600Y-127243200D02*
X118288400Y-127243200D01*
X118288400Y-127243200D02*
X131507400Y-140462200D01*
%TO.N,/Batt_curr_sense*%
X103037100Y-135842000D02*
X110838800Y-128040300D01*
X110838800Y-128040300D02*
X113106200Y-128040300D01*
%TD*%
%TA.AperFunction,Conductor*%
%TO.N,GND*%
G36*
X77873918Y-76728502D02*
G01*
X77920411Y-76782158D01*
X77930515Y-76852432D01*
X77901021Y-76917012D01*
X77881362Y-76935326D01*
X77780739Y-77010739D01*
X77693385Y-77127295D01*
X77642255Y-77263684D01*
X77635500Y-77325866D01*
X77635500Y-79422134D01*
X77642255Y-79484316D01*
X77693385Y-79620705D01*
X77780739Y-79737261D01*
X77897295Y-79824615D01*
X78033684Y-79875745D01*
X78095866Y-79882500D01*
X79092134Y-79882500D01*
X79154316Y-79875745D01*
X79290705Y-79824615D01*
X79407261Y-79737261D01*
X79494615Y-79620705D01*
X79545745Y-79484316D01*
X79552500Y-79422134D01*
X79552500Y-77325866D01*
X79545745Y-77263684D01*
X79494615Y-77127295D01*
X79407261Y-77010739D01*
X79306638Y-76935326D01*
X79264123Y-76878467D01*
X79259097Y-76807648D01*
X79293157Y-76745355D01*
X79355488Y-76711365D01*
X79382203Y-76708500D01*
X91305797Y-76708500D01*
X91373918Y-76728502D01*
X91420411Y-76782158D01*
X91430515Y-76852432D01*
X91401021Y-76917012D01*
X91381362Y-76935326D01*
X91280739Y-77010739D01*
X91193385Y-77127295D01*
X91142255Y-77263684D01*
X91135500Y-77325866D01*
X91135500Y-79422134D01*
X91142255Y-79484316D01*
X91193385Y-79620705D01*
X91280739Y-79737261D01*
X91397295Y-79824615D01*
X91533684Y-79875745D01*
X91595866Y-79882500D01*
X92592134Y-79882500D01*
X92654316Y-79875745D01*
X92790705Y-79824615D01*
X92907261Y-79737261D01*
X92994615Y-79620705D01*
X93045745Y-79484316D01*
X93052500Y-79422134D01*
X93052500Y-77325866D01*
X93045745Y-77263684D01*
X92994615Y-77127295D01*
X92907261Y-77010739D01*
X92806638Y-76935326D01*
X92764123Y-76878467D01*
X92759097Y-76807648D01*
X92793157Y-76745355D01*
X92855488Y-76711365D01*
X92882203Y-76708500D01*
X144145500Y-76708500D01*
X144213621Y-76728502D01*
X144260114Y-76782158D01*
X144271500Y-76834500D01*
X144271500Y-93483949D01*
X144251498Y-93552070D01*
X144197842Y-93598563D01*
X144127568Y-93608667D01*
X144062988Y-93579173D01*
X144052754Y-93569237D01*
X144052361Y-93568810D01*
X144049687Y-93565472D01*
X143841149Y-93367577D01*
X143607683Y-93199814D01*
X143585843Y-93188250D01*
X143562654Y-93175972D01*
X143353608Y-93065288D01*
X143083627Y-92966489D01*
X142802736Y-92905245D01*
X142771685Y-92902801D01*
X142579718Y-92887693D01*
X142579709Y-92887693D01*
X142577261Y-92887500D01*
X142421729Y-92887500D01*
X142419593Y-92887646D01*
X142419582Y-92887646D01*
X142211452Y-92901835D01*
X142211446Y-92901836D01*
X142207175Y-92902127D01*
X142202980Y-92902996D01*
X142202978Y-92902996D01*
X142066417Y-92931276D01*
X141925658Y-92960426D01*
X141654657Y-93056393D01*
X141399188Y-93188250D01*
X141395687Y-93190711D01*
X141395683Y-93190713D01*
X141385594Y-93197804D01*
X141163977Y-93353559D01*
X140953378Y-93549260D01*
X140771287Y-93771732D01*
X140621073Y-94016858D01*
X140505517Y-94280102D01*
X140426756Y-94556594D01*
X140386249Y-94841216D01*
X140386227Y-94845505D01*
X140386226Y-94845512D01*
X140385631Y-94959142D01*
X140384743Y-95128703D01*
X140422268Y-95413734D01*
X140498129Y-95691036D01*
X140499813Y-95694984D01*
X140592459Y-95912187D01*
X140610923Y-95955476D01*
X140646035Y-96014144D01*
X140715891Y-96130864D01*
X140758561Y-96202161D01*
X140938313Y-96426528D01*
X141146851Y-96624423D01*
X141380317Y-96792186D01*
X141384112Y-96794195D01*
X141384113Y-96794196D01*
X141405869Y-96805715D01*
X141634392Y-96926712D01*
X141904373Y-97025511D01*
X142185264Y-97086755D01*
X142213841Y-97089004D01*
X142408282Y-97104307D01*
X142408291Y-97104307D01*
X142410739Y-97104500D01*
X142566271Y-97104500D01*
X142568407Y-97104354D01*
X142568418Y-97104354D01*
X142776548Y-97090165D01*
X142776554Y-97090164D01*
X142780825Y-97089873D01*
X142785020Y-97089004D01*
X142785022Y-97089004D01*
X142921583Y-97060724D01*
X143062342Y-97031574D01*
X143333343Y-96935607D01*
X143588812Y-96803750D01*
X143592313Y-96801289D01*
X143592317Y-96801287D01*
X143706417Y-96721096D01*
X143824023Y-96638441D01*
X144034622Y-96442740D01*
X144047996Y-96426400D01*
X144106620Y-96386355D01*
X144177589Y-96384361D01*
X144238370Y-96421052D01*
X144269665Y-96484779D01*
X144271500Y-96506206D01*
X144271500Y-125585030D01*
X144251498Y-125653151D01*
X144197842Y-125699644D01*
X144127568Y-125709748D01*
X144086541Y-125696384D01*
X143958381Y-125628527D01*
X143861608Y-125577288D01*
X143591627Y-125478489D01*
X143310736Y-125417245D01*
X143279685Y-125414801D01*
X143087718Y-125399693D01*
X143087709Y-125399693D01*
X143085261Y-125399500D01*
X142929729Y-125399500D01*
X142927593Y-125399646D01*
X142927582Y-125399646D01*
X142719452Y-125413835D01*
X142719446Y-125413836D01*
X142715175Y-125414127D01*
X142710980Y-125414996D01*
X142710978Y-125414996D01*
X142574416Y-125443277D01*
X142433658Y-125472426D01*
X142162657Y-125568393D01*
X141907188Y-125700250D01*
X141903687Y-125702711D01*
X141903683Y-125702713D01*
X141789582Y-125782905D01*
X141671977Y-125865559D01*
X141668836Y-125868478D01*
X141475821Y-126047839D01*
X141461378Y-126061260D01*
X141279287Y-126283732D01*
X141129073Y-126528858D01*
X141127347Y-126532791D01*
X141127346Y-126532792D01*
X141024507Y-126767065D01*
X141013517Y-126792102D01*
X141012342Y-126796229D01*
X141012341Y-126796230D01*
X140992489Y-126865921D01*
X140934756Y-127068594D01*
X140894249Y-127353216D01*
X140894227Y-127357505D01*
X140894226Y-127357512D01*
X140892765Y-127636417D01*
X140892743Y-127640703D01*
X140893302Y-127644947D01*
X140893302Y-127644951D01*
X140897262Y-127675029D01*
X140930268Y-127925734D01*
X140931401Y-127929874D01*
X140931401Y-127929876D01*
X140952415Y-128006689D01*
X141006129Y-128203036D01*
X141118923Y-128467476D01*
X141121130Y-128471163D01*
X141258529Y-128700740D01*
X141266561Y-128714161D01*
X141446313Y-128938528D01*
X141654851Y-129136423D01*
X141888317Y-129304186D01*
X141892112Y-129306195D01*
X141892113Y-129306196D01*
X141933346Y-129328028D01*
X142142392Y-129438712D01*
X142412373Y-129537511D01*
X142693264Y-129598755D01*
X142721841Y-129601004D01*
X142916282Y-129616307D01*
X142916291Y-129616307D01*
X142918739Y-129616500D01*
X143074271Y-129616500D01*
X143076407Y-129616354D01*
X143076418Y-129616354D01*
X143284548Y-129602165D01*
X143284554Y-129602164D01*
X143288825Y-129601873D01*
X143293020Y-129601004D01*
X143293022Y-129601004D01*
X143429583Y-129572724D01*
X143570342Y-129543574D01*
X143841343Y-129447607D01*
X144087710Y-129320448D01*
X144157418Y-129306979D01*
X144223341Y-129333334D01*
X144264551Y-129391147D01*
X144271500Y-129432414D01*
X144271500Y-137000220D01*
X144251498Y-137068341D01*
X144197842Y-137114834D01*
X144127568Y-137124938D01*
X144062988Y-137095444D01*
X144047541Y-137078656D01*
X144047337Y-137078830D01*
X144044227Y-137075189D01*
X144041406Y-137071327D01*
X144027858Y-137057708D01*
X143862806Y-136891789D01*
X143862801Y-136891785D01*
X143859430Y-136888396D01*
X143651878Y-136735096D01*
X143647648Y-136732870D01*
X143647644Y-136732868D01*
X143427762Y-136617183D01*
X143427760Y-136617182D01*
X143423525Y-136614954D01*
X143179627Y-136530735D01*
X142979949Y-136494267D01*
X142929767Y-136485102D01*
X142929766Y-136485102D01*
X142925797Y-136484377D01*
X142843233Y-136480050D01*
X142682387Y-136480050D01*
X142680008Y-136480231D01*
X142680007Y-136480231D01*
X142495481Y-136494267D01*
X142495476Y-136494268D01*
X142490714Y-136494630D01*
X142486061Y-136495709D01*
X142486058Y-136495709D01*
X142334948Y-136530735D01*
X142239349Y-136552894D01*
X141999689Y-136648508D01*
X141777250Y-136779274D01*
X141773539Y-136782295D01*
X141773535Y-136782298D01*
X141704176Y-136838765D01*
X141577149Y-136942181D01*
X141403993Y-137133481D01*
X141401352Y-137137479D01*
X141401351Y-137137480D01*
X141349099Y-137216574D01*
X141261765Y-137348772D01*
X141259764Y-137353112D01*
X141259762Y-137353116D01*
X141190808Y-137502690D01*
X141144124Y-137556179D01*
X141075932Y-137575938D01*
X141007883Y-137555693D01*
X140984833Y-137536512D01*
X140955909Y-137505925D01*
X140867286Y-137412209D01*
X140770425Y-137344386D01*
X140705472Y-137298906D01*
X140705471Y-137298905D01*
X140700239Y-137295242D01*
X140569472Y-137238654D01*
X140518940Y-137216787D01*
X140518939Y-137216787D01*
X140513084Y-137214253D01*
X140419276Y-137194655D01*
X140318212Y-137173541D01*
X140318208Y-137173541D01*
X140313467Y-137172550D01*
X140308630Y-137172297D01*
X140308626Y-137172296D01*
X140308560Y-137172293D01*
X140306788Y-137172200D01*
X140157033Y-137172200D01*
X140105338Y-137177451D01*
X140011466Y-137186986D01*
X140011465Y-137186986D01*
X140005117Y-137187631D01*
X139810522Y-137248614D01*
X139632163Y-137347479D01*
X139477327Y-137480190D01*
X139473413Y-137485235D01*
X139473409Y-137485240D01*
X139442515Y-137525068D01*
X139384959Y-137566635D01*
X139314067Y-137570485D01*
X139252347Y-137535398D01*
X139231142Y-137505925D01*
X139224674Y-137493472D01*
X139167879Y-137384137D01*
X139115826Y-137283931D01*
X139115824Y-137283928D01*
X139113617Y-137279679D01*
X139089527Y-137246703D01*
X138966760Y-137078656D01*
X138961406Y-137071327D01*
X138947810Y-137057659D01*
X138923023Y-137032743D01*
X138862564Y-136971966D01*
X138828703Y-136909567D01*
X138833953Y-136838765D01*
X138858257Y-136798796D01*
X138962903Y-136682575D01*
X138962904Y-136682574D01*
X138967322Y-136677667D01*
X139039984Y-136551813D01*
X139059505Y-136518002D01*
X139059506Y-136518001D01*
X139062809Y-136512279D01*
X139121824Y-136330651D01*
X139124315Y-136306956D01*
X139141096Y-136147288D01*
X139141786Y-136140723D01*
X139121824Y-135950795D01*
X139062809Y-135769167D01*
X139040488Y-135730505D01*
X139008586Y-135675251D01*
X138967322Y-135603779D01*
X138951164Y-135585833D01*
X138843957Y-135466768D01*
X138843956Y-135466767D01*
X138839535Y-135461857D01*
X138704650Y-135363857D01*
X138690376Y-135353486D01*
X138690375Y-135353485D01*
X138685034Y-135349605D01*
X138679006Y-135346921D01*
X138679004Y-135346920D01*
X138516601Y-135274614D01*
X138516600Y-135274614D01*
X138510570Y-135271929D01*
X138417170Y-135252076D01*
X138330226Y-135233595D01*
X138330221Y-135233595D01*
X138323769Y-135232223D01*
X138132795Y-135232223D01*
X138126343Y-135233595D01*
X138126338Y-135233595D01*
X138039394Y-135252076D01*
X137945994Y-135271929D01*
X137939964Y-135274614D01*
X137939963Y-135274614D01*
X137777560Y-135346920D01*
X137777558Y-135346921D01*
X137771530Y-135349605D01*
X137766189Y-135353485D01*
X137766188Y-135353486D01*
X137732818Y-135377731D01*
X137617029Y-135461857D01*
X137612614Y-135466760D01*
X137607702Y-135471183D01*
X137606577Y-135469934D01*
X137553268Y-135502774D01*
X137520082Y-135507223D01*
X137242045Y-135507223D01*
X137230862Y-135506696D01*
X137223369Y-135505021D01*
X137215443Y-135505270D01*
X137215442Y-135505270D01*
X137155279Y-135507161D01*
X137151321Y-135507223D01*
X137123421Y-135507223D01*
X137119431Y-135507727D01*
X137107597Y-135508659D01*
X137063388Y-135510049D01*
X137055774Y-135512261D01*
X137055769Y-135512262D01*
X137043936Y-135515700D01*
X137024573Y-135519711D01*
X137004480Y-135522249D01*
X136997113Y-135525166D01*
X136997108Y-135525167D01*
X136963369Y-135538525D01*
X136952142Y-135542369D01*
X136909684Y-135554705D01*
X136902858Y-135558742D01*
X136892249Y-135565016D01*
X136874501Y-135573711D01*
X136855660Y-135581171D01*
X136849244Y-135585833D01*
X136849243Y-135585833D01*
X136819890Y-135607159D01*
X136809970Y-135613675D01*
X136778742Y-135632143D01*
X136778739Y-135632145D01*
X136771915Y-135636181D01*
X136757594Y-135650502D01*
X136742561Y-135663342D01*
X136726170Y-135675251D01*
X136721119Y-135681357D01*
X136697979Y-135709328D01*
X136689989Y-135718107D01*
X132449079Y-139959016D01*
X132386767Y-139993042D01*
X132315951Y-139987977D01*
X132259116Y-139945430D01*
X132250871Y-139932930D01*
X132246440Y-139925256D01*
X132198847Y-139872398D01*
X132123075Y-139788245D01*
X132123074Y-139788244D01*
X132118653Y-139783334D01*
X132006279Y-139701689D01*
X131969494Y-139674963D01*
X131969493Y-139674962D01*
X131964152Y-139671082D01*
X131958124Y-139668398D01*
X131958122Y-139668397D01*
X131795719Y-139596091D01*
X131795718Y-139596091D01*
X131789688Y-139593406D01*
X131686737Y-139571523D01*
X131609344Y-139555072D01*
X131609339Y-139555072D01*
X131602887Y-139553700D01*
X131546994Y-139553700D01*
X131478873Y-139533698D01*
X131457899Y-139516795D01*
X125130608Y-133189503D01*
X118792052Y-126850947D01*
X118784512Y-126842661D01*
X118780400Y-126836182D01*
X118730748Y-126789556D01*
X118727907Y-126786802D01*
X118708170Y-126767065D01*
X118704973Y-126764585D01*
X118695951Y-126756880D01*
X118669500Y-126732041D01*
X118663721Y-126726614D01*
X118656775Y-126722795D01*
X118656772Y-126722793D01*
X118645966Y-126716852D01*
X118629447Y-126706001D01*
X118623448Y-126701348D01*
X118613441Y-126693586D01*
X118606172Y-126690441D01*
X118606168Y-126690438D01*
X118572863Y-126676026D01*
X118562213Y-126670809D01*
X118523460Y-126649505D01*
X118503837Y-126644467D01*
X118485134Y-126638063D01*
X118473820Y-126633167D01*
X118473819Y-126633167D01*
X118466545Y-126630019D01*
X118458722Y-126628780D01*
X118458712Y-126628777D01*
X118422876Y-126623101D01*
X118411256Y-126620695D01*
X118376111Y-126611672D01*
X118376110Y-126611672D01*
X118368430Y-126609700D01*
X118348176Y-126609700D01*
X118328465Y-126608149D01*
X118316286Y-126606220D01*
X118308457Y-126604980D01*
X118300565Y-126605726D01*
X118264439Y-126609141D01*
X118252581Y-126609700D01*
X116930800Y-126609700D01*
X116862679Y-126589698D01*
X116843453Y-126573357D01*
X116843180Y-126573660D01*
X116838268Y-126569237D01*
X116833853Y-126564334D01*
X116679352Y-126452082D01*
X116673324Y-126449398D01*
X116673322Y-126449397D01*
X116510919Y-126377091D01*
X116510918Y-126377091D01*
X116504888Y-126374406D01*
X116411487Y-126354553D01*
X116324544Y-126336072D01*
X116324539Y-126336072D01*
X116318087Y-126334700D01*
X116127113Y-126334700D01*
X116120661Y-126336072D01*
X116120656Y-126336072D01*
X116033713Y-126354553D01*
X115940312Y-126374406D01*
X115934282Y-126377091D01*
X115934281Y-126377091D01*
X115771878Y-126449397D01*
X115771876Y-126449398D01*
X115765848Y-126452082D01*
X115611347Y-126564334D01*
X115606926Y-126569244D01*
X115606925Y-126569245D01*
X115497803Y-126690438D01*
X115483560Y-126706256D01*
X115468673Y-126732041D01*
X115408499Y-126836266D01*
X115388073Y-126871644D01*
X115329058Y-127053272D01*
X115328368Y-127059833D01*
X115328368Y-127059835D01*
X115327001Y-127072841D01*
X115309096Y-127243200D01*
X115309786Y-127249765D01*
X115326086Y-127404847D01*
X115329058Y-127433128D01*
X115388073Y-127614756D01*
X115391376Y-127620478D01*
X115391377Y-127620479D01*
X115405506Y-127644951D01*
X115483560Y-127780144D01*
X115487978Y-127785051D01*
X115487979Y-127785052D01*
X115552703Y-127856935D01*
X115611347Y-127922066D01*
X115765848Y-128034318D01*
X115771876Y-128037002D01*
X115771878Y-128037003D01*
X115794029Y-128046865D01*
X115940312Y-128111994D01*
X116033712Y-128131847D01*
X116120656Y-128150328D01*
X116120661Y-128150328D01*
X116127113Y-128151700D01*
X116318087Y-128151700D01*
X116324539Y-128150328D01*
X116324544Y-128150328D01*
X116411488Y-128131847D01*
X116504888Y-128111994D01*
X116651171Y-128046865D01*
X116673322Y-128037003D01*
X116673324Y-128037002D01*
X116679352Y-128034318D01*
X116833853Y-127922066D01*
X116838268Y-127917163D01*
X116843180Y-127912740D01*
X116844305Y-127913989D01*
X116897614Y-127881149D01*
X116930800Y-127876700D01*
X117973806Y-127876700D01*
X118041927Y-127896702D01*
X118062901Y-127913605D01*
X130560278Y-140410983D01*
X130594304Y-140473295D01*
X130596493Y-140486908D01*
X130612086Y-140635264D01*
X130613858Y-140652128D01*
X130672873Y-140833756D01*
X130768360Y-140999144D01*
X130815387Y-141051372D01*
X130846102Y-141115376D01*
X130837339Y-141185830D01*
X130830870Y-141198676D01*
X130737473Y-141360444D01*
X130678458Y-141542072D01*
X130658496Y-141732000D01*
X130659186Y-141738565D01*
X130671319Y-141854000D01*
X130678458Y-141921928D01*
X130737473Y-142103556D01*
X130832960Y-142268944D01*
X130837378Y-142273851D01*
X130837379Y-142273852D01*
X130931970Y-142378906D01*
X130960747Y-142410866D01*
X131027086Y-142459064D01*
X131102865Y-142514121D01*
X131115248Y-142523118D01*
X131121276Y-142525802D01*
X131121278Y-142525803D01*
X131253831Y-142584819D01*
X131289712Y-142600794D01*
X131383113Y-142620647D01*
X131470056Y-142639128D01*
X131470061Y-142639128D01*
X131476513Y-142640500D01*
X131667487Y-142640500D01*
X131673939Y-142639128D01*
X131673944Y-142639128D01*
X131760887Y-142620647D01*
X131854288Y-142600794D01*
X131890169Y-142584819D01*
X132022722Y-142525803D01*
X132022724Y-142525802D01*
X132028752Y-142523118D01*
X132041136Y-142514121D01*
X132116914Y-142459064D01*
X132183253Y-142410866D01*
X132212030Y-142378906D01*
X132306621Y-142273852D01*
X132306622Y-142273851D01*
X132311040Y-142268944D01*
X132406527Y-142103556D01*
X132465542Y-141921928D01*
X132482907Y-141756706D01*
X132509920Y-141691050D01*
X132519122Y-141680782D01*
X135786359Y-138413546D01*
X135848671Y-138379520D01*
X135919487Y-138384585D01*
X135976322Y-138427132D01*
X135999521Y-138480653D01*
X136019662Y-138594298D01*
X136020497Y-138599007D01*
X136103438Y-138843342D01*
X136105642Y-138847584D01*
X136105642Y-138847585D01*
X136214299Y-139056758D01*
X136222383Y-139072321D01*
X136225209Y-139076189D01*
X136225210Y-139076191D01*
X136300831Y-139179704D01*
X136374594Y-139280673D01*
X136377965Y-139284062D01*
X136377967Y-139284064D01*
X136553194Y-139460211D01*
X136553199Y-139460215D01*
X136556570Y-139463604D01*
X136764122Y-139616904D01*
X136768353Y-139619130D01*
X136768361Y-139619135D01*
X136831338Y-139652269D01*
X136882311Y-139701689D01*
X136898473Y-139770821D01*
X136874694Y-139837717D01*
X136836525Y-139872398D01*
X136697250Y-139954274D01*
X136693539Y-139957295D01*
X136693535Y-139957298D01*
X136511616Y-140105403D01*
X136497149Y-140117181D01*
X136323993Y-140308481D01*
X136181765Y-140523772D01*
X136179764Y-140528112D01*
X136179762Y-140528116D01*
X136075745Y-140753748D01*
X136073739Y-140758100D01*
X136072415Y-140762701D01*
X136072415Y-140762702D01*
X136004393Y-140999144D01*
X136002400Y-141006071D01*
X136001789Y-141010806D01*
X136001788Y-141010812D01*
X135977555Y-141198680D01*
X135969390Y-141261980D01*
X135975469Y-141519937D01*
X135979371Y-141541953D01*
X136019189Y-141766624D01*
X136020497Y-141774007D01*
X136103438Y-142018342D01*
X136105642Y-142022584D01*
X136105642Y-142022585D01*
X136203233Y-142210455D01*
X136222383Y-142247321D01*
X136225209Y-142251189D01*
X136225210Y-142251191D01*
X136238615Y-142269540D01*
X136374594Y-142455673D01*
X136377965Y-142459062D01*
X136377967Y-142459064D01*
X136553194Y-142635211D01*
X136553199Y-142635215D01*
X136556570Y-142638604D01*
X136764122Y-142791904D01*
X136768352Y-142794130D01*
X136768356Y-142794132D01*
X136977750Y-142904299D01*
X136992475Y-142912046D01*
X137236373Y-142996265D01*
X137490203Y-143042623D01*
X137572767Y-143046950D01*
X137733613Y-143046950D01*
X137735992Y-143046769D01*
X137735993Y-143046769D01*
X137920519Y-143032733D01*
X137920524Y-143032732D01*
X137925286Y-143032370D01*
X137929939Y-143031291D01*
X137929942Y-143031291D01*
X138038854Y-143006046D01*
X138109732Y-143010150D01*
X138167139Y-143051921D01*
X138192850Y-143118099D01*
X138193132Y-143135380D01*
X138184228Y-143305288D01*
X138214722Y-143506922D01*
X138285137Y-143698306D01*
X138392598Y-143871622D01*
X138532714Y-144019791D01*
X138564844Y-144042289D01*
X138609171Y-144097743D01*
X138616480Y-144168363D01*
X138584450Y-144231723D01*
X138523249Y-144267709D01*
X138492572Y-144271500D01*
X78420597Y-144271500D01*
X78352476Y-144251498D01*
X78305983Y-144197842D01*
X78295879Y-144127568D01*
X78325216Y-144063169D01*
X78408638Y-143966523D01*
X78415711Y-143956497D01*
X78507262Y-143795337D01*
X78512256Y-143784121D01*
X78557142Y-143649190D01*
X78557643Y-143635097D01*
X78551454Y-143632000D01*
X77457000Y-143632000D01*
X77388879Y-143611998D01*
X77342386Y-143558342D01*
X77331000Y-143506000D01*
X77331000Y-143105885D01*
X77839000Y-143105885D01*
X77843475Y-143121124D01*
X77844865Y-143122329D01*
X77852548Y-143124000D01*
X78543183Y-143124000D01*
X78556714Y-143120027D01*
X78557806Y-143112433D01*
X78523231Y-142997919D01*
X78518560Y-142986586D01*
X78431538Y-142822920D01*
X78424124Y-142811760D01*
X78403088Y-142743951D01*
X78419517Y-142679797D01*
X78507262Y-142525337D01*
X78512256Y-142514121D01*
X78557142Y-142379190D01*
X78557643Y-142365097D01*
X78551454Y-142362000D01*
X77857115Y-142362000D01*
X77841876Y-142366475D01*
X77840671Y-142367865D01*
X77839000Y-142375548D01*
X77839000Y-143105885D01*
X77331000Y-143105885D01*
X77331000Y-141980000D01*
X77351002Y-141911879D01*
X77404658Y-141865386D01*
X77457000Y-141854000D01*
X78543183Y-141854000D01*
X78556714Y-141850027D01*
X78557806Y-141842433D01*
X78523231Y-141727919D01*
X78518560Y-141716586D01*
X78431537Y-141552918D01*
X78424435Y-141542228D01*
X78403398Y-141474420D01*
X78419827Y-141410264D01*
X78507723Y-141255542D01*
X78507725Y-141255537D01*
X78510769Y-141250179D01*
X78573197Y-141062513D01*
X78597985Y-140866295D01*
X78598380Y-140838000D01*
X78579080Y-140641167D01*
X78521916Y-140451831D01*
X78429066Y-140277204D01*
X78425167Y-140272424D01*
X78424715Y-140271743D01*
X78403676Y-140203935D01*
X78420105Y-140139775D01*
X78507723Y-139985542D01*
X78507725Y-139985537D01*
X78510769Y-139980179D01*
X78573197Y-139792513D01*
X78597985Y-139596295D01*
X78598380Y-139568000D01*
X78579080Y-139371167D01*
X78521916Y-139181831D01*
X78519024Y-139176392D01*
X78519022Y-139176387D01*
X78487261Y-139116652D01*
X78472942Y-139047115D01*
X78498490Y-138980874D01*
X78555795Y-138938962D01*
X78598513Y-138931500D01*
X110241533Y-138931500D01*
X110252716Y-138932027D01*
X110260209Y-138933702D01*
X110268135Y-138933453D01*
X110268136Y-138933453D01*
X110328286Y-138931562D01*
X110332245Y-138931500D01*
X110360156Y-138931500D01*
X110364091Y-138931003D01*
X110364156Y-138930995D01*
X110375993Y-138930062D01*
X110408251Y-138929048D01*
X110412270Y-138928922D01*
X110420189Y-138928673D01*
X110439643Y-138923021D01*
X110459000Y-138919013D01*
X110471230Y-138917468D01*
X110471231Y-138917468D01*
X110479097Y-138916474D01*
X110486468Y-138913555D01*
X110486470Y-138913555D01*
X110520212Y-138900196D01*
X110531442Y-138896351D01*
X110566283Y-138886229D01*
X110566284Y-138886229D01*
X110573893Y-138884018D01*
X110580712Y-138879985D01*
X110580717Y-138879983D01*
X110591328Y-138873707D01*
X110609076Y-138865012D01*
X110627917Y-138857552D01*
X110642502Y-138846956D01*
X110663687Y-138831564D01*
X110673607Y-138825048D01*
X110704835Y-138806580D01*
X110704838Y-138806578D01*
X110711662Y-138802542D01*
X110725983Y-138788221D01*
X110741017Y-138775380D01*
X110750994Y-138768131D01*
X110757407Y-138763472D01*
X110785598Y-138729395D01*
X110793588Y-138720616D01*
X116173099Y-133341105D01*
X116235411Y-133307079D01*
X116262194Y-133304200D01*
X116318087Y-133304200D01*
X116324539Y-133302828D01*
X116324544Y-133302828D01*
X116411488Y-133284347D01*
X116504888Y-133264494D01*
X116567391Y-133236666D01*
X116673322Y-133189503D01*
X116673324Y-133189502D01*
X116679352Y-133186818D01*
X116833853Y-133074566D01*
X116961640Y-132932644D01*
X117057127Y-132767256D01*
X117116142Y-132585628D01*
X117136104Y-132395700D01*
X117116142Y-132205772D01*
X117057127Y-132024144D01*
X116961640Y-131858756D01*
X116833853Y-131716834D01*
X116679352Y-131604582D01*
X116673324Y-131601898D01*
X116673322Y-131601897D01*
X116510919Y-131529591D01*
X116510918Y-131529591D01*
X116504888Y-131526906D01*
X116411488Y-131507053D01*
X116324544Y-131488572D01*
X116324539Y-131488572D01*
X116318087Y-131487200D01*
X116127113Y-131487200D01*
X116120661Y-131488572D01*
X116120656Y-131488572D01*
X116033712Y-131507053D01*
X115940312Y-131526906D01*
X115934282Y-131529591D01*
X115934281Y-131529591D01*
X115771878Y-131601897D01*
X115771876Y-131601898D01*
X115765848Y-131604582D01*
X115611347Y-131716834D01*
X115483560Y-131858756D01*
X115388073Y-132024144D01*
X115329058Y-132205772D01*
X115328368Y-132212333D01*
X115328368Y-132212335D01*
X115311693Y-132370993D01*
X115284680Y-132436650D01*
X115275478Y-132446918D01*
X110094800Y-137627595D01*
X110032488Y-137661621D01*
X110005705Y-137664500D01*
X78973894Y-137664500D01*
X78905773Y-137644498D01*
X78859280Y-137590842D01*
X78849176Y-137520568D01*
X78878670Y-137455988D01*
X78884799Y-137449405D01*
X79846299Y-136487905D01*
X79908611Y-136453879D01*
X79935394Y-136451000D01*
X100674305Y-136451000D01*
X100742426Y-136471002D01*
X100763401Y-136487905D01*
X101246853Y-136971358D01*
X101254387Y-136979637D01*
X101258500Y-136986118D01*
X101279595Y-137005927D01*
X101308151Y-137032743D01*
X101310993Y-137035498D01*
X101330730Y-137055235D01*
X101333927Y-137057715D01*
X101342947Y-137065418D01*
X101375179Y-137095686D01*
X101382125Y-137099505D01*
X101382128Y-137099507D01*
X101392934Y-137105448D01*
X101409453Y-137116299D01*
X101425459Y-137128714D01*
X101432728Y-137131859D01*
X101432732Y-137131862D01*
X101466037Y-137146274D01*
X101476687Y-137151491D01*
X101515440Y-137172795D01*
X101523115Y-137174766D01*
X101523116Y-137174766D01*
X101535062Y-137177833D01*
X101553767Y-137184237D01*
X101572355Y-137192281D01*
X101580178Y-137193520D01*
X101580188Y-137193523D01*
X101616024Y-137199199D01*
X101627644Y-137201605D01*
X101659459Y-137209773D01*
X101670470Y-137212600D01*
X101690724Y-137212600D01*
X101710434Y-137214151D01*
X101730443Y-137217320D01*
X101738335Y-137216574D01*
X101757080Y-137214802D01*
X101774462Y-137213159D01*
X101786319Y-137212600D01*
X107211733Y-137212600D01*
X107222916Y-137213127D01*
X107230409Y-137214802D01*
X107238335Y-137214553D01*
X107238336Y-137214553D01*
X107298486Y-137212662D01*
X107302445Y-137212600D01*
X107330356Y-137212600D01*
X107334291Y-137212103D01*
X107334356Y-137212095D01*
X107346193Y-137211162D01*
X107378451Y-137210148D01*
X107382470Y-137210022D01*
X107390389Y-137209773D01*
X107409843Y-137204121D01*
X107429200Y-137200113D01*
X107441430Y-137198568D01*
X107441431Y-137198568D01*
X107449297Y-137197574D01*
X107456668Y-137194655D01*
X107456670Y-137194655D01*
X107490412Y-137181296D01*
X107501642Y-137177451D01*
X107536483Y-137167329D01*
X107536484Y-137167329D01*
X107544093Y-137165118D01*
X107550912Y-137161085D01*
X107550917Y-137161083D01*
X107561528Y-137154807D01*
X107579276Y-137146112D01*
X107598117Y-137138652D01*
X107605235Y-137133481D01*
X107633887Y-137112664D01*
X107643807Y-137106148D01*
X107675035Y-137087680D01*
X107675038Y-137087678D01*
X107681862Y-137083642D01*
X107696183Y-137069321D01*
X107711217Y-137056480D01*
X107721194Y-137049231D01*
X107727607Y-137044572D01*
X107755798Y-137010495D01*
X107763788Y-137001716D01*
X111262300Y-133503205D01*
X111324612Y-133469179D01*
X111351395Y-133466300D01*
X111407287Y-133466300D01*
X111413739Y-133464928D01*
X111413744Y-133464928D01*
X111500687Y-133446447D01*
X111594088Y-133426594D01*
X111644285Y-133404245D01*
X111762522Y-133351603D01*
X111762524Y-133351602D01*
X111768552Y-133348918D01*
X111923053Y-133236666D01*
X112050840Y-133094744D01*
X112146327Y-132929356D01*
X112205342Y-132747728D01*
X112225304Y-132557800D01*
X112205342Y-132367872D01*
X112146327Y-132186244D01*
X112050840Y-132020856D01*
X111923053Y-131878934D01*
X111768552Y-131766682D01*
X111762524Y-131763998D01*
X111762522Y-131763997D01*
X111600119Y-131691691D01*
X111600118Y-131691691D01*
X111594088Y-131689006D01*
X111500688Y-131669153D01*
X111413744Y-131650672D01*
X111413739Y-131650672D01*
X111407287Y-131649300D01*
X111216313Y-131649300D01*
X111209861Y-131650672D01*
X111209856Y-131650672D01*
X111122912Y-131669153D01*
X111029512Y-131689006D01*
X111023482Y-131691691D01*
X111023481Y-131691691D01*
X110861078Y-131763997D01*
X110861076Y-131763998D01*
X110855048Y-131766682D01*
X110700547Y-131878934D01*
X110572760Y-132020856D01*
X110477273Y-132186244D01*
X110418258Y-132367872D01*
X110417568Y-132374433D01*
X110417568Y-132374435D01*
X110400893Y-132533093D01*
X110373880Y-132598750D01*
X110364678Y-132609018D01*
X107065000Y-135908695D01*
X107002688Y-135942721D01*
X106975905Y-135945600D01*
X104133594Y-135945600D01*
X104065473Y-135925598D01*
X104018980Y-135871942D01*
X104008876Y-135801668D01*
X104038370Y-135737088D01*
X104044499Y-135730505D01*
X111064300Y-128710705D01*
X111126612Y-128676679D01*
X111153395Y-128673800D01*
X112398000Y-128673800D01*
X112466121Y-128693802D01*
X112485347Y-128710143D01*
X112485620Y-128709840D01*
X112490532Y-128714263D01*
X112494947Y-128719166D01*
X112649448Y-128831418D01*
X112655476Y-128834102D01*
X112655478Y-128834103D01*
X112817881Y-128906409D01*
X112823912Y-128909094D01*
X112917312Y-128928947D01*
X113004256Y-128947428D01*
X113004261Y-128947428D01*
X113010713Y-128948800D01*
X113201687Y-128948800D01*
X113208139Y-128947428D01*
X113208144Y-128947428D01*
X113295088Y-128928947D01*
X113388488Y-128909094D01*
X113394519Y-128906409D01*
X113556922Y-128834103D01*
X113556924Y-128834102D01*
X113562952Y-128831418D01*
X113717453Y-128719166D01*
X113740291Y-128693802D01*
X113840821Y-128582152D01*
X113840822Y-128582151D01*
X113845240Y-128577244D01*
X113940727Y-128411856D01*
X113999742Y-128230228D01*
X114019704Y-128040300D01*
X114007277Y-127922066D01*
X114000432Y-127856935D01*
X114000432Y-127856933D01*
X113999742Y-127850372D01*
X113940727Y-127668744D01*
X113924538Y-127640703D01*
X113886504Y-127574828D01*
X113845240Y-127503356D01*
X113829082Y-127485410D01*
X113721875Y-127366345D01*
X113721874Y-127366344D01*
X113717453Y-127361434D01*
X113562952Y-127249182D01*
X113556924Y-127246498D01*
X113556922Y-127246497D01*
X113394519Y-127174191D01*
X113394518Y-127174191D01*
X113388488Y-127171506D01*
X113295088Y-127151653D01*
X113208144Y-127133172D01*
X113208139Y-127133172D01*
X113201687Y-127131800D01*
X113010713Y-127131800D01*
X113004261Y-127133172D01*
X113004256Y-127133172D01*
X112917312Y-127151653D01*
X112823912Y-127171506D01*
X112817882Y-127174191D01*
X112817881Y-127174191D01*
X112655478Y-127246497D01*
X112655476Y-127246498D01*
X112649448Y-127249182D01*
X112494947Y-127361434D01*
X112490532Y-127366337D01*
X112485620Y-127370760D01*
X112484495Y-127369511D01*
X112431186Y-127402351D01*
X112398000Y-127406800D01*
X110917567Y-127406800D01*
X110906384Y-127406273D01*
X110898891Y-127404598D01*
X110890965Y-127404847D01*
X110890964Y-127404847D01*
X110830801Y-127406738D01*
X110826843Y-127406800D01*
X110798944Y-127406800D01*
X110794954Y-127407304D01*
X110783120Y-127408236D01*
X110738911Y-127409626D01*
X110731297Y-127411838D01*
X110731292Y-127411839D01*
X110719459Y-127415277D01*
X110700096Y-127419288D01*
X110680003Y-127421826D01*
X110672636Y-127424743D01*
X110672631Y-127424744D01*
X110638892Y-127438102D01*
X110627665Y-127441946D01*
X110585207Y-127454282D01*
X110578381Y-127458319D01*
X110567772Y-127464593D01*
X110550024Y-127473288D01*
X110531183Y-127480748D01*
X110524767Y-127485410D01*
X110524766Y-127485410D01*
X110495413Y-127506736D01*
X110485493Y-127513252D01*
X110454265Y-127531720D01*
X110454262Y-127531722D01*
X110447438Y-127535758D01*
X110433117Y-127550079D01*
X110418084Y-127562919D01*
X110401693Y-127574828D01*
X110396642Y-127580934D01*
X110373502Y-127608905D01*
X110365512Y-127617684D01*
X103086600Y-134896595D01*
X103024288Y-134930621D01*
X102997505Y-134933500D01*
X102941613Y-134933500D01*
X102935161Y-134934872D01*
X102935156Y-134934872D01*
X102848212Y-134953353D01*
X102754812Y-134973206D01*
X102748782Y-134975891D01*
X102748781Y-134975891D01*
X102586378Y-135048197D01*
X102586376Y-135048198D01*
X102580348Y-135050882D01*
X102425847Y-135163134D01*
X102421426Y-135168044D01*
X102421425Y-135168045D01*
X102311209Y-135290453D01*
X102298060Y-135305056D01*
X102264111Y-135363857D01*
X102209773Y-135457974D01*
X102202573Y-135470444D01*
X102143558Y-135652072D01*
X102131853Y-135763444D01*
X102130828Y-135773193D01*
X102103815Y-135838850D01*
X102045593Y-135879480D01*
X101974648Y-135882183D01*
X101916422Y-135849118D01*
X101748662Y-135681357D01*
X101492547Y-135425242D01*
X101485013Y-135416963D01*
X101480900Y-135410482D01*
X101431248Y-135363856D01*
X101428407Y-135361102D01*
X101408670Y-135341365D01*
X101405473Y-135338885D01*
X101396451Y-135331180D01*
X101392297Y-135327279D01*
X101364221Y-135300914D01*
X101357275Y-135297095D01*
X101357272Y-135297093D01*
X101346466Y-135291152D01*
X101329947Y-135280301D01*
X101322615Y-135274614D01*
X101313941Y-135267886D01*
X101306672Y-135264741D01*
X101306668Y-135264738D01*
X101273363Y-135250326D01*
X101262713Y-135245109D01*
X101223960Y-135223805D01*
X101204337Y-135218767D01*
X101185634Y-135212363D01*
X101174320Y-135207467D01*
X101174319Y-135207467D01*
X101167045Y-135204319D01*
X101159222Y-135203080D01*
X101159212Y-135203077D01*
X101123376Y-135197401D01*
X101111756Y-135194995D01*
X101076611Y-135185972D01*
X101076610Y-135185972D01*
X101068930Y-135184000D01*
X101048676Y-135184000D01*
X101028965Y-135182449D01*
X101016786Y-135180520D01*
X101008957Y-135179280D01*
X100979686Y-135182047D01*
X100964939Y-135183441D01*
X100953081Y-135184000D01*
X79699568Y-135184000D01*
X79688385Y-135183473D01*
X79680892Y-135181798D01*
X79672966Y-135182047D01*
X79672965Y-135182047D01*
X79612802Y-135183938D01*
X79608844Y-135184000D01*
X79580944Y-135184000D01*
X79576954Y-135184504D01*
X79565120Y-135185436D01*
X79520911Y-135186826D01*
X79513295Y-135189039D01*
X79513293Y-135189039D01*
X79501452Y-135192479D01*
X79482093Y-135196488D01*
X79480783Y-135196654D01*
X79462003Y-135199026D01*
X79454637Y-135201942D01*
X79454631Y-135201944D01*
X79420898Y-135215300D01*
X79409668Y-135219145D01*
X79380493Y-135227621D01*
X79367207Y-135231481D01*
X79360384Y-135235516D01*
X79349766Y-135241795D01*
X79332013Y-135250492D01*
X79324368Y-135253519D01*
X79313183Y-135257948D01*
X79299505Y-135267886D01*
X79277412Y-135283937D01*
X79267495Y-135290451D01*
X79229438Y-135312958D01*
X79215117Y-135327279D01*
X79200084Y-135340119D01*
X79183693Y-135352028D01*
X79178643Y-135358132D01*
X79178638Y-135358137D01*
X79155507Y-135386098D01*
X79147517Y-135394879D01*
X78803473Y-135738922D01*
X78741161Y-135772947D01*
X78670345Y-135767882D01*
X78613510Y-135725335D01*
X78588979Y-135662122D01*
X78586039Y-135632143D01*
X78579080Y-135561167D01*
X78566189Y-135518468D01*
X78536158Y-135419002D01*
X78521916Y-135371831D01*
X78519024Y-135366391D01*
X78517195Y-135361954D01*
X78509731Y-135291350D01*
X78527512Y-135250631D01*
X78525921Y-135249760D01*
X78530229Y-135241891D01*
X78535615Y-135234705D01*
X78586745Y-135098316D01*
X78593500Y-135036134D01*
X78593500Y-133939866D01*
X78586745Y-133877684D01*
X78535615Y-133741295D01*
X78448261Y-133624739D01*
X78331705Y-133537385D01*
X78195316Y-133486255D01*
X78133134Y-133479500D01*
X77036866Y-133479500D01*
X76974684Y-133486255D01*
X76878729Y-133522227D01*
X76807923Y-133527410D01*
X76745554Y-133493489D01*
X76711424Y-133431234D01*
X76708500Y-133404245D01*
X76708500Y-128766051D01*
X76728502Y-128697930D01*
X76782158Y-128651437D01*
X76852432Y-128641333D01*
X76917012Y-128670827D01*
X76927246Y-128680763D01*
X76927639Y-128681190D01*
X76930313Y-128684528D01*
X77138851Y-128882423D01*
X77372317Y-129050186D01*
X77376112Y-129052195D01*
X77376113Y-129052196D01*
X77397869Y-129063715D01*
X77626392Y-129184712D01*
X77896373Y-129283511D01*
X78177264Y-129344755D01*
X78205841Y-129347004D01*
X78400282Y-129362307D01*
X78400291Y-129362307D01*
X78402739Y-129362500D01*
X78558271Y-129362500D01*
X78560407Y-129362354D01*
X78560418Y-129362354D01*
X78768548Y-129348165D01*
X78768554Y-129348164D01*
X78772825Y-129347873D01*
X78777020Y-129347004D01*
X78777022Y-129347004D01*
X78974077Y-129306196D01*
X79054342Y-129289574D01*
X79325343Y-129193607D01*
X79580812Y-129061750D01*
X79584313Y-129059289D01*
X79584317Y-129059287D01*
X79698418Y-128979095D01*
X79816023Y-128896441D01*
X80002619Y-128723045D01*
X80023479Y-128703661D01*
X80023481Y-128703658D01*
X80026622Y-128700740D01*
X80208713Y-128478268D01*
X80358927Y-128233142D01*
X80373960Y-128198897D01*
X80472757Y-127973830D01*
X80474483Y-127969898D01*
X80487064Y-127925734D01*
X80552068Y-127697534D01*
X80553244Y-127693406D01*
X80587591Y-127452070D01*
X80593146Y-127413036D01*
X80593146Y-127413034D01*
X80593751Y-127408784D01*
X80593951Y-127370760D01*
X80595235Y-127125583D01*
X80595235Y-127125576D01*
X80595257Y-127121297D01*
X80587166Y-127059835D01*
X80563217Y-126877929D01*
X80557732Y-126836266D01*
X80544575Y-126788170D01*
X80503510Y-126638063D01*
X80481871Y-126558964D01*
X80436282Y-126452082D01*
X80370763Y-126298476D01*
X80370761Y-126298472D01*
X80369077Y-126294524D01*
X80294527Y-126169960D01*
X80223643Y-126051521D01*
X80223640Y-126051517D01*
X80221439Y-126047839D01*
X80041687Y-125823472D01*
X79833149Y-125625577D01*
X79599683Y-125457814D01*
X79577843Y-125446250D01*
X79524786Y-125418158D01*
X79345608Y-125323288D01*
X79075627Y-125224489D01*
X78794736Y-125163245D01*
X78763685Y-125160801D01*
X78571718Y-125145693D01*
X78571709Y-125145693D01*
X78569261Y-125145500D01*
X78413729Y-125145500D01*
X78411593Y-125145646D01*
X78411582Y-125145646D01*
X78203452Y-125159835D01*
X78203446Y-125159836D01*
X78199175Y-125160127D01*
X78194980Y-125160996D01*
X78194978Y-125160996D01*
X78058417Y-125189276D01*
X77917658Y-125218426D01*
X77646657Y-125314393D01*
X77391188Y-125446250D01*
X77387687Y-125448711D01*
X77387683Y-125448713D01*
X77343218Y-125479964D01*
X77155977Y-125611559D01*
X76945378Y-125807260D01*
X76934521Y-125820525D01*
X76932004Y-125823600D01*
X76873380Y-125863645D01*
X76802411Y-125865639D01*
X76741630Y-125828948D01*
X76710335Y-125765221D01*
X76708500Y-125743794D01*
X76708500Y-106172000D01*
X84938496Y-106172000D01*
X84958458Y-106361928D01*
X85017473Y-106543556D01*
X85020776Y-106549278D01*
X85020777Y-106549279D01*
X85038914Y-106580693D01*
X85112960Y-106708944D01*
X85117378Y-106713851D01*
X85117379Y-106713852D01*
X85225661Y-106834111D01*
X85240747Y-106850866D01*
X85395248Y-106963118D01*
X85401276Y-106965802D01*
X85401278Y-106965803D01*
X85506764Y-107012768D01*
X85569712Y-107040794D01*
X85663113Y-107060647D01*
X85750056Y-107079128D01*
X85750061Y-107079128D01*
X85756513Y-107080500D01*
X85812405Y-107080500D01*
X85880526Y-107100502D01*
X85901500Y-107117405D01*
X85943595Y-107159500D01*
X85977621Y-107221812D01*
X85980500Y-107248595D01*
X85980500Y-107501476D01*
X85960498Y-107569597D01*
X85948142Y-107585779D01*
X85874960Y-107667056D01*
X85779473Y-107832444D01*
X85720458Y-108014072D01*
X85700496Y-108204000D01*
X85720458Y-108393928D01*
X85779473Y-108575556D01*
X85874960Y-108740944D01*
X85879378Y-108745851D01*
X85879379Y-108745852D01*
X85998325Y-108877955D01*
X86002747Y-108882866D01*
X86157248Y-108995118D01*
X86163276Y-108997802D01*
X86163278Y-108997803D01*
X86325681Y-109070109D01*
X86331712Y-109072794D01*
X86425113Y-109092647D01*
X86512056Y-109111128D01*
X86512061Y-109111128D01*
X86518513Y-109112500D01*
X86709487Y-109112500D01*
X86715939Y-109111128D01*
X86715944Y-109111128D01*
X86802888Y-109092647D01*
X86896288Y-109072794D01*
X86902319Y-109070109D01*
X87064722Y-108997803D01*
X87064724Y-108997802D01*
X87070752Y-108995118D01*
X87225253Y-108882866D01*
X87229675Y-108877955D01*
X87348621Y-108745852D01*
X87348622Y-108745851D01*
X87353040Y-108740944D01*
X87448527Y-108575556D01*
X87486724Y-108458000D01*
X95352496Y-108458000D01*
X95372458Y-108647928D01*
X95431473Y-108829556D01*
X95526960Y-108994944D01*
X95654747Y-109136866D01*
X95809248Y-109249118D01*
X95815276Y-109251802D01*
X95815278Y-109251803D01*
X95977681Y-109324109D01*
X95983712Y-109326794D01*
X96077113Y-109346647D01*
X96164056Y-109365128D01*
X96164061Y-109365128D01*
X96170513Y-109366500D01*
X96361487Y-109366500D01*
X96367939Y-109365128D01*
X96367944Y-109365128D01*
X96454887Y-109346647D01*
X96548288Y-109326794D01*
X96554319Y-109324109D01*
X96716722Y-109251803D01*
X96716724Y-109251802D01*
X96722752Y-109249118D01*
X96877253Y-109136866D01*
X97005040Y-108994944D01*
X97100527Y-108829556D01*
X97159542Y-108647928D01*
X97176907Y-108482706D01*
X97203920Y-108417050D01*
X97213122Y-108406782D01*
X101063499Y-104556405D01*
X101125811Y-104522379D01*
X101152594Y-104519500D01*
X101856500Y-104519500D01*
X101924621Y-104539502D01*
X101971114Y-104593158D01*
X101982500Y-104645500D01*
X101982500Y-120709476D01*
X101962498Y-120777597D01*
X101950142Y-120793779D01*
X101876960Y-120875056D01*
X101781473Y-121040444D01*
X101722458Y-121222072D01*
X101702496Y-121412000D01*
X101722458Y-121601928D01*
X101781473Y-121783556D01*
X101876960Y-121948944D01*
X102004747Y-122090866D01*
X102159248Y-122203118D01*
X102165276Y-122205802D01*
X102165278Y-122205803D01*
X102327681Y-122278109D01*
X102333712Y-122280794D01*
X102427113Y-122300647D01*
X102514056Y-122319128D01*
X102514061Y-122319128D01*
X102520513Y-122320500D01*
X102711487Y-122320500D01*
X102717939Y-122319128D01*
X102717944Y-122319128D01*
X102804887Y-122300647D01*
X102898288Y-122280794D01*
X102904319Y-122278109D01*
X103066722Y-122205803D01*
X103066724Y-122205802D01*
X103072752Y-122203118D01*
X103227253Y-122090866D01*
X103355040Y-121948944D01*
X103450527Y-121783556D01*
X103509542Y-121601928D01*
X103529504Y-121412000D01*
X103509542Y-121222072D01*
X103450527Y-121040444D01*
X103355040Y-120875056D01*
X103281863Y-120793785D01*
X103251147Y-120729779D01*
X103249500Y-120709476D01*
X103249500Y-103957793D01*
X103251732Y-103934184D01*
X103253275Y-103926095D01*
X103255360Y-103926493D01*
X103275838Y-103870105D01*
X103288260Y-103855644D01*
X105614500Y-101529405D01*
X105676812Y-101495379D01*
X105703595Y-101492500D01*
X105759487Y-101492500D01*
X105765939Y-101491128D01*
X105765944Y-101491128D01*
X105852888Y-101472647D01*
X105946288Y-101452794D01*
X105952319Y-101450109D01*
X106114722Y-101377803D01*
X106114724Y-101377802D01*
X106120752Y-101375118D01*
X106275253Y-101262866D01*
X106403040Y-101120944D01*
X106498527Y-100955556D01*
X106557542Y-100773928D01*
X106576279Y-100595660D01*
X106576814Y-100590565D01*
X106577504Y-100584000D01*
X106557542Y-100394072D01*
X106498527Y-100212444D01*
X106489693Y-100197142D01*
X106406341Y-100052774D01*
X106403040Y-100047056D01*
X106368213Y-100008376D01*
X106279675Y-99910045D01*
X106279674Y-99910044D01*
X106275253Y-99905134D01*
X106120752Y-99792882D01*
X106114724Y-99790198D01*
X106114722Y-99790197D01*
X105952319Y-99717891D01*
X105952318Y-99717891D01*
X105946288Y-99715206D01*
X105852888Y-99695353D01*
X105765944Y-99676872D01*
X105765939Y-99676872D01*
X105759487Y-99675500D01*
X105568513Y-99675500D01*
X105562061Y-99676872D01*
X105562056Y-99676872D01*
X105475112Y-99695353D01*
X105381712Y-99715206D01*
X105375682Y-99717891D01*
X105375681Y-99717891D01*
X105213278Y-99790197D01*
X105213276Y-99790198D01*
X105207248Y-99792882D01*
X105052747Y-99905134D01*
X105048326Y-99910044D01*
X105048325Y-99910045D01*
X104959788Y-100008376D01*
X104924960Y-100047056D01*
X104921659Y-100052774D01*
X104838308Y-100197142D01*
X104829473Y-100212444D01*
X104770458Y-100394072D01*
X104757635Y-100516081D01*
X104753093Y-100559293D01*
X104726080Y-100624950D01*
X104716878Y-100635218D01*
X102223747Y-103128348D01*
X102215461Y-103135888D01*
X102208982Y-103140000D01*
X102203557Y-103145777D01*
X102162357Y-103189651D01*
X102159602Y-103192493D01*
X102139865Y-103212230D01*
X102139340Y-103211705D01*
X102082257Y-103247698D01*
X102047803Y-103252500D01*
X100916763Y-103252500D01*
X100905579Y-103251973D01*
X100898091Y-103250299D01*
X100890168Y-103250548D01*
X100830033Y-103252438D01*
X100826075Y-103252500D01*
X100798144Y-103252500D01*
X100794229Y-103252995D01*
X100794225Y-103252995D01*
X100794167Y-103253003D01*
X100794138Y-103253006D01*
X100782296Y-103253939D01*
X100738110Y-103255327D01*
X100720744Y-103260372D01*
X100718658Y-103260978D01*
X100699306Y-103264986D01*
X100687068Y-103266532D01*
X100687066Y-103266533D01*
X100679203Y-103267526D01*
X100638086Y-103283806D01*
X100626885Y-103287641D01*
X100584406Y-103299982D01*
X100577587Y-103304015D01*
X100577582Y-103304017D01*
X100566971Y-103310293D01*
X100549221Y-103318990D01*
X100530383Y-103326448D01*
X100523967Y-103331109D01*
X100523966Y-103331110D01*
X100494625Y-103352428D01*
X100484701Y-103358947D01*
X100453460Y-103377422D01*
X100453455Y-103377426D01*
X100446637Y-103381458D01*
X100432313Y-103395782D01*
X100417281Y-103408621D01*
X100400893Y-103420528D01*
X100372712Y-103454593D01*
X100364722Y-103463373D01*
X96315500Y-107512595D01*
X96253188Y-107546621D01*
X96226405Y-107549500D01*
X96170513Y-107549500D01*
X96164061Y-107550872D01*
X96164056Y-107550872D01*
X96077112Y-107569353D01*
X95983712Y-107589206D01*
X95977682Y-107591891D01*
X95977681Y-107591891D01*
X95815278Y-107664197D01*
X95815276Y-107664198D01*
X95809248Y-107666882D01*
X95654747Y-107779134D01*
X95650326Y-107784044D01*
X95650325Y-107784045D01*
X95606747Y-107832444D01*
X95526960Y-107921056D01*
X95431473Y-108086444D01*
X95372458Y-108268072D01*
X95352496Y-108458000D01*
X87486724Y-108458000D01*
X87507542Y-108393928D01*
X87527504Y-108204000D01*
X87507542Y-108014072D01*
X87448527Y-107832444D01*
X87353040Y-107667056D01*
X87279863Y-107585785D01*
X87249147Y-107521779D01*
X87247500Y-107501476D01*
X87247500Y-107012768D01*
X87248027Y-107001585D01*
X87249702Y-106994092D01*
X87247562Y-106926001D01*
X87247500Y-106922044D01*
X87247500Y-106894144D01*
X87246996Y-106890153D01*
X87246063Y-106878311D01*
X87245201Y-106850866D01*
X87244674Y-106834111D01*
X87242462Y-106826497D01*
X87242461Y-106826492D01*
X87239023Y-106814659D01*
X87235012Y-106795295D01*
X87233467Y-106783064D01*
X87232474Y-106775203D01*
X87229557Y-106767836D01*
X87229556Y-106767831D01*
X87216198Y-106734092D01*
X87212354Y-106722865D01*
X87202230Y-106688022D01*
X87200018Y-106680407D01*
X87189707Y-106662972D01*
X87181012Y-106645224D01*
X87173552Y-106626383D01*
X87147564Y-106590613D01*
X87141048Y-106580693D01*
X87122580Y-106549465D01*
X87122578Y-106549462D01*
X87118542Y-106542638D01*
X87104221Y-106528317D01*
X87091380Y-106513283D01*
X87084132Y-106503307D01*
X87079472Y-106496893D01*
X87045401Y-106468707D01*
X87036622Y-106460718D01*
X86799122Y-106223218D01*
X86765096Y-106160906D01*
X86762907Y-106147293D01*
X86746232Y-105988635D01*
X86746232Y-105988633D01*
X86745542Y-105982072D01*
X86686527Y-105800444D01*
X86591040Y-105635056D01*
X86463253Y-105493134D01*
X86308752Y-105380882D01*
X86302724Y-105378198D01*
X86302722Y-105378197D01*
X86140319Y-105305891D01*
X86140318Y-105305891D01*
X86134288Y-105303206D01*
X86040888Y-105283353D01*
X85953944Y-105264872D01*
X85953939Y-105264872D01*
X85947487Y-105263500D01*
X85756513Y-105263500D01*
X85750061Y-105264872D01*
X85750056Y-105264872D01*
X85663113Y-105283353D01*
X85569712Y-105303206D01*
X85563682Y-105305891D01*
X85563681Y-105305891D01*
X85401278Y-105378197D01*
X85401276Y-105378198D01*
X85395248Y-105380882D01*
X85240747Y-105493134D01*
X85112960Y-105635056D01*
X85017473Y-105800444D01*
X84958458Y-105982072D01*
X84938496Y-106172000D01*
X76708500Y-106172000D01*
X76708500Y-95492051D01*
X76728502Y-95423930D01*
X76782158Y-95377437D01*
X76852432Y-95367333D01*
X76917012Y-95396827D01*
X76927246Y-95406763D01*
X76927639Y-95407190D01*
X76930313Y-95410528D01*
X77138851Y-95608423D01*
X77372317Y-95776186D01*
X77376112Y-95778195D01*
X77376113Y-95778196D01*
X77397869Y-95789715D01*
X77626392Y-95910712D01*
X77896373Y-96009511D01*
X78177264Y-96070755D01*
X78205841Y-96073004D01*
X78400282Y-96088307D01*
X78400291Y-96088307D01*
X78402739Y-96088500D01*
X78558271Y-96088500D01*
X78560407Y-96088354D01*
X78560418Y-96088354D01*
X78768548Y-96074165D01*
X78768554Y-96074164D01*
X78772825Y-96073873D01*
X78777020Y-96073004D01*
X78777022Y-96073004D01*
X78913584Y-96044723D01*
X79054342Y-96015574D01*
X79325343Y-95919607D01*
X79580812Y-95787750D01*
X79584313Y-95785289D01*
X79584317Y-95785287D01*
X79724311Y-95686897D01*
X79816023Y-95622441D01*
X80026622Y-95426740D01*
X80208713Y-95204268D01*
X80358927Y-94959142D01*
X80474483Y-94695898D01*
X80553244Y-94419406D01*
X80593751Y-94134784D01*
X80594349Y-94020792D01*
X80595235Y-93851583D01*
X80595235Y-93851576D01*
X80595257Y-93847297D01*
X80557732Y-93562266D01*
X80481871Y-93284964D01*
X80439781Y-93186285D01*
X80370763Y-93024476D01*
X80370761Y-93024472D01*
X80369077Y-93020524D01*
X80289464Y-92887500D01*
X80223643Y-92777521D01*
X80223640Y-92777517D01*
X80221439Y-92773839D01*
X80041687Y-92549472D01*
X79833149Y-92351577D01*
X79599683Y-92183814D01*
X79577843Y-92172250D01*
X79554654Y-92159972D01*
X79345608Y-92049288D01*
X79075627Y-91950489D01*
X78794736Y-91889245D01*
X78763685Y-91886801D01*
X78571718Y-91871693D01*
X78571709Y-91871693D01*
X78569261Y-91871500D01*
X78413729Y-91871500D01*
X78411593Y-91871646D01*
X78411582Y-91871646D01*
X78203452Y-91885835D01*
X78203446Y-91885836D01*
X78199175Y-91886127D01*
X78194980Y-91886996D01*
X78194978Y-91886996D01*
X78058417Y-91915276D01*
X77917658Y-91944426D01*
X77646657Y-92040393D01*
X77391188Y-92172250D01*
X77387687Y-92174711D01*
X77387683Y-92174713D01*
X77377594Y-92181804D01*
X77155977Y-92337559D01*
X76945378Y-92533260D01*
X76934521Y-92546525D01*
X76932004Y-92549600D01*
X76873380Y-92589645D01*
X76802411Y-92591639D01*
X76741630Y-92554948D01*
X76710335Y-92491221D01*
X76708500Y-92469794D01*
X76708500Y-86355783D01*
X80126925Y-86355783D01*
X80135754Y-86367403D01*
X80367436Y-86535730D01*
X80374117Y-86539970D01*
X80649241Y-86691221D01*
X80656376Y-86694578D01*
X80948289Y-86810155D01*
X80955814Y-86812600D01*
X81259892Y-86890673D01*
X81267663Y-86892156D01*
X81579133Y-86931503D01*
X81587023Y-86932000D01*
X81900977Y-86932000D01*
X81908867Y-86931503D01*
X82220337Y-86892156D01*
X82228108Y-86890673D01*
X82532186Y-86812600D01*
X82539711Y-86810155D01*
X82831624Y-86694578D01*
X82838759Y-86691221D01*
X83113883Y-86539970D01*
X83120564Y-86535730D01*
X83352619Y-86367133D01*
X83361042Y-86356210D01*
X83354138Y-86343349D01*
X81756810Y-84746020D01*
X81742869Y-84738408D01*
X81741034Y-84738539D01*
X81734420Y-84742790D01*
X80133538Y-86343673D01*
X80126925Y-86355783D01*
X76708500Y-86355783D01*
X76708500Y-84377958D01*
X79181191Y-84377958D01*
X79200903Y-84691273D01*
X79201896Y-84699134D01*
X79260721Y-85007506D01*
X79262692Y-85015183D01*
X79359703Y-85313752D01*
X79362618Y-85321115D01*
X79496287Y-85605177D01*
X79500099Y-85612110D01*
X79668317Y-85877178D01*
X79672971Y-85883584D01*
X79752982Y-85980300D01*
X79765501Y-85988756D01*
X79776239Y-85982550D01*
X81371980Y-84386810D01*
X81378357Y-84375131D01*
X82108408Y-84375131D01*
X82108539Y-84376966D01*
X82112790Y-84383580D01*
X83710658Y-85981447D01*
X83723920Y-85988689D01*
X83734024Y-85981501D01*
X83815029Y-85883584D01*
X83819683Y-85877178D01*
X83987901Y-85612110D01*
X83991713Y-85605177D01*
X84125382Y-85321115D01*
X84128297Y-85313752D01*
X84225308Y-85015183D01*
X84227279Y-85007506D01*
X84286104Y-84699134D01*
X84287097Y-84691273D01*
X84306809Y-84377958D01*
X84306809Y-84370042D01*
X84287097Y-84056727D01*
X84286104Y-84048866D01*
X84227279Y-83740494D01*
X84225308Y-83732817D01*
X84128297Y-83434248D01*
X84125382Y-83426885D01*
X84055981Y-83279399D01*
X86385500Y-83279399D01*
X86385501Y-85468600D01*
X86385662Y-85470841D01*
X86385662Y-85470852D01*
X86395898Y-85613665D01*
X86396240Y-85618433D01*
X86397299Y-85623093D01*
X86397299Y-85623095D01*
X86449791Y-85854137D01*
X86450912Y-85859071D01*
X86452806Y-85863759D01*
X86452807Y-85863762D01*
X86458228Y-85877178D01*
X86543354Y-86087872D01*
X86545974Y-86092199D01*
X86545977Y-86092204D01*
X86668562Y-86294617D01*
X86671187Y-86298951D01*
X86831124Y-86486876D01*
X87019049Y-86646813D01*
X87023381Y-86649436D01*
X87023383Y-86649438D01*
X87225796Y-86772023D01*
X87225801Y-86772026D01*
X87230128Y-86774646D01*
X87234817Y-86776540D01*
X87234822Y-86776543D01*
X87454238Y-86865193D01*
X87454241Y-86865194D01*
X87458929Y-86867088D01*
X87699567Y-86921760D01*
X87704332Y-86922102D01*
X87704335Y-86922102D01*
X87847149Y-86932339D01*
X87847157Y-86932339D01*
X87849399Y-86932500D01*
X88184500Y-86932500D01*
X88252621Y-86952502D01*
X88299114Y-87006158D01*
X88310500Y-87058500D01*
X88310500Y-97367709D01*
X88304497Y-97399177D01*
X88306305Y-97399641D01*
X88301267Y-97419262D01*
X88294863Y-97437966D01*
X88286819Y-97456555D01*
X88285580Y-97464378D01*
X88285577Y-97464388D01*
X88279901Y-97500224D01*
X88277495Y-97511844D01*
X88274484Y-97523572D01*
X88238171Y-97584579D01*
X88200660Y-97608648D01*
X88172072Y-97620489D01*
X88172068Y-97620491D01*
X88167498Y-97622384D01*
X87951624Y-97754672D01*
X87759102Y-97919102D01*
X87594672Y-98111624D01*
X87462384Y-98327498D01*
X87365495Y-98561409D01*
X87306391Y-98807597D01*
X87286526Y-99060000D01*
X87306391Y-99312403D01*
X87365495Y-99558591D01*
X87367388Y-99563162D01*
X87367389Y-99563164D01*
X87429799Y-99713834D01*
X87462384Y-99792502D01*
X87594672Y-100008376D01*
X87759102Y-100200898D01*
X87951624Y-100365328D01*
X88167498Y-100497616D01*
X88172068Y-100499509D01*
X88172072Y-100499511D01*
X88391897Y-100590565D01*
X88401409Y-100594505D01*
X88468513Y-100610615D01*
X88642784Y-100652454D01*
X88642790Y-100652455D01*
X88647597Y-100653609D01*
X88900000Y-100673474D01*
X89152403Y-100653609D01*
X89157210Y-100652455D01*
X89157216Y-100652454D01*
X89331487Y-100610615D01*
X89398591Y-100594505D01*
X89408103Y-100590565D01*
X89627928Y-100499511D01*
X89627932Y-100499509D01*
X89632502Y-100497616D01*
X89848376Y-100365328D01*
X90032426Y-100208134D01*
X97451500Y-100208134D01*
X97458255Y-100270316D01*
X97509385Y-100406705D01*
X97596739Y-100523261D01*
X97713295Y-100610615D01*
X97849684Y-100661745D01*
X97911866Y-100668500D01*
X100208134Y-100668500D01*
X100270316Y-100661745D01*
X100406705Y-100610615D01*
X100523261Y-100523261D01*
X100610615Y-100406705D01*
X100661745Y-100270316D01*
X100668500Y-100208134D01*
X100668500Y-97911866D01*
X100661745Y-97849684D01*
X100610615Y-97713295D01*
X100523261Y-97596739D01*
X100406705Y-97509385D01*
X100270316Y-97458255D01*
X100208134Y-97451500D01*
X97911866Y-97451500D01*
X97849684Y-97458255D01*
X97713295Y-97509385D01*
X97596739Y-97596739D01*
X97509385Y-97713295D01*
X97458255Y-97849684D01*
X97451500Y-97911866D01*
X97451500Y-100208134D01*
X90032426Y-100208134D01*
X90040898Y-100200898D01*
X90205328Y-100008376D01*
X90337616Y-99792502D01*
X90370202Y-99713834D01*
X90432611Y-99563164D01*
X90432612Y-99563162D01*
X90434505Y-99558591D01*
X90493609Y-99312403D01*
X90513474Y-99060000D01*
X90493609Y-98807597D01*
X90434505Y-98561409D01*
X90337616Y-98327498D01*
X90205328Y-98111624D01*
X90040898Y-97919102D01*
X89848376Y-97754672D01*
X89637665Y-97625548D01*
X89590034Y-97572900D01*
X89577500Y-97518115D01*
X89577500Y-87058499D01*
X89597502Y-86990378D01*
X89651158Y-86943885D01*
X89703500Y-86932499D01*
X90038600Y-86932499D01*
X90040841Y-86932338D01*
X90040852Y-86932338D01*
X90183666Y-86922102D01*
X90183670Y-86922101D01*
X90188433Y-86921760D01*
X90193093Y-86920701D01*
X90193095Y-86920701D01*
X90424137Y-86868209D01*
X90429071Y-86867088D01*
X90433759Y-86865194D01*
X90433762Y-86865193D01*
X90653178Y-86776543D01*
X90653183Y-86776540D01*
X90657872Y-86774646D01*
X90662199Y-86772026D01*
X90662204Y-86772023D01*
X90864617Y-86649438D01*
X90864619Y-86649436D01*
X90868951Y-86646813D01*
X91056876Y-86486876D01*
X91216813Y-86298951D01*
X91219438Y-86294617D01*
X91342023Y-86092204D01*
X91342026Y-86092199D01*
X91344646Y-86087872D01*
X91429773Y-85877178D01*
X91435193Y-85863762D01*
X91435194Y-85863759D01*
X91437088Y-85859071D01*
X91491760Y-85618433D01*
X91502500Y-85468601D01*
X91502499Y-83279400D01*
X91492214Y-83135890D01*
X91492102Y-83134334D01*
X91492101Y-83134330D01*
X91491760Y-83129567D01*
X91490701Y-83124903D01*
X91438209Y-82893863D01*
X91437088Y-82888929D01*
X91435193Y-82884238D01*
X91346543Y-82664822D01*
X91346540Y-82664817D01*
X91344646Y-82660128D01*
X91342026Y-82655801D01*
X91342023Y-82655796D01*
X91219438Y-82453383D01*
X91219436Y-82453381D01*
X91216813Y-82449049D01*
X91056876Y-82261124D01*
X90868951Y-82101187D01*
X90864617Y-82098562D01*
X90662204Y-81975977D01*
X90662199Y-81975974D01*
X90657872Y-81973354D01*
X90653183Y-81971460D01*
X90653178Y-81971457D01*
X90433762Y-81882807D01*
X90433759Y-81882806D01*
X90429071Y-81880912D01*
X90188433Y-81826240D01*
X90183668Y-81825898D01*
X90183665Y-81825898D01*
X90040851Y-81815661D01*
X90040843Y-81815661D01*
X90038601Y-81815500D01*
X90036338Y-81815500D01*
X88944001Y-81815501D01*
X87849400Y-81815501D01*
X87847159Y-81815662D01*
X87847148Y-81815662D01*
X87704334Y-81825898D01*
X87704330Y-81825899D01*
X87699567Y-81826240D01*
X87694907Y-81827299D01*
X87694905Y-81827299D01*
X87694901Y-81827300D01*
X87458929Y-81880912D01*
X87454241Y-81882806D01*
X87454238Y-81882807D01*
X87234822Y-81971457D01*
X87234817Y-81971460D01*
X87230128Y-81973354D01*
X87225801Y-81975974D01*
X87225796Y-81975977D01*
X87023383Y-82098562D01*
X87019049Y-82101187D01*
X86831124Y-82261124D01*
X86671187Y-82449049D01*
X86668564Y-82453381D01*
X86668562Y-82453383D01*
X86545977Y-82655796D01*
X86545974Y-82655801D01*
X86543354Y-82660128D01*
X86541460Y-82664817D01*
X86541457Y-82664822D01*
X86452807Y-82884238D01*
X86450912Y-82888929D01*
X86396240Y-83129567D01*
X86385500Y-83279399D01*
X84055981Y-83279399D01*
X83991713Y-83142823D01*
X83987901Y-83135890D01*
X83819683Y-82870822D01*
X83815029Y-82864416D01*
X83735018Y-82767700D01*
X83722499Y-82759244D01*
X83711761Y-82765450D01*
X82116020Y-84361190D01*
X82108408Y-84375131D01*
X81378357Y-84375131D01*
X81379592Y-84372869D01*
X81379461Y-84371034D01*
X81375210Y-84364420D01*
X79777342Y-82766553D01*
X79764080Y-82759311D01*
X79753976Y-82766499D01*
X79672971Y-82864416D01*
X79668317Y-82870822D01*
X79500099Y-83135890D01*
X79496287Y-83142823D01*
X79362618Y-83426885D01*
X79359703Y-83434248D01*
X79262692Y-83732817D01*
X79260721Y-83740494D01*
X79201896Y-84048866D01*
X79200903Y-84056727D01*
X79181191Y-84370042D01*
X79181191Y-84377958D01*
X76708500Y-84377958D01*
X76708500Y-82391790D01*
X80126958Y-82391790D01*
X80133862Y-82404651D01*
X81731190Y-84001980D01*
X81745131Y-84009592D01*
X81746966Y-84009461D01*
X81753580Y-84005210D01*
X83354462Y-82404327D01*
X83361075Y-82392217D01*
X83352246Y-82380597D01*
X83120564Y-82212270D01*
X83113883Y-82208030D01*
X82838759Y-82056779D01*
X82831624Y-82053422D01*
X82539711Y-81937845D01*
X82532186Y-81935400D01*
X82228108Y-81857327D01*
X82220337Y-81855844D01*
X81908867Y-81816497D01*
X81900977Y-81816000D01*
X81587023Y-81816000D01*
X81579133Y-81816497D01*
X81267663Y-81855844D01*
X81259892Y-81857327D01*
X80955814Y-81935400D01*
X80948289Y-81937845D01*
X80656376Y-82053422D01*
X80649241Y-82056779D01*
X80374117Y-82208030D01*
X80367436Y-82212270D01*
X80135381Y-82380867D01*
X80126958Y-82391790D01*
X76708500Y-82391790D01*
X76708500Y-76834500D01*
X76728502Y-76766379D01*
X76782158Y-76719886D01*
X76834500Y-76708500D01*
X77805797Y-76708500D01*
X77873918Y-76728502D01*
G37*
%TD.AperFunction*%
%TD*%
M02*
