%TF.GenerationSoftware,KiCad,Pcbnew,(6.0.7)*%
%TF.CreationDate,2023-02-12T17:10:20-05:00*%
%TF.ProjectId,PDB,5044422e-6b69-4636-9164-5f7063625858,rev?*%
%TF.SameCoordinates,Original*%
%TF.FileFunction,Copper,L1,Top*%
%TF.FilePolarity,Positive*%
%FSLAX46Y46*%
G04 Gerber Fmt 4.6, Leading zero omitted, Abs format (unit mm)*
G04 Created by KiCad (PCBNEW (6.0.7)) date 2023-02-12 17:10:20*
%MOMM*%
%LPD*%
G01*
G04 APERTURE LIST*
G04 Aperture macros list*
%AMRoundRect*
0 Rectangle with rounded corners*
0 $1 Rounding radius*
0 $2 $3 $4 $5 $6 $7 $8 $9 X,Y pos of 4 corners*
0 Add a 4 corners polygon primitive as box body*
4,1,4,$2,$3,$4,$5,$6,$7,$8,$9,$2,$3,0*
0 Add four circle primitives for the rounded corners*
1,1,$1+$1,$2,$3*
1,1,$1+$1,$4,$5*
1,1,$1+$1,$6,$7*
1,1,$1+$1,$8,$9*
0 Add four rect primitives between the rounded corners*
20,1,$1+$1,$2,$3,$4,$5,0*
20,1,$1+$1,$4,$5,$6,$7,0*
20,1,$1+$1,$6,$7,$8,$9,0*
20,1,$1+$1,$8,$9,$2,$3,0*%
G04 Aperture macros list end*
%TA.AperFunction,SMDPad,CuDef*%
%ADD10RoundRect,0.250000X-0.337500X-0.475000X0.337500X-0.475000X0.337500X0.475000X-0.337500X0.475000X0*%
%TD*%
%TA.AperFunction,SMDPad,CuDef*%
%ADD11R,2.200000X1.200000*%
%TD*%
%TA.AperFunction,SMDPad,CuDef*%
%ADD12R,6.400000X5.800000*%
%TD*%
%TA.AperFunction,SMDPad,CuDef*%
%ADD13R,1.560000X0.650000*%
%TD*%
%TA.AperFunction,SMDPad,CuDef*%
%ADD14RoundRect,0.250000X0.475000X-0.337500X0.475000X0.337500X-0.475000X0.337500X-0.475000X-0.337500X0*%
%TD*%
%TA.AperFunction,ComponentPad*%
%ADD15R,1.000000X1.000000*%
%TD*%
%TA.AperFunction,ComponentPad*%
%ADD16O,1.000000X1.000000*%
%TD*%
%TA.AperFunction,SMDPad,CuDef*%
%ADD17RoundRect,0.147500X-0.147500X-0.172500X0.147500X-0.172500X0.147500X0.172500X-0.147500X0.172500X0*%
%TD*%
%TA.AperFunction,SMDPad,CuDef*%
%ADD18RoundRect,0.250000X-0.625000X0.400000X-0.625000X-0.400000X0.625000X-0.400000X0.625000X0.400000X0*%
%TD*%
%TA.AperFunction,ComponentPad*%
%ADD19R,2.200000X2.200000*%
%TD*%
%TA.AperFunction,ComponentPad*%
%ADD20O,2.200000X2.200000*%
%TD*%
%TA.AperFunction,SMDPad,CuDef*%
%ADD21RoundRect,0.250000X0.450000X-0.325000X0.450000X0.325000X-0.450000X0.325000X-0.450000X-0.325000X0*%
%TD*%
%TA.AperFunction,SMDPad,CuDef*%
%ADD22RoundRect,0.250000X-0.350000X-0.450000X0.350000X-0.450000X0.350000X0.450000X-0.350000X0.450000X0*%
%TD*%
%TA.AperFunction,SMDPad,CuDef*%
%ADD23RoundRect,0.250000X-0.475000X0.337500X-0.475000X-0.337500X0.475000X-0.337500X0.475000X0.337500X0*%
%TD*%
%TA.AperFunction,SMDPad,CuDef*%
%ADD24RoundRect,0.150000X0.150000X-0.825000X0.150000X0.825000X-0.150000X0.825000X-0.150000X-0.825000X0*%
%TD*%
%TA.AperFunction,SMDPad,CuDef*%
%ADD25RoundRect,0.250000X0.337500X0.475000X-0.337500X0.475000X-0.337500X-0.475000X0.337500X-0.475000X0*%
%TD*%
%TA.AperFunction,SMDPad,CuDef*%
%ADD26RoundRect,0.250000X-0.450000X0.350000X-0.450000X-0.350000X0.450000X-0.350000X0.450000X0.350000X0*%
%TD*%
%TA.AperFunction,SMDPad,CuDef*%
%ADD27RoundRect,0.250000X0.325000X0.450000X-0.325000X0.450000X-0.325000X-0.450000X0.325000X-0.450000X0*%
%TD*%
%TA.AperFunction,SMDPad,CuDef*%
%ADD28RoundRect,0.250000X0.350000X0.450000X-0.350000X0.450000X-0.350000X-0.450000X0.350000X-0.450000X0*%
%TD*%
%TA.AperFunction,SMDPad,CuDef*%
%ADD29R,2.400000X2.000000*%
%TD*%
%TA.AperFunction,ConnectorPad*%
%ADD30C,0.787400*%
%TD*%
%TA.AperFunction,SMDPad,CuDef*%
%ADD31R,1.000000X1.500000*%
%TD*%
%TA.AperFunction,SMDPad,CuDef*%
%ADD32RoundRect,0.075000X-0.662500X-0.075000X0.662500X-0.075000X0.662500X0.075000X-0.662500X0.075000X0*%
%TD*%
%TA.AperFunction,SMDPad,CuDef*%
%ADD33RoundRect,0.075000X-0.075000X-0.662500X0.075000X-0.662500X0.075000X0.662500X-0.075000X0.662500X0*%
%TD*%
%TA.AperFunction,ComponentPad*%
%ADD34R,0.900000X2.000000*%
%TD*%
%TA.AperFunction,ComponentPad*%
%ADD35RoundRect,1.025000X-1.025000X-1.025000X1.025000X-1.025000X1.025000X1.025000X-1.025000X1.025000X0*%
%TD*%
%TA.AperFunction,ComponentPad*%
%ADD36C,4.100000*%
%TD*%
%TA.AperFunction,ViaPad*%
%ADD37C,0.800000*%
%TD*%
%TA.AperFunction,Conductor*%
%ADD38C,0.250000*%
%TD*%
G04 APERTURE END LIST*
D10*
%TO.P,C105,1*%
%TO.N,+3.3V*%
X136962500Y-90000000D03*
%TO.P,C105,2*%
%TO.N,GND*%
X139037500Y-90000000D03*
%TD*%
D11*
%TO.P,U101,1,GND*%
%TO.N,GND*%
X122733800Y-83645000D03*
D12*
%TO.P,U101,2,VO*%
%TO.N,+3.3V*%
X129033800Y-85925000D03*
D11*
%TO.P,U101,3,VI*%
%TO.N,/V_in*%
X122733800Y-88205000D03*
%TD*%
D13*
%TO.P,U104,1,VO*%
%TO.N,/Batt_curr_sense*%
X128000000Y-121100000D03*
%TO.P,U104,2,GND*%
%TO.N,GND*%
X128000000Y-122050000D03*
%TO.P,U104,3,IN+*%
%TO.N,/V_in*%
X128000000Y-123000000D03*
%TO.P,U104,4,IN-*%
%TO.N,+5V*%
X130700000Y-123000000D03*
%TO.P,U104,5,VS*%
X130700000Y-121100000D03*
%TD*%
D14*
%TO.P,C116,1*%
%TO.N,+3.3V*%
X113000000Y-142037500D03*
%TO.P,C116,2*%
%TO.N,Net-(C110-Pad2)*%
X113000000Y-139962500D03*
%TD*%
D15*
%TO.P,J102,1,Pin_1*%
%TO.N,+5V*%
X77585000Y-134488000D03*
D16*
%TO.P,J102,2,Pin_2*%
X77585000Y-135758000D03*
%TO.P,J102,3,Pin_3*%
%TO.N,/CANH*%
X77585000Y-137028000D03*
%TO.P,J102,4,Pin_4*%
%TO.N,/CANL*%
X77585000Y-138298000D03*
%TO.P,J102,5,Pin_5*%
%TO.N,+3.3V*%
X77585000Y-139568000D03*
%TO.P,J102,6,Pin_6*%
X77585000Y-140838000D03*
%TO.P,J102,7,Pin_7*%
%TO.N,GND*%
X77585000Y-142108000D03*
%TO.P,J102,8,Pin_8*%
X77585000Y-143378000D03*
%TD*%
D17*
%TO.P,L101,1*%
%TO.N,+3.3V*%
X105585000Y-99000000D03*
%TO.P,L101,2*%
%TO.N,+3.3VA*%
X106555000Y-99000000D03*
%TD*%
D18*
%TO.P,R107,1*%
%TO.N,/Batt_volt_sense*%
X99000000Y-113450000D03*
%TO.P,R107,2*%
%TO.N,GND*%
X99000000Y-116550000D03*
%TD*%
D19*
%TO.P,D101,1,K*%
%TO.N,/V_in*%
X99060000Y-99060000D03*
D20*
%TO.P,D101,2,A*%
%TO.N,Net-(D101-Pad2)*%
X88900000Y-99060000D03*
%TD*%
D21*
%TO.P,D102,1,K*%
%TO.N,Net-(D102-Pad1)*%
X104902000Y-107959000D03*
%TO.P,D102,2,A*%
%TO.N,/V_in*%
X104902000Y-105909000D03*
%TD*%
D14*
%TO.P,C112,1*%
%TO.N,+3.3V*%
X105000000Y-142037500D03*
%TO.P,C112,2*%
%TO.N,Net-(C110-Pad2)*%
X105000000Y-139962500D03*
%TD*%
D22*
%TO.P,R108,1*%
%TO.N,/BOOT0*%
X106000000Y-123950000D03*
%TO.P,R108,2*%
%TO.N,GND*%
X108000000Y-123950000D03*
%TD*%
D10*
%TO.P,C117,1*%
%TO.N,+3.3VA*%
X110962500Y-102530000D03*
%TO.P,C117,2*%
%TO.N,GND*%
X113037500Y-102530000D03*
%TD*%
D14*
%TO.P,C114,1*%
%TO.N,+3.3V*%
X109000000Y-142075000D03*
%TO.P,C114,2*%
%TO.N,Net-(C110-Pad2)*%
X109000000Y-140000000D03*
%TD*%
%TO.P,C111,1*%
%TO.N,/HSE_OUT*%
X95000000Y-128037500D03*
%TO.P,C111,2*%
%TO.N,GND*%
X95000000Y-125962500D03*
%TD*%
D23*
%TO.P,C109,1*%
%TO.N,+5V*%
X136000000Y-120962500D03*
%TO.P,C109,2*%
%TO.N,GND*%
X136000000Y-123037500D03*
%TD*%
D10*
%TO.P,C108,1*%
%TO.N,+5V*%
X110461200Y-87830000D03*
%TO.P,C108,2*%
%TO.N,GND*%
X112536200Y-87830000D03*
%TD*%
D24*
%TO.P,U102,1,TXD*%
%TO.N,/CAN_TX*%
X81095000Y-118475000D03*
%TO.P,U102,2,VSS*%
%TO.N,GND*%
X82365000Y-118475000D03*
%TO.P,U102,3,VDD*%
%TO.N,+5V*%
X83635000Y-118475000D03*
%TO.P,U102,4,RXD*%
%TO.N,/CAN_RX*%
X84905000Y-118475000D03*
%TO.P,U102,5,Vio*%
%TO.N,+3.3V*%
X84905000Y-113525000D03*
%TO.P,U102,6,CANL*%
%TO.N,/CANL*%
X83635000Y-113525000D03*
%TO.P,U102,7,CANH*%
%TO.N,/CANH*%
X82365000Y-113525000D03*
%TO.P,U102,8,STBY*%
%TO.N,GND*%
X81095000Y-113525000D03*
%TD*%
D25*
%TO.P,C102,1*%
%TO.N,+5V*%
X84037500Y-122000000D03*
%TO.P,C102,2*%
%TO.N,GND*%
X81962500Y-122000000D03*
%TD*%
D14*
%TO.P,C110,1*%
%TO.N,+3.3V*%
X101000000Y-142037500D03*
%TO.P,C110,2*%
%TO.N,Net-(C110-Pad2)*%
X101000000Y-139962500D03*
%TD*%
D10*
%TO.P,C104,1*%
%TO.N,/V_in*%
X98283800Y-91440000D03*
%TO.P,C104,2*%
%TO.N,GND*%
X100358800Y-91440000D03*
%TD*%
D18*
%TO.P,R106,1*%
%TO.N,/V_in*%
X99000000Y-105450000D03*
%TO.P,R106,2*%
%TO.N,/Batt_volt_sense*%
X99000000Y-108550000D03*
%TD*%
D10*
%TO.P,C107,1*%
%TO.N,+3.3V*%
X137000000Y-85835000D03*
%TO.P,C107,2*%
%TO.N,GND*%
X139075000Y-85835000D03*
%TD*%
D26*
%TO.P,R103,1*%
%TO.N,Net-(D102-Pad1)*%
X104648000Y-110506000D03*
%TO.P,R103,2*%
%TO.N,GND*%
X104648000Y-112506000D03*
%TD*%
D27*
%TO.P,D103,1,K*%
%TO.N,Net-(D103-Pad1)*%
X134883000Y-94742000D03*
%TO.P,D103,2,A*%
%TO.N,+3.3V*%
X132833000Y-94742000D03*
%TD*%
D28*
%TO.P,R102,1*%
%TO.N,+5V*%
X130000000Y-126000000D03*
%TO.P,R102,2*%
%TO.N,/V_in*%
X128000000Y-126000000D03*
%TD*%
D10*
%TO.P,C106,1*%
%TO.N,+5V*%
X110461200Y-83485000D03*
%TO.P,C106,2*%
%TO.N,GND*%
X112536200Y-83485000D03*
%TD*%
D14*
%TO.P,C113,1*%
%TO.N,/HSE_IN*%
X95000000Y-140037500D03*
%TO.P,C113,2*%
%TO.N,GND*%
X95000000Y-137962500D03*
%TD*%
D22*
%TO.P,R105,1*%
%TO.N,Net-(D104-Pad1)*%
X114824000Y-92710000D03*
%TO.P,R105,2*%
%TO.N,GND*%
X116824000Y-92710000D03*
%TD*%
D29*
%TO.P,Y101,1,1*%
%TO.N,/HSE_OUT*%
X95000000Y-131150000D03*
%TO.P,Y101,2,2*%
%TO.N,/HSE_IN*%
X95000000Y-134850000D03*
%TD*%
D30*
%TO.P,J104,1,Pin_1*%
%TO.N,+3.3V*%
X139573000Y-139446000D03*
%TO.P,J104,2,Pin_2*%
%TO.N,/SWDIO*%
X140843000Y-139446000D03*
%TO.P,J104,3,Pin_3*%
%TO.N,/nRESET*%
X139573000Y-140716000D03*
%TO.P,J104,4,Pin_4*%
%TO.N,/SWCLK*%
X140843000Y-140716000D03*
%TO.P,J104,5,Pin_5*%
%TO.N,GND*%
X139573000Y-141986000D03*
%TO.P,J104,6,Pin_6*%
%TO.N,/SWO*%
X140843000Y-141986000D03*
%TD*%
D25*
%TO.P,C101,1*%
%TO.N,+3.3V*%
X84037500Y-106940000D03*
%TO.P,C101,2*%
%TO.N,GND*%
X81962500Y-106940000D03*
%TD*%
D31*
%TO.P,JP101,1,A*%
%TO.N,+3.3V*%
X100350000Y-124000000D03*
%TO.P,JP101,2,B*%
%TO.N,/BOOT0*%
X101650000Y-124000000D03*
%TD*%
D27*
%TO.P,D104,1,K*%
%TO.N,Net-(D104-Pad1)*%
X112023000Y-92710000D03*
%TO.P,D104,2,A*%
%TO.N,+5V*%
X109973000Y-92710000D03*
%TD*%
D10*
%TO.P,C103,1*%
%TO.N,/V_in*%
X122962500Y-92320000D03*
%TO.P,C103,2*%
%TO.N,GND*%
X125037500Y-92320000D03*
%TD*%
D32*
%TO.P,U105,1,VBAT*%
%TO.N,Net-(C110-Pad2)*%
X104837500Y-130250000D03*
%TO.P,U105,2,PC13*%
%TO.N,unconnected-(U105-Pad2)*%
X104837500Y-130750000D03*
%TO.P,U105,3,PC14*%
%TO.N,unconnected-(U105-Pad3)*%
X104837500Y-131250000D03*
%TO.P,U105,4,PC15*%
%TO.N,unconnected-(U105-Pad4)*%
X104837500Y-131750000D03*
%TO.P,U105,5,PD0*%
%TO.N,/HSE_OUT*%
X104837500Y-132250000D03*
%TO.P,U105,6,PD1*%
%TO.N,/HSE_IN*%
X104837500Y-132750000D03*
%TO.P,U105,7,NRST*%
%TO.N,/nRESET*%
X104837500Y-133250000D03*
%TO.P,U105,8,VSSA*%
%TO.N,GND*%
X104837500Y-133750000D03*
%TO.P,U105,9,VDDA*%
%TO.N,+3.3VA*%
X104837500Y-134250000D03*
%TO.P,U105,10,PA0*%
%TO.N,/Batt_volt_sense*%
X104837500Y-134750000D03*
%TO.P,U105,11,PA1*%
%TO.N,/Batt_curr_sense*%
X104837500Y-135250000D03*
%TO.P,U105,12,PA2*%
%TO.N,unconnected-(U105-Pad12)*%
X104837500Y-135750000D03*
D33*
%TO.P,U105,13,PA3*%
%TO.N,unconnected-(U105-Pad13)*%
X106250000Y-137162500D03*
%TO.P,U105,14,PA4*%
%TO.N,unconnected-(U105-Pad14)*%
X106750000Y-137162500D03*
%TO.P,U105,15,PA5*%
%TO.N,unconnected-(U105-Pad15)*%
X107250000Y-137162500D03*
%TO.P,U105,16,PA6*%
%TO.N,unconnected-(U105-Pad16)*%
X107750000Y-137162500D03*
%TO.P,U105,17,PA7*%
%TO.N,unconnected-(U105-Pad17)*%
X108250000Y-137162500D03*
%TO.P,U105,18,PB0*%
%TO.N,unconnected-(U105-Pad18)*%
X108750000Y-137162500D03*
%TO.P,U105,19,PB1*%
%TO.N,unconnected-(U105-Pad19)*%
X109250000Y-137162500D03*
%TO.P,U105,20,PB2*%
%TO.N,unconnected-(U105-Pad20)*%
X109750000Y-137162500D03*
%TO.P,U105,21,PB10*%
%TO.N,unconnected-(U105-Pad21)*%
X110250000Y-137162500D03*
%TO.P,U105,22,PB11*%
%TO.N,unconnected-(U105-Pad22)*%
X110750000Y-137162500D03*
%TO.P,U105,23,VSS*%
%TO.N,GND*%
X111250000Y-137162500D03*
%TO.P,U105,24,VDD*%
%TO.N,Net-(C110-Pad2)*%
X111750000Y-137162500D03*
D32*
%TO.P,U105,25,PB12*%
%TO.N,unconnected-(U105-Pad25)*%
X113162500Y-135750000D03*
%TO.P,U105,26,PB13*%
%TO.N,unconnected-(U105-Pad26)*%
X113162500Y-135250000D03*
%TO.P,U105,27,PB14*%
%TO.N,unconnected-(U105-Pad27)*%
X113162500Y-134750000D03*
%TO.P,U105,28,PB15*%
%TO.N,unconnected-(U105-Pad28)*%
X113162500Y-134250000D03*
%TO.P,U105,29,PA8*%
%TO.N,unconnected-(U105-Pad29)*%
X113162500Y-133750000D03*
%TO.P,U105,30,PA9*%
%TO.N,unconnected-(U105-Pad30)*%
X113162500Y-133250000D03*
%TO.P,U105,31,PA10*%
%TO.N,unconnected-(U105-Pad31)*%
X113162500Y-132750000D03*
%TO.P,U105,32,PA11*%
%TO.N,/CANH*%
X113162500Y-132250000D03*
%TO.P,U105,33,PA12*%
%TO.N,/CANL*%
X113162500Y-131750000D03*
%TO.P,U105,34,PA13*%
%TO.N,/SWDIO*%
X113162500Y-131250000D03*
%TO.P,U105,35,VSS*%
%TO.N,GND*%
X113162500Y-130750000D03*
%TO.P,U105,36,VDD*%
%TO.N,Net-(C110-Pad2)*%
X113162500Y-130250000D03*
D33*
%TO.P,U105,37,PA14*%
%TO.N,/SWCLK*%
X111750000Y-128837500D03*
%TO.P,U105,38,PA15*%
%TO.N,unconnected-(U105-Pad38)*%
X111250000Y-128837500D03*
%TO.P,U105,39,PB3*%
%TO.N,/SWO*%
X110750000Y-128837500D03*
%TO.P,U105,40,PB4*%
%TO.N,unconnected-(U105-Pad40)*%
X110250000Y-128837500D03*
%TO.P,U105,41,PB5*%
%TO.N,unconnected-(U105-Pad41)*%
X109750000Y-128837500D03*
%TO.P,U105,42,PB6*%
%TO.N,unconnected-(U105-Pad42)*%
X109250000Y-128837500D03*
%TO.P,U105,43,PB7*%
%TO.N,unconnected-(U105-Pad43)*%
X108750000Y-128837500D03*
%TO.P,U105,44,BOOT0*%
%TO.N,/BOOT0*%
X108250000Y-128837500D03*
%TO.P,U105,45,PB8*%
%TO.N,unconnected-(U105-Pad45)*%
X107750000Y-128837500D03*
%TO.P,U105,46,PB9*%
%TO.N,unconnected-(U105-Pad46)*%
X107250000Y-128837500D03*
%TO.P,U105,47,VSS*%
%TO.N,GND*%
X106750000Y-128837500D03*
%TO.P,U105,48,VDD*%
%TO.N,Net-(C110-Pad2)*%
X106250000Y-128837500D03*
%TD*%
D22*
%TO.P,R104,1*%
%TO.N,Net-(D103-Pad1)*%
X137938000Y-94488000D03*
%TO.P,R104,2*%
%TO.N,GND*%
X139938000Y-94488000D03*
%TD*%
D14*
%TO.P,C118,1*%
%TO.N,+3.3V*%
X117000000Y-142037500D03*
%TO.P,C118,2*%
%TO.N,Net-(C110-Pad2)*%
X117000000Y-139962500D03*
%TD*%
D10*
%TO.P,C115,1*%
%TO.N,+3.3VA*%
X110962500Y-99000000D03*
%TO.P,C115,2*%
%TO.N,GND*%
X113037500Y-99000000D03*
%TD*%
D11*
%TO.P,U103,1,GND*%
%TO.N,GND*%
X98726200Y-83255000D03*
D12*
%TO.P,U103,2,VO*%
%TO.N,+5V*%
X105026200Y-85535000D03*
D11*
X98726200Y-85535000D03*
%TO.P,U103,3,VI*%
%TO.N,/V_in*%
X98726200Y-87815000D03*
%TD*%
D22*
%TO.P,R101,1*%
%TO.N,/CANH*%
X82000000Y-110000000D03*
%TO.P,R101,2*%
%TO.N,/CANL*%
X84000000Y-110000000D03*
%TD*%
D34*
%TO.P,J101,*%
%TO.N,*%
X78594000Y-78374000D03*
X92094000Y-78374000D03*
D35*
%TO.P,J101,1,Pin_1*%
%TO.N,Net-(D101-Pad2)*%
X88944000Y-84374000D03*
D36*
%TO.P,J101,2,Pin_2*%
%TO.N,GND*%
X81744000Y-84374000D03*
%TD*%
D37*
%TO.N,+3.3V*%
X96266000Y-108458000D03*
X85852000Y-106172000D03*
X102616000Y-121412000D03*
X86614000Y-108204000D03*
X138228282Y-136140723D03*
X105664000Y-100584000D03*
X131572000Y-141732000D03*
%TO.N,GND*%
X106244100Y-134485200D03*
X125333300Y-93853700D03*
X94322900Y-136590500D03*
X140362000Y-86409100D03*
X81080600Y-111625200D03*
X140343200Y-90402200D03*
X109545900Y-123863400D03*
X112699800Y-100765000D03*
X96343300Y-125524000D03*
X135310800Y-124396900D03*
X112401400Y-85657500D03*
X80647600Y-107167000D03*
X126497800Y-121838900D03*
X104648000Y-113708700D03*
X123865000Y-81482300D03*
X96836800Y-117260700D03*
X111353100Y-138575700D03*
X96416100Y-83197900D03*
X137968000Y-143654200D03*
X111730000Y-131299200D03*
X101897900Y-91701000D03*
X139525100Y-92585100D03*
X107397300Y-127200700D03*
X82097500Y-120329200D03*
X116541100Y-94307700D03*
%TO.N,/CANH*%
X111311800Y-132557800D03*
%TO.N,/CANL*%
X116222600Y-132395700D03*
%TO.N,/SWO*%
X116222600Y-127243200D03*
X131507400Y-140462200D03*
%TO.N,/Batt_curr_sense*%
X113106200Y-128040300D03*
X103037100Y-135842000D03*
%TD*%
D38*
%TO.N,+3.3V*%
X105664000Y-100584000D02*
X105664000Y-99079000D01*
X139573000Y-139446000D02*
X139230451Y-139103451D01*
X84805500Y-106172000D02*
X84037500Y-106940000D01*
X101938000Y-121412000D02*
X102616000Y-121412000D01*
X139230451Y-137142892D02*
X138228282Y-136140723D01*
X100350000Y-123000000D02*
X101938000Y-121412000D01*
X105664000Y-99079000D02*
X105585000Y-99000000D01*
X117000000Y-142037500D02*
X131266500Y-142037500D01*
X100350000Y-124000000D02*
X100350000Y-123000000D01*
X131266500Y-142037500D02*
X131572000Y-141732000D01*
X139230451Y-139103451D02*
X139230451Y-137142892D01*
X84905000Y-113525000D02*
X86614000Y-111816000D01*
X86614000Y-111816000D02*
X86614000Y-108204000D01*
X85852000Y-106172000D02*
X84805500Y-106172000D01*
%TO.N,GND*%
X106244100Y-134485200D02*
X106244100Y-134266300D01*
X139649100Y-86409100D02*
X139075000Y-85835000D01*
X81095000Y-111639600D02*
X81095000Y-113525000D01*
X112699800Y-100765000D02*
X113037500Y-100427300D01*
X104648000Y-113708700D02*
X104648000Y-112506000D01*
X139525100Y-92585100D02*
X139938000Y-92998000D01*
X126497800Y-121838900D02*
X126683600Y-121838900D01*
X81962500Y-120464200D02*
X81962500Y-122000000D01*
X100619800Y-91701000D02*
X100358800Y-91440000D01*
X112536200Y-85792300D02*
X112536200Y-87830000D01*
X122733800Y-82613500D02*
X122733800Y-83645000D01*
X96343300Y-125524000D02*
X95438500Y-125524000D01*
X101897900Y-91701000D02*
X100619800Y-91701000D01*
X81735500Y-107167000D02*
X81962500Y-106940000D01*
X112401400Y-85657500D02*
X112536200Y-85522700D01*
X128000000Y-122050000D02*
X126894700Y-122050000D01*
X82097500Y-118742500D02*
X82365000Y-118475000D01*
X96416100Y-83197900D02*
X97243800Y-83197900D01*
X106750000Y-127848000D02*
X106750000Y-128837500D01*
X135310800Y-124396900D02*
X136000000Y-123707700D01*
X125037500Y-93557900D02*
X125037500Y-92320000D01*
X112279200Y-130750000D02*
X113162500Y-130750000D01*
X105727800Y-133750000D02*
X104837500Y-133750000D01*
X125333300Y-93853700D02*
X125037500Y-93557900D01*
X113037500Y-100427300D02*
X113037500Y-99000000D01*
X126683600Y-121838900D02*
X126894700Y-122050000D01*
X113037500Y-101102700D02*
X113037500Y-102530000D01*
X112401400Y-85657500D02*
X112536200Y-85792300D01*
X94322900Y-136590500D02*
X95000000Y-137267600D01*
X111250000Y-138472600D02*
X111250000Y-137162500D01*
X139938000Y-92998000D02*
X139938000Y-94488000D01*
X137968000Y-143654200D02*
X137968000Y-143306700D01*
X98289300Y-117260700D02*
X99000000Y-116550000D01*
X82097500Y-120329200D02*
X81962500Y-120464200D01*
X112536200Y-85522700D02*
X112536200Y-83485000D01*
X111353100Y-138575700D02*
X111250000Y-138472600D01*
X107397300Y-127200700D02*
X106750000Y-127848000D01*
X123865000Y-81482300D02*
X122733800Y-82613500D01*
X106244100Y-134266300D02*
X105727800Y-133750000D01*
X98726200Y-83255000D02*
X97300900Y-83255000D01*
X140362000Y-86409100D02*
X139649100Y-86409100D01*
X80647600Y-107167000D02*
X81735500Y-107167000D01*
X139288700Y-141986000D02*
X139573000Y-141986000D01*
X96836800Y-117260700D02*
X98289300Y-117260700D01*
X136000000Y-123707700D02*
X136000000Y-123037500D01*
X116824000Y-94024800D02*
X116824000Y-92710000D01*
X97243800Y-83197900D02*
X97300900Y-83255000D01*
X139439700Y-90402200D02*
X139037500Y-90000000D01*
X140343200Y-90402200D02*
X139439700Y-90402200D01*
X111730000Y-131299200D02*
X112279200Y-130750000D01*
X81080600Y-111625200D02*
X81095000Y-111639600D01*
X137968000Y-143306700D02*
X139288700Y-141986000D01*
X112699800Y-100765000D02*
X113037500Y-101102700D01*
X95438500Y-125524000D02*
X95000000Y-125962500D01*
X116541100Y-94307700D02*
X116824000Y-94024800D01*
X82097500Y-120329200D02*
X82097500Y-118742500D01*
X95000000Y-137267600D02*
X95000000Y-137962500D01*
X109545900Y-123863400D02*
X108086600Y-123863400D01*
X108086600Y-123863400D02*
X108000000Y-123950000D01*
%TO.N,+5V*%
X86523600Y-107000000D02*
X85384900Y-108138700D01*
X130147400Y-121100000D02*
X130147400Y-114470700D01*
X82991000Y-117831000D02*
X83635000Y-118475000D01*
X82991000Y-109340100D02*
X82991000Y-117831000D01*
X77585000Y-134488000D02*
X77585000Y-133662700D01*
X130000000Y-126000000D02*
X130000000Y-123000000D01*
X130000000Y-123000000D02*
X129594700Y-123000000D01*
X131252700Y-121100000D02*
X131805300Y-121100000D01*
X85384900Y-108138700D02*
X84192400Y-108138700D01*
X110461200Y-87830000D02*
X108551500Y-85920300D01*
X84192400Y-108138700D02*
X82991000Y-109340100D01*
X105951800Y-106470900D02*
X105422700Y-107000000D01*
X110279900Y-94603200D02*
X109973000Y-94603200D01*
X108551500Y-85535000D02*
X108551500Y-85394700D01*
X131805300Y-121100000D02*
X135862500Y-121100000D01*
X109973000Y-94603200D02*
X109973000Y-92710000D01*
X110461200Y-92221800D02*
X109973000Y-92710000D01*
X83846000Y-127401700D02*
X77585000Y-133662700D01*
X129594700Y-121652700D02*
X129594700Y-123000000D01*
X130147400Y-121100000D02*
X129594700Y-121652700D01*
X104932900Y-98565500D02*
X104932900Y-104237400D01*
X98726200Y-85535000D02*
X105026200Y-85535000D01*
X130700000Y-123000000D02*
X130000000Y-123000000D01*
X130147400Y-114470700D02*
X110279900Y-94603200D01*
X83846000Y-122000000D02*
X83846000Y-127401700D01*
X110461200Y-87830000D02*
X110461200Y-92221800D01*
X130700000Y-121100000D02*
X130147400Y-121100000D01*
X105026200Y-85535000D02*
X108551500Y-85535000D01*
X105422700Y-107000000D02*
X86523600Y-107000000D01*
X131252700Y-121100000D02*
X130700000Y-121100000D01*
X104932900Y-104237400D02*
X105951800Y-105256300D01*
X83846000Y-122000000D02*
X84037500Y-122000000D01*
X109973000Y-94603200D02*
X108895200Y-94603200D01*
X83846000Y-122000000D02*
X83846000Y-118686000D01*
X105951800Y-105256300D02*
X105951800Y-106470900D01*
X135862500Y-121100000D02*
X136000000Y-120962500D01*
X83846000Y-118686000D02*
X83635000Y-118475000D01*
X108551500Y-85920300D02*
X108551500Y-85535000D01*
X108551500Y-85394700D02*
X110461200Y-83485000D01*
X108895200Y-94603200D02*
X104932900Y-98565500D01*
%TO.N,/V_in*%
X99060000Y-99060000D02*
X99060000Y-97634700D01*
X99541700Y-84609600D02*
X100151600Y-83999700D01*
X99060000Y-100485300D02*
X99060000Y-104444000D01*
X128000000Y-123000000D02*
X128992700Y-123000000D01*
X99000000Y-105450000D02*
X99000000Y-104504000D01*
X122733800Y-92091300D02*
X122733800Y-88205000D01*
X136591700Y-122000000D02*
X137066600Y-121525100D01*
X133530600Y-124122700D02*
X133530600Y-123879500D01*
X97465000Y-84609600D02*
X99541700Y-84609600D01*
X97300900Y-87702400D02*
X97300900Y-84773700D01*
X99000000Y-104504000D02*
X99060000Y-104444000D01*
X133530600Y-123879500D02*
X135410100Y-122000000D01*
X117761800Y-82307700D02*
X122733800Y-87279700D01*
X99060000Y-92216200D02*
X99060000Y-97634700D01*
X98283800Y-91440000D02*
X99060000Y-92216200D01*
X137066600Y-108246200D02*
X122962500Y-94142100D01*
X100151600Y-83788300D02*
X101632200Y-82307700D01*
X101632200Y-82307700D02*
X117761800Y-82307700D01*
X128000000Y-126000000D02*
X128175900Y-125824100D01*
X122962500Y-94142100D02*
X122962500Y-92320000D01*
X129383400Y-127031600D02*
X130621700Y-127031600D01*
X122962500Y-92320000D02*
X122733800Y-92091300D01*
X128992700Y-125007300D02*
X128992700Y-123000000D01*
X103437000Y-104444000D02*
X99060000Y-104444000D01*
X104902000Y-105909000D02*
X103437000Y-104444000D01*
X100151600Y-83999700D02*
X100151600Y-83788300D01*
X97413500Y-87815000D02*
X97300900Y-87702400D01*
X130621700Y-127031600D02*
X133530600Y-124122700D01*
X97413500Y-90569700D02*
X98283800Y-91440000D01*
X97300900Y-84773700D02*
X97465000Y-84609600D01*
X97413500Y-87815000D02*
X97413500Y-90569700D01*
X122733800Y-88205000D02*
X122733800Y-87279700D01*
X135410100Y-122000000D02*
X136591700Y-122000000D01*
X99060000Y-99060000D02*
X99060000Y-100485300D01*
X137066600Y-121525100D02*
X137066600Y-108246200D01*
X98726200Y-87815000D02*
X97413500Y-87815000D01*
X128175900Y-125824100D02*
X129383400Y-127031600D01*
X128175900Y-125824100D02*
X128992700Y-125007300D01*
%TO.N,Net-(C110-Pad2)*%
X109000000Y-140000000D02*
X112072700Y-140000000D01*
X105000000Y-139962500D02*
X108962500Y-139962500D01*
X112110200Y-139962500D02*
X113000000Y-139962500D01*
X107692900Y-131426900D02*
X110554300Y-131426900D01*
X106166500Y-129900500D02*
X105817000Y-130250000D01*
X111750000Y-137162500D02*
X111750000Y-134504400D01*
X111731200Y-130250000D02*
X113162500Y-130250000D01*
X110554300Y-131426900D02*
X111731200Y-130250000D01*
X110554300Y-133308700D02*
X110554300Y-131426900D01*
X112110200Y-137522700D02*
X111750000Y-137162500D01*
X117000000Y-139962500D02*
X113000000Y-139962500D01*
X106166500Y-128921000D02*
X106166500Y-129900500D01*
X106250000Y-128837500D02*
X106166500Y-128921000D01*
X112110200Y-139962500D02*
X112110200Y-137522700D01*
X106166500Y-129900500D02*
X107692900Y-131426900D01*
X105817000Y-130250000D02*
X104837500Y-130250000D01*
X108962500Y-139962500D02*
X109000000Y-140000000D01*
X101000000Y-139962500D02*
X105000000Y-139962500D01*
X111750000Y-134504400D02*
X110554300Y-133308700D01*
X112072700Y-140000000D02*
X112110200Y-139962500D01*
%TO.N,/HSE_OUT*%
X95000000Y-131150000D02*
X95000000Y-128037500D01*
X95000000Y-131150000D02*
X96525300Y-131150000D01*
X104837500Y-132250000D02*
X97625300Y-132250000D01*
X97625300Y-132250000D02*
X96525300Y-131150000D01*
%TO.N,/HSE_IN*%
X95000000Y-135716200D02*
X96091000Y-136807200D01*
X95000000Y-134850000D02*
X95000000Y-135716200D01*
X96091000Y-136807200D02*
X96091000Y-138946500D01*
X100148200Y-132750000D02*
X96091000Y-136807200D01*
X104837500Y-132750000D02*
X100148200Y-132750000D01*
X96091000Y-138946500D02*
X95000000Y-140037500D01*
%TO.N,+3.3VA*%
X94232900Y-127107400D02*
X93470400Y-127869900D01*
X110962500Y-99000000D02*
X110962500Y-102530000D01*
X110962500Y-102530000D02*
X110962500Y-111648800D01*
X110962500Y-111648800D02*
X97068600Y-125542700D01*
X93470400Y-127869900D02*
X93470400Y-140136900D01*
X95785700Y-127107400D02*
X94232900Y-127107400D01*
X94288000Y-140954500D02*
X95777100Y-140954500D01*
X97068600Y-125542700D02*
X97068600Y-125824500D01*
X110962500Y-99000000D02*
X106555000Y-99000000D01*
X95777100Y-140954500D02*
X102481600Y-134250000D01*
X93470400Y-140136900D02*
X94288000Y-140954500D01*
X102481600Y-134250000D02*
X104837500Y-134250000D01*
X97068600Y-125824500D02*
X95785700Y-127107400D01*
%TO.N,Net-(D102-Pad1)*%
X104648000Y-110506000D02*
X104902000Y-110252000D01*
X104902000Y-110252000D02*
X104902000Y-107959000D01*
%TO.N,Net-(D103-Pad1)*%
X135137000Y-94488000D02*
X134883000Y-94742000D01*
X137938000Y-94488000D02*
X135137000Y-94488000D01*
%TO.N,Net-(D104-Pad1)*%
X112023000Y-92710000D02*
X114824000Y-92710000D01*
%TO.N,/CANH*%
X82365000Y-113525000D02*
X82365000Y-114988400D01*
X82365000Y-114988400D02*
X76743300Y-120610100D01*
X111619600Y-132250000D02*
X113162500Y-132250000D01*
X76743300Y-120610100D02*
X76743300Y-136186300D01*
X82000000Y-110000000D02*
X82365000Y-110365000D01*
X82365000Y-110365000D02*
X82365000Y-113525000D01*
X111311800Y-132557800D02*
X111619600Y-132250000D01*
X76743300Y-136186300D02*
X77585000Y-137028000D01*
%TO.N,/CANL*%
X84000000Y-110000000D02*
X83635000Y-110365000D01*
X116222600Y-132395700D02*
X115576900Y-131750000D01*
X83635000Y-113525000D02*
X83635000Y-115043000D01*
X85532400Y-130350600D02*
X77585000Y-138298000D01*
X115576900Y-131750000D02*
X113162500Y-131750000D01*
X83635000Y-110365000D02*
X83635000Y-113525000D01*
X85532400Y-116940400D02*
X85532400Y-130350600D01*
X83635000Y-115043000D02*
X85532400Y-116940400D01*
%TO.N,/SWDIO*%
X134466800Y-131250000D02*
X113162500Y-131250000D01*
X141059700Y-139229300D02*
X141059700Y-137842900D01*
X140843000Y-139446000D02*
X141059700Y-139229300D01*
X141059700Y-137842900D02*
X134466800Y-131250000D01*
%TO.N,/nRESET*%
X99930500Y-140560400D02*
X100309500Y-140939400D01*
X127786000Y-140939400D02*
X129036500Y-139688900D01*
X100309500Y-140939400D02*
X127786000Y-140939400D01*
X99930500Y-139396800D02*
X99930500Y-140560400D01*
X129036500Y-139688900D02*
X138545900Y-139688900D01*
X106079100Y-133250000D02*
X107023400Y-134194300D01*
X107023400Y-134916600D02*
X103684000Y-138256000D01*
X104837500Y-133250000D02*
X106079100Y-133250000D01*
X138545900Y-139688900D02*
X139573000Y-140716000D01*
X103684000Y-138256000D02*
X101071300Y-138256000D01*
X101071300Y-138256000D02*
X99930500Y-139396800D01*
X107023400Y-134194300D02*
X107023400Y-134916600D01*
%TO.N,/SWCLK*%
X141795500Y-139763500D02*
X140843000Y-140716000D01*
X144293000Y-138776500D02*
X143306000Y-139763500D01*
X144293000Y-137575700D02*
X144293000Y-138776500D01*
X111750000Y-128837500D02*
X135554800Y-128837500D01*
X135554800Y-128837500D02*
X144293000Y-137575700D01*
X143306000Y-139763500D02*
X141795500Y-139763500D01*
%TO.N,/SWO*%
X131507400Y-140462200D02*
X135465100Y-144419900D01*
X110750000Y-128837500D02*
X110750000Y-128023900D01*
X140393700Y-143241000D02*
X140393700Y-142435300D01*
X111530700Y-127243200D02*
X116222600Y-127243200D01*
X110750000Y-128023900D02*
X111530700Y-127243200D01*
X140393700Y-142435300D02*
X140843000Y-141986000D01*
X135465100Y-144419900D02*
X139214800Y-144419900D01*
X139214800Y-144419900D02*
X140393700Y-143241000D01*
%TO.N,/BOOT0*%
X108250000Y-128837500D02*
X108250000Y-126250000D01*
X108250000Y-126250000D02*
X106000000Y-124000000D01*
X106000000Y-124000000D02*
X106000000Y-123950000D01*
X106000000Y-124000000D02*
X102475300Y-124000000D01*
X101650000Y-124000000D02*
X102475300Y-124000000D01*
%TO.N,/Batt_volt_sense*%
X99000000Y-108550000D02*
X99000000Y-113450000D01*
X92997100Y-119452900D02*
X92997100Y-140326300D01*
X99000000Y-113450000D02*
X92997100Y-119452900D01*
X92997100Y-140326300D02*
X94111600Y-141440800D01*
X96409900Y-141440800D02*
X103100700Y-134750000D01*
X94111600Y-141440800D02*
X96409900Y-141440800D01*
X103100700Y-134750000D02*
X104837500Y-134750000D01*
%TO.N,/Batt_curr_sense*%
X118530300Y-128040300D02*
X125470600Y-121100000D01*
X104837500Y-135250000D02*
X103629100Y-135250000D01*
X113106200Y-128040300D02*
X118530300Y-128040300D01*
X103629100Y-135250000D02*
X103037100Y-135842000D01*
X125470600Y-121100000D02*
X128000000Y-121100000D01*
%TD*%
%TA.AperFunction,Conductor*%
%TO.N,+3.3V*%
G36*
X97644761Y-107653502D02*
G01*
X97691254Y-107707158D01*
X97701358Y-107777432D01*
X97688230Y-107813654D01*
X97689820Y-107814395D01*
X97686725Y-107821032D01*
X97682885Y-107827262D01*
X97673739Y-107854838D01*
X97630219Y-107986047D01*
X97627203Y-107995139D01*
X97626503Y-108001975D01*
X97626502Y-108001978D01*
X97622897Y-108037166D01*
X97616500Y-108099600D01*
X97616500Y-109000400D01*
X97616837Y-109003646D01*
X97616837Y-109003650D01*
X97625063Y-109082928D01*
X97627474Y-109106166D01*
X97629655Y-109112702D01*
X97629655Y-109112704D01*
X97629839Y-109113256D01*
X97683450Y-109273946D01*
X97776522Y-109424348D01*
X97901697Y-109549305D01*
X97907927Y-109553145D01*
X97907928Y-109553146D01*
X98045090Y-109637694D01*
X98052262Y-109642115D01*
X98132005Y-109668564D01*
X98213611Y-109695632D01*
X98213613Y-109695632D01*
X98220139Y-109697797D01*
X98226977Y-109698498D01*
X98226979Y-109698498D01*
X98253342Y-109701199D01*
X98319070Y-109728040D01*
X98359852Y-109786155D01*
X98366500Y-109826543D01*
X98366500Y-112173550D01*
X98346498Y-112241671D01*
X98292842Y-112288164D01*
X98253504Y-112298877D01*
X98245865Y-112299669D01*
X98225692Y-112301762D01*
X98225688Y-112301763D01*
X98218834Y-112302474D01*
X98212298Y-112304655D01*
X98212296Y-112304655D01*
X98128170Y-112332722D01*
X98051054Y-112358450D01*
X97900652Y-112451522D01*
X97775695Y-112576697D01*
X97771855Y-112582927D01*
X97771854Y-112582928D01*
X97759689Y-112602664D01*
X97682885Y-112727262D01*
X97627203Y-112895139D01*
X97626503Y-112901975D01*
X97626502Y-112901978D01*
X97625716Y-112909650D01*
X97616500Y-112999600D01*
X97616500Y-113885406D01*
X97596498Y-113953527D01*
X97579595Y-113974501D01*
X95087198Y-116466897D01*
X92604847Y-118949248D01*
X92596561Y-118956788D01*
X92590082Y-118960900D01*
X92584657Y-118966677D01*
X92543457Y-119010551D01*
X92540702Y-119013393D01*
X92520965Y-119033130D01*
X92518485Y-119036327D01*
X92510782Y-119045347D01*
X92480514Y-119077579D01*
X92476695Y-119084525D01*
X92476693Y-119084528D01*
X92470752Y-119095334D01*
X92459901Y-119111853D01*
X92447486Y-119127859D01*
X92444341Y-119135128D01*
X92444338Y-119135132D01*
X92429926Y-119168437D01*
X92424709Y-119179087D01*
X92403405Y-119217840D01*
X92401434Y-119225515D01*
X92401434Y-119225516D01*
X92398367Y-119237462D01*
X92391963Y-119256166D01*
X92383919Y-119274755D01*
X92382680Y-119282578D01*
X92382677Y-119282588D01*
X92377001Y-119318424D01*
X92374595Y-119330044D01*
X92363600Y-119372870D01*
X92363600Y-119393124D01*
X92362049Y-119412834D01*
X92358880Y-119432843D01*
X92359626Y-119440735D01*
X92363041Y-119476861D01*
X92363600Y-119488719D01*
X92363600Y-140247533D01*
X92363073Y-140258716D01*
X92361398Y-140266209D01*
X92361647Y-140274135D01*
X92361647Y-140274136D01*
X92363538Y-140334286D01*
X92363600Y-140338245D01*
X92363600Y-140366156D01*
X92364097Y-140370090D01*
X92364097Y-140370091D01*
X92364105Y-140370156D01*
X92365038Y-140381993D01*
X92366427Y-140426189D01*
X92372078Y-140445639D01*
X92376087Y-140465000D01*
X92377374Y-140475183D01*
X92378626Y-140485097D01*
X92381545Y-140492468D01*
X92381545Y-140492470D01*
X92394904Y-140526212D01*
X92398749Y-140537442D01*
X92407012Y-140565885D01*
X92411082Y-140579893D01*
X92415115Y-140586712D01*
X92415117Y-140586717D01*
X92421393Y-140597328D01*
X92430088Y-140615076D01*
X92437548Y-140633917D01*
X92442210Y-140640333D01*
X92442210Y-140640334D01*
X92463536Y-140669687D01*
X92470052Y-140679607D01*
X92492558Y-140717662D01*
X92506879Y-140731983D01*
X92519719Y-140747016D01*
X92531628Y-140763407D01*
X92537734Y-140768458D01*
X92565705Y-140791598D01*
X92574484Y-140799588D01*
X93607948Y-141833053D01*
X93615488Y-141841339D01*
X93619600Y-141847818D01*
X93625377Y-141853243D01*
X93669251Y-141894443D01*
X93672093Y-141897198D01*
X93691830Y-141916935D01*
X93695027Y-141919415D01*
X93704047Y-141927118D01*
X93736279Y-141957386D01*
X93743225Y-141961205D01*
X93743228Y-141961207D01*
X93754034Y-141967148D01*
X93770553Y-141977999D01*
X93786559Y-141990414D01*
X93793828Y-141993559D01*
X93793832Y-141993562D01*
X93827137Y-142007974D01*
X93837787Y-142013191D01*
X93876540Y-142034495D01*
X93884215Y-142036466D01*
X93884216Y-142036466D01*
X93896162Y-142039533D01*
X93914867Y-142045937D01*
X93933455Y-142053981D01*
X93941278Y-142055220D01*
X93941288Y-142055223D01*
X93977124Y-142060899D01*
X93988744Y-142063305D01*
X94020559Y-142071473D01*
X94031570Y-142074300D01*
X94051824Y-142074300D01*
X94071534Y-142075851D01*
X94091543Y-142079020D01*
X94099435Y-142078274D01*
X94118180Y-142076502D01*
X94135562Y-142074859D01*
X94147419Y-142074300D01*
X96331133Y-142074300D01*
X96342316Y-142074827D01*
X96349809Y-142076502D01*
X96357735Y-142076253D01*
X96357736Y-142076253D01*
X96417886Y-142074362D01*
X96421845Y-142074300D01*
X96449756Y-142074300D01*
X96453691Y-142073803D01*
X96453756Y-142073795D01*
X96465593Y-142072862D01*
X96497851Y-142071848D01*
X96501870Y-142071722D01*
X96509789Y-142071473D01*
X96529243Y-142065821D01*
X96548600Y-142061813D01*
X96560830Y-142060268D01*
X96560831Y-142060268D01*
X96568697Y-142059274D01*
X96576068Y-142056355D01*
X96576070Y-142056355D01*
X96609812Y-142042996D01*
X96621042Y-142039151D01*
X96655883Y-142029029D01*
X96655884Y-142029029D01*
X96663493Y-142026818D01*
X96670312Y-142022785D01*
X96670317Y-142022783D01*
X96680928Y-142016507D01*
X96698676Y-142007812D01*
X96717517Y-142000352D01*
X96753287Y-141974364D01*
X96763207Y-141967848D01*
X96794435Y-141949380D01*
X96794438Y-141949378D01*
X96801262Y-141945342D01*
X96815583Y-141931021D01*
X96830617Y-141918180D01*
X96836190Y-141914131D01*
X96847007Y-141906272D01*
X96875198Y-141872195D01*
X96883188Y-141863416D01*
X99081905Y-139664699D01*
X99144217Y-139630673D01*
X99215032Y-139635738D01*
X99271868Y-139678285D01*
X99296679Y-139744805D01*
X99297000Y-139753794D01*
X99297000Y-140481633D01*
X99296473Y-140492816D01*
X99294798Y-140500309D01*
X99295047Y-140508235D01*
X99295047Y-140508236D01*
X99296938Y-140568386D01*
X99297000Y-140572345D01*
X99297000Y-140600256D01*
X99297497Y-140604190D01*
X99297497Y-140604191D01*
X99297505Y-140604256D01*
X99298438Y-140616093D01*
X99299827Y-140660289D01*
X99305478Y-140679739D01*
X99309487Y-140699100D01*
X99310970Y-140710835D01*
X99312026Y-140719197D01*
X99314945Y-140726568D01*
X99314945Y-140726570D01*
X99328304Y-140760312D01*
X99332149Y-140771542D01*
X99344482Y-140813993D01*
X99348515Y-140820812D01*
X99348517Y-140820817D01*
X99354793Y-140831428D01*
X99363488Y-140849176D01*
X99370948Y-140868017D01*
X99375610Y-140874433D01*
X99375610Y-140874434D01*
X99396936Y-140903787D01*
X99403452Y-140913707D01*
X99425958Y-140951762D01*
X99431564Y-140957369D01*
X99440280Y-140966085D01*
X99453120Y-140981118D01*
X99465028Y-140997507D01*
X99471135Y-141002559D01*
X99499093Y-141025688D01*
X99507873Y-141033678D01*
X99782934Y-141308739D01*
X99816960Y-141371051D01*
X99813432Y-141437502D01*
X99779862Y-141538710D01*
X99776995Y-141552086D01*
X99767328Y-141646438D01*
X99767000Y-141652855D01*
X99767000Y-141765385D01*
X99771475Y-141780624D01*
X99772865Y-141781829D01*
X99780548Y-141783500D01*
X102214884Y-141783500D01*
X102230123Y-141779025D01*
X102231328Y-141777635D01*
X102232999Y-141769952D01*
X102232999Y-141698900D01*
X102253001Y-141630779D01*
X102306657Y-141584286D01*
X102358999Y-141572900D01*
X103641000Y-141572900D01*
X103709121Y-141592902D01*
X103755614Y-141646558D01*
X103767000Y-141698900D01*
X103767000Y-141765385D01*
X103771475Y-141780624D01*
X103772865Y-141781829D01*
X103780548Y-141783500D01*
X106214884Y-141783500D01*
X106230123Y-141779025D01*
X106231328Y-141777635D01*
X106232999Y-141769952D01*
X106232999Y-141698900D01*
X106253001Y-141630779D01*
X106306657Y-141584286D01*
X106358999Y-141572900D01*
X107641000Y-141572900D01*
X107709121Y-141592902D01*
X107755614Y-141646558D01*
X107767000Y-141698900D01*
X107767000Y-141802885D01*
X107771475Y-141818124D01*
X107772865Y-141819329D01*
X107780548Y-141821000D01*
X110214884Y-141821000D01*
X110230123Y-141816525D01*
X110231328Y-141815135D01*
X110232999Y-141807452D01*
X110232999Y-141698900D01*
X110253001Y-141630779D01*
X110306657Y-141584286D01*
X110358999Y-141572900D01*
X111641000Y-141572900D01*
X111709121Y-141592902D01*
X111755614Y-141646558D01*
X111767000Y-141698900D01*
X111767000Y-141765385D01*
X111771475Y-141780624D01*
X111772865Y-141781829D01*
X111780548Y-141783500D01*
X114214884Y-141783500D01*
X114230123Y-141779025D01*
X114231328Y-141777635D01*
X114232999Y-141769952D01*
X114232999Y-141698900D01*
X114253001Y-141630779D01*
X114306657Y-141584286D01*
X114358999Y-141572900D01*
X115641000Y-141572900D01*
X115709121Y-141592902D01*
X115755614Y-141646558D01*
X115767000Y-141698900D01*
X115767000Y-141765385D01*
X115771475Y-141780624D01*
X115772865Y-141781829D01*
X115780548Y-141783500D01*
X118214884Y-141783500D01*
X118230123Y-141779025D01*
X118231328Y-141777635D01*
X118232999Y-141769952D01*
X118232999Y-141698900D01*
X118253001Y-141630779D01*
X118306657Y-141584286D01*
X118358999Y-141572900D01*
X127707233Y-141572900D01*
X127718416Y-141573427D01*
X127725909Y-141575102D01*
X127733835Y-141574853D01*
X127733836Y-141574853D01*
X127793986Y-141572962D01*
X127797945Y-141572900D01*
X127825856Y-141572900D01*
X127829791Y-141572403D01*
X127829856Y-141572395D01*
X127841693Y-141571462D01*
X127873951Y-141570448D01*
X127877970Y-141570322D01*
X127885889Y-141570073D01*
X127905343Y-141564421D01*
X127924700Y-141560413D01*
X127936930Y-141558868D01*
X127936931Y-141558868D01*
X127944797Y-141557874D01*
X127952168Y-141554955D01*
X127952170Y-141554955D01*
X127985912Y-141541596D01*
X127997142Y-141537751D01*
X128031983Y-141527629D01*
X128031984Y-141527629D01*
X128039593Y-141525418D01*
X128046412Y-141521385D01*
X128046417Y-141521383D01*
X128057028Y-141515107D01*
X128074776Y-141506412D01*
X128093617Y-141498952D01*
X128129387Y-141472964D01*
X128139307Y-141466448D01*
X128170535Y-141447980D01*
X128170538Y-141447978D01*
X128177362Y-141443942D01*
X128191683Y-141429621D01*
X128206717Y-141416780D01*
X128216694Y-141409531D01*
X128223107Y-141404872D01*
X128251298Y-141370795D01*
X128259288Y-141362016D01*
X129262000Y-140359305D01*
X129324312Y-140325279D01*
X129351095Y-140322400D01*
X130468652Y-140322400D01*
X130536773Y-140342402D01*
X130583266Y-140396058D01*
X130591923Y-140449030D01*
X130594586Y-140449030D01*
X130594586Y-140455635D01*
X130593896Y-140462200D01*
X130594586Y-140468765D01*
X130608827Y-140604256D01*
X130613858Y-140652128D01*
X130672873Y-140833756D01*
X130676176Y-140839478D01*
X130676177Y-140839479D01*
X130710086Y-140898210D01*
X130768360Y-140999144D01*
X130772778Y-141004051D01*
X130772779Y-141004052D01*
X130833958Y-141071998D01*
X130896147Y-141141066D01*
X131050648Y-141253318D01*
X131056676Y-141256002D01*
X131056678Y-141256003D01*
X131083332Y-141267870D01*
X131225112Y-141330994D01*
X131297676Y-141346418D01*
X131405456Y-141369328D01*
X131405461Y-141369328D01*
X131411913Y-141370700D01*
X131467806Y-141370700D01*
X131535927Y-141390702D01*
X131556901Y-141407605D01*
X134205700Y-144056405D01*
X134239726Y-144118717D01*
X134234661Y-144189533D01*
X134192114Y-144246368D01*
X134125594Y-144271179D01*
X134116605Y-144271500D01*
X78421258Y-144271500D01*
X78353137Y-144251498D01*
X78306644Y-144197842D01*
X78296540Y-144127568D01*
X78325875Y-144063171D01*
X78413078Y-143962145D01*
X78510769Y-143790179D01*
X78573197Y-143602513D01*
X78597985Y-143406295D01*
X78598380Y-143378000D01*
X78579080Y-143181167D01*
X78575860Y-143170500D01*
X78545949Y-143071431D01*
X78521916Y-142991831D01*
X78429066Y-142817204D01*
X78425167Y-142812424D01*
X78424715Y-142811743D01*
X78403676Y-142743935D01*
X78420105Y-142679775D01*
X78507723Y-142525542D01*
X78507725Y-142525537D01*
X78510769Y-142520179D01*
X78543397Y-142422095D01*
X99767001Y-142422095D01*
X99767338Y-142428614D01*
X99777257Y-142524206D01*
X99780149Y-142537600D01*
X99831588Y-142691784D01*
X99837761Y-142704962D01*
X99923063Y-142842807D01*
X99932099Y-142854208D01*
X100046829Y-142968739D01*
X100058240Y-142977751D01*
X100196243Y-143062816D01*
X100209424Y-143068963D01*
X100363710Y-143120138D01*
X100377086Y-143123005D01*
X100471438Y-143132672D01*
X100477854Y-143133000D01*
X100727885Y-143133000D01*
X100743124Y-143128525D01*
X100744329Y-143127135D01*
X100746000Y-143119452D01*
X100746000Y-143114884D01*
X101254000Y-143114884D01*
X101258475Y-143130123D01*
X101259865Y-143131328D01*
X101267548Y-143132999D01*
X101522095Y-143132999D01*
X101528614Y-143132662D01*
X101624206Y-143122743D01*
X101637600Y-143119851D01*
X101791784Y-143068412D01*
X101804962Y-143062239D01*
X101942807Y-142976937D01*
X101954208Y-142967901D01*
X102068739Y-142853171D01*
X102077751Y-142841760D01*
X102162816Y-142703757D01*
X102168963Y-142690576D01*
X102220138Y-142536290D01*
X102223005Y-142522914D01*
X102232672Y-142428562D01*
X102233000Y-142422146D01*
X102233000Y-142422095D01*
X103767001Y-142422095D01*
X103767338Y-142428614D01*
X103777257Y-142524206D01*
X103780149Y-142537600D01*
X103831588Y-142691784D01*
X103837761Y-142704962D01*
X103923063Y-142842807D01*
X103932099Y-142854208D01*
X104046829Y-142968739D01*
X104058240Y-142977751D01*
X104196243Y-143062816D01*
X104209424Y-143068963D01*
X104363710Y-143120138D01*
X104377086Y-143123005D01*
X104471438Y-143132672D01*
X104477854Y-143133000D01*
X104727885Y-143133000D01*
X104743124Y-143128525D01*
X104744329Y-143127135D01*
X104746000Y-143119452D01*
X104746000Y-143114884D01*
X105254000Y-143114884D01*
X105258475Y-143130123D01*
X105259865Y-143131328D01*
X105267548Y-143132999D01*
X105522095Y-143132999D01*
X105528614Y-143132662D01*
X105624206Y-143122743D01*
X105637600Y-143119851D01*
X105791784Y-143068412D01*
X105804962Y-143062239D01*
X105942807Y-142976937D01*
X105954208Y-142967901D01*
X106068739Y-142853171D01*
X106077751Y-142841760D01*
X106162816Y-142703757D01*
X106168963Y-142690576D01*
X106220138Y-142536290D01*
X106223005Y-142522914D01*
X106229492Y-142459595D01*
X107767001Y-142459595D01*
X107767338Y-142466114D01*
X107777257Y-142561706D01*
X107780149Y-142575100D01*
X107831588Y-142729284D01*
X107837761Y-142742462D01*
X107923063Y-142880307D01*
X107932099Y-142891708D01*
X108046829Y-143006239D01*
X108058240Y-143015251D01*
X108196243Y-143100316D01*
X108209424Y-143106463D01*
X108363710Y-143157638D01*
X108377086Y-143160505D01*
X108471438Y-143170172D01*
X108477854Y-143170500D01*
X108727885Y-143170500D01*
X108743124Y-143166025D01*
X108744329Y-143164635D01*
X108746000Y-143156952D01*
X108746000Y-143152384D01*
X109254000Y-143152384D01*
X109258475Y-143167623D01*
X109259865Y-143168828D01*
X109267548Y-143170499D01*
X109522095Y-143170499D01*
X109528614Y-143170162D01*
X109624206Y-143160243D01*
X109637600Y-143157351D01*
X109791784Y-143105912D01*
X109804962Y-143099739D01*
X109942807Y-143014437D01*
X109954208Y-143005401D01*
X110068739Y-142890671D01*
X110077751Y-142879260D01*
X110162816Y-142741257D01*
X110168963Y-142728076D01*
X110220138Y-142573790D01*
X110223005Y-142560414D01*
X110232672Y-142466062D01*
X110233000Y-142459646D01*
X110233000Y-142422095D01*
X111767001Y-142422095D01*
X111767338Y-142428614D01*
X111777257Y-142524206D01*
X111780149Y-142537600D01*
X111831588Y-142691784D01*
X111837761Y-142704962D01*
X111923063Y-142842807D01*
X111932099Y-142854208D01*
X112046829Y-142968739D01*
X112058240Y-142977751D01*
X112196243Y-143062816D01*
X112209424Y-143068963D01*
X112363710Y-143120138D01*
X112377086Y-143123005D01*
X112471438Y-143132672D01*
X112477854Y-143133000D01*
X112727885Y-143133000D01*
X112743124Y-143128525D01*
X112744329Y-143127135D01*
X112746000Y-143119452D01*
X112746000Y-143114884D01*
X113254000Y-143114884D01*
X113258475Y-143130123D01*
X113259865Y-143131328D01*
X113267548Y-143132999D01*
X113522095Y-143132999D01*
X113528614Y-143132662D01*
X113624206Y-143122743D01*
X113637600Y-143119851D01*
X113791784Y-143068412D01*
X113804962Y-143062239D01*
X113942807Y-142976937D01*
X113954208Y-142967901D01*
X114068739Y-142853171D01*
X114077751Y-142841760D01*
X114162816Y-142703757D01*
X114168963Y-142690576D01*
X114220138Y-142536290D01*
X114223005Y-142522914D01*
X114232672Y-142428562D01*
X114233000Y-142422146D01*
X114233000Y-142422095D01*
X115767001Y-142422095D01*
X115767338Y-142428614D01*
X115777257Y-142524206D01*
X115780149Y-142537600D01*
X115831588Y-142691784D01*
X115837761Y-142704962D01*
X115923063Y-142842807D01*
X115932099Y-142854208D01*
X116046829Y-142968739D01*
X116058240Y-142977751D01*
X116196243Y-143062816D01*
X116209424Y-143068963D01*
X116363710Y-143120138D01*
X116377086Y-143123005D01*
X116471438Y-143132672D01*
X116477854Y-143133000D01*
X116727885Y-143133000D01*
X116743124Y-143128525D01*
X116744329Y-143127135D01*
X116746000Y-143119452D01*
X116746000Y-143114884D01*
X117254000Y-143114884D01*
X117258475Y-143130123D01*
X117259865Y-143131328D01*
X117267548Y-143132999D01*
X117522095Y-143132999D01*
X117528614Y-143132662D01*
X117624206Y-143122743D01*
X117637600Y-143119851D01*
X117791784Y-143068412D01*
X117804962Y-143062239D01*
X117942807Y-142976937D01*
X117954208Y-142967901D01*
X118068739Y-142853171D01*
X118077751Y-142841760D01*
X118162816Y-142703757D01*
X118168963Y-142690576D01*
X118220138Y-142536290D01*
X118223005Y-142522914D01*
X118232672Y-142428562D01*
X118233000Y-142422146D01*
X118233000Y-142309615D01*
X118228525Y-142294376D01*
X118227135Y-142293171D01*
X118219452Y-142291500D01*
X117272115Y-142291500D01*
X117256876Y-142295975D01*
X117255671Y-142297365D01*
X117254000Y-142305048D01*
X117254000Y-143114884D01*
X116746000Y-143114884D01*
X116746000Y-142309615D01*
X116741525Y-142294376D01*
X116740135Y-142293171D01*
X116732452Y-142291500D01*
X115785116Y-142291500D01*
X115769877Y-142295975D01*
X115768672Y-142297365D01*
X115767001Y-142305048D01*
X115767001Y-142422095D01*
X114233000Y-142422095D01*
X114233000Y-142309615D01*
X114228525Y-142294376D01*
X114227135Y-142293171D01*
X114219452Y-142291500D01*
X113272115Y-142291500D01*
X113256876Y-142295975D01*
X113255671Y-142297365D01*
X113254000Y-142305048D01*
X113254000Y-143114884D01*
X112746000Y-143114884D01*
X112746000Y-142309615D01*
X112741525Y-142294376D01*
X112740135Y-142293171D01*
X112732452Y-142291500D01*
X111785116Y-142291500D01*
X111769877Y-142295975D01*
X111768672Y-142297365D01*
X111767001Y-142305048D01*
X111767001Y-142422095D01*
X110233000Y-142422095D01*
X110233000Y-142347115D01*
X110228525Y-142331876D01*
X110227135Y-142330671D01*
X110219452Y-142329000D01*
X109272115Y-142329000D01*
X109256876Y-142333475D01*
X109255671Y-142334865D01*
X109254000Y-142342548D01*
X109254000Y-143152384D01*
X108746000Y-143152384D01*
X108746000Y-142347115D01*
X108741525Y-142331876D01*
X108740135Y-142330671D01*
X108732452Y-142329000D01*
X107785116Y-142329000D01*
X107769877Y-142333475D01*
X107768672Y-142334865D01*
X107767001Y-142342548D01*
X107767001Y-142459595D01*
X106229492Y-142459595D01*
X106232672Y-142428562D01*
X106233000Y-142422145D01*
X106233000Y-142309615D01*
X106228525Y-142294376D01*
X106227135Y-142293171D01*
X106219452Y-142291500D01*
X105272115Y-142291500D01*
X105256876Y-142295975D01*
X105255671Y-142297365D01*
X105254000Y-142305048D01*
X105254000Y-143114884D01*
X104746000Y-143114884D01*
X104746000Y-142309615D01*
X104741525Y-142294376D01*
X104740135Y-142293171D01*
X104732452Y-142291500D01*
X103785116Y-142291500D01*
X103769877Y-142295975D01*
X103768672Y-142297365D01*
X103767001Y-142305048D01*
X103767001Y-142422095D01*
X102233000Y-142422095D01*
X102233000Y-142309615D01*
X102228525Y-142294376D01*
X102227135Y-142293171D01*
X102219452Y-142291500D01*
X101272115Y-142291500D01*
X101256876Y-142295975D01*
X101255671Y-142297365D01*
X101254000Y-142305048D01*
X101254000Y-143114884D01*
X100746000Y-143114884D01*
X100746000Y-142309615D01*
X100741525Y-142294376D01*
X100740135Y-142293171D01*
X100732452Y-142291500D01*
X99785116Y-142291500D01*
X99769877Y-142295975D01*
X99768672Y-142297365D01*
X99767001Y-142305048D01*
X99767001Y-142422095D01*
X78543397Y-142422095D01*
X78573197Y-142332513D01*
X78597985Y-142136295D01*
X78598380Y-142108000D01*
X78579080Y-141911167D01*
X78565935Y-141867627D01*
X78550086Y-141815135D01*
X78521916Y-141721831D01*
X78429066Y-141547204D01*
X78425170Y-141542427D01*
X78424404Y-141541274D01*
X78403366Y-141473466D01*
X78419795Y-141409308D01*
X78507262Y-141255337D01*
X78512256Y-141244121D01*
X78557142Y-141109190D01*
X78557643Y-141095097D01*
X78551454Y-141092000D01*
X77457000Y-141092000D01*
X77388879Y-141071998D01*
X77342386Y-141018342D01*
X77331000Y-140966000D01*
X77331000Y-140565885D01*
X77839000Y-140565885D01*
X77843475Y-140581124D01*
X77844865Y-140582329D01*
X77852548Y-140584000D01*
X78543183Y-140584000D01*
X78556714Y-140580027D01*
X78557806Y-140572433D01*
X78523231Y-140457919D01*
X78518560Y-140446586D01*
X78431538Y-140282920D01*
X78424124Y-140271760D01*
X78403088Y-140203951D01*
X78419517Y-140139797D01*
X78507262Y-139985337D01*
X78512256Y-139974121D01*
X78557142Y-139839190D01*
X78557643Y-139825097D01*
X78551454Y-139822000D01*
X77857115Y-139822000D01*
X77841876Y-139826475D01*
X77840671Y-139827865D01*
X77839000Y-139835548D01*
X77839000Y-140565885D01*
X77331000Y-140565885D01*
X77331000Y-139440000D01*
X77351002Y-139371879D01*
X77404658Y-139325386D01*
X77457000Y-139314000D01*
X78543183Y-139314000D01*
X78556714Y-139310027D01*
X78557806Y-139302433D01*
X78523231Y-139187919D01*
X78518560Y-139176586D01*
X78431537Y-139012918D01*
X78424435Y-139002228D01*
X78403398Y-138934420D01*
X78419827Y-138870264D01*
X78421966Y-138866500D01*
X78477411Y-138768900D01*
X78507723Y-138715542D01*
X78507725Y-138715537D01*
X78510769Y-138710179D01*
X78573197Y-138522513D01*
X78597985Y-138326295D01*
X78598380Y-138298000D01*
X78593702Y-138250288D01*
X78606962Y-138180540D01*
X78630006Y-138148898D01*
X85924653Y-130854252D01*
X85932939Y-130846712D01*
X85939418Y-130842600D01*
X85986044Y-130792948D01*
X85988798Y-130790107D01*
X86008535Y-130770370D01*
X86011015Y-130767173D01*
X86018720Y-130758151D01*
X86038062Y-130737554D01*
X86048986Y-130725921D01*
X86052805Y-130718975D01*
X86052807Y-130718972D01*
X86058748Y-130708166D01*
X86069599Y-130691647D01*
X86077158Y-130681901D01*
X86082014Y-130675641D01*
X86085159Y-130668372D01*
X86085162Y-130668368D01*
X86099574Y-130635063D01*
X86104791Y-130624413D01*
X86126095Y-130585660D01*
X86128164Y-130577604D01*
X86131133Y-130566038D01*
X86137537Y-130547334D01*
X86142433Y-130536020D01*
X86142433Y-130536019D01*
X86145581Y-130528745D01*
X86146820Y-130520922D01*
X86146823Y-130520912D01*
X86152499Y-130485076D01*
X86154905Y-130473456D01*
X86163928Y-130438311D01*
X86163928Y-130438310D01*
X86165900Y-130430630D01*
X86165900Y-130410376D01*
X86167451Y-130390665D01*
X86169380Y-130378486D01*
X86170620Y-130370657D01*
X86166459Y-130326638D01*
X86165900Y-130314781D01*
X86165900Y-117019167D01*
X86166427Y-117007984D01*
X86168102Y-117000491D01*
X86167826Y-116991693D01*
X86165962Y-116932401D01*
X86165900Y-116928443D01*
X86165900Y-116900544D01*
X86165396Y-116896553D01*
X86164463Y-116884711D01*
X86163860Y-116865500D01*
X86163074Y-116840511D01*
X86160862Y-116832897D01*
X86160861Y-116832892D01*
X86157423Y-116821059D01*
X86153412Y-116801695D01*
X86151867Y-116789464D01*
X86150874Y-116781603D01*
X86147957Y-116774236D01*
X86147956Y-116774231D01*
X86134598Y-116740492D01*
X86130754Y-116729265D01*
X86120630Y-116694422D01*
X86118418Y-116686807D01*
X86108107Y-116669372D01*
X86099412Y-116651624D01*
X86091952Y-116632783D01*
X86065964Y-116597013D01*
X86059448Y-116587093D01*
X86040980Y-116555865D01*
X86040978Y-116555862D01*
X86036942Y-116549038D01*
X86022621Y-116534717D01*
X86009780Y-116519683D01*
X86002531Y-116509706D01*
X85997872Y-116503293D01*
X85963795Y-116475102D01*
X85955016Y-116467112D01*
X84659506Y-115171602D01*
X84625480Y-115109290D01*
X84630545Y-115038475D01*
X84633839Y-115030491D01*
X84651000Y-114992629D01*
X84651000Y-114986878D01*
X85159000Y-114986878D01*
X85162973Y-115000409D01*
X85170871Y-115001544D01*
X85310790Y-114960893D01*
X85325221Y-114954648D01*
X85454678Y-114878089D01*
X85467104Y-114868449D01*
X85573449Y-114762104D01*
X85583089Y-114749678D01*
X85659648Y-114620221D01*
X85665893Y-114605790D01*
X85708269Y-114459935D01*
X85710570Y-114447333D01*
X85712807Y-114418916D01*
X85713000Y-114413986D01*
X85713000Y-113797115D01*
X85708525Y-113781876D01*
X85707135Y-113780671D01*
X85699452Y-113779000D01*
X85177115Y-113779000D01*
X85161876Y-113783475D01*
X85160671Y-113784865D01*
X85159000Y-113792548D01*
X85159000Y-114986878D01*
X84651000Y-114986878D01*
X84651000Y-113252885D01*
X85159000Y-113252885D01*
X85163475Y-113268124D01*
X85164865Y-113269329D01*
X85172548Y-113271000D01*
X85694884Y-113271000D01*
X85710123Y-113266525D01*
X85711328Y-113265135D01*
X85712999Y-113257452D01*
X85712999Y-112636017D01*
X85712805Y-112631080D01*
X85710570Y-112602664D01*
X85708270Y-112590069D01*
X85665893Y-112444210D01*
X85659648Y-112429779D01*
X85583089Y-112300322D01*
X85573449Y-112287896D01*
X85467104Y-112181551D01*
X85454678Y-112171911D01*
X85325221Y-112095352D01*
X85310790Y-112089107D01*
X85176395Y-112050061D01*
X85162294Y-112050101D01*
X85159000Y-112057370D01*
X85159000Y-113252885D01*
X84651000Y-113252885D01*
X84651000Y-112063122D01*
X84647027Y-112049591D01*
X84639129Y-112048456D01*
X84499210Y-112089107D01*
X84484779Y-112095352D01*
X84458639Y-112110811D01*
X84389823Y-112128270D01*
X84322491Y-112105753D01*
X84278022Y-112050409D01*
X84268500Y-112002357D01*
X84268500Y-111334500D01*
X84288502Y-111266379D01*
X84342158Y-111219886D01*
X84394500Y-111208500D01*
X84400400Y-111208500D01*
X84403646Y-111208163D01*
X84403650Y-111208163D01*
X84499308Y-111198238D01*
X84499312Y-111198237D01*
X84506166Y-111197526D01*
X84512702Y-111195345D01*
X84512704Y-111195345D01*
X84666998Y-111143868D01*
X84673946Y-111141550D01*
X84824348Y-111048478D01*
X84949305Y-110923303D01*
X84961707Y-110903183D01*
X85038275Y-110778968D01*
X85038276Y-110778966D01*
X85042115Y-110772738D01*
X85097797Y-110604861D01*
X85108500Y-110500400D01*
X85108500Y-109499600D01*
X85104853Y-109464450D01*
X85098238Y-109400692D01*
X85098237Y-109400688D01*
X85097526Y-109393834D01*
X85095039Y-109386378D01*
X85043868Y-109233002D01*
X85041550Y-109226054D01*
X84948478Y-109075652D01*
X84906848Y-109034094D01*
X84860045Y-108987373D01*
X84825966Y-108925091D01*
X84830969Y-108854270D01*
X84873466Y-108797398D01*
X84939965Y-108772529D01*
X84949063Y-108772200D01*
X85306133Y-108772200D01*
X85317316Y-108772727D01*
X85324809Y-108774402D01*
X85332735Y-108774153D01*
X85332736Y-108774153D01*
X85392886Y-108772262D01*
X85396845Y-108772200D01*
X85424756Y-108772200D01*
X85428691Y-108771703D01*
X85428756Y-108771695D01*
X85440593Y-108770762D01*
X85472851Y-108769748D01*
X85476870Y-108769622D01*
X85484789Y-108769373D01*
X85504243Y-108763721D01*
X85523600Y-108759713D01*
X85535830Y-108758168D01*
X85535831Y-108758168D01*
X85543697Y-108757174D01*
X85551068Y-108754255D01*
X85551070Y-108754255D01*
X85584812Y-108740896D01*
X85596042Y-108737051D01*
X85630883Y-108726929D01*
X85630884Y-108726929D01*
X85638493Y-108724718D01*
X85645312Y-108720685D01*
X85645317Y-108720683D01*
X85655928Y-108714407D01*
X85673676Y-108705712D01*
X85692517Y-108698252D01*
X85728287Y-108672264D01*
X85738207Y-108665748D01*
X85769435Y-108647280D01*
X85769438Y-108647278D01*
X85776262Y-108643242D01*
X85790583Y-108628921D01*
X85805617Y-108616080D01*
X85815594Y-108608831D01*
X85822007Y-108604172D01*
X85827057Y-108598068D01*
X85827062Y-108598063D01*
X85850193Y-108570102D01*
X85858183Y-108561321D01*
X86749101Y-107670404D01*
X86811413Y-107636379D01*
X86838196Y-107633500D01*
X97576640Y-107633500D01*
X97644761Y-107653502D01*
G37*
%TD.AperFunction*%
%TA.AperFunction,Conductor*%
G36*
X134220327Y-131903502D02*
G01*
X134241301Y-131920405D01*
X139555448Y-137234552D01*
X139589474Y-137296864D01*
X139584409Y-137367679D01*
X139548351Y-137419315D01*
X139477327Y-137480190D01*
X139473413Y-137485235D01*
X139473409Y-137485240D01*
X139442515Y-137525068D01*
X139384959Y-137566635D01*
X139314067Y-137570485D01*
X139252347Y-137535398D01*
X139231142Y-137505925D01*
X139219153Y-137482844D01*
X139153538Y-137356531D01*
X139115826Y-137283931D01*
X139115824Y-137283928D01*
X139113617Y-137279679D01*
X139086922Y-137243137D01*
X139004217Y-137129928D01*
X138961406Y-137071327D01*
X138943844Y-137053673D01*
X138782806Y-136891789D01*
X138782801Y-136891785D01*
X138779430Y-136888396D01*
X138571878Y-136735096D01*
X138567648Y-136732870D01*
X138567644Y-136732868D01*
X138347762Y-136617183D01*
X138347760Y-136617182D01*
X138343525Y-136614954D01*
X138099627Y-136530735D01*
X137845797Y-136484377D01*
X137763233Y-136480050D01*
X137602387Y-136480050D01*
X137600008Y-136480231D01*
X137600007Y-136480231D01*
X137415481Y-136494267D01*
X137415476Y-136494268D01*
X137410714Y-136494630D01*
X137406061Y-136495709D01*
X137406058Y-136495709D01*
X137254948Y-136530735D01*
X137159349Y-136552894D01*
X136919689Y-136648508D01*
X136697250Y-136779274D01*
X136693539Y-136782295D01*
X136693535Y-136782298D01*
X136518135Y-136925096D01*
X136497149Y-136942181D01*
X136323993Y-137133481D01*
X136321352Y-137137479D01*
X136321351Y-137137480D01*
X136309635Y-137155214D01*
X136181765Y-137348772D01*
X136179764Y-137353112D01*
X136179762Y-137353116D01*
X136077535Y-137574865D01*
X136073739Y-137583100D01*
X136072415Y-137587701D01*
X136072415Y-137587702D01*
X136011666Y-137798864D01*
X136002400Y-137831071D01*
X136001789Y-137835806D01*
X136001788Y-137835812D01*
X135982550Y-137984954D01*
X135969390Y-138086980D01*
X135970849Y-138148898D01*
X135975030Y-138326295D01*
X135975469Y-138344937D01*
X135984346Y-138395026D01*
X136017530Y-138582265D01*
X136020497Y-138599007D01*
X136022035Y-138603537D01*
X136022035Y-138603538D01*
X136056248Y-138704326D01*
X136103438Y-138843342D01*
X136110019Y-138856010D01*
X136117970Y-138871317D01*
X136131622Y-138940988D01*
X136105440Y-139006981D01*
X136047735Y-139048342D01*
X136006156Y-139055400D01*
X129115267Y-139055400D01*
X129104084Y-139054873D01*
X129096591Y-139053198D01*
X129088665Y-139053447D01*
X129088664Y-139053447D01*
X129028514Y-139055338D01*
X129024555Y-139055400D01*
X128996644Y-139055400D01*
X128992710Y-139055897D01*
X128992709Y-139055897D01*
X128992644Y-139055905D01*
X128980807Y-139056838D01*
X128948549Y-139057852D01*
X128944530Y-139057978D01*
X128936611Y-139058227D01*
X128917157Y-139063879D01*
X128897800Y-139067887D01*
X128885570Y-139069432D01*
X128885569Y-139069432D01*
X128877703Y-139070426D01*
X128870332Y-139073345D01*
X128870330Y-139073345D01*
X128836588Y-139086704D01*
X128825358Y-139090549D01*
X128790517Y-139100671D01*
X128790516Y-139100671D01*
X128782907Y-139102882D01*
X128776088Y-139106915D01*
X128776083Y-139106917D01*
X128765472Y-139113193D01*
X128747724Y-139121888D01*
X128728883Y-139129348D01*
X128722467Y-139134010D01*
X128722466Y-139134010D01*
X128693113Y-139155336D01*
X128683193Y-139161852D01*
X128651965Y-139180320D01*
X128651962Y-139180322D01*
X128645138Y-139184358D01*
X128630817Y-139198679D01*
X128615784Y-139211519D01*
X128599393Y-139223428D01*
X128594342Y-139229534D01*
X128571202Y-139257505D01*
X128563212Y-139266284D01*
X127560500Y-140268995D01*
X127498188Y-140303021D01*
X127471405Y-140305900D01*
X118359500Y-140305900D01*
X118291379Y-140285898D01*
X118244886Y-140232242D01*
X118233500Y-140179900D01*
X118233500Y-139574600D01*
X118222526Y-139468834D01*
X118216111Y-139449604D01*
X118168868Y-139308002D01*
X118166550Y-139301054D01*
X118073478Y-139150652D01*
X118060551Y-139137747D01*
X117975854Y-139053198D01*
X117948303Y-139025695D01*
X117920327Y-139008450D01*
X117803968Y-138936725D01*
X117803966Y-138936724D01*
X117797738Y-138932885D01*
X117686834Y-138896100D01*
X117636389Y-138879368D01*
X117636387Y-138879368D01*
X117629861Y-138877203D01*
X117623025Y-138876503D01*
X117623022Y-138876502D01*
X117574746Y-138871556D01*
X117525400Y-138866500D01*
X116474600Y-138866500D01*
X116471354Y-138866837D01*
X116471350Y-138866837D01*
X116375692Y-138876762D01*
X116375688Y-138876763D01*
X116368834Y-138877474D01*
X116362298Y-138879655D01*
X116362296Y-138879655D01*
X116250756Y-138916868D01*
X116201054Y-138933450D01*
X116050652Y-139026522D01*
X115925695Y-139151697D01*
X115855063Y-139266284D01*
X115853317Y-139269116D01*
X115800545Y-139316609D01*
X115746057Y-139329000D01*
X114254046Y-139329000D01*
X114185925Y-139308998D01*
X114146902Y-139269303D01*
X114077332Y-139156880D01*
X114073478Y-139150652D01*
X114060551Y-139137747D01*
X113975854Y-139053198D01*
X113948303Y-139025695D01*
X113920327Y-139008450D01*
X113803968Y-138936725D01*
X113803966Y-138936724D01*
X113797738Y-138932885D01*
X113686834Y-138896100D01*
X113636389Y-138879368D01*
X113636387Y-138879368D01*
X113629861Y-138877203D01*
X113623025Y-138876503D01*
X113623022Y-138876502D01*
X113574746Y-138871556D01*
X113525400Y-138866500D01*
X112869700Y-138866500D01*
X112801579Y-138846498D01*
X112755086Y-138792842D01*
X112743700Y-138740500D01*
X112743700Y-137601468D01*
X112744227Y-137590285D01*
X112745902Y-137582792D01*
X112744413Y-137535398D01*
X112743762Y-137514702D01*
X112743700Y-137510744D01*
X112743700Y-137482844D01*
X112743196Y-137478853D01*
X112742263Y-137467011D01*
X112741123Y-137430736D01*
X112740874Y-137422811D01*
X112738662Y-137415197D01*
X112738661Y-137415192D01*
X112735223Y-137403359D01*
X112731212Y-137383995D01*
X112729667Y-137371764D01*
X112728674Y-137363903D01*
X112725757Y-137356536D01*
X112725756Y-137356531D01*
X112712398Y-137322792D01*
X112708554Y-137311565D01*
X112706432Y-137304261D01*
X112696218Y-137269107D01*
X112685907Y-137251672D01*
X112677212Y-137233924D01*
X112669752Y-137215083D01*
X112643764Y-137179313D01*
X112637248Y-137169393D01*
X112618778Y-137138163D01*
X112614742Y-137131338D01*
X112609136Y-137125731D01*
X112600420Y-137117015D01*
X112587579Y-137101981D01*
X112580331Y-137092005D01*
X112580330Y-137092004D01*
X112575672Y-137085593D01*
X112541601Y-137057407D01*
X112532822Y-137049418D01*
X112445405Y-136962001D01*
X112411379Y-136899689D01*
X112408500Y-136872906D01*
X112408500Y-136534500D01*
X112428502Y-136466379D01*
X112482158Y-136419886D01*
X112534500Y-136408500D01*
X113863244Y-136408500D01*
X113867330Y-136407962D01*
X113867331Y-136407962D01*
X113924572Y-136400426D01*
X113977324Y-136393481D01*
X113984951Y-136390322D01*
X113984954Y-136390321D01*
X114048296Y-136364084D01*
X114119268Y-136334686D01*
X114241157Y-136241157D01*
X114334686Y-136119267D01*
X114393481Y-135977324D01*
X114408500Y-135863244D01*
X114408500Y-135636756D01*
X114393481Y-135522676D01*
X114395026Y-135522473D01*
X114395026Y-135477527D01*
X114393481Y-135477324D01*
X114407962Y-135367331D01*
X114407962Y-135367330D01*
X114408500Y-135363244D01*
X114408500Y-135136756D01*
X114406615Y-135122434D01*
X114393481Y-135022676D01*
X114395026Y-135022473D01*
X114395026Y-134977527D01*
X114393481Y-134977324D01*
X114407962Y-134867331D01*
X114407962Y-134867330D01*
X114408500Y-134863244D01*
X114408500Y-134636756D01*
X114393481Y-134522676D01*
X114395026Y-134522473D01*
X114395026Y-134477527D01*
X114393481Y-134477324D01*
X114407962Y-134367331D01*
X114407962Y-134367330D01*
X114408500Y-134363244D01*
X114408500Y-134136756D01*
X114403969Y-134102336D01*
X114393481Y-134022676D01*
X114395026Y-134022473D01*
X114395026Y-133977527D01*
X114393481Y-133977324D01*
X114407962Y-133867331D01*
X114407962Y-133867330D01*
X114408500Y-133863244D01*
X114408500Y-133636756D01*
X114407812Y-133631526D01*
X114393481Y-133522676D01*
X114395026Y-133522473D01*
X114395026Y-133477527D01*
X114393481Y-133477324D01*
X114407962Y-133367331D01*
X114407962Y-133367330D01*
X114408500Y-133363244D01*
X114408500Y-133136756D01*
X114400313Y-133074566D01*
X114393481Y-133022676D01*
X114395026Y-133022473D01*
X114395026Y-132977527D01*
X114393481Y-132977324D01*
X114407962Y-132867331D01*
X114407962Y-132867330D01*
X114408500Y-132863244D01*
X114408500Y-132636756D01*
X114407281Y-132627495D01*
X114393912Y-132525946D01*
X114404852Y-132455797D01*
X114451980Y-132402699D01*
X114518834Y-132383500D01*
X115194363Y-132383500D01*
X115262484Y-132403502D01*
X115308977Y-132457158D01*
X115319672Y-132496327D01*
X115329058Y-132585628D01*
X115388073Y-132767256D01*
X115391376Y-132772978D01*
X115391377Y-132772979D01*
X115406755Y-132799614D01*
X115483560Y-132932644D01*
X115487978Y-132937551D01*
X115487979Y-132937552D01*
X115564442Y-133022473D01*
X115611347Y-133074566D01*
X115765848Y-133186818D01*
X115771876Y-133189502D01*
X115771878Y-133189503D01*
X115922438Y-133256536D01*
X115940312Y-133264494D01*
X116033712Y-133284347D01*
X116120656Y-133302828D01*
X116120661Y-133302828D01*
X116127113Y-133304200D01*
X116318087Y-133304200D01*
X116324539Y-133302828D01*
X116324544Y-133302828D01*
X116411488Y-133284347D01*
X116504888Y-133264494D01*
X116522762Y-133256536D01*
X116673322Y-133189503D01*
X116673324Y-133189502D01*
X116679352Y-133186818D01*
X116833853Y-133074566D01*
X116880758Y-133022473D01*
X116957221Y-132937552D01*
X116957222Y-132937551D01*
X116961640Y-132932644D01*
X117038445Y-132799614D01*
X117053823Y-132772979D01*
X117053824Y-132772978D01*
X117057127Y-132767256D01*
X117116142Y-132585628D01*
X117122759Y-132522676D01*
X117135414Y-132402265D01*
X117136104Y-132395700D01*
X117121875Y-132260316D01*
X117116832Y-132212335D01*
X117116832Y-132212333D01*
X117116142Y-132205772D01*
X117065020Y-132048436D01*
X117062992Y-131977469D01*
X117099655Y-131916671D01*
X117163367Y-131885345D01*
X117184853Y-131883500D01*
X134152206Y-131883500D01*
X134220327Y-131903502D01*
G37*
%TD.AperFunction*%
%TA.AperFunction,Conductor*%
G36*
X77873918Y-76728502D02*
G01*
X77920411Y-76782158D01*
X77930515Y-76852432D01*
X77901021Y-76917012D01*
X77881362Y-76935326D01*
X77780739Y-77010739D01*
X77693385Y-77127295D01*
X77642255Y-77263684D01*
X77635500Y-77325866D01*
X77635500Y-79422134D01*
X77642255Y-79484316D01*
X77693385Y-79620705D01*
X77780739Y-79737261D01*
X77897295Y-79824615D01*
X78033684Y-79875745D01*
X78095866Y-79882500D01*
X79092134Y-79882500D01*
X79154316Y-79875745D01*
X79290705Y-79824615D01*
X79407261Y-79737261D01*
X79494615Y-79620705D01*
X79545745Y-79484316D01*
X79552500Y-79422134D01*
X79552500Y-77325866D01*
X79545745Y-77263684D01*
X79494615Y-77127295D01*
X79407261Y-77010739D01*
X79306638Y-76935326D01*
X79264123Y-76878467D01*
X79259097Y-76807648D01*
X79293157Y-76745355D01*
X79355488Y-76711365D01*
X79382203Y-76708500D01*
X91305797Y-76708500D01*
X91373918Y-76728502D01*
X91420411Y-76782158D01*
X91430515Y-76852432D01*
X91401021Y-76917012D01*
X91381362Y-76935326D01*
X91280739Y-77010739D01*
X91193385Y-77127295D01*
X91142255Y-77263684D01*
X91135500Y-77325866D01*
X91135500Y-79422134D01*
X91142255Y-79484316D01*
X91193385Y-79620705D01*
X91280739Y-79737261D01*
X91397295Y-79824615D01*
X91533684Y-79875745D01*
X91595866Y-79882500D01*
X92592134Y-79882500D01*
X92654316Y-79875745D01*
X92790705Y-79824615D01*
X92907261Y-79737261D01*
X92994615Y-79620705D01*
X93045745Y-79484316D01*
X93052500Y-79422134D01*
X93052500Y-77325866D01*
X93045745Y-77263684D01*
X92994615Y-77127295D01*
X92907261Y-77010739D01*
X92806638Y-76935326D01*
X92764123Y-76878467D01*
X92759097Y-76807648D01*
X92793157Y-76745355D01*
X92855488Y-76711365D01*
X92882203Y-76708500D01*
X144145500Y-76708500D01*
X144213621Y-76728502D01*
X144260114Y-76782158D01*
X144271500Y-76834500D01*
X144271500Y-93483949D01*
X144251498Y-93552070D01*
X144197842Y-93598563D01*
X144127568Y-93608667D01*
X144062988Y-93579173D01*
X144052754Y-93569237D01*
X144052361Y-93568810D01*
X144049687Y-93565472D01*
X143883434Y-93407704D01*
X143844258Y-93370527D01*
X143844255Y-93370525D01*
X143841149Y-93367577D01*
X143607683Y-93199814D01*
X143585843Y-93188250D01*
X143547759Y-93168086D01*
X143353608Y-93065288D01*
X143218618Y-93015889D01*
X143087658Y-92967964D01*
X143087656Y-92967963D01*
X143083627Y-92966489D01*
X142802736Y-92905245D01*
X142771685Y-92902801D01*
X142579718Y-92887693D01*
X142579709Y-92887693D01*
X142577261Y-92887500D01*
X142421729Y-92887500D01*
X142419593Y-92887646D01*
X142419582Y-92887646D01*
X142211452Y-92901835D01*
X142211446Y-92901836D01*
X142207175Y-92902127D01*
X142202980Y-92902996D01*
X142202978Y-92902996D01*
X142066417Y-92931276D01*
X141925658Y-92960426D01*
X141654657Y-93056393D01*
X141399188Y-93188250D01*
X141395687Y-93190711D01*
X141395683Y-93190713D01*
X141309404Y-93251351D01*
X141163977Y-93353559D01*
X141025604Y-93482144D01*
X141000165Y-93505783D01*
X140936648Y-93537502D01*
X140866065Y-93529846D01*
X140825377Y-93502656D01*
X140766488Y-93443870D01*
X140766483Y-93443866D01*
X140761303Y-93438695D01*
X140726364Y-93417158D01*
X140631384Y-93358611D01*
X140583890Y-93305838D01*
X140571500Y-93251351D01*
X140571500Y-93076768D01*
X140572027Y-93065585D01*
X140573702Y-93058092D01*
X140572646Y-93024476D01*
X140571562Y-92990002D01*
X140571500Y-92986044D01*
X140571500Y-92958144D01*
X140570996Y-92954153D01*
X140570063Y-92942311D01*
X140568923Y-92906036D01*
X140568674Y-92898111D01*
X140566462Y-92890497D01*
X140566461Y-92890492D01*
X140563023Y-92878659D01*
X140559012Y-92859295D01*
X140557467Y-92847064D01*
X140556474Y-92839203D01*
X140553557Y-92831836D01*
X140553556Y-92831831D01*
X140540198Y-92798092D01*
X140536354Y-92786865D01*
X140526230Y-92752022D01*
X140524018Y-92744407D01*
X140513707Y-92726972D01*
X140505012Y-92709224D01*
X140497552Y-92690383D01*
X140475729Y-92660345D01*
X140471564Y-92654613D01*
X140465049Y-92644695D01*
X140454491Y-92626843D01*
X140437634Y-92575873D01*
X140435211Y-92552814D01*
X140418642Y-92395172D01*
X140359627Y-92213544D01*
X140264140Y-92048156D01*
X140258921Y-92042359D01*
X140140775Y-91911145D01*
X140140774Y-91911144D01*
X140136353Y-91906234D01*
X139981852Y-91793982D01*
X139975824Y-91791298D01*
X139975822Y-91791297D01*
X139813419Y-91718991D01*
X139813418Y-91718991D01*
X139807388Y-91716306D01*
X139684283Y-91690139D01*
X139627044Y-91677972D01*
X139627039Y-91677972D01*
X139620587Y-91676600D01*
X139429613Y-91676600D01*
X139423161Y-91677972D01*
X139423156Y-91677972D01*
X139365917Y-91690139D01*
X139242812Y-91716306D01*
X139236782Y-91718991D01*
X139236781Y-91718991D01*
X139074378Y-91791297D01*
X139074376Y-91791298D01*
X139068348Y-91793982D01*
X138913847Y-91906234D01*
X138909426Y-91911144D01*
X138909425Y-91911145D01*
X138791280Y-92042359D01*
X138786060Y-92048156D01*
X138690573Y-92213544D01*
X138631558Y-92395172D01*
X138630868Y-92401733D01*
X138630868Y-92401735D01*
X138612566Y-92575873D01*
X138611596Y-92585100D01*
X138612286Y-92591665D01*
X138628340Y-92744407D01*
X138631558Y-92775028D01*
X138690573Y-92956656D01*
X138786060Y-93122044D01*
X138870780Y-93216135D01*
X138901497Y-93280143D01*
X138892732Y-93350596D01*
X138847269Y-93405127D01*
X138779541Y-93426422D01*
X138711027Y-93407704D01*
X138659947Y-93376218D01*
X138616970Y-93349726D01*
X138616967Y-93349725D01*
X138610738Y-93345885D01*
X138522916Y-93316756D01*
X138449389Y-93292368D01*
X138449387Y-93292368D01*
X138442861Y-93290203D01*
X138436025Y-93289503D01*
X138436022Y-93289502D01*
X138391728Y-93284964D01*
X138338400Y-93279500D01*
X137537600Y-93279500D01*
X137534354Y-93279837D01*
X137534350Y-93279837D01*
X137438692Y-93289762D01*
X137438688Y-93289763D01*
X137431834Y-93290474D01*
X137425298Y-93292655D01*
X137425296Y-93292655D01*
X137335229Y-93322704D01*
X137264054Y-93346450D01*
X137113652Y-93439522D01*
X136988695Y-93564697D01*
X136984855Y-93570927D01*
X136984854Y-93570928D01*
X136906092Y-93698704D01*
X136895885Y-93715262D01*
X136881551Y-93758478D01*
X136878337Y-93768168D01*
X136837906Y-93826527D01*
X136772342Y-93853764D01*
X136758744Y-93854500D01*
X135895513Y-93854500D01*
X135827392Y-93834498D01*
X135807478Y-93816650D01*
X135806478Y-93817652D01*
X135703909Y-93715262D01*
X135681303Y-93692695D01*
X135675072Y-93688854D01*
X135536968Y-93603725D01*
X135536966Y-93603724D01*
X135530738Y-93599885D01*
X135430151Y-93566522D01*
X135369389Y-93546368D01*
X135369387Y-93546368D01*
X135362861Y-93544203D01*
X135356025Y-93543503D01*
X135356022Y-93543502D01*
X135312969Y-93539091D01*
X135258400Y-93533500D01*
X134507600Y-93533500D01*
X134504354Y-93533837D01*
X134504350Y-93533837D01*
X134408692Y-93543762D01*
X134408688Y-93543763D01*
X134401834Y-93544474D01*
X134395298Y-93546655D01*
X134395296Y-93546655D01*
X134327610Y-93569237D01*
X134234054Y-93600450D01*
X134083652Y-93693522D01*
X133958695Y-93818697D01*
X133955898Y-93823235D01*
X133898647Y-93863824D01*
X133827724Y-93867054D01*
X133766313Y-93831428D01*
X133758938Y-93822932D01*
X133750902Y-93812793D01*
X133636171Y-93698261D01*
X133624760Y-93689249D01*
X133486757Y-93604184D01*
X133473576Y-93598037D01*
X133319290Y-93546862D01*
X133305914Y-93543995D01*
X133211562Y-93534328D01*
X133205145Y-93534000D01*
X133105115Y-93534000D01*
X133089876Y-93538475D01*
X133088671Y-93539865D01*
X133087000Y-93547548D01*
X133087000Y-95931884D01*
X133091475Y-95947123D01*
X133092865Y-95948328D01*
X133100548Y-95949999D01*
X133205095Y-95949999D01*
X133211614Y-95949662D01*
X133307206Y-95939743D01*
X133320600Y-95936851D01*
X133474784Y-95885412D01*
X133487962Y-95879239D01*
X133625807Y-95793937D01*
X133637208Y-95784901D01*
X133751738Y-95670172D01*
X133758794Y-95661238D01*
X133816712Y-95620177D01*
X133887635Y-95616947D01*
X133949046Y-95652574D01*
X133955846Y-95660407D01*
X133959522Y-95666348D01*
X134084697Y-95791305D01*
X134090927Y-95795145D01*
X134090928Y-95795146D01*
X134228288Y-95879816D01*
X134235262Y-95884115D01*
X134309387Y-95908701D01*
X134396611Y-95937632D01*
X134396613Y-95937632D01*
X134403139Y-95939797D01*
X134409975Y-95940497D01*
X134409978Y-95940498D01*
X134453031Y-95944909D01*
X134507600Y-95950500D01*
X135258400Y-95950500D01*
X135261646Y-95950163D01*
X135261650Y-95950163D01*
X135357308Y-95940238D01*
X135357312Y-95940237D01*
X135364166Y-95939526D01*
X135370702Y-95937345D01*
X135370704Y-95937345D01*
X135502806Y-95893272D01*
X135531946Y-95883550D01*
X135682348Y-95790478D01*
X135807305Y-95665303D01*
X135831362Y-95626275D01*
X135896275Y-95520968D01*
X135896276Y-95520966D01*
X135900115Y-95514738D01*
X135929302Y-95426740D01*
X135953632Y-95353389D01*
X135953632Y-95353387D01*
X135955797Y-95346861D01*
X135957620Y-95329075D01*
X135966172Y-95245602D01*
X135966172Y-95245601D01*
X135966500Y-95242400D01*
X135966500Y-95240790D01*
X135989860Y-95174054D01*
X136045820Y-95130363D01*
X136092240Y-95121500D01*
X136758803Y-95121500D01*
X136826924Y-95141502D01*
X136873417Y-95195158D01*
X136878326Y-95207623D01*
X136889287Y-95240475D01*
X136896450Y-95261946D01*
X136989522Y-95412348D01*
X137114697Y-95537305D01*
X137120927Y-95541145D01*
X137120928Y-95541146D01*
X137258090Y-95625694D01*
X137265262Y-95630115D01*
X137332974Y-95652574D01*
X137426611Y-95683632D01*
X137426613Y-95683632D01*
X137433139Y-95685797D01*
X137439975Y-95686497D01*
X137439978Y-95686498D01*
X137483031Y-95690909D01*
X137537600Y-95696500D01*
X138338400Y-95696500D01*
X138341646Y-95696163D01*
X138341650Y-95696163D01*
X138437308Y-95686238D01*
X138437312Y-95686237D01*
X138444166Y-95685526D01*
X138450702Y-95683345D01*
X138450704Y-95683345D01*
X138582806Y-95639272D01*
X138611946Y-95629550D01*
X138762348Y-95536478D01*
X138848784Y-95449891D01*
X138911066Y-95415812D01*
X138981886Y-95420815D01*
X139026975Y-95449736D01*
X139086126Y-95508784D01*
X139114697Y-95537305D01*
X139120927Y-95541145D01*
X139120928Y-95541146D01*
X139258090Y-95625694D01*
X139265262Y-95630115D01*
X139332974Y-95652574D01*
X139426611Y-95683632D01*
X139426613Y-95683632D01*
X139433139Y-95685797D01*
X139439975Y-95686497D01*
X139439978Y-95686498D01*
X139483031Y-95690909D01*
X139537600Y-95696500D01*
X140338400Y-95696500D01*
X140341646Y-95696163D01*
X140341650Y-95696163D01*
X140401152Y-95689989D01*
X140470974Y-95702854D01*
X140522756Y-95751425D01*
X140530053Y-95765881D01*
X140542536Y-95795146D01*
X140610923Y-95955476D01*
X140646035Y-96014144D01*
X140715891Y-96130864D01*
X140758561Y-96202161D01*
X140938313Y-96426528D01*
X141146851Y-96624423D01*
X141380317Y-96792186D01*
X141384112Y-96794195D01*
X141384113Y-96794196D01*
X141405869Y-96805715D01*
X141634392Y-96926712D01*
X141904373Y-97025511D01*
X142185264Y-97086755D01*
X142213841Y-97089004D01*
X142408282Y-97104307D01*
X142408291Y-97104307D01*
X142410739Y-97104500D01*
X142566271Y-97104500D01*
X142568407Y-97104354D01*
X142568418Y-97104354D01*
X142776548Y-97090165D01*
X142776554Y-97090164D01*
X142780825Y-97089873D01*
X142785020Y-97089004D01*
X142785022Y-97089004D01*
X142921583Y-97060724D01*
X143062342Y-97031574D01*
X143333343Y-96935607D01*
X143588812Y-96803750D01*
X143592313Y-96801289D01*
X143592317Y-96801287D01*
X143706417Y-96721096D01*
X143824023Y-96638441D01*
X144034622Y-96442740D01*
X144047996Y-96426400D01*
X144106620Y-96386355D01*
X144177589Y-96384361D01*
X144238370Y-96421052D01*
X144269665Y-96484779D01*
X144271500Y-96506206D01*
X144271500Y-125585030D01*
X144251498Y-125653151D01*
X144197842Y-125699644D01*
X144127568Y-125709748D01*
X144086541Y-125696384D01*
X143958381Y-125628527D01*
X143861608Y-125577288D01*
X143726617Y-125527888D01*
X143595658Y-125479964D01*
X143595656Y-125479963D01*
X143591627Y-125478489D01*
X143310736Y-125417245D01*
X143279685Y-125414801D01*
X143087718Y-125399693D01*
X143087709Y-125399693D01*
X143085261Y-125399500D01*
X142929729Y-125399500D01*
X142927593Y-125399646D01*
X142927582Y-125399646D01*
X142719452Y-125413835D01*
X142719446Y-125413836D01*
X142715175Y-125414127D01*
X142710980Y-125414996D01*
X142710978Y-125414996D01*
X142608549Y-125436208D01*
X142433658Y-125472426D01*
X142162657Y-125568393D01*
X141907188Y-125700250D01*
X141903687Y-125702711D01*
X141903683Y-125702713D01*
X141890734Y-125711814D01*
X141671977Y-125865559D01*
X141668836Y-125868478D01*
X141473390Y-126050098D01*
X141461378Y-126061260D01*
X141279287Y-126283732D01*
X141129073Y-126528858D01*
X141127347Y-126532791D01*
X141127346Y-126532792D01*
X141078158Y-126644845D01*
X141013517Y-126792102D01*
X141012342Y-126796229D01*
X141012341Y-126796230D01*
X140999724Y-126840522D01*
X140934756Y-127068594D01*
X140894249Y-127353216D01*
X140894227Y-127357505D01*
X140894226Y-127357512D01*
X140892784Y-127632799D01*
X140892743Y-127640703D01*
X140893302Y-127644947D01*
X140893302Y-127644951D01*
X140904070Y-127726741D01*
X140930268Y-127925734D01*
X140931401Y-127929874D01*
X140931401Y-127929876D01*
X140947550Y-127988905D01*
X141006129Y-128203036D01*
X141007813Y-128206984D01*
X141106778Y-128439002D01*
X141118923Y-128467476D01*
X141121130Y-128471163D01*
X141261415Y-128705562D01*
X141266561Y-128714161D01*
X141446313Y-128938528D01*
X141465588Y-128956819D01*
X141651652Y-129133387D01*
X141654851Y-129136423D01*
X141888317Y-129304186D01*
X141892112Y-129306195D01*
X141892113Y-129306196D01*
X141933346Y-129328028D01*
X142142392Y-129438712D01*
X142166699Y-129447607D01*
X142328591Y-129506851D01*
X142412373Y-129537511D01*
X142693264Y-129598755D01*
X142703671Y-129599574D01*
X142916282Y-129616307D01*
X142916291Y-129616307D01*
X142918739Y-129616500D01*
X143074271Y-129616500D01*
X143076407Y-129616354D01*
X143076418Y-129616354D01*
X143284548Y-129602165D01*
X143284554Y-129602164D01*
X143288825Y-129601873D01*
X143293020Y-129601004D01*
X143293022Y-129601004D01*
X143448752Y-129568754D01*
X143570342Y-129543574D01*
X143841343Y-129447607D01*
X144087710Y-129320448D01*
X144157418Y-129306979D01*
X144223341Y-129333334D01*
X144264551Y-129391147D01*
X144271500Y-129432414D01*
X144271500Y-136354106D01*
X144251498Y-136422227D01*
X144197842Y-136468720D01*
X144127568Y-136478824D01*
X144062988Y-136449330D01*
X144056405Y-136443201D01*
X140139151Y-132525946D01*
X136058452Y-128445247D01*
X136050912Y-128436961D01*
X136046800Y-128430482D01*
X135997148Y-128383856D01*
X135994307Y-128381102D01*
X135974570Y-128361365D01*
X135971373Y-128358885D01*
X135962351Y-128351180D01*
X135935900Y-128326341D01*
X135930121Y-128320914D01*
X135923175Y-128317095D01*
X135923172Y-128317093D01*
X135912366Y-128311152D01*
X135895847Y-128300301D01*
X135895383Y-128299941D01*
X135879841Y-128287886D01*
X135872572Y-128284741D01*
X135872568Y-128284738D01*
X135839263Y-128270326D01*
X135828613Y-128265109D01*
X135789860Y-128243805D01*
X135770237Y-128238767D01*
X135751534Y-128232363D01*
X135740220Y-128227467D01*
X135740219Y-128227467D01*
X135732945Y-128224319D01*
X135725122Y-128223080D01*
X135725112Y-128223077D01*
X135689276Y-128217401D01*
X135677656Y-128214995D01*
X135642511Y-128205972D01*
X135642510Y-128205972D01*
X135634830Y-128204000D01*
X135614576Y-128204000D01*
X135594865Y-128202449D01*
X135582686Y-128200520D01*
X135574857Y-128199280D01*
X135566965Y-128200026D01*
X135530839Y-128203441D01*
X135518981Y-128204000D01*
X119566694Y-128204000D01*
X119498573Y-128183998D01*
X119452080Y-128130342D01*
X119441976Y-128060068D01*
X119471470Y-127995488D01*
X119477599Y-127988905D01*
X125418016Y-122048488D01*
X125480328Y-122014462D01*
X125551143Y-122019527D01*
X125607979Y-122062074D01*
X125626943Y-122098646D01*
X125663273Y-122210456D01*
X125666576Y-122216178D01*
X125666577Y-122216179D01*
X125700486Y-122274910D01*
X125758760Y-122375844D01*
X125763178Y-122380751D01*
X125763179Y-122380752D01*
X125882125Y-122512855D01*
X125886547Y-122517766D01*
X126041048Y-122630018D01*
X126047076Y-122632702D01*
X126047078Y-122632703D01*
X126160003Y-122682980D01*
X126215512Y-122707694D01*
X126308912Y-122727547D01*
X126395856Y-122746028D01*
X126395861Y-122746028D01*
X126402313Y-122747400D01*
X126585500Y-122747400D01*
X126653621Y-122767402D01*
X126700114Y-122821058D01*
X126711500Y-122873400D01*
X126711500Y-123373134D01*
X126718255Y-123435316D01*
X126769385Y-123571705D01*
X126856739Y-123688261D01*
X126973295Y-123775615D01*
X127109684Y-123826745D01*
X127171866Y-123833500D01*
X128233200Y-123833500D01*
X128301321Y-123853502D01*
X128347814Y-123907158D01*
X128359200Y-123959500D01*
X128359200Y-124665500D01*
X128339198Y-124733621D01*
X128285542Y-124780114D01*
X128233200Y-124791500D01*
X127599600Y-124791500D01*
X127596354Y-124791837D01*
X127596350Y-124791837D01*
X127500692Y-124801762D01*
X127500688Y-124801763D01*
X127493834Y-124802474D01*
X127487298Y-124804655D01*
X127487296Y-124804655D01*
X127366758Y-124844870D01*
X127326054Y-124858450D01*
X127175652Y-124951522D01*
X127050695Y-125076697D01*
X127046855Y-125082927D01*
X127046854Y-125082928D01*
X126963332Y-125218426D01*
X126957885Y-125227262D01*
X126949174Y-125253525D01*
X126909784Y-125372284D01*
X126902203Y-125395139D01*
X126901503Y-125401975D01*
X126901502Y-125401978D01*
X126900168Y-125414996D01*
X126891500Y-125499600D01*
X126891500Y-126500400D01*
X126891837Y-126503646D01*
X126891837Y-126503650D01*
X126898972Y-126572411D01*
X126902474Y-126606166D01*
X126904655Y-126612702D01*
X126904655Y-126612704D01*
X126927298Y-126680572D01*
X126958450Y-126773946D01*
X127051522Y-126924348D01*
X127176697Y-127049305D01*
X127182927Y-127053145D01*
X127182928Y-127053146D01*
X127286598Y-127117049D01*
X127327262Y-127142115D01*
X127366794Y-127155227D01*
X127488611Y-127195632D01*
X127488613Y-127195632D01*
X127495139Y-127197797D01*
X127501975Y-127198497D01*
X127501978Y-127198498D01*
X127545031Y-127202909D01*
X127599600Y-127208500D01*
X128400400Y-127208500D01*
X128403646Y-127208163D01*
X128403650Y-127208163D01*
X128499308Y-127198238D01*
X128499312Y-127198237D01*
X128506166Y-127197526D01*
X128512703Y-127195345D01*
X128512708Y-127195344D01*
X128542694Y-127185340D01*
X128613643Y-127182756D01*
X128671664Y-127215769D01*
X128879748Y-127423853D01*
X128887288Y-127432139D01*
X128891400Y-127438618D01*
X128897177Y-127444043D01*
X128941051Y-127485243D01*
X128943893Y-127487998D01*
X128963630Y-127507735D01*
X128966827Y-127510215D01*
X128975847Y-127517918D01*
X129008079Y-127548186D01*
X129015025Y-127552005D01*
X129015028Y-127552007D01*
X129025834Y-127557948D01*
X129042353Y-127568799D01*
X129058359Y-127581214D01*
X129065628Y-127584359D01*
X129065632Y-127584362D01*
X129098937Y-127598774D01*
X129109587Y-127603991D01*
X129148340Y-127625295D01*
X129156015Y-127627266D01*
X129156016Y-127627266D01*
X129167962Y-127630333D01*
X129186667Y-127636737D01*
X129205255Y-127644781D01*
X129213078Y-127646020D01*
X129213088Y-127646023D01*
X129248924Y-127651699D01*
X129260544Y-127654105D01*
X129292359Y-127662273D01*
X129303370Y-127665100D01*
X129323624Y-127665100D01*
X129343334Y-127666651D01*
X129363343Y-127669820D01*
X129371235Y-127669074D01*
X129389980Y-127667302D01*
X129407362Y-127665659D01*
X129419219Y-127665100D01*
X130542933Y-127665100D01*
X130554116Y-127665627D01*
X130561609Y-127667302D01*
X130569535Y-127667053D01*
X130569536Y-127667053D01*
X130629686Y-127665162D01*
X130633645Y-127665100D01*
X130661556Y-127665100D01*
X130665491Y-127664603D01*
X130665556Y-127664595D01*
X130677393Y-127663662D01*
X130709651Y-127662648D01*
X130713670Y-127662522D01*
X130721589Y-127662273D01*
X130741043Y-127656621D01*
X130760400Y-127652613D01*
X130772630Y-127651068D01*
X130772631Y-127651068D01*
X130780497Y-127650074D01*
X130787868Y-127647155D01*
X130787870Y-127647155D01*
X130821612Y-127633796D01*
X130832842Y-127629951D01*
X130867683Y-127619829D01*
X130867684Y-127619829D01*
X130875293Y-127617618D01*
X130882112Y-127613585D01*
X130882117Y-127613583D01*
X130892728Y-127607307D01*
X130910476Y-127598612D01*
X130929317Y-127591152D01*
X130940567Y-127582979D01*
X130965087Y-127565164D01*
X130975007Y-127558648D01*
X131006235Y-127540180D01*
X131006238Y-127540178D01*
X131013062Y-127536142D01*
X131027383Y-127521821D01*
X131042417Y-127508980D01*
X131052394Y-127501731D01*
X131058807Y-127497072D01*
X131086998Y-127462995D01*
X131094988Y-127454216D01*
X133922853Y-124626352D01*
X133931139Y-124618812D01*
X133937618Y-124614700D01*
X133984244Y-124565048D01*
X133986998Y-124562207D01*
X134006735Y-124542470D01*
X134009215Y-124539273D01*
X134016920Y-124530251D01*
X134041759Y-124503800D01*
X134047186Y-124498021D01*
X134051005Y-124491075D01*
X134051007Y-124491072D01*
X134056948Y-124480266D01*
X134067799Y-124463747D01*
X134075358Y-124454001D01*
X134080214Y-124447741D01*
X134083359Y-124440472D01*
X134083362Y-124440468D01*
X134097774Y-124407163D01*
X134102991Y-124396513D01*
X134124295Y-124357760D01*
X134129333Y-124338137D01*
X134135737Y-124319434D01*
X134140633Y-124308120D01*
X134140633Y-124308119D01*
X134143781Y-124300845D01*
X134145020Y-124293022D01*
X134145023Y-124293012D01*
X134150699Y-124257176D01*
X134153105Y-124245556D01*
X134162128Y-124210411D01*
X134162128Y-124210410D01*
X134164100Y-124202730D01*
X134164100Y-124194094D01*
X134164257Y-124193560D01*
X134165093Y-124186940D01*
X134166161Y-124187075D01*
X134184102Y-124125973D01*
X134201005Y-124104999D01*
X134203273Y-124102731D01*
X134265585Y-124068705D01*
X134336400Y-124073770D01*
X134393236Y-124116317D01*
X134418047Y-124182837D01*
X134416385Y-124206880D01*
X134417258Y-124206972D01*
X134397296Y-124396900D01*
X134397986Y-124403465D01*
X134412983Y-124546149D01*
X134417258Y-124586828D01*
X134476273Y-124768456D01*
X134479576Y-124774178D01*
X134479577Y-124774179D01*
X134500064Y-124809663D01*
X134571760Y-124933844D01*
X134576178Y-124938751D01*
X134576179Y-124938752D01*
X134695125Y-125070855D01*
X134699547Y-125075766D01*
X134758069Y-125118285D01*
X134819489Y-125162909D01*
X134854048Y-125188018D01*
X134860076Y-125190702D01*
X134860078Y-125190703D01*
X135011231Y-125258000D01*
X135028512Y-125265694D01*
X135108302Y-125282654D01*
X135208856Y-125304028D01*
X135208861Y-125304028D01*
X135215313Y-125305400D01*
X135406287Y-125305400D01*
X135412739Y-125304028D01*
X135412744Y-125304028D01*
X135513298Y-125282654D01*
X135593088Y-125265694D01*
X135610369Y-125258000D01*
X135761522Y-125190703D01*
X135761524Y-125190702D01*
X135767552Y-125188018D01*
X135802112Y-125162909D01*
X135863531Y-125118285D01*
X135922053Y-125075766D01*
X135926475Y-125070855D01*
X136045421Y-124938752D01*
X136045422Y-124938751D01*
X136049840Y-124933844D01*
X136121536Y-124809663D01*
X136142023Y-124774179D01*
X136142024Y-124774178D01*
X136145327Y-124768456D01*
X136204342Y-124586828D01*
X136208618Y-124546149D01*
X136217629Y-124460405D01*
X136221707Y-124421608D01*
X136248720Y-124355951D01*
X136257922Y-124345682D01*
X136310593Y-124293012D01*
X136392258Y-124211347D01*
X136400537Y-124203813D01*
X136407018Y-124199700D01*
X136419001Y-124186940D01*
X136431859Y-124173247D01*
X136493072Y-124137282D01*
X136518910Y-124134092D01*
X136518888Y-124133668D01*
X136522136Y-124133500D01*
X136525400Y-124133500D01*
X136528646Y-124133163D01*
X136528650Y-124133163D01*
X136624308Y-124123238D01*
X136624312Y-124123237D01*
X136631166Y-124122526D01*
X136637702Y-124120345D01*
X136637704Y-124120345D01*
X136791998Y-124068868D01*
X136798946Y-124066550D01*
X136949348Y-123973478D01*
X137074305Y-123848303D01*
X137099519Y-123807399D01*
X137163275Y-123703968D01*
X137163276Y-123703966D01*
X137167115Y-123697738D01*
X137222797Y-123529861D01*
X137224717Y-123511128D01*
X137229662Y-123462856D01*
X137233500Y-123425400D01*
X137233500Y-122649600D01*
X137231747Y-122632703D01*
X137223238Y-122550692D01*
X137223237Y-122550688D01*
X137222526Y-122543834D01*
X137215287Y-122522134D01*
X137177443Y-122408704D01*
X137174859Y-122337755D01*
X137207872Y-122279732D01*
X137311576Y-122176029D01*
X137458858Y-122028747D01*
X137467137Y-122021213D01*
X137473618Y-122017100D01*
X137520244Y-121967448D01*
X137522998Y-121964607D01*
X137542735Y-121944870D01*
X137545215Y-121941673D01*
X137552920Y-121932651D01*
X137577759Y-121906200D01*
X137583186Y-121900421D01*
X137587005Y-121893475D01*
X137587007Y-121893472D01*
X137592948Y-121882666D01*
X137603799Y-121866147D01*
X137611358Y-121856401D01*
X137616214Y-121850141D01*
X137619359Y-121842872D01*
X137619362Y-121842868D01*
X137633774Y-121809563D01*
X137638991Y-121798913D01*
X137660295Y-121760160D01*
X137665333Y-121740537D01*
X137671737Y-121721834D01*
X137676633Y-121710520D01*
X137676633Y-121710519D01*
X137679781Y-121703245D01*
X137681020Y-121695422D01*
X137681023Y-121695412D01*
X137686699Y-121659576D01*
X137689105Y-121647956D01*
X137698128Y-121612811D01*
X137698128Y-121612810D01*
X137700100Y-121605130D01*
X137700100Y-121584876D01*
X137701651Y-121565165D01*
X137703580Y-121552986D01*
X137704820Y-121545157D01*
X137700659Y-121501138D01*
X137700100Y-121489281D01*
X137700100Y-108324968D01*
X137700627Y-108313785D01*
X137702302Y-108306292D01*
X137700162Y-108238201D01*
X137700100Y-108234244D01*
X137700100Y-108206344D01*
X137699596Y-108202353D01*
X137698663Y-108190511D01*
X137698129Y-108173500D01*
X137697274Y-108146311D01*
X137691621Y-108126852D01*
X137687612Y-108107493D01*
X137687006Y-108102694D01*
X137685074Y-108087403D01*
X137682158Y-108080037D01*
X137682156Y-108080031D01*
X137668800Y-108046298D01*
X137664955Y-108035068D01*
X137654830Y-108000217D01*
X137654830Y-108000216D01*
X137652619Y-107992607D01*
X137642305Y-107975166D01*
X137633608Y-107957413D01*
X137629072Y-107945958D01*
X137626152Y-107938583D01*
X137600163Y-107902812D01*
X137593647Y-107892892D01*
X137588529Y-107884238D01*
X137571142Y-107854838D01*
X137556821Y-107840517D01*
X137543980Y-107825483D01*
X137536731Y-107815506D01*
X137532072Y-107809093D01*
X137497995Y-107780902D01*
X137489216Y-107772912D01*
X124955400Y-95239095D01*
X131750001Y-95239095D01*
X131750338Y-95245614D01*
X131760257Y-95341206D01*
X131763149Y-95354600D01*
X131814588Y-95508784D01*
X131820761Y-95521962D01*
X131906063Y-95659807D01*
X131915099Y-95671208D01*
X132029829Y-95785739D01*
X132041240Y-95794751D01*
X132179243Y-95879816D01*
X132192424Y-95885963D01*
X132346710Y-95937138D01*
X132360086Y-95940005D01*
X132454438Y-95949672D01*
X132460854Y-95950000D01*
X132560885Y-95950000D01*
X132576124Y-95945525D01*
X132577329Y-95944135D01*
X132579000Y-95936452D01*
X132579000Y-95014115D01*
X132574525Y-94998876D01*
X132573135Y-94997671D01*
X132565452Y-94996000D01*
X131768116Y-94996000D01*
X131752877Y-95000475D01*
X131751672Y-95001865D01*
X131750001Y-95009548D01*
X131750001Y-95239095D01*
X124955400Y-95239095D01*
X123632905Y-93916600D01*
X123598879Y-93854288D01*
X123596000Y-93827505D01*
X123596000Y-93574046D01*
X123616002Y-93505925D01*
X123655697Y-93466902D01*
X123768120Y-93397332D01*
X123774348Y-93393478D01*
X123899305Y-93268303D01*
X123901906Y-93264084D01*
X123959030Y-93223583D01*
X124029953Y-93220351D01*
X124091365Y-93255976D01*
X124097922Y-93263530D01*
X124101522Y-93269348D01*
X124226697Y-93394305D01*
X124344117Y-93466684D01*
X124391609Y-93519455D01*
X124404000Y-93573943D01*
X124404000Y-93597756D01*
X124404497Y-93601690D01*
X124404497Y-93601691D01*
X124404505Y-93601756D01*
X124405438Y-93613593D01*
X124406827Y-93657789D01*
X124410472Y-93670335D01*
X124412478Y-93677239D01*
X124416487Y-93696600D01*
X124419026Y-93716697D01*
X124421945Y-93724071D01*
X124423916Y-93731746D01*
X124421563Y-93732350D01*
X124427778Y-93777751D01*
X124423986Y-93813829D01*
X124419796Y-93853700D01*
X124420486Y-93860265D01*
X124439058Y-94036965D01*
X124439758Y-94043628D01*
X124498773Y-94225256D01*
X124502076Y-94230978D01*
X124502077Y-94230979D01*
X124512826Y-94249597D01*
X124594260Y-94390644D01*
X124598678Y-94395551D01*
X124598679Y-94395552D01*
X124653227Y-94456134D01*
X124722047Y-94532566D01*
X124876548Y-94644818D01*
X124882576Y-94647502D01*
X124882578Y-94647503D01*
X125044981Y-94719809D01*
X125051012Y-94722494D01*
X125144413Y-94742347D01*
X125231356Y-94760828D01*
X125231361Y-94760828D01*
X125237813Y-94762200D01*
X125428787Y-94762200D01*
X125435239Y-94760828D01*
X125435244Y-94760828D01*
X125522188Y-94742347D01*
X125615588Y-94722494D01*
X125621619Y-94719809D01*
X125784022Y-94647503D01*
X125784024Y-94647502D01*
X125790052Y-94644818D01*
X125944553Y-94532566D01*
X126000991Y-94469885D01*
X131750000Y-94469885D01*
X131754475Y-94485124D01*
X131755865Y-94486329D01*
X131763548Y-94488000D01*
X132560885Y-94488000D01*
X132576124Y-94483525D01*
X132577329Y-94482135D01*
X132579000Y-94474452D01*
X132579000Y-93552116D01*
X132574525Y-93536877D01*
X132573135Y-93535672D01*
X132565452Y-93534001D01*
X132460905Y-93534001D01*
X132454386Y-93534338D01*
X132358794Y-93544257D01*
X132345400Y-93547149D01*
X132191216Y-93598588D01*
X132178038Y-93604761D01*
X132040193Y-93690063D01*
X132028792Y-93699099D01*
X131914261Y-93813829D01*
X131905249Y-93825240D01*
X131820184Y-93963243D01*
X131814037Y-93976424D01*
X131762862Y-94130710D01*
X131759995Y-94144086D01*
X131750328Y-94238438D01*
X131750000Y-94244855D01*
X131750000Y-94469885D01*
X126000991Y-94469885D01*
X126013373Y-94456134D01*
X126067921Y-94395552D01*
X126067922Y-94395551D01*
X126072340Y-94390644D01*
X126153774Y-94249597D01*
X126164523Y-94230979D01*
X126164524Y-94230978D01*
X126167827Y-94225256D01*
X126226842Y-94043628D01*
X126227543Y-94036965D01*
X126246114Y-93860265D01*
X126246804Y-93853700D01*
X126230555Y-93699099D01*
X126227532Y-93670335D01*
X126227532Y-93670333D01*
X126226842Y-93663772D01*
X126167827Y-93482144D01*
X126146211Y-93444704D01*
X126075644Y-93322478D01*
X126075642Y-93322475D01*
X126072340Y-93316756D01*
X126067918Y-93311845D01*
X126067916Y-93311842D01*
X126059547Y-93302547D01*
X126028829Y-93238540D01*
X126037592Y-93168086D01*
X126045922Y-93152121D01*
X126063273Y-93123972D01*
X126063275Y-93123967D01*
X126067115Y-93117738D01*
X126118734Y-92962110D01*
X126120632Y-92956389D01*
X126120632Y-92956387D01*
X126122797Y-92949861D01*
X126133500Y-92845400D01*
X126133500Y-91794600D01*
X126133163Y-91791350D01*
X126123238Y-91695692D01*
X126123237Y-91695688D01*
X126122526Y-91688834D01*
X126118445Y-91676600D01*
X126068868Y-91528002D01*
X126066550Y-91521054D01*
X125973478Y-91370652D01*
X125848303Y-91245695D01*
X125842072Y-91241854D01*
X125703968Y-91156725D01*
X125703966Y-91156724D01*
X125697738Y-91152885D01*
X125537254Y-91099655D01*
X125536389Y-91099368D01*
X125536387Y-91099368D01*
X125529861Y-91097203D01*
X125523025Y-91096503D01*
X125523022Y-91096502D01*
X125479969Y-91092091D01*
X125425400Y-91086500D01*
X124649600Y-91086500D01*
X124646354Y-91086837D01*
X124646350Y-91086837D01*
X124550692Y-91096762D01*
X124550688Y-91096763D01*
X124543834Y-91097474D01*
X124537298Y-91099655D01*
X124537296Y-91099655D01*
X124410745Y-91141876D01*
X124376054Y-91153450D01*
X124225652Y-91246522D01*
X124100695Y-91371697D01*
X124098094Y-91375916D01*
X124040970Y-91416417D01*
X123970047Y-91419649D01*
X123908635Y-91384024D01*
X123902078Y-91376470D01*
X123898478Y-91370652D01*
X123773303Y-91245695D01*
X123767072Y-91241854D01*
X123628968Y-91156725D01*
X123628966Y-91156724D01*
X123622738Y-91152885D01*
X123454861Y-91097203D01*
X123455755Y-91094507D01*
X123404492Y-91066729D01*
X123370266Y-91004526D01*
X123367300Y-90977347D01*
X123367300Y-90522095D01*
X135867001Y-90522095D01*
X135867338Y-90528614D01*
X135877257Y-90624206D01*
X135880149Y-90637600D01*
X135931588Y-90791784D01*
X135937761Y-90804962D01*
X136023063Y-90942807D01*
X136032099Y-90954208D01*
X136146829Y-91068739D01*
X136158240Y-91077751D01*
X136296243Y-91162816D01*
X136309424Y-91168963D01*
X136463710Y-91220138D01*
X136477086Y-91223005D01*
X136571438Y-91232672D01*
X136577854Y-91233000D01*
X136690385Y-91233000D01*
X136705624Y-91228525D01*
X136706829Y-91227135D01*
X136708500Y-91219452D01*
X136708500Y-91214884D01*
X137216500Y-91214884D01*
X137220975Y-91230123D01*
X137222365Y-91231328D01*
X137230048Y-91232999D01*
X137347095Y-91232999D01*
X137353614Y-91232662D01*
X137449206Y-91222743D01*
X137462600Y-91219851D01*
X137616784Y-91168412D01*
X137629962Y-91162239D01*
X137767807Y-91076937D01*
X137779208Y-91067901D01*
X137893738Y-90953172D01*
X137900794Y-90944238D01*
X137958712Y-90903177D01*
X138029635Y-90899947D01*
X138091046Y-90935574D01*
X138097846Y-90943407D01*
X138101522Y-90949348D01*
X138226697Y-91074305D01*
X138232927Y-91078145D01*
X138232928Y-91078146D01*
X138370288Y-91162816D01*
X138377262Y-91167115D01*
X138385279Y-91169774D01*
X138538611Y-91220632D01*
X138538613Y-91220632D01*
X138545139Y-91222797D01*
X138551975Y-91223497D01*
X138551978Y-91223498D01*
X138595031Y-91227909D01*
X138649600Y-91233500D01*
X139425400Y-91233500D01*
X139428646Y-91233163D01*
X139428650Y-91233163D01*
X139524308Y-91223238D01*
X139524312Y-91223237D01*
X139531166Y-91222526D01*
X139537702Y-91220345D01*
X139537704Y-91220345D01*
X139669806Y-91176272D01*
X139698946Y-91166550D01*
X139708379Y-91160713D01*
X139710870Y-91160027D01*
X139711797Y-91159593D01*
X139711871Y-91159752D01*
X139776830Y-91141876D01*
X139848740Y-91165922D01*
X139886448Y-91193318D01*
X139892476Y-91196002D01*
X139892478Y-91196003D01*
X140054881Y-91268309D01*
X140060912Y-91270994D01*
X140154312Y-91290847D01*
X140241256Y-91309328D01*
X140241261Y-91309328D01*
X140247713Y-91310700D01*
X140438687Y-91310700D01*
X140445139Y-91309328D01*
X140445144Y-91309328D01*
X140532087Y-91290847D01*
X140625488Y-91270994D01*
X140631519Y-91268309D01*
X140793922Y-91196003D01*
X140793924Y-91196002D01*
X140799952Y-91193318D01*
X140832358Y-91169774D01*
X140858774Y-91150581D01*
X140954453Y-91081066D01*
X140992530Y-91038777D01*
X141077821Y-90944052D01*
X141077822Y-90944051D01*
X141082240Y-90939144D01*
X141177727Y-90773756D01*
X141236742Y-90592128D01*
X141242598Y-90536417D01*
X141256014Y-90408765D01*
X141256704Y-90402200D01*
X141243032Y-90272115D01*
X141237432Y-90218835D01*
X141237432Y-90218833D01*
X141236742Y-90212272D01*
X141177727Y-90030644D01*
X141082240Y-89865256D01*
X140954453Y-89723334D01*
X140799952Y-89611082D01*
X140793924Y-89608398D01*
X140793922Y-89608397D01*
X140631519Y-89536091D01*
X140631518Y-89536091D01*
X140625488Y-89533406D01*
X140532088Y-89513553D01*
X140445144Y-89495072D01*
X140445139Y-89495072D01*
X140438687Y-89493700D01*
X140249085Y-89493700D01*
X140180964Y-89473698D01*
X140134471Y-89420042D01*
X140123758Y-89380708D01*
X140123237Y-89375690D01*
X140122526Y-89368834D01*
X140110571Y-89332999D01*
X140068868Y-89208002D01*
X140066550Y-89201054D01*
X139973478Y-89050652D01*
X139848303Y-88925695D01*
X139842072Y-88921854D01*
X139703968Y-88836725D01*
X139703966Y-88836724D01*
X139697738Y-88832885D01*
X139593349Y-88798261D01*
X139536389Y-88779368D01*
X139536387Y-88779368D01*
X139529861Y-88777203D01*
X139523025Y-88776503D01*
X139523022Y-88776502D01*
X139479783Y-88772072D01*
X139425400Y-88766500D01*
X138649600Y-88766500D01*
X138646354Y-88766837D01*
X138646350Y-88766837D01*
X138550692Y-88776762D01*
X138550688Y-88776763D01*
X138543834Y-88777474D01*
X138537298Y-88779655D01*
X138537296Y-88779655D01*
X138481528Y-88798261D01*
X138376054Y-88833450D01*
X138225652Y-88926522D01*
X138100695Y-89051697D01*
X138097898Y-89056235D01*
X138040647Y-89096824D01*
X137969724Y-89100054D01*
X137908313Y-89064428D01*
X137900938Y-89055932D01*
X137892902Y-89045793D01*
X137778171Y-88931261D01*
X137766760Y-88922249D01*
X137628757Y-88837184D01*
X137615576Y-88831037D01*
X137461290Y-88779862D01*
X137447914Y-88776995D01*
X137353562Y-88767328D01*
X137347145Y-88767000D01*
X137234615Y-88767000D01*
X137219376Y-88771475D01*
X137218171Y-88772865D01*
X137216500Y-88780548D01*
X137216500Y-91214884D01*
X136708500Y-91214884D01*
X136708500Y-90272115D01*
X136704025Y-90256876D01*
X136702635Y-90255671D01*
X136694952Y-90254000D01*
X135885116Y-90254000D01*
X135869877Y-90258475D01*
X135868672Y-90259865D01*
X135867001Y-90267548D01*
X135867001Y-90522095D01*
X123367300Y-90522095D01*
X123367300Y-89727885D01*
X135867000Y-89727885D01*
X135871475Y-89743124D01*
X135872865Y-89744329D01*
X135880548Y-89746000D01*
X136690385Y-89746000D01*
X136705624Y-89741525D01*
X136706829Y-89740135D01*
X136708500Y-89732452D01*
X136708500Y-88785116D01*
X136704025Y-88769877D01*
X136702635Y-88768672D01*
X136694952Y-88767001D01*
X136577905Y-88767001D01*
X136571386Y-88767338D01*
X136475794Y-88777257D01*
X136462400Y-88780149D01*
X136308216Y-88831588D01*
X136295038Y-88837761D01*
X136157193Y-88923063D01*
X136145792Y-88932099D01*
X136031261Y-89046829D01*
X136022249Y-89058240D01*
X135937184Y-89196243D01*
X135931037Y-89209424D01*
X135879862Y-89363710D01*
X135876995Y-89377086D01*
X135867328Y-89471438D01*
X135867000Y-89477855D01*
X135867000Y-89727885D01*
X123367300Y-89727885D01*
X123367300Y-89439500D01*
X123387302Y-89371379D01*
X123440958Y-89324886D01*
X123493300Y-89313500D01*
X123881934Y-89313500D01*
X123944116Y-89306745D01*
X124080505Y-89255615D01*
X124197061Y-89168261D01*
X124284415Y-89051705D01*
X124335545Y-88915316D01*
X124340504Y-88869669D01*
X125325801Y-88869669D01*
X125326171Y-88876490D01*
X125331695Y-88927352D01*
X125335321Y-88942604D01*
X125380476Y-89063054D01*
X125389014Y-89078649D01*
X125465515Y-89180724D01*
X125478076Y-89193285D01*
X125580151Y-89269786D01*
X125595746Y-89278324D01*
X125716194Y-89323478D01*
X125731449Y-89327105D01*
X125782314Y-89332631D01*
X125789128Y-89333000D01*
X128761685Y-89333000D01*
X128776924Y-89328525D01*
X128778129Y-89327135D01*
X128779800Y-89319452D01*
X128779800Y-89314884D01*
X129287800Y-89314884D01*
X129292275Y-89330123D01*
X129293665Y-89331328D01*
X129301348Y-89332999D01*
X132278469Y-89332999D01*
X132285290Y-89332629D01*
X132336152Y-89327105D01*
X132351404Y-89323479D01*
X132471854Y-89278324D01*
X132487449Y-89269786D01*
X132589524Y-89193285D01*
X132602085Y-89180724D01*
X132678586Y-89078649D01*
X132687124Y-89063054D01*
X132732278Y-88942606D01*
X132735905Y-88927351D01*
X132741431Y-88876486D01*
X132741800Y-88869672D01*
X132741800Y-86357095D01*
X135904501Y-86357095D01*
X135904838Y-86363614D01*
X135914757Y-86459206D01*
X135917649Y-86472600D01*
X135969088Y-86626784D01*
X135975261Y-86639962D01*
X136060563Y-86777807D01*
X136069599Y-86789208D01*
X136184329Y-86903739D01*
X136195740Y-86912751D01*
X136333743Y-86997816D01*
X136346924Y-87003963D01*
X136501210Y-87055138D01*
X136514586Y-87058005D01*
X136608938Y-87067672D01*
X136615354Y-87068000D01*
X136727885Y-87068000D01*
X136743124Y-87063525D01*
X136744329Y-87062135D01*
X136746000Y-87054452D01*
X136746000Y-87049884D01*
X137254000Y-87049884D01*
X137258475Y-87065123D01*
X137259865Y-87066328D01*
X137267548Y-87067999D01*
X137384595Y-87067999D01*
X137391114Y-87067662D01*
X137486706Y-87057743D01*
X137500100Y-87054851D01*
X137654284Y-87003412D01*
X137667462Y-86997239D01*
X137805307Y-86911937D01*
X137816708Y-86902901D01*
X137931238Y-86788172D01*
X137938294Y-86779238D01*
X137996212Y-86738177D01*
X138067135Y-86734947D01*
X138128546Y-86770574D01*
X138135346Y-86778407D01*
X138139022Y-86784348D01*
X138264197Y-86909305D01*
X138270427Y-86913145D01*
X138270428Y-86913146D01*
X138407788Y-86997816D01*
X138414762Y-87002115D01*
X138434531Y-87008672D01*
X138576111Y-87055632D01*
X138576113Y-87055632D01*
X138582639Y-87057797D01*
X138589475Y-87058497D01*
X138589478Y-87058498D01*
X138632531Y-87062909D01*
X138687100Y-87068500D01*
X139462900Y-87068500D01*
X139466146Y-87068163D01*
X139466150Y-87068163D01*
X139561808Y-87058238D01*
X139561812Y-87058237D01*
X139568666Y-87057526D01*
X139575206Y-87055344D01*
X139575211Y-87055343D01*
X139583203Y-87052677D01*
X139624610Y-87046618D01*
X139629043Y-87047320D01*
X139636935Y-87046574D01*
X139644384Y-87045870D01*
X139714085Y-87059373D01*
X139740448Y-87079720D01*
X139741420Y-87078640D01*
X139746332Y-87083063D01*
X139750747Y-87087966D01*
X139762493Y-87096500D01*
X139854668Y-87163469D01*
X139905248Y-87200218D01*
X139911276Y-87202902D01*
X139911278Y-87202903D01*
X140073681Y-87275209D01*
X140079712Y-87277894D01*
X140173113Y-87297747D01*
X140260056Y-87316228D01*
X140260061Y-87316228D01*
X140266513Y-87317600D01*
X140457487Y-87317600D01*
X140463939Y-87316228D01*
X140463944Y-87316228D01*
X140550888Y-87297747D01*
X140644288Y-87277894D01*
X140650319Y-87275209D01*
X140812722Y-87202903D01*
X140812724Y-87202902D01*
X140818752Y-87200218D01*
X140973253Y-87087966D01*
X140991084Y-87068163D01*
X141096621Y-86950952D01*
X141096622Y-86950951D01*
X141101040Y-86946044D01*
X141191409Y-86789521D01*
X141193223Y-86786379D01*
X141193224Y-86786378D01*
X141196527Y-86780656D01*
X141255542Y-86599028D01*
X141257957Y-86576057D01*
X141274814Y-86415665D01*
X141275504Y-86409100D01*
X141270723Y-86363614D01*
X141256232Y-86225735D01*
X141256232Y-86225733D01*
X141255542Y-86219172D01*
X141196527Y-86037544D01*
X141191627Y-86029056D01*
X141159314Y-85973090D01*
X141101040Y-85872156D01*
X141072866Y-85840865D01*
X140977675Y-85735145D01*
X140977674Y-85735144D01*
X140973253Y-85730234D01*
X140825792Y-85623097D01*
X140824094Y-85621863D01*
X140824093Y-85621862D01*
X140818752Y-85617982D01*
X140812724Y-85615298D01*
X140812722Y-85615297D01*
X140650319Y-85542991D01*
X140650318Y-85542991D01*
X140644288Y-85540306D01*
X140550888Y-85520453D01*
X140463944Y-85501972D01*
X140463939Y-85501972D01*
X140457487Y-85500600D01*
X140297000Y-85500600D01*
X140228879Y-85480598D01*
X140182386Y-85426942D01*
X140171000Y-85374600D01*
X140171000Y-85309600D01*
X140167952Y-85280221D01*
X140160738Y-85210692D01*
X140160737Y-85210688D01*
X140160026Y-85203834D01*
X140149151Y-85171236D01*
X140106368Y-85043002D01*
X140104050Y-85036054D01*
X140010978Y-84885652D01*
X139885803Y-84760695D01*
X139822021Y-84721379D01*
X139741468Y-84671725D01*
X139741466Y-84671724D01*
X139735238Y-84667885D01*
X139613188Y-84627403D01*
X139573889Y-84614368D01*
X139573887Y-84614368D01*
X139567361Y-84612203D01*
X139560525Y-84611503D01*
X139560522Y-84611502D01*
X139517469Y-84607091D01*
X139462900Y-84601500D01*
X138687100Y-84601500D01*
X138683854Y-84601837D01*
X138683850Y-84601837D01*
X138588192Y-84611762D01*
X138588188Y-84611763D01*
X138581334Y-84612474D01*
X138574798Y-84614655D01*
X138574796Y-84614655D01*
X138483575Y-84645089D01*
X138413554Y-84668450D01*
X138263152Y-84761522D01*
X138138195Y-84886697D01*
X138135398Y-84891235D01*
X138078147Y-84931824D01*
X138007224Y-84935054D01*
X137945813Y-84899428D01*
X137938438Y-84890932D01*
X137930402Y-84880793D01*
X137815671Y-84766261D01*
X137804260Y-84757249D01*
X137666257Y-84672184D01*
X137653076Y-84666037D01*
X137498790Y-84614862D01*
X137485414Y-84611995D01*
X137391062Y-84602328D01*
X137384645Y-84602000D01*
X137272115Y-84602000D01*
X137256876Y-84606475D01*
X137255671Y-84607865D01*
X137254000Y-84615548D01*
X137254000Y-87049884D01*
X136746000Y-87049884D01*
X136746000Y-86107115D01*
X136741525Y-86091876D01*
X136740135Y-86090671D01*
X136732452Y-86089000D01*
X135922616Y-86089000D01*
X135907377Y-86093475D01*
X135906172Y-86094865D01*
X135904501Y-86102548D01*
X135904501Y-86357095D01*
X132741800Y-86357095D01*
X132741800Y-86197115D01*
X132737325Y-86181876D01*
X132735935Y-86180671D01*
X132728252Y-86179000D01*
X129305915Y-86179000D01*
X129290676Y-86183475D01*
X129289471Y-86184865D01*
X129287800Y-86192548D01*
X129287800Y-89314884D01*
X128779800Y-89314884D01*
X128779800Y-86197115D01*
X128775325Y-86181876D01*
X128773935Y-86180671D01*
X128766252Y-86179000D01*
X125343916Y-86179000D01*
X125328677Y-86183475D01*
X125327472Y-86184865D01*
X125325801Y-86192548D01*
X125325801Y-88869669D01*
X124340504Y-88869669D01*
X124342300Y-88853134D01*
X124342300Y-87556866D01*
X124335545Y-87494684D01*
X124284415Y-87358295D01*
X124197061Y-87241739D01*
X124080505Y-87154385D01*
X123944116Y-87103255D01*
X123881934Y-87096500D01*
X123431964Y-87096500D01*
X123363843Y-87076498D01*
X123320640Y-87025622D01*
X123319819Y-87026108D01*
X123316990Y-87021324D01*
X123316988Y-87021321D01*
X123309507Y-87008672D01*
X123300812Y-86990924D01*
X123293352Y-86972083D01*
X123267364Y-86936313D01*
X123260848Y-86926393D01*
X123242380Y-86895165D01*
X123242378Y-86895162D01*
X123238342Y-86888338D01*
X123224021Y-86874017D01*
X123211180Y-86858983D01*
X123199272Y-86842593D01*
X123165195Y-86814402D01*
X123156416Y-86806412D01*
X122002889Y-85652885D01*
X125325800Y-85652885D01*
X125330275Y-85668124D01*
X125331665Y-85669329D01*
X125339348Y-85671000D01*
X128761685Y-85671000D01*
X128776924Y-85666525D01*
X128778129Y-85665135D01*
X128779800Y-85657452D01*
X128779800Y-85652885D01*
X129287800Y-85652885D01*
X129292275Y-85668124D01*
X129293665Y-85669329D01*
X129301348Y-85671000D01*
X132723684Y-85671000D01*
X132738923Y-85666525D01*
X132740128Y-85665135D01*
X132741799Y-85657452D01*
X132741799Y-85562885D01*
X135904500Y-85562885D01*
X135908975Y-85578124D01*
X135910365Y-85579329D01*
X135918048Y-85581000D01*
X136727885Y-85581000D01*
X136743124Y-85576525D01*
X136744329Y-85575135D01*
X136746000Y-85567452D01*
X136746000Y-84620116D01*
X136741525Y-84604877D01*
X136740135Y-84603672D01*
X136732452Y-84602001D01*
X136615405Y-84602001D01*
X136608886Y-84602338D01*
X136513294Y-84612257D01*
X136499900Y-84615149D01*
X136345716Y-84666588D01*
X136332538Y-84672761D01*
X136194693Y-84758063D01*
X136183292Y-84767099D01*
X136068761Y-84881829D01*
X136059749Y-84893240D01*
X135974684Y-85031243D01*
X135968537Y-85044424D01*
X135917362Y-85198710D01*
X135914495Y-85212086D01*
X135904828Y-85306438D01*
X135904500Y-85312855D01*
X135904500Y-85562885D01*
X132741799Y-85562885D01*
X132741799Y-82980331D01*
X132741429Y-82973510D01*
X132735905Y-82922648D01*
X132732279Y-82907396D01*
X132687124Y-82786946D01*
X132678586Y-82771351D01*
X132602085Y-82669276D01*
X132589524Y-82656715D01*
X132487449Y-82580214D01*
X132471854Y-82571676D01*
X132351406Y-82526522D01*
X132336151Y-82522895D01*
X132285286Y-82517369D01*
X132278472Y-82517000D01*
X129305915Y-82517000D01*
X129290676Y-82521475D01*
X129289471Y-82522865D01*
X129287800Y-82530548D01*
X129287800Y-85652885D01*
X128779800Y-85652885D01*
X128779800Y-82535116D01*
X128775325Y-82519877D01*
X128773935Y-82518672D01*
X128766252Y-82517001D01*
X125789131Y-82517001D01*
X125782310Y-82517371D01*
X125731448Y-82522895D01*
X125716196Y-82526521D01*
X125595746Y-82571676D01*
X125580151Y-82580214D01*
X125478076Y-82656715D01*
X125465515Y-82669276D01*
X125389014Y-82771351D01*
X125380476Y-82786946D01*
X125335322Y-82907394D01*
X125331695Y-82922649D01*
X125326169Y-82973514D01*
X125325800Y-82980328D01*
X125325800Y-85652885D01*
X122002889Y-85652885D01*
X121251397Y-84901393D01*
X121217371Y-84839081D01*
X121222436Y-84768266D01*
X121264983Y-84711430D01*
X121331503Y-84686619D01*
X121386011Y-84698506D01*
X121387095Y-84695615D01*
X121523484Y-84746745D01*
X121585666Y-84753500D01*
X123881934Y-84753500D01*
X123944116Y-84746745D01*
X124080505Y-84695615D01*
X124197061Y-84608261D01*
X124284415Y-84491705D01*
X124335545Y-84355316D01*
X124342300Y-84293134D01*
X124342300Y-82996866D01*
X124335545Y-82934684D01*
X124284415Y-82798295D01*
X124197061Y-82681739D01*
X124080505Y-82594385D01*
X124074308Y-82592062D01*
X124025000Y-82542644D01*
X124009986Y-82473253D01*
X124034871Y-82406761D01*
X124091754Y-82364277D01*
X124109458Y-82359135D01*
X124147288Y-82351094D01*
X124184584Y-82334489D01*
X124315722Y-82276103D01*
X124315724Y-82276102D01*
X124321752Y-82273418D01*
X124333866Y-82264617D01*
X124420573Y-82201620D01*
X124476253Y-82161166D01*
X124506767Y-82127277D01*
X124599621Y-82024152D01*
X124599622Y-82024151D01*
X124604040Y-82019244D01*
X124683929Y-81880873D01*
X124696223Y-81859579D01*
X124696224Y-81859578D01*
X124699527Y-81853856D01*
X124758542Y-81672228D01*
X124778504Y-81482300D01*
X124758542Y-81292372D01*
X124699527Y-81110744D01*
X124604040Y-80945356D01*
X124476253Y-80803434D01*
X124321752Y-80691182D01*
X124315724Y-80688498D01*
X124315722Y-80688497D01*
X124153319Y-80616191D01*
X124153318Y-80616191D01*
X124147288Y-80613506D01*
X124053888Y-80593653D01*
X123966944Y-80575172D01*
X123966939Y-80575172D01*
X123960487Y-80573800D01*
X123769513Y-80573800D01*
X123763061Y-80575172D01*
X123763056Y-80575172D01*
X123676112Y-80593653D01*
X123582712Y-80613506D01*
X123576682Y-80616191D01*
X123576681Y-80616191D01*
X123414278Y-80688497D01*
X123414276Y-80688498D01*
X123408248Y-80691182D01*
X123253747Y-80803434D01*
X123125960Y-80945356D01*
X123030473Y-81110744D01*
X122971458Y-81292372D01*
X122970768Y-81298933D01*
X122970768Y-81298935D01*
X122954093Y-81457592D01*
X122927080Y-81523249D01*
X122917878Y-81533517D01*
X122341547Y-82109848D01*
X122333261Y-82117388D01*
X122326782Y-82121500D01*
X122321357Y-82127277D01*
X122280157Y-82171151D01*
X122277402Y-82173993D01*
X122257665Y-82193730D01*
X122255185Y-82196927D01*
X122247482Y-82205947D01*
X122217214Y-82238179D01*
X122213395Y-82245125D01*
X122213393Y-82245128D01*
X122207452Y-82255934D01*
X122196601Y-82272453D01*
X122184186Y-82288459D01*
X122181041Y-82295728D01*
X122181038Y-82295732D01*
X122166626Y-82329037D01*
X122161409Y-82339687D01*
X122140105Y-82378440D01*
X122138134Y-82386115D01*
X122138134Y-82386116D01*
X122135067Y-82398062D01*
X122128663Y-82416766D01*
X122120619Y-82435355D01*
X122119379Y-82443184D01*
X122118660Y-82445658D01*
X122080444Y-82505492D01*
X122015947Y-82535167D01*
X121997664Y-82536500D01*
X121585666Y-82536500D01*
X121523484Y-82543255D01*
X121387095Y-82594385D01*
X121270539Y-82681739D01*
X121183185Y-82798295D01*
X121132055Y-82934684D01*
X121125300Y-82996866D01*
X121125300Y-84293134D01*
X121132055Y-84355316D01*
X121164570Y-84442049D01*
X121183185Y-84491705D01*
X121180301Y-84492786D01*
X121192190Y-84547164D01*
X121167450Y-84613711D01*
X121110659Y-84656317D01*
X121039848Y-84661457D01*
X120977407Y-84627403D01*
X120707271Y-84357266D01*
X118265452Y-81915447D01*
X118257912Y-81907161D01*
X118253800Y-81900682D01*
X118227834Y-81876298D01*
X118204149Y-81854057D01*
X118201307Y-81851302D01*
X118181570Y-81831565D01*
X118178373Y-81829085D01*
X118169351Y-81821380D01*
X118163261Y-81815661D01*
X118137121Y-81791114D01*
X118130175Y-81787295D01*
X118130172Y-81787293D01*
X118119366Y-81781352D01*
X118102847Y-81770501D01*
X118102383Y-81770141D01*
X118086841Y-81758086D01*
X118079572Y-81754941D01*
X118079568Y-81754938D01*
X118046263Y-81740526D01*
X118035613Y-81735309D01*
X117996860Y-81714005D01*
X117977237Y-81708967D01*
X117958534Y-81702563D01*
X117947220Y-81697667D01*
X117947219Y-81697667D01*
X117939945Y-81694519D01*
X117932122Y-81693280D01*
X117932112Y-81693277D01*
X117896276Y-81687601D01*
X117884656Y-81685195D01*
X117849511Y-81676172D01*
X117849510Y-81676172D01*
X117841830Y-81674200D01*
X117821576Y-81674200D01*
X117801865Y-81672649D01*
X117789686Y-81670720D01*
X117781857Y-81669480D01*
X117752586Y-81672247D01*
X117737839Y-81673641D01*
X117725981Y-81674200D01*
X101710968Y-81674200D01*
X101699785Y-81673673D01*
X101692292Y-81671998D01*
X101684366Y-81672247D01*
X101684365Y-81672247D01*
X101624202Y-81674138D01*
X101620244Y-81674200D01*
X101592344Y-81674200D01*
X101588354Y-81674704D01*
X101576520Y-81675636D01*
X101532311Y-81677026D01*
X101524695Y-81679239D01*
X101524693Y-81679239D01*
X101512852Y-81682679D01*
X101493493Y-81686688D01*
X101492183Y-81686854D01*
X101473403Y-81689226D01*
X101466037Y-81692142D01*
X101466031Y-81692144D01*
X101432298Y-81705500D01*
X101421068Y-81709345D01*
X101405028Y-81714005D01*
X101378607Y-81721681D01*
X101371784Y-81725716D01*
X101361166Y-81731995D01*
X101343413Y-81740692D01*
X101335768Y-81743719D01*
X101324583Y-81748148D01*
X101310905Y-81758086D01*
X101288812Y-81774137D01*
X101278895Y-81780651D01*
X101240838Y-81803158D01*
X101226517Y-81817479D01*
X101211484Y-81830319D01*
X101195093Y-81842228D01*
X101190043Y-81848332D01*
X101190038Y-81848337D01*
X101166907Y-81876298D01*
X101158917Y-81885079D01*
X100513051Y-82530944D01*
X100450739Y-82564969D01*
X100379923Y-82559904D01*
X100323088Y-82517357D01*
X100305974Y-82486077D01*
X100279968Y-82416705D01*
X100279967Y-82416704D01*
X100276815Y-82408295D01*
X100189461Y-82291739D01*
X100072905Y-82204385D01*
X99936516Y-82153255D01*
X99874334Y-82146500D01*
X97578066Y-82146500D01*
X97515884Y-82153255D01*
X97379495Y-82204385D01*
X97262939Y-82291739D01*
X97175585Y-82408295D01*
X97172433Y-82416704D01*
X97172432Y-82416705D01*
X97169338Y-82424958D01*
X97126697Y-82481723D01*
X97060135Y-82506423D01*
X96990786Y-82491216D01*
X96977299Y-82482668D01*
X96872852Y-82406782D01*
X96866824Y-82404098D01*
X96866822Y-82404097D01*
X96704419Y-82331791D01*
X96704418Y-82331791D01*
X96698388Y-82329106D01*
X96604988Y-82309253D01*
X96518044Y-82290772D01*
X96518039Y-82290772D01*
X96511587Y-82289400D01*
X96320613Y-82289400D01*
X96314161Y-82290772D01*
X96314156Y-82290772D01*
X96227212Y-82309253D01*
X96133812Y-82329106D01*
X96127782Y-82331791D01*
X96127781Y-82331791D01*
X95965378Y-82404097D01*
X95965376Y-82404098D01*
X95959348Y-82406782D01*
X95804847Y-82519034D01*
X95800426Y-82523944D01*
X95800425Y-82523945D01*
X95711979Y-82622175D01*
X95677060Y-82660956D01*
X95581573Y-82826344D01*
X95522558Y-83007972D01*
X95502596Y-83197900D01*
X95522558Y-83387828D01*
X95581573Y-83569456D01*
X95677060Y-83734844D01*
X95681478Y-83739751D01*
X95681479Y-83739752D01*
X95779572Y-83848695D01*
X95804847Y-83876766D01*
X95959348Y-83989018D01*
X95965376Y-83991702D01*
X95965378Y-83991703D01*
X96102383Y-84052701D01*
X96133812Y-84066694D01*
X96197668Y-84080267D01*
X96314156Y-84105028D01*
X96314161Y-84105028D01*
X96320613Y-84106400D01*
X96511587Y-84106400D01*
X96518039Y-84105028D01*
X96518044Y-84105028D01*
X96634532Y-84080267D01*
X96698388Y-84066694D01*
X96734285Y-84050712D01*
X96822884Y-84011265D01*
X96893251Y-84001831D01*
X96957548Y-84031937D01*
X96995362Y-84092026D01*
X96994686Y-84163020D01*
X96963228Y-84215467D01*
X96908647Y-84270048D01*
X96900361Y-84277588D01*
X96893882Y-84281700D01*
X96888457Y-84287477D01*
X96847257Y-84331351D01*
X96844502Y-84334193D01*
X96824765Y-84353930D01*
X96822285Y-84357127D01*
X96814582Y-84366147D01*
X96784314Y-84398379D01*
X96780495Y-84405325D01*
X96780493Y-84405328D01*
X96774552Y-84416134D01*
X96763701Y-84432653D01*
X96751286Y-84448659D01*
X96748141Y-84455928D01*
X96748138Y-84455932D01*
X96733726Y-84489237D01*
X96728509Y-84499887D01*
X96707205Y-84538640D01*
X96705234Y-84546315D01*
X96705234Y-84546316D01*
X96702167Y-84558262D01*
X96695763Y-84576966D01*
X96687719Y-84595555D01*
X96686480Y-84603378D01*
X96686477Y-84603388D01*
X96680801Y-84639224D01*
X96678395Y-84650844D01*
X96673034Y-84671725D01*
X96667400Y-84693670D01*
X96667400Y-84713924D01*
X96665849Y-84733634D01*
X96662680Y-84753643D01*
X96663426Y-84761535D01*
X96666841Y-84797661D01*
X96667400Y-84809519D01*
X96667400Y-87623633D01*
X96666873Y-87634816D01*
X96665198Y-87642309D01*
X96665447Y-87650235D01*
X96665447Y-87650236D01*
X96667338Y-87710386D01*
X96667400Y-87714345D01*
X96667400Y-87742256D01*
X96667897Y-87746190D01*
X96667897Y-87746191D01*
X96667905Y-87746256D01*
X96668838Y-87758093D01*
X96670227Y-87802289D01*
X96675878Y-87821739D01*
X96679887Y-87841100D01*
X96682426Y-87861197D01*
X96685345Y-87868568D01*
X96685345Y-87868570D01*
X96698704Y-87902312D01*
X96702549Y-87913542D01*
X96714882Y-87955993D01*
X96718915Y-87962812D01*
X96718917Y-87962817D01*
X96725193Y-87973428D01*
X96733888Y-87991176D01*
X96741348Y-88010017D01*
X96746009Y-88016433D01*
X96746011Y-88016436D01*
X96755936Y-88030096D01*
X96779795Y-88096964D01*
X96780000Y-88104157D01*
X96780000Y-90490933D01*
X96779473Y-90502116D01*
X96777798Y-90509609D01*
X96778047Y-90517535D01*
X96778047Y-90517536D01*
X96779938Y-90577686D01*
X96780000Y-90581645D01*
X96780000Y-90609556D01*
X96780497Y-90613490D01*
X96780497Y-90613491D01*
X96780505Y-90613556D01*
X96781438Y-90625393D01*
X96782827Y-90669589D01*
X96788478Y-90689039D01*
X96792487Y-90708400D01*
X96795026Y-90728497D01*
X96797945Y-90735868D01*
X96797945Y-90735870D01*
X96811304Y-90769612D01*
X96815149Y-90780842D01*
X96820409Y-90798946D01*
X96827482Y-90823293D01*
X96831515Y-90830112D01*
X96831517Y-90830117D01*
X96837793Y-90840728D01*
X96846488Y-90858476D01*
X96853948Y-90877317D01*
X96858610Y-90883733D01*
X96858610Y-90883734D01*
X96879936Y-90913087D01*
X96886452Y-90923007D01*
X96904905Y-90954208D01*
X96908958Y-90961062D01*
X96923279Y-90975383D01*
X96936119Y-90990416D01*
X96948028Y-91006807D01*
X96954133Y-91011858D01*
X96954138Y-91011863D01*
X96982098Y-91034994D01*
X96990876Y-91042981D01*
X97150895Y-91202999D01*
X97184920Y-91265311D01*
X97187800Y-91292095D01*
X97187800Y-91965400D01*
X97188137Y-91968646D01*
X97188137Y-91968650D01*
X97196980Y-92053874D01*
X97198774Y-92071166D01*
X97200955Y-92077702D01*
X97200955Y-92077704D01*
X97207930Y-92098611D01*
X97254750Y-92238946D01*
X97347822Y-92389348D01*
X97472997Y-92514305D01*
X97479227Y-92518145D01*
X97479228Y-92518146D01*
X97616390Y-92602694D01*
X97623562Y-92607115D01*
X97703305Y-92633564D01*
X97784911Y-92660632D01*
X97784913Y-92660632D01*
X97791439Y-92662797D01*
X97798275Y-92663497D01*
X97798278Y-92663498D01*
X97841331Y-92667909D01*
X97895900Y-92673500D01*
X98300500Y-92673500D01*
X98368621Y-92693502D01*
X98415114Y-92747158D01*
X98426500Y-92799500D01*
X98426500Y-97325500D01*
X98406498Y-97393621D01*
X98352842Y-97440114D01*
X98300500Y-97451500D01*
X97911866Y-97451500D01*
X97849684Y-97458255D01*
X97713295Y-97509385D01*
X97596739Y-97596739D01*
X97509385Y-97713295D01*
X97458255Y-97849684D01*
X97451500Y-97911866D01*
X97451500Y-100208134D01*
X97458255Y-100270316D01*
X97509385Y-100406705D01*
X97596739Y-100523261D01*
X97713295Y-100610615D01*
X97849684Y-100661745D01*
X97911866Y-100668500D01*
X98300500Y-100668500D01*
X98368621Y-100688502D01*
X98415114Y-100742158D01*
X98426500Y-100794500D01*
X98426500Y-104167324D01*
X98406498Y-104235445D01*
X98352842Y-104281938D01*
X98313504Y-104292651D01*
X98225692Y-104301762D01*
X98225688Y-104301763D01*
X98218834Y-104302474D01*
X98212298Y-104304655D01*
X98212296Y-104304655D01*
X98114481Y-104337289D01*
X98051054Y-104358450D01*
X97900652Y-104451522D01*
X97775695Y-104576697D01*
X97682885Y-104727262D01*
X97680581Y-104734209D01*
X97641972Y-104850613D01*
X97627203Y-104895139D01*
X97626503Y-104901975D01*
X97626502Y-104901978D01*
X97622374Y-104942268D01*
X97616500Y-104999600D01*
X97616500Y-105900400D01*
X97616837Y-105903646D01*
X97616837Y-105903650D01*
X97626395Y-105995762D01*
X97627474Y-106006166D01*
X97629655Y-106012702D01*
X97629655Y-106012704D01*
X97670469Y-106135038D01*
X97683450Y-106173946D01*
X97687306Y-106180177D01*
X97690407Y-106186797D01*
X97687471Y-106188172D01*
X97702441Y-106242767D01*
X97681216Y-106310516D01*
X97626733Y-106356037D01*
X97576461Y-106366500D01*
X86602367Y-106366500D01*
X86591184Y-106365973D01*
X86583691Y-106364298D01*
X86575765Y-106364547D01*
X86575764Y-106364547D01*
X86515614Y-106366438D01*
X86511655Y-106366500D01*
X86483744Y-106366500D01*
X86479810Y-106366997D01*
X86479809Y-106366997D01*
X86479744Y-106367005D01*
X86467907Y-106367938D01*
X86435649Y-106368952D01*
X86431630Y-106369078D01*
X86423711Y-106369327D01*
X86404257Y-106374979D01*
X86384900Y-106378987D01*
X86372670Y-106380532D01*
X86372669Y-106380532D01*
X86364803Y-106381526D01*
X86357432Y-106384445D01*
X86357430Y-106384445D01*
X86323688Y-106397804D01*
X86312458Y-106401649D01*
X86277617Y-106411771D01*
X86277616Y-106411771D01*
X86270007Y-106413982D01*
X86263188Y-106418015D01*
X86263183Y-106418017D01*
X86252572Y-106424293D01*
X86234824Y-106432988D01*
X86215983Y-106440448D01*
X86209567Y-106445110D01*
X86209566Y-106445110D01*
X86180213Y-106466436D01*
X86170293Y-106472952D01*
X86139065Y-106491420D01*
X86139062Y-106491422D01*
X86132238Y-106495458D01*
X86117917Y-106509779D01*
X86102884Y-106522619D01*
X86086493Y-106534528D01*
X86081443Y-106540632D01*
X86081438Y-106540637D01*
X86058307Y-106568598D01*
X86050317Y-106577378D01*
X85347302Y-107280393D01*
X85284990Y-107314419D01*
X85214175Y-107309354D01*
X85157339Y-107266807D01*
X85137311Y-107226797D01*
X85128525Y-107196876D01*
X85127135Y-107195671D01*
X85119452Y-107194000D01*
X83909500Y-107194000D01*
X83841379Y-107173998D01*
X83794886Y-107120342D01*
X83783500Y-107068000D01*
X83783500Y-106667885D01*
X84291500Y-106667885D01*
X84295975Y-106683124D01*
X84297365Y-106684329D01*
X84305048Y-106686000D01*
X85114884Y-106686000D01*
X85130123Y-106681525D01*
X85131328Y-106680135D01*
X85132999Y-106672452D01*
X85132999Y-106417905D01*
X85132662Y-106411386D01*
X85122743Y-106315794D01*
X85119851Y-106302400D01*
X85068412Y-106148216D01*
X85062239Y-106135038D01*
X84976937Y-105997193D01*
X84967901Y-105985792D01*
X84853171Y-105871261D01*
X84841760Y-105862249D01*
X84703757Y-105777184D01*
X84690576Y-105771037D01*
X84536290Y-105719862D01*
X84522914Y-105716995D01*
X84428562Y-105707328D01*
X84422145Y-105707000D01*
X84309615Y-105707000D01*
X84294376Y-105711475D01*
X84293171Y-105712865D01*
X84291500Y-105720548D01*
X84291500Y-106667885D01*
X83783500Y-106667885D01*
X83783500Y-105725116D01*
X83779025Y-105709877D01*
X83777635Y-105708672D01*
X83769952Y-105707001D01*
X83652905Y-105707001D01*
X83646386Y-105707338D01*
X83550794Y-105717257D01*
X83537400Y-105720149D01*
X83383216Y-105771588D01*
X83370038Y-105777761D01*
X83232193Y-105863063D01*
X83220792Y-105872099D01*
X83106262Y-105986828D01*
X83099206Y-105995762D01*
X83041288Y-106036823D01*
X82970365Y-106040053D01*
X82908954Y-106004426D01*
X82902154Y-105996593D01*
X82898478Y-105990652D01*
X82773303Y-105865695D01*
X82767072Y-105861854D01*
X82628968Y-105776725D01*
X82628966Y-105776724D01*
X82622738Y-105772885D01*
X82542995Y-105746436D01*
X82461389Y-105719368D01*
X82461387Y-105719368D01*
X82454861Y-105717203D01*
X82448025Y-105716503D01*
X82448022Y-105716502D01*
X82404969Y-105712091D01*
X82350400Y-105706500D01*
X81574600Y-105706500D01*
X81571354Y-105706837D01*
X81571350Y-105706837D01*
X81475692Y-105716762D01*
X81475688Y-105716763D01*
X81468834Y-105717474D01*
X81462298Y-105719655D01*
X81462296Y-105719655D01*
X81445928Y-105725116D01*
X81301054Y-105773450D01*
X81150652Y-105866522D01*
X81025695Y-105991697D01*
X81021855Y-105997927D01*
X81021854Y-105997928D01*
X81013557Y-106011389D01*
X80932885Y-106142262D01*
X80922777Y-106172738D01*
X80919868Y-106181507D01*
X80879437Y-106239867D01*
X80813873Y-106267104D01*
X80774079Y-106265087D01*
X80749547Y-106259873D01*
X80749546Y-106259873D01*
X80743087Y-106258500D01*
X80552113Y-106258500D01*
X80545661Y-106259872D01*
X80545656Y-106259872D01*
X80458713Y-106278353D01*
X80365312Y-106298206D01*
X80359282Y-106300891D01*
X80359281Y-106300891D01*
X80196878Y-106373197D01*
X80196876Y-106373198D01*
X80190848Y-106375882D01*
X80185507Y-106379762D01*
X80185506Y-106379763D01*
X80179062Y-106384445D01*
X80036347Y-106488134D01*
X80031926Y-106493044D01*
X80031925Y-106493045D01*
X79959778Y-106573173D01*
X79908560Y-106630056D01*
X79813073Y-106795444D01*
X79754058Y-106977072D01*
X79734096Y-107167000D01*
X79754058Y-107356928D01*
X79813073Y-107538556D01*
X79908560Y-107703944D01*
X79912978Y-107708851D01*
X79912979Y-107708852D01*
X80031531Y-107840517D01*
X80036347Y-107845866D01*
X80190848Y-107958118D01*
X80196876Y-107960802D01*
X80196878Y-107960803D01*
X80359281Y-108033109D01*
X80365312Y-108035794D01*
X80458713Y-108055647D01*
X80545656Y-108074128D01*
X80545661Y-108074128D01*
X80552113Y-108075500D01*
X80743087Y-108075500D01*
X80749539Y-108074128D01*
X80749544Y-108074128D01*
X80836488Y-108055647D01*
X80929888Y-108035794D01*
X80978154Y-108014305D01*
X80998927Y-108005056D01*
X81020433Y-107995481D01*
X81090800Y-107986047D01*
X81148569Y-108011182D01*
X81151697Y-108014305D01*
X81188784Y-108037166D01*
X81295369Y-108102866D01*
X81302262Y-108107115D01*
X81361768Y-108126852D01*
X81463611Y-108160632D01*
X81463613Y-108160632D01*
X81470139Y-108162797D01*
X81476975Y-108163497D01*
X81476978Y-108163498D01*
X81520031Y-108167909D01*
X81574600Y-108173500D01*
X82350400Y-108173500D01*
X82353646Y-108173163D01*
X82353650Y-108173163D01*
X82449308Y-108163238D01*
X82449312Y-108163237D01*
X82456166Y-108162526D01*
X82462702Y-108160345D01*
X82462704Y-108160345D01*
X82594806Y-108116272D01*
X82623946Y-108106550D01*
X82774348Y-108013478D01*
X82899305Y-107888303D01*
X82902102Y-107883765D01*
X82959353Y-107843176D01*
X83030276Y-107839946D01*
X83091687Y-107875572D01*
X83099062Y-107884068D01*
X83107098Y-107894207D01*
X83221828Y-108008738D01*
X83224987Y-108011233D01*
X83226584Y-108013486D01*
X83227009Y-108013910D01*
X83226936Y-108013983D01*
X83266048Y-108069152D01*
X83269278Y-108140075D01*
X83235987Y-108199208D01*
X82656051Y-108779144D01*
X82593739Y-108813170D01*
X82527289Y-108809642D01*
X82504861Y-108802203D01*
X82498028Y-108801503D01*
X82498024Y-108801502D01*
X82442148Y-108795778D01*
X82400400Y-108791500D01*
X81599600Y-108791500D01*
X81596354Y-108791837D01*
X81596350Y-108791837D01*
X81500692Y-108801762D01*
X81500688Y-108801763D01*
X81493834Y-108802474D01*
X81487298Y-108804655D01*
X81487296Y-108804655D01*
X81355194Y-108848728D01*
X81326054Y-108858450D01*
X81175652Y-108951522D01*
X81050695Y-109076697D01*
X81046855Y-109082927D01*
X81046854Y-109082928D01*
X81028160Y-109113256D01*
X80957885Y-109227262D01*
X80902203Y-109395139D01*
X80901503Y-109401975D01*
X80901502Y-109401978D01*
X80898680Y-109429521D01*
X80891500Y-109499600D01*
X80891500Y-110500400D01*
X80902474Y-110606166D01*
X80902812Y-110607178D01*
X80897801Y-110675737D01*
X80855167Y-110732507D01*
X80810909Y-110752552D01*
X80811052Y-110752992D01*
X80807110Y-110754273D01*
X80806019Y-110754767D01*
X80804775Y-110755031D01*
X80804764Y-110755035D01*
X80798312Y-110756406D01*
X80792282Y-110759091D01*
X80792281Y-110759091D01*
X80629878Y-110831397D01*
X80629876Y-110831398D01*
X80623848Y-110834082D01*
X80469347Y-110946334D01*
X80464926Y-110951244D01*
X80464925Y-110951245D01*
X80416247Y-111005308D01*
X80341560Y-111088256D01*
X80338259Y-111093974D01*
X80272332Y-111208163D01*
X80246073Y-111253644D01*
X80187058Y-111435272D01*
X80167096Y-111625200D01*
X80187058Y-111815128D01*
X80246073Y-111996756D01*
X80249376Y-112002478D01*
X80249377Y-112002479D01*
X80252552Y-112007978D01*
X80341560Y-112162144D01*
X80374081Y-112198263D01*
X80404797Y-112262268D01*
X80396033Y-112332722D01*
X80388897Y-112346710D01*
X80335855Y-112436399D01*
X80333644Y-112444010D01*
X80333643Y-112444012D01*
X80331461Y-112451522D01*
X80289438Y-112596169D01*
X80288934Y-112602574D01*
X80288933Y-112602579D01*
X80286693Y-112631042D01*
X80286500Y-112633498D01*
X80286500Y-114416502D01*
X80286693Y-114418950D01*
X80286693Y-114418958D01*
X80288927Y-114447333D01*
X80289438Y-114453831D01*
X80315596Y-114543868D01*
X80333586Y-114605790D01*
X80335855Y-114613601D01*
X80339892Y-114620427D01*
X80416509Y-114749980D01*
X80416511Y-114749983D01*
X80420547Y-114756807D01*
X80538193Y-114874453D01*
X80545017Y-114878489D01*
X80545020Y-114878491D01*
X80652589Y-114942107D01*
X80681399Y-114959145D01*
X80689010Y-114961356D01*
X80689012Y-114961357D01*
X80741231Y-114976528D01*
X80841169Y-115005562D01*
X80847574Y-115006066D01*
X80847579Y-115006067D01*
X80876042Y-115008307D01*
X80876050Y-115008307D01*
X80878498Y-115008500D01*
X81144805Y-115008500D01*
X81212926Y-115028502D01*
X81259419Y-115082158D01*
X81269523Y-115152432D01*
X81240029Y-115217012D01*
X81233900Y-115223595D01*
X76923595Y-119533900D01*
X76861283Y-119567926D01*
X76790468Y-119562861D01*
X76733632Y-119520314D01*
X76708821Y-119453794D01*
X76708500Y-119444805D01*
X76708500Y-99060000D01*
X87286526Y-99060000D01*
X87306391Y-99312403D01*
X87365495Y-99558591D01*
X87367388Y-99563162D01*
X87367389Y-99563164D01*
X87457654Y-99781082D01*
X87462384Y-99792502D01*
X87594672Y-100008376D01*
X87759102Y-100200898D01*
X87951624Y-100365328D01*
X88167498Y-100497616D01*
X88172068Y-100499509D01*
X88172072Y-100499511D01*
X88396836Y-100592611D01*
X88401409Y-100594505D01*
X88446978Y-100605445D01*
X88642784Y-100652454D01*
X88642790Y-100652455D01*
X88647597Y-100653609D01*
X88900000Y-100673474D01*
X89152403Y-100653609D01*
X89157210Y-100652455D01*
X89157216Y-100652454D01*
X89353022Y-100605445D01*
X89398591Y-100594505D01*
X89403164Y-100592611D01*
X89627928Y-100499511D01*
X89627932Y-100499509D01*
X89632502Y-100497616D01*
X89848376Y-100365328D01*
X90040898Y-100200898D01*
X90205328Y-100008376D01*
X90337616Y-99792502D01*
X90342347Y-99781082D01*
X90432611Y-99563164D01*
X90432612Y-99563162D01*
X90434505Y-99558591D01*
X90493609Y-99312403D01*
X90513474Y-99060000D01*
X90493609Y-98807597D01*
X90473555Y-98724063D01*
X90442659Y-98595375D01*
X90434505Y-98561409D01*
X90411440Y-98505724D01*
X90339511Y-98332072D01*
X90339509Y-98332068D01*
X90337616Y-98327498D01*
X90205328Y-98111624D01*
X90040898Y-97919102D01*
X89848376Y-97754672D01*
X89632502Y-97622384D01*
X89627932Y-97620491D01*
X89627928Y-97620489D01*
X89403164Y-97527389D01*
X89403162Y-97527388D01*
X89398591Y-97525495D01*
X89313968Y-97505179D01*
X89157216Y-97467546D01*
X89157210Y-97467545D01*
X89152403Y-97466391D01*
X88900000Y-97446526D01*
X88647597Y-97466391D01*
X88642790Y-97467545D01*
X88642784Y-97467546D01*
X88486032Y-97505179D01*
X88401409Y-97525495D01*
X88396838Y-97527388D01*
X88396836Y-97527389D01*
X88172072Y-97620489D01*
X88172068Y-97620491D01*
X88167498Y-97622384D01*
X87951624Y-97754672D01*
X87759102Y-97919102D01*
X87594672Y-98111624D01*
X87462384Y-98327498D01*
X87460491Y-98332068D01*
X87460489Y-98332072D01*
X87388560Y-98505724D01*
X87365495Y-98561409D01*
X87357341Y-98595375D01*
X87326446Y-98724063D01*
X87306391Y-98807597D01*
X87286526Y-99060000D01*
X76708500Y-99060000D01*
X76708500Y-95492051D01*
X76728502Y-95423930D01*
X76782158Y-95377437D01*
X76852432Y-95367333D01*
X76917012Y-95396827D01*
X76927246Y-95406763D01*
X76927639Y-95407190D01*
X76930313Y-95410528D01*
X77138851Y-95608423D01*
X77372317Y-95776186D01*
X77376112Y-95778195D01*
X77376113Y-95778196D01*
X77397869Y-95789715D01*
X77626392Y-95910712D01*
X77896373Y-96009511D01*
X78177264Y-96070755D01*
X78205841Y-96073004D01*
X78400282Y-96088307D01*
X78400291Y-96088307D01*
X78402739Y-96088500D01*
X78558271Y-96088500D01*
X78560407Y-96088354D01*
X78560418Y-96088354D01*
X78768548Y-96074165D01*
X78768554Y-96074164D01*
X78772825Y-96073873D01*
X78777020Y-96073004D01*
X78777022Y-96073004D01*
X78913584Y-96044723D01*
X79054342Y-96015574D01*
X79325343Y-95919607D01*
X79413362Y-95874177D01*
X79577005Y-95789715D01*
X79577006Y-95789715D01*
X79580812Y-95787750D01*
X79584313Y-95785289D01*
X79584317Y-95785287D01*
X79746189Y-95671521D01*
X79816023Y-95622441D01*
X80001709Y-95449891D01*
X80023479Y-95429661D01*
X80023481Y-95429658D01*
X80026622Y-95426740D01*
X80208713Y-95204268D01*
X80358927Y-94959142D01*
X80445379Y-94762200D01*
X80472757Y-94699830D01*
X80474483Y-94695898D01*
X80498617Y-94611177D01*
X80532831Y-94491065D01*
X80553244Y-94419406D01*
X80593751Y-94134784D01*
X80593792Y-94127065D01*
X80595235Y-93851583D01*
X80595235Y-93851576D01*
X80595257Y-93847297D01*
X80592652Y-93827505D01*
X80572868Y-93677239D01*
X80557732Y-93562266D01*
X80554671Y-93551075D01*
X80531584Y-93466683D01*
X80481871Y-93284964D01*
X80462069Y-93238540D01*
X80370763Y-93024476D01*
X80370761Y-93024472D01*
X80369077Y-93020524D01*
X80272583Y-92859295D01*
X80223643Y-92777521D01*
X80223640Y-92777517D01*
X80221439Y-92773839D01*
X80041687Y-92549472D01*
X79878403Y-92394521D01*
X79836258Y-92354527D01*
X79836255Y-92354525D01*
X79833149Y-92351577D01*
X79599683Y-92183814D01*
X79577843Y-92172250D01*
X79554654Y-92159972D01*
X79345608Y-92049288D01*
X79184055Y-91990168D01*
X79079658Y-91951964D01*
X79079656Y-91951963D01*
X79075627Y-91950489D01*
X78794736Y-91889245D01*
X78763685Y-91886801D01*
X78571718Y-91871693D01*
X78571709Y-91871693D01*
X78569261Y-91871500D01*
X78413729Y-91871500D01*
X78411593Y-91871646D01*
X78411582Y-91871646D01*
X78203452Y-91885835D01*
X78203446Y-91885836D01*
X78199175Y-91886127D01*
X78194980Y-91886996D01*
X78194978Y-91886996D01*
X78102081Y-91906234D01*
X77917658Y-91944426D01*
X77646657Y-92040393D01*
X77391188Y-92172250D01*
X77387687Y-92174711D01*
X77387683Y-92174713D01*
X77323490Y-92219829D01*
X77155977Y-92337559D01*
X77094679Y-92394521D01*
X76961643Y-92518146D01*
X76945378Y-92533260D01*
X76934521Y-92546525D01*
X76932004Y-92549600D01*
X76873380Y-92589645D01*
X76802411Y-92591639D01*
X76741630Y-92554948D01*
X76710335Y-92491221D01*
X76708500Y-92469794D01*
X76708500Y-84374000D01*
X79180441Y-84374000D01*
X79200655Y-84695299D01*
X79260980Y-85011531D01*
X79360463Y-85317709D01*
X79362150Y-85321295D01*
X79362152Y-85321299D01*
X79495848Y-85605418D01*
X79495852Y-85605425D01*
X79497536Y-85609004D01*
X79499660Y-85612350D01*
X79499660Y-85612351D01*
X79528563Y-85657895D01*
X79670037Y-85880822D01*
X79875246Y-86128877D01*
X79978389Y-86225735D01*
X80100335Y-86340249D01*
X80109926Y-86349256D01*
X80113128Y-86351583D01*
X80113130Y-86351584D01*
X80152799Y-86380405D01*
X80370376Y-86538484D01*
X80652490Y-86693578D01*
X80951817Y-86812089D01*
X80955647Y-86813072D01*
X80955655Y-86813075D01*
X81152313Y-86863568D01*
X81263637Y-86892151D01*
X81267565Y-86892647D01*
X81267569Y-86892648D01*
X81358492Y-86904134D01*
X81583033Y-86932500D01*
X81904967Y-86932500D01*
X82129508Y-86904134D01*
X82220431Y-86892648D01*
X82220435Y-86892647D01*
X82224363Y-86892151D01*
X82335687Y-86863568D01*
X82532345Y-86813075D01*
X82532353Y-86813072D01*
X82536183Y-86812089D01*
X82835510Y-86693578D01*
X83117624Y-86538484D01*
X83335201Y-86380405D01*
X83374870Y-86351584D01*
X83374872Y-86351583D01*
X83378074Y-86349256D01*
X83387666Y-86340249D01*
X83509611Y-86225735D01*
X83612754Y-86128877D01*
X83817963Y-85880822D01*
X83959437Y-85657895D01*
X83988340Y-85612351D01*
X83988340Y-85612350D01*
X83990464Y-85609004D01*
X83992148Y-85605425D01*
X83992152Y-85605418D01*
X84125848Y-85321299D01*
X84125850Y-85321295D01*
X84127537Y-85317709D01*
X84227020Y-85011531D01*
X84287345Y-84695299D01*
X84307559Y-84374000D01*
X84287345Y-84052701D01*
X84227020Y-83736469D01*
X84127537Y-83430291D01*
X84110510Y-83394106D01*
X84056533Y-83279399D01*
X86385500Y-83279399D01*
X86385501Y-85468600D01*
X86385662Y-85470841D01*
X86385662Y-85470852D01*
X86393236Y-85576525D01*
X86396240Y-85618433D01*
X86397299Y-85623093D01*
X86397299Y-85623095D01*
X86425358Y-85746594D01*
X86450912Y-85859071D01*
X86452806Y-85863759D01*
X86452807Y-85863762D01*
X86521903Y-86034779D01*
X86543354Y-86087872D01*
X86545974Y-86092199D01*
X86545977Y-86092204D01*
X86641705Y-86250270D01*
X86671187Y-86298951D01*
X86831124Y-86486876D01*
X87019049Y-86646813D01*
X87023381Y-86649436D01*
X87023383Y-86649438D01*
X87225796Y-86772023D01*
X87225801Y-86772026D01*
X87230128Y-86774646D01*
X87234817Y-86776540D01*
X87234822Y-86776543D01*
X87454238Y-86865193D01*
X87454241Y-86865194D01*
X87458929Y-86867088D01*
X87699567Y-86921760D01*
X87704332Y-86922102D01*
X87704335Y-86922102D01*
X87847149Y-86932339D01*
X87847157Y-86932339D01*
X87849399Y-86932500D01*
X88944000Y-86932500D01*
X90038600Y-86932499D01*
X90040841Y-86932338D01*
X90040852Y-86932338D01*
X90183666Y-86922102D01*
X90183670Y-86922101D01*
X90188433Y-86921760D01*
X90193093Y-86920701D01*
X90193095Y-86920701D01*
X90424137Y-86868209D01*
X90429071Y-86867088D01*
X90433759Y-86865194D01*
X90433762Y-86865193D01*
X90653178Y-86776543D01*
X90653183Y-86776540D01*
X90657872Y-86774646D01*
X90662199Y-86772026D01*
X90662204Y-86772023D01*
X90864617Y-86649438D01*
X90864619Y-86649436D01*
X90868951Y-86646813D01*
X91056876Y-86486876D01*
X91216813Y-86298951D01*
X91246295Y-86250270D01*
X91342023Y-86092204D01*
X91342026Y-86092199D01*
X91344646Y-86087872D01*
X91366098Y-86034779D01*
X91435193Y-85863762D01*
X91435194Y-85863759D01*
X91437088Y-85859071D01*
X91491760Y-85618433D01*
X91494563Y-85579329D01*
X91502339Y-85470851D01*
X91502339Y-85470843D01*
X91502500Y-85468601D01*
X91502499Y-83279400D01*
X91497129Y-83204465D01*
X91492102Y-83134334D01*
X91492101Y-83134330D01*
X91491760Y-83129567D01*
X91490701Y-83124903D01*
X91438209Y-82893863D01*
X91437088Y-82888929D01*
X91427068Y-82864129D01*
X91346543Y-82664822D01*
X91346540Y-82664817D01*
X91344646Y-82660128D01*
X91342026Y-82655801D01*
X91342023Y-82655796D01*
X91219438Y-82453383D01*
X91219436Y-82453381D01*
X91216813Y-82449049D01*
X91056876Y-82261124D01*
X90868951Y-82101187D01*
X90794883Y-82056330D01*
X90662204Y-81975977D01*
X90662199Y-81975974D01*
X90657872Y-81973354D01*
X90653183Y-81971460D01*
X90653178Y-81971457D01*
X90433762Y-81882807D01*
X90433759Y-81882806D01*
X90429071Y-81880912D01*
X90188433Y-81826240D01*
X90183668Y-81825898D01*
X90183665Y-81825898D01*
X90040851Y-81815661D01*
X90040843Y-81815661D01*
X90038601Y-81815500D01*
X90036338Y-81815500D01*
X88944001Y-81815501D01*
X87849400Y-81815501D01*
X87847159Y-81815662D01*
X87847148Y-81815662D01*
X87704334Y-81825898D01*
X87704330Y-81825899D01*
X87699567Y-81826240D01*
X87694907Y-81827299D01*
X87694905Y-81827299D01*
X87552826Y-81859579D01*
X87458929Y-81880912D01*
X87454241Y-81882806D01*
X87454238Y-81882807D01*
X87234822Y-81971457D01*
X87234817Y-81971460D01*
X87230128Y-81973354D01*
X87225801Y-81975974D01*
X87225796Y-81975977D01*
X87093117Y-82056330D01*
X87019049Y-82101187D01*
X86831124Y-82261124D01*
X86671187Y-82449049D01*
X86668564Y-82453381D01*
X86668562Y-82453383D01*
X86545977Y-82655796D01*
X86545974Y-82655801D01*
X86543354Y-82660128D01*
X86541460Y-82664817D01*
X86541457Y-82664822D01*
X86460932Y-82864129D01*
X86450912Y-82888929D01*
X86396240Y-83129567D01*
X86385500Y-83279399D01*
X84056533Y-83279399D01*
X83992152Y-83142582D01*
X83992148Y-83142575D01*
X83990464Y-83138996D01*
X83817963Y-82867178D01*
X83612754Y-82619123D01*
X83405989Y-82424958D01*
X83380961Y-82401455D01*
X83380960Y-82401454D01*
X83378074Y-82398744D01*
X83340575Y-82371499D01*
X83223388Y-82286358D01*
X83117624Y-82209516D01*
X82835510Y-82054422D01*
X82536183Y-81935911D01*
X82532353Y-81934928D01*
X82532345Y-81934925D01*
X82321825Y-81880873D01*
X82224363Y-81855849D01*
X82220435Y-81855353D01*
X82220431Y-81855352D01*
X82093838Y-81839360D01*
X81904967Y-81815500D01*
X81583033Y-81815500D01*
X81394162Y-81839360D01*
X81267569Y-81855352D01*
X81267565Y-81855353D01*
X81263637Y-81855849D01*
X81166175Y-81880873D01*
X80955655Y-81934925D01*
X80955647Y-81934928D01*
X80951817Y-81935911D01*
X80652490Y-82054422D01*
X80370376Y-82209516D01*
X80264612Y-82286358D01*
X80147426Y-82371499D01*
X80109926Y-82398744D01*
X80107040Y-82401454D01*
X80107039Y-82401455D01*
X80082011Y-82424958D01*
X79875246Y-82619123D01*
X79670037Y-82867178D01*
X79497536Y-83138996D01*
X79495852Y-83142575D01*
X79495848Y-83142582D01*
X79377490Y-83394106D01*
X79360463Y-83430291D01*
X79260980Y-83736469D01*
X79200655Y-84052701D01*
X79180441Y-84374000D01*
X76708500Y-84374000D01*
X76708500Y-76834500D01*
X76728502Y-76766379D01*
X76782158Y-76719886D01*
X76834500Y-76708500D01*
X77805797Y-76708500D01*
X77873918Y-76728502D01*
G37*
%TD.AperFunction*%
%TA.AperFunction,Conductor*%
G36*
X100546121Y-123766002D02*
G01*
X100592614Y-123819658D01*
X100604000Y-123872000D01*
X100604000Y-125239884D01*
X100608475Y-125255123D01*
X100609865Y-125256328D01*
X100617548Y-125257999D01*
X100894669Y-125257999D01*
X100901490Y-125257629D01*
X100952349Y-125252105D01*
X100969764Y-125247965D01*
X101028058Y-125247966D01*
X101032284Y-125248971D01*
X101039684Y-125251745D01*
X101101866Y-125258500D01*
X102198134Y-125258500D01*
X102260316Y-125251745D01*
X102396705Y-125200615D01*
X102513261Y-125113261D01*
X102600615Y-124996705D01*
X102651745Y-124860316D01*
X102658500Y-124798134D01*
X102658500Y-124759500D01*
X102678502Y-124691379D01*
X102732158Y-124644886D01*
X102784500Y-124633500D01*
X104837484Y-124633500D01*
X104905605Y-124653502D01*
X104952098Y-124707158D01*
X104955137Y-124714874D01*
X104956132Y-124716997D01*
X104958450Y-124723946D01*
X105051522Y-124874348D01*
X105176697Y-124999305D01*
X105182927Y-125003145D01*
X105182928Y-125003146D01*
X105320090Y-125087694D01*
X105327262Y-125092115D01*
X105391016Y-125113261D01*
X105488611Y-125145632D01*
X105488613Y-125145632D01*
X105495139Y-125147797D01*
X105501975Y-125148497D01*
X105501978Y-125148498D01*
X105545031Y-125152909D01*
X105599600Y-125158500D01*
X106210406Y-125158500D01*
X106278527Y-125178502D01*
X106299501Y-125195405D01*
X107215640Y-126111544D01*
X107249666Y-126173856D01*
X107244601Y-126244671D01*
X107202054Y-126301507D01*
X107152743Y-126323885D01*
X107121476Y-126330531D01*
X107121467Y-126330534D01*
X107115012Y-126331906D01*
X107108982Y-126334591D01*
X107108981Y-126334591D01*
X106946578Y-126406897D01*
X106946576Y-126406898D01*
X106940548Y-126409582D01*
X106786047Y-126521834D01*
X106781626Y-126526744D01*
X106781625Y-126526745D01*
X106675288Y-126644845D01*
X106658260Y-126663756D01*
X106562773Y-126829144D01*
X106503758Y-127010772D01*
X106503068Y-127017333D01*
X106503068Y-127017335D01*
X106497681Y-127068594D01*
X106489954Y-127142115D01*
X106486393Y-127175992D01*
X106459380Y-127241649D01*
X106450178Y-127251917D01*
X106357747Y-127344348D01*
X106349461Y-127351888D01*
X106342982Y-127356000D01*
X106337557Y-127361777D01*
X106296357Y-127405651D01*
X106293602Y-127408493D01*
X106273865Y-127428230D01*
X106271385Y-127431427D01*
X106263682Y-127440447D01*
X106233414Y-127472679D01*
X106229595Y-127479625D01*
X106229593Y-127479628D01*
X106223652Y-127490434D01*
X106212801Y-127506953D01*
X106200386Y-127522959D01*
X106197236Y-127530239D01*
X106194268Y-127535257D01*
X106142376Y-127583711D01*
X106102261Y-127596041D01*
X106022676Y-127606519D01*
X106015049Y-127609678D01*
X106015046Y-127609679D01*
X105972588Y-127627266D01*
X105880732Y-127665314D01*
X105758843Y-127758843D01*
X105753817Y-127765393D01*
X105753816Y-127765394D01*
X105740460Y-127782800D01*
X105665314Y-127880733D01*
X105606519Y-128022676D01*
X105591500Y-128136756D01*
X105591500Y-128619582D01*
X105578268Y-128671115D01*
X105579543Y-128671620D01*
X105576623Y-128678995D01*
X105572805Y-128685940D01*
X105570834Y-128693616D01*
X105570833Y-128693619D01*
X105567767Y-128705562D01*
X105561363Y-128724266D01*
X105553319Y-128742855D01*
X105552080Y-128750678D01*
X105552077Y-128750688D01*
X105546401Y-128786524D01*
X105543995Y-128798144D01*
X105533000Y-128840970D01*
X105533000Y-128861224D01*
X105531449Y-128880934D01*
X105528280Y-128900943D01*
X105529026Y-128908835D01*
X105532441Y-128944961D01*
X105533000Y-128956819D01*
X105533000Y-129465500D01*
X105512998Y-129533621D01*
X105459342Y-129580114D01*
X105407000Y-129591500D01*
X104136756Y-129591500D01*
X104132670Y-129592038D01*
X104132669Y-129592038D01*
X104093847Y-129597149D01*
X104022676Y-129606519D01*
X104015049Y-129609678D01*
X104015046Y-129609679D01*
X103951704Y-129635917D01*
X103880732Y-129665314D01*
X103758843Y-129758843D01*
X103753817Y-129765393D01*
X103753816Y-129765394D01*
X103741567Y-129781358D01*
X103665314Y-129880733D01*
X103606519Y-130022676D01*
X103591500Y-130136756D01*
X103591500Y-130363244D01*
X103592038Y-130367330D01*
X103592038Y-130367331D01*
X103606519Y-130477324D01*
X103604974Y-130477527D01*
X103604974Y-130522473D01*
X103606519Y-130522676D01*
X103599238Y-130577984D01*
X103591500Y-130636756D01*
X103591500Y-130863244D01*
X103592038Y-130867330D01*
X103592038Y-130867331D01*
X103606519Y-130977324D01*
X103604974Y-130977527D01*
X103604974Y-131022473D01*
X103606519Y-131022676D01*
X103591500Y-131136756D01*
X103591500Y-131363244D01*
X103592038Y-131367330D01*
X103592038Y-131367331D01*
X103606088Y-131474054D01*
X103595148Y-131544203D01*
X103548020Y-131597301D01*
X103481166Y-131616500D01*
X97939895Y-131616500D01*
X97871774Y-131596498D01*
X97850799Y-131579595D01*
X97028947Y-130757742D01*
X97021413Y-130749463D01*
X97017300Y-130742982D01*
X96967648Y-130696356D01*
X96964807Y-130693602D01*
X96945070Y-130673865D01*
X96941873Y-130671385D01*
X96932851Y-130663680D01*
X96929061Y-130660121D01*
X96900621Y-130633414D01*
X96893675Y-130629595D01*
X96893672Y-130629593D01*
X96882866Y-130623652D01*
X96866347Y-130612801D01*
X96865031Y-130611780D01*
X96850341Y-130600386D01*
X96843072Y-130597241D01*
X96843068Y-130597238D01*
X96809763Y-130582826D01*
X96799104Y-130577604D01*
X96773801Y-130563694D01*
X96723741Y-130513350D01*
X96708500Y-130453279D01*
X96708500Y-130101866D01*
X96701745Y-130039684D01*
X96650615Y-129903295D01*
X96563261Y-129786739D01*
X96446705Y-129699385D01*
X96310316Y-129648255D01*
X96248134Y-129641500D01*
X95759500Y-129641500D01*
X95691379Y-129621498D01*
X95644886Y-129567842D01*
X95633500Y-129515500D01*
X95633500Y-129212538D01*
X95653502Y-129144417D01*
X95707158Y-129097924D01*
X95719624Y-129093014D01*
X95791998Y-129068868D01*
X95798946Y-129066550D01*
X95949348Y-128973478D01*
X96074305Y-128848303D01*
X96134476Y-128750688D01*
X96163275Y-128703968D01*
X96163276Y-128703966D01*
X96167115Y-128697738D01*
X96222797Y-128529861D01*
X96233500Y-128425400D01*
X96233500Y-127649600D01*
X96230846Y-127624025D01*
X96243710Y-127554205D01*
X96267078Y-127521926D01*
X97460847Y-126328157D01*
X97469137Y-126320613D01*
X97475618Y-126316500D01*
X97481636Y-126310092D01*
X97522258Y-126266833D01*
X97525013Y-126263991D01*
X97544735Y-126244269D01*
X97547212Y-126241076D01*
X97554917Y-126232055D01*
X97575492Y-126210144D01*
X97585186Y-126199821D01*
X97589007Y-126192871D01*
X97594946Y-126182068D01*
X97605802Y-126165541D01*
X97613357Y-126155802D01*
X97613358Y-126155800D01*
X97618214Y-126149540D01*
X97635774Y-126108960D01*
X97640991Y-126098312D01*
X97658475Y-126066509D01*
X97658476Y-126066507D01*
X97662295Y-126059560D01*
X97664725Y-126050098D01*
X97667333Y-126039938D01*
X97673737Y-126021234D01*
X97678633Y-126009920D01*
X97678633Y-126009919D01*
X97681781Y-126002645D01*
X97683020Y-125994822D01*
X97683023Y-125994812D01*
X97688699Y-125958976D01*
X97691105Y-125947356D01*
X97700128Y-125912211D01*
X97700128Y-125912210D01*
X97702100Y-125904530D01*
X97702100Y-125884276D01*
X97703651Y-125864565D01*
X97705580Y-125852386D01*
X97706820Y-125844557D01*
X97707365Y-125844643D01*
X97727791Y-125782380D01*
X97742503Y-125764701D01*
X99126906Y-124380299D01*
X99189218Y-124346273D01*
X99260034Y-124351338D01*
X99316869Y-124393885D01*
X99341680Y-124460405D01*
X99342001Y-124469394D01*
X99342001Y-124794669D01*
X99342371Y-124801490D01*
X99347895Y-124852352D01*
X99351521Y-124867604D01*
X99396676Y-124988054D01*
X99405214Y-125003649D01*
X99481715Y-125105724D01*
X99494276Y-125118285D01*
X99596351Y-125194786D01*
X99611946Y-125203324D01*
X99732394Y-125248478D01*
X99747649Y-125252105D01*
X99798514Y-125257631D01*
X99805328Y-125258000D01*
X100077885Y-125258000D01*
X100093124Y-125253525D01*
X100094329Y-125252135D01*
X100096000Y-125244452D01*
X100096000Y-123872000D01*
X100116002Y-123803879D01*
X100169658Y-123757386D01*
X100222000Y-123746000D01*
X100478000Y-123746000D01*
X100546121Y-123766002D01*
G37*
%TD.AperFunction*%
%TA.AperFunction,Conductor*%
G36*
X114291318Y-99526847D02*
G01*
X114336736Y-99555940D01*
X121941230Y-107160435D01*
X129476995Y-114696200D01*
X129511021Y-114758512D01*
X129513900Y-114785295D01*
X129513900Y-120426923D01*
X129493898Y-120495044D01*
X129488727Y-120502487D01*
X129474770Y-120521109D01*
X129474768Y-120521112D01*
X129469385Y-120528295D01*
X129466234Y-120536701D01*
X129461923Y-120544575D01*
X129459543Y-120543272D01*
X129425336Y-120588804D01*
X129358773Y-120613501D01*
X129289425Y-120598291D01*
X129239309Y-120548003D01*
X129236067Y-120540903D01*
X129233766Y-120536701D01*
X129230615Y-120528295D01*
X129143261Y-120411739D01*
X129026705Y-120324385D01*
X128890316Y-120273255D01*
X128828134Y-120266500D01*
X127171866Y-120266500D01*
X127109684Y-120273255D01*
X126973295Y-120324385D01*
X126856739Y-120411739D01*
X126851358Y-120418919D01*
X126845008Y-120425269D01*
X126843373Y-120423634D01*
X126796641Y-120458579D01*
X126752671Y-120466500D01*
X125549363Y-120466500D01*
X125538179Y-120465973D01*
X125530691Y-120464299D01*
X125522768Y-120464548D01*
X125462633Y-120466438D01*
X125458675Y-120466500D01*
X125430744Y-120466500D01*
X125426829Y-120466995D01*
X125426825Y-120466995D01*
X125426767Y-120467003D01*
X125426738Y-120467006D01*
X125414896Y-120467939D01*
X125370710Y-120469327D01*
X125353344Y-120474372D01*
X125351258Y-120474978D01*
X125331906Y-120478986D01*
X125319668Y-120480532D01*
X125319666Y-120480533D01*
X125311803Y-120481526D01*
X125270686Y-120497806D01*
X125259485Y-120501641D01*
X125217006Y-120513982D01*
X125210187Y-120518015D01*
X125210182Y-120518017D01*
X125199571Y-120524293D01*
X125181821Y-120532990D01*
X125162983Y-120540448D01*
X125156567Y-120545109D01*
X125156566Y-120545110D01*
X125127225Y-120566428D01*
X125117301Y-120572947D01*
X125086060Y-120591422D01*
X125086055Y-120591426D01*
X125079237Y-120595458D01*
X125064913Y-120609782D01*
X125049881Y-120622621D01*
X125033493Y-120634528D01*
X125008546Y-120664684D01*
X125005312Y-120668593D01*
X124997322Y-120677373D01*
X118304800Y-127369895D01*
X118242488Y-127403921D01*
X118215705Y-127406800D01*
X117258846Y-127406800D01*
X117190725Y-127386798D01*
X117144232Y-127333142D01*
X117133536Y-127267629D01*
X117136104Y-127243200D01*
X117131304Y-127197526D01*
X117116832Y-127059835D01*
X117116832Y-127059833D01*
X117116142Y-127053272D01*
X117057127Y-126871644D01*
X117036702Y-126836266D01*
X117000721Y-126773946D01*
X116961640Y-126706256D01*
X116945481Y-126688309D01*
X116838275Y-126569245D01*
X116838274Y-126569244D01*
X116833853Y-126564334D01*
X116679352Y-126452082D01*
X116673324Y-126449398D01*
X116673322Y-126449397D01*
X116510919Y-126377091D01*
X116510918Y-126377091D01*
X116504888Y-126374406D01*
X116411487Y-126354553D01*
X116324544Y-126336072D01*
X116324539Y-126336072D01*
X116318087Y-126334700D01*
X116127113Y-126334700D01*
X116120661Y-126336072D01*
X116120656Y-126336072D01*
X116033713Y-126354553D01*
X115940312Y-126374406D01*
X115934282Y-126377091D01*
X115934281Y-126377091D01*
X115771878Y-126449397D01*
X115771876Y-126449398D01*
X115765848Y-126452082D01*
X115611347Y-126564334D01*
X115606932Y-126569237D01*
X115602020Y-126573660D01*
X115600895Y-126572411D01*
X115547586Y-126605251D01*
X115514400Y-126609700D01*
X111609468Y-126609700D01*
X111598285Y-126609173D01*
X111590792Y-126607498D01*
X111582866Y-126607747D01*
X111582865Y-126607747D01*
X111522702Y-126609638D01*
X111518744Y-126609700D01*
X111490844Y-126609700D01*
X111486854Y-126610204D01*
X111475020Y-126611136D01*
X111430811Y-126612526D01*
X111423195Y-126614739D01*
X111423193Y-126614739D01*
X111411352Y-126618179D01*
X111391993Y-126622188D01*
X111390683Y-126622354D01*
X111371903Y-126624726D01*
X111364537Y-126627642D01*
X111364531Y-126627644D01*
X111330798Y-126641000D01*
X111319568Y-126644845D01*
X111284717Y-126654970D01*
X111277107Y-126657181D01*
X111270284Y-126661216D01*
X111259666Y-126667495D01*
X111241913Y-126676192D01*
X111234268Y-126679219D01*
X111223083Y-126683648D01*
X111216668Y-126688309D01*
X111187312Y-126709637D01*
X111177395Y-126716151D01*
X111139338Y-126738658D01*
X111125017Y-126752979D01*
X111109984Y-126765819D01*
X111093593Y-126777728D01*
X111088542Y-126783833D01*
X111088537Y-126783838D01*
X111065401Y-126811804D01*
X111057413Y-126820582D01*
X110357747Y-127520248D01*
X110349461Y-127527788D01*
X110342982Y-127531900D01*
X110327845Y-127548020D01*
X110324340Y-127551752D01*
X110263127Y-127587718D01*
X110232489Y-127591500D01*
X110136756Y-127591500D01*
X110132670Y-127592038D01*
X110132669Y-127592038D01*
X110022676Y-127606519D01*
X110022473Y-127604974D01*
X109977527Y-127604974D01*
X109977324Y-127606519D01*
X109867331Y-127592038D01*
X109867330Y-127592038D01*
X109863244Y-127591500D01*
X109636756Y-127591500D01*
X109632670Y-127592038D01*
X109632669Y-127592038D01*
X109522676Y-127606519D01*
X109522473Y-127604974D01*
X109477527Y-127604974D01*
X109477324Y-127606519D01*
X109367331Y-127592038D01*
X109367330Y-127592038D01*
X109363244Y-127591500D01*
X109136756Y-127591500D01*
X109132670Y-127592038D01*
X109132669Y-127592038D01*
X109025946Y-127606088D01*
X108955797Y-127595148D01*
X108902699Y-127548020D01*
X108883500Y-127481166D01*
X108883500Y-126328768D01*
X108884027Y-126317585D01*
X108885702Y-126310092D01*
X108883562Y-126242001D01*
X108883500Y-126238044D01*
X108883500Y-126210144D01*
X108882996Y-126206153D01*
X108882063Y-126194311D01*
X108881679Y-126182068D01*
X108880674Y-126150111D01*
X108875021Y-126130652D01*
X108871012Y-126111293D01*
X108870029Y-126103514D01*
X108868474Y-126091203D01*
X108865558Y-126083837D01*
X108865556Y-126083831D01*
X108852200Y-126050098D01*
X108848355Y-126038868D01*
X108838230Y-126004017D01*
X108838230Y-126004016D01*
X108836019Y-125996407D01*
X108825705Y-125978966D01*
X108817008Y-125961213D01*
X108812472Y-125949758D01*
X108809552Y-125942383D01*
X108783563Y-125906612D01*
X108777047Y-125896692D01*
X108758578Y-125865463D01*
X108754542Y-125858638D01*
X108740221Y-125844317D01*
X108727380Y-125829283D01*
X108720131Y-125819306D01*
X108715472Y-125812893D01*
X108681395Y-125784702D01*
X108672616Y-125776712D01*
X108269499Y-125373595D01*
X108235473Y-125311283D01*
X108240538Y-125240468D01*
X108283085Y-125183632D01*
X108349605Y-125158821D01*
X108358594Y-125158500D01*
X108400400Y-125158500D01*
X108403646Y-125158163D01*
X108403650Y-125158163D01*
X108499308Y-125148238D01*
X108499312Y-125148237D01*
X108506166Y-125147526D01*
X108512702Y-125145345D01*
X108512704Y-125145345D01*
X108644806Y-125101272D01*
X108673946Y-125091550D01*
X108824348Y-124998478D01*
X108949305Y-124873303D01*
X108953499Y-124866500D01*
X109027410Y-124746594D01*
X109080183Y-124699101D01*
X109150254Y-124687677D01*
X109185919Y-124697603D01*
X109245087Y-124723946D01*
X109263612Y-124732194D01*
X109357013Y-124752047D01*
X109443956Y-124770528D01*
X109443961Y-124770528D01*
X109450413Y-124771900D01*
X109641387Y-124771900D01*
X109647839Y-124770528D01*
X109647844Y-124770528D01*
X109734787Y-124752047D01*
X109828188Y-124732194D01*
X109834219Y-124729509D01*
X109996622Y-124657203D01*
X109996624Y-124657202D01*
X110002652Y-124654518D01*
X110050015Y-124620107D01*
X110127760Y-124563621D01*
X110157153Y-124542266D01*
X110161575Y-124537355D01*
X110280521Y-124405252D01*
X110280522Y-124405251D01*
X110284940Y-124400344D01*
X110367598Y-124257176D01*
X110377123Y-124240679D01*
X110377124Y-124240678D01*
X110380427Y-124234956D01*
X110439442Y-124053328D01*
X110447430Y-123977332D01*
X110458714Y-123869965D01*
X110459404Y-123863400D01*
X110452685Y-123799470D01*
X110440132Y-123680035D01*
X110440132Y-123680033D01*
X110439442Y-123673472D01*
X110380427Y-123491844D01*
X110347791Y-123435316D01*
X110313851Y-123376531D01*
X110284940Y-123326456D01*
X110227294Y-123262433D01*
X110161575Y-123189445D01*
X110161574Y-123189444D01*
X110157153Y-123184534D01*
X110002652Y-123072282D01*
X109996624Y-123069598D01*
X109996622Y-123069597D01*
X109834219Y-122997291D01*
X109834218Y-122997291D01*
X109828188Y-122994606D01*
X109734788Y-122974753D01*
X109647844Y-122956272D01*
X109647839Y-122956272D01*
X109641387Y-122954900D01*
X109450413Y-122954900D01*
X109443961Y-122956272D01*
X109443956Y-122956272D01*
X109357012Y-122974753D01*
X109263612Y-122994606D01*
X109257585Y-122997289D01*
X109257577Y-122997292D01*
X109100974Y-123067016D01*
X109030607Y-123076450D01*
X108966310Y-123046343D01*
X108951831Y-123031071D01*
X108948478Y-123025652D01*
X108823303Y-122900695D01*
X108817072Y-122896854D01*
X108678968Y-122811725D01*
X108678966Y-122811724D01*
X108672738Y-122807885D01*
X108512254Y-122754655D01*
X108511389Y-122754368D01*
X108511387Y-122754368D01*
X108504861Y-122752203D01*
X108498025Y-122751503D01*
X108498022Y-122751502D01*
X108444593Y-122746028D01*
X108400400Y-122741500D01*
X107599600Y-122741500D01*
X107596354Y-122741837D01*
X107596350Y-122741837D01*
X107500692Y-122751762D01*
X107500688Y-122751763D01*
X107493834Y-122752474D01*
X107487298Y-122754655D01*
X107487296Y-122754655D01*
X107362673Y-122796233D01*
X107326054Y-122808450D01*
X107175652Y-122901522D01*
X107123782Y-122953483D01*
X107089216Y-122988109D01*
X107026934Y-123022188D01*
X106956114Y-123017185D01*
X106911025Y-122988264D01*
X106828483Y-122905866D01*
X106823303Y-122900695D01*
X106817072Y-122896854D01*
X106678968Y-122811725D01*
X106678966Y-122811724D01*
X106672738Y-122807885D01*
X106512254Y-122754655D01*
X106511389Y-122754368D01*
X106511387Y-122754368D01*
X106504861Y-122752203D01*
X106498025Y-122751503D01*
X106498022Y-122751502D01*
X106444593Y-122746028D01*
X106400400Y-122741500D01*
X105599600Y-122741500D01*
X105596354Y-122741837D01*
X105596350Y-122741837D01*
X105500692Y-122751762D01*
X105500688Y-122751763D01*
X105493834Y-122752474D01*
X105487298Y-122754655D01*
X105487296Y-122754655D01*
X105362673Y-122796233D01*
X105326054Y-122808450D01*
X105175652Y-122901522D01*
X105050695Y-123026697D01*
X105046855Y-123032927D01*
X105046854Y-123032928D01*
X104962720Y-123169419D01*
X104957885Y-123177262D01*
X104941094Y-123227887D01*
X104923753Y-123280167D01*
X104883322Y-123338527D01*
X104817758Y-123365764D01*
X104804160Y-123366500D01*
X102784500Y-123366500D01*
X102716379Y-123346498D01*
X102669886Y-123292842D01*
X102658500Y-123240500D01*
X102658500Y-123201866D01*
X102651745Y-123139684D01*
X102600615Y-123003295D01*
X102513261Y-122886739D01*
X102396705Y-122799385D01*
X102260316Y-122748255D01*
X102198134Y-122741500D01*
X101101866Y-122741500D01*
X101080437Y-122743828D01*
X101010555Y-122731300D01*
X100958539Y-122682980D01*
X100940904Y-122614208D01*
X100963250Y-122546820D01*
X100977734Y-122529470D01*
X104540528Y-118966677D01*
X111354753Y-112152452D01*
X111363039Y-112144912D01*
X111369518Y-112140800D01*
X111416144Y-112091148D01*
X111418898Y-112088307D01*
X111438635Y-112068570D01*
X111441115Y-112065373D01*
X111448820Y-112056351D01*
X111473659Y-112029900D01*
X111479086Y-112024121D01*
X111482905Y-112017175D01*
X111482907Y-112017172D01*
X111488848Y-112006366D01*
X111499699Y-111989847D01*
X111507258Y-111980101D01*
X111512114Y-111973841D01*
X111515259Y-111966572D01*
X111515262Y-111966568D01*
X111529674Y-111933263D01*
X111534891Y-111922613D01*
X111556195Y-111883860D01*
X111561233Y-111864237D01*
X111567637Y-111845534D01*
X111572533Y-111834220D01*
X111572533Y-111834219D01*
X111575681Y-111826945D01*
X111576920Y-111819122D01*
X111576923Y-111819112D01*
X111582599Y-111783276D01*
X111585005Y-111771656D01*
X111594028Y-111736511D01*
X111594028Y-111736510D01*
X111596000Y-111728830D01*
X111596000Y-111708576D01*
X111597551Y-111688865D01*
X111599480Y-111676686D01*
X111600720Y-111668857D01*
X111596559Y-111624838D01*
X111596000Y-111612981D01*
X111596000Y-103784046D01*
X111616002Y-103715925D01*
X111655697Y-103676902D01*
X111768120Y-103607332D01*
X111774348Y-103603478D01*
X111899305Y-103478303D01*
X111901906Y-103474084D01*
X111959030Y-103433583D01*
X112029953Y-103430351D01*
X112091365Y-103465976D01*
X112097922Y-103473530D01*
X112101522Y-103479348D01*
X112226697Y-103604305D01*
X112232927Y-103608145D01*
X112232928Y-103608146D01*
X112370090Y-103692694D01*
X112377262Y-103697115D01*
X112433973Y-103715925D01*
X112538611Y-103750632D01*
X112538613Y-103750632D01*
X112545139Y-103752797D01*
X112551975Y-103753497D01*
X112551978Y-103753498D01*
X112595031Y-103757909D01*
X112649600Y-103763500D01*
X113425400Y-103763500D01*
X113428646Y-103763163D01*
X113428650Y-103763163D01*
X113524308Y-103753238D01*
X113524312Y-103753237D01*
X113531166Y-103752526D01*
X113537702Y-103750345D01*
X113537704Y-103750345D01*
X113670999Y-103705874D01*
X113698946Y-103696550D01*
X113849348Y-103603478D01*
X113974305Y-103478303D01*
X114067115Y-103327738D01*
X114122797Y-103159861D01*
X114133500Y-103055400D01*
X114133500Y-102004600D01*
X114122526Y-101898834D01*
X114066550Y-101731054D01*
X113973478Y-101580652D01*
X113848303Y-101455695D01*
X113730883Y-101383316D01*
X113683391Y-101330545D01*
X113671000Y-101276057D01*
X113671000Y-101181467D01*
X113671527Y-101170284D01*
X113673202Y-101162791D01*
X113672378Y-101136556D01*
X113671062Y-101094701D01*
X113671000Y-101090743D01*
X113671000Y-101062844D01*
X113670496Y-101058853D01*
X113669563Y-101047011D01*
X113668423Y-101010736D01*
X113668174Y-101002811D01*
X113665962Y-100995197D01*
X113665961Y-100995192D01*
X113662523Y-100983359D01*
X113658512Y-100963995D01*
X113656967Y-100951764D01*
X113655974Y-100943903D01*
X113653057Y-100936536D01*
X113653056Y-100936531D01*
X113639698Y-100902792D01*
X113635854Y-100891565D01*
X113625731Y-100856722D01*
X113625729Y-100856718D01*
X113623518Y-100849107D01*
X113620896Y-100844674D01*
X113611431Y-100782818D01*
X113612614Y-100771563D01*
X113613304Y-100765000D01*
X113612614Y-100758435D01*
X113612614Y-100758430D01*
X113611247Y-100745427D01*
X113625061Y-100676919D01*
X113624457Y-100676680D01*
X113625787Y-100673320D01*
X113626145Y-100671546D01*
X113627376Y-100669308D01*
X113627378Y-100669303D01*
X113631195Y-100662360D01*
X113633343Y-100653997D01*
X113636233Y-100642738D01*
X113642637Y-100624034D01*
X113647533Y-100612720D01*
X113647533Y-100612719D01*
X113650681Y-100605445D01*
X113651920Y-100597622D01*
X113651923Y-100597612D01*
X113657599Y-100561776D01*
X113660005Y-100550156D01*
X113669028Y-100515011D01*
X113669028Y-100515010D01*
X113671000Y-100507330D01*
X113671000Y-100487076D01*
X113672551Y-100467365D01*
X113674480Y-100455186D01*
X113675720Y-100447357D01*
X113671559Y-100403338D01*
X113671000Y-100391481D01*
X113671000Y-100254046D01*
X113691002Y-100185925D01*
X113730697Y-100146902D01*
X113843120Y-100077332D01*
X113849348Y-100073478D01*
X113974305Y-99948303D01*
X113978146Y-99942072D01*
X114063275Y-99803968D01*
X114063276Y-99803966D01*
X114067115Y-99797738D01*
X114103064Y-99689356D01*
X114120630Y-99636396D01*
X114120631Y-99636391D01*
X114122797Y-99629861D01*
X114123499Y-99623014D01*
X114124440Y-99618622D01*
X114158278Y-99556208D01*
X114220487Y-99521996D01*
X114291318Y-99526847D01*
G37*
%TD.AperFunction*%
%TA.AperFunction,Conductor*%
G36*
X109855583Y-99653502D02*
G01*
X109902076Y-99707158D01*
X109906986Y-99719624D01*
X109924355Y-99771686D01*
X109933450Y-99798946D01*
X110026522Y-99949348D01*
X110151697Y-100074305D01*
X110269117Y-100146684D01*
X110316609Y-100199455D01*
X110329000Y-100253943D01*
X110329000Y-101275954D01*
X110308998Y-101344075D01*
X110269303Y-101383098D01*
X110150652Y-101456522D01*
X110025695Y-101581697D01*
X109932885Y-101732262D01*
X109877203Y-101900139D01*
X109866500Y-102004600D01*
X109866500Y-103055400D01*
X109877474Y-103161166D01*
X109933450Y-103328946D01*
X110026522Y-103479348D01*
X110151697Y-103604305D01*
X110269117Y-103676684D01*
X110316609Y-103729455D01*
X110329000Y-103783943D01*
X110329000Y-111334206D01*
X110308998Y-111402327D01*
X110292095Y-111423301D01*
X96981827Y-124733568D01*
X96919515Y-124767594D01*
X96848700Y-124762529D01*
X96818673Y-124746410D01*
X96805398Y-124736765D01*
X96805391Y-124736761D01*
X96800052Y-124732882D01*
X96794024Y-124730198D01*
X96794022Y-124730197D01*
X96631619Y-124657891D01*
X96631618Y-124657891D01*
X96625588Y-124655206D01*
X96523470Y-124633500D01*
X96445244Y-124616872D01*
X96445239Y-124616872D01*
X96438787Y-124615500D01*
X96247813Y-124615500D01*
X96241361Y-124616872D01*
X96241356Y-124616872D01*
X96163130Y-124633500D01*
X96061012Y-124655206D01*
X96054982Y-124657891D01*
X96054981Y-124657891D01*
X95892578Y-124730197D01*
X95892576Y-124730198D01*
X95886548Y-124732882D01*
X95881207Y-124736762D01*
X95881206Y-124736763D01*
X95769617Y-124817838D01*
X95732047Y-124845134D01*
X95730269Y-124847108D01*
X95667584Y-124877193D01*
X95629957Y-124876263D01*
X95629861Y-124877203D01*
X95525400Y-124866500D01*
X94474600Y-124866500D01*
X94471354Y-124866837D01*
X94471350Y-124866837D01*
X94375692Y-124876762D01*
X94375688Y-124876763D01*
X94368834Y-124877474D01*
X94362298Y-124879655D01*
X94362296Y-124879655D01*
X94329790Y-124890500D01*
X94201054Y-124933450D01*
X94050652Y-125026522D01*
X93925695Y-125151697D01*
X93921855Y-125157927D01*
X93921854Y-125157928D01*
X93863860Y-125252011D01*
X93811087Y-125299505D01*
X93741016Y-125310928D01*
X93675892Y-125282654D01*
X93636392Y-125223659D01*
X93630600Y-125185895D01*
X93630600Y-119767494D01*
X93650602Y-119699373D01*
X93667505Y-119678399D01*
X95786101Y-117559803D01*
X95848413Y-117525777D01*
X95919228Y-117530842D01*
X95976064Y-117573389D01*
X95995029Y-117609960D01*
X96002273Y-117632256D01*
X96097760Y-117797644D01*
X96102178Y-117802551D01*
X96102179Y-117802552D01*
X96184252Y-117893703D01*
X96225547Y-117939566D01*
X96380048Y-118051818D01*
X96386076Y-118054502D01*
X96386078Y-118054503D01*
X96548481Y-118126809D01*
X96554512Y-118129494D01*
X96645988Y-118148938D01*
X96734856Y-118167828D01*
X96734861Y-118167828D01*
X96741313Y-118169200D01*
X96932287Y-118169200D01*
X96938739Y-118167828D01*
X96938744Y-118167828D01*
X97027612Y-118148938D01*
X97119088Y-118129494D01*
X97125119Y-118126809D01*
X97287522Y-118054503D01*
X97287524Y-118054502D01*
X97293552Y-118051818D01*
X97448053Y-117939566D01*
X97452468Y-117934663D01*
X97457380Y-117930240D01*
X97458505Y-117931489D01*
X97511814Y-117898649D01*
X97545000Y-117894200D01*
X98210533Y-117894200D01*
X98221716Y-117894727D01*
X98229209Y-117896402D01*
X98237135Y-117896153D01*
X98237136Y-117896153D01*
X98297286Y-117894262D01*
X98301245Y-117894200D01*
X98329156Y-117894200D01*
X98333091Y-117893703D01*
X98333156Y-117893695D01*
X98344993Y-117892762D01*
X98377251Y-117891748D01*
X98381270Y-117891622D01*
X98389189Y-117891373D01*
X98408643Y-117885721D01*
X98428000Y-117881713D01*
X98440230Y-117880168D01*
X98440231Y-117880168D01*
X98448097Y-117879174D01*
X98455468Y-117876255D01*
X98455470Y-117876255D01*
X98489212Y-117862896D01*
X98500442Y-117859051D01*
X98535283Y-117848929D01*
X98535284Y-117848929D01*
X98542893Y-117846718D01*
X98549712Y-117842685D01*
X98549717Y-117842683D01*
X98560328Y-117836407D01*
X98578076Y-117827712D01*
X98596917Y-117820252D01*
X98632687Y-117794264D01*
X98642607Y-117787748D01*
X98673835Y-117769280D01*
X98673838Y-117769278D01*
X98680662Y-117765242D01*
X98694983Y-117750921D01*
X98710010Y-117738086D01*
X98717610Y-117732563D01*
X98784476Y-117708706D01*
X98791670Y-117708500D01*
X99675400Y-117708500D01*
X99678646Y-117708163D01*
X99678650Y-117708163D01*
X99774308Y-117698238D01*
X99774312Y-117698237D01*
X99781166Y-117697526D01*
X99787702Y-117695345D01*
X99787704Y-117695345D01*
X99941998Y-117643868D01*
X99948946Y-117641550D01*
X100099348Y-117548478D01*
X100224305Y-117423303D01*
X100317115Y-117272738D01*
X100361275Y-117139600D01*
X100370632Y-117111389D01*
X100370632Y-117111387D01*
X100372797Y-117104861D01*
X100383500Y-117000400D01*
X100383500Y-116099600D01*
X100383163Y-116096350D01*
X100373238Y-116000692D01*
X100373237Y-116000688D01*
X100372526Y-115993834D01*
X100358331Y-115951285D01*
X100318868Y-115833002D01*
X100316550Y-115826054D01*
X100223478Y-115675652D01*
X100098303Y-115550695D01*
X99947738Y-115457885D01*
X99867995Y-115431436D01*
X99786389Y-115404368D01*
X99786387Y-115404368D01*
X99779861Y-115402203D01*
X99773025Y-115401503D01*
X99773022Y-115401502D01*
X99729969Y-115397091D01*
X99675400Y-115391500D01*
X98324600Y-115391500D01*
X98321354Y-115391837D01*
X98321350Y-115391837D01*
X98279689Y-115396160D01*
X98264711Y-115397714D01*
X98194889Y-115384849D01*
X98143107Y-115336278D01*
X98125805Y-115267422D01*
X98148475Y-115200143D01*
X98162612Y-115183292D01*
X98700499Y-114645405D01*
X98762811Y-114611379D01*
X98789594Y-114608500D01*
X99675400Y-114608500D01*
X99678646Y-114608163D01*
X99678650Y-114608163D01*
X99774308Y-114598238D01*
X99774312Y-114598237D01*
X99781166Y-114597526D01*
X99787702Y-114595345D01*
X99787704Y-114595345D01*
X99941998Y-114543868D01*
X99948946Y-114541550D01*
X100099348Y-114448478D01*
X100224305Y-114323303D01*
X100235876Y-114304531D01*
X100313275Y-114178968D01*
X100313276Y-114178966D01*
X100317115Y-114172738D01*
X100363267Y-114033593D01*
X100370632Y-114011389D01*
X100370632Y-114011387D01*
X100372797Y-114004861D01*
X100383500Y-113900400D01*
X100383500Y-112999600D01*
X100372526Y-112893834D01*
X100316550Y-112726054D01*
X100223478Y-112575652D01*
X100098303Y-112450695D01*
X100092072Y-112446854D01*
X99953968Y-112361725D01*
X99953966Y-112361724D01*
X99947738Y-112357885D01*
X99787254Y-112304655D01*
X99786389Y-112304368D01*
X99786387Y-112304368D01*
X99779861Y-112302203D01*
X99773023Y-112301502D01*
X99773021Y-112301502D01*
X99746658Y-112298801D01*
X99680930Y-112271960D01*
X99640148Y-112213845D01*
X99633500Y-112173457D01*
X99633500Y-109826450D01*
X99653502Y-109758329D01*
X99707158Y-109711836D01*
X99746496Y-109701123D01*
X99754135Y-109700331D01*
X99774308Y-109698238D01*
X99774312Y-109698237D01*
X99781166Y-109697526D01*
X99787702Y-109695345D01*
X99787704Y-109695345D01*
X99919806Y-109651272D01*
X99948946Y-109641550D01*
X100099348Y-109548478D01*
X100224305Y-109423303D01*
X100228146Y-109417072D01*
X100313275Y-109278968D01*
X100313276Y-109278966D01*
X100317115Y-109272738D01*
X100372797Y-109104861D01*
X100376214Y-109071517D01*
X100377909Y-109054969D01*
X100383500Y-109000400D01*
X100383500Y-108099600D01*
X100383051Y-108095268D01*
X100373238Y-108000692D01*
X100373237Y-108000688D01*
X100372526Y-107993834D01*
X100369841Y-107985784D01*
X100318868Y-107833002D01*
X100316550Y-107826054D01*
X100312694Y-107819823D01*
X100309593Y-107813203D01*
X100312529Y-107811828D01*
X100297559Y-107757233D01*
X100318784Y-107689484D01*
X100373267Y-107643963D01*
X100423539Y-107633500D01*
X103567500Y-107633500D01*
X103635621Y-107653502D01*
X103682114Y-107707158D01*
X103693500Y-107759500D01*
X103693500Y-108334400D01*
X103704474Y-108440166D01*
X103760450Y-108607946D01*
X103853522Y-108758348D01*
X103978697Y-108883305D01*
X103984927Y-108887145D01*
X103984928Y-108887146D01*
X104097772Y-108956704D01*
X104129262Y-108976115D01*
X104182168Y-108993663D01*
X104240527Y-109034094D01*
X104267764Y-109099658D01*
X104268500Y-109113256D01*
X104268500Y-109271764D01*
X104248498Y-109339885D01*
X104194842Y-109386378D01*
X104149403Y-109397500D01*
X104147600Y-109397500D01*
X104144354Y-109397837D01*
X104144350Y-109397837D01*
X104048692Y-109407762D01*
X104048688Y-109407763D01*
X104041834Y-109408474D01*
X104035298Y-109410655D01*
X104035296Y-109410655D01*
X103903194Y-109454728D01*
X103874054Y-109464450D01*
X103723652Y-109557522D01*
X103598695Y-109682697D01*
X103594855Y-109688927D01*
X103594854Y-109688928D01*
X103510027Y-109826543D01*
X103505885Y-109833262D01*
X103450203Y-110001139D01*
X103439500Y-110105600D01*
X103439500Y-110906400D01*
X103439837Y-110909646D01*
X103439837Y-110909650D01*
X103443241Y-110942451D01*
X103450474Y-111012166D01*
X103452655Y-111018702D01*
X103452655Y-111018704D01*
X103463874Y-111052332D01*
X103506450Y-111179946D01*
X103599522Y-111330348D01*
X103604704Y-111335521D01*
X103686109Y-111416784D01*
X103720188Y-111479066D01*
X103715185Y-111549886D01*
X103686264Y-111594975D01*
X103662645Y-111618635D01*
X103598695Y-111682697D01*
X103594855Y-111688927D01*
X103594854Y-111688928D01*
X103521109Y-111808565D01*
X103505885Y-111833262D01*
X103486800Y-111890801D01*
X103461670Y-111966568D01*
X103450203Y-112001139D01*
X103439500Y-112105600D01*
X103439500Y-112906400D01*
X103450474Y-113012166D01*
X103506450Y-113179946D01*
X103599522Y-113330348D01*
X103604704Y-113335521D01*
X103715088Y-113445713D01*
X103749167Y-113507996D01*
X103751380Y-113548056D01*
X103734496Y-113708700D01*
X103754458Y-113898628D01*
X103813473Y-114080256D01*
X103816776Y-114085978D01*
X103816777Y-114085979D01*
X103834914Y-114117393D01*
X103908960Y-114245644D01*
X103913378Y-114250551D01*
X103913379Y-114250552D01*
X104021661Y-114370811D01*
X104036747Y-114387566D01*
X104191248Y-114499818D01*
X104197276Y-114502502D01*
X104197278Y-114502503D01*
X104284980Y-114541550D01*
X104365712Y-114577494D01*
X104449694Y-114595345D01*
X104546056Y-114615828D01*
X104546061Y-114615828D01*
X104552513Y-114617200D01*
X104743487Y-114617200D01*
X104749939Y-114615828D01*
X104749944Y-114615828D01*
X104846306Y-114595345D01*
X104930288Y-114577494D01*
X105011020Y-114541550D01*
X105098722Y-114502503D01*
X105098724Y-114502502D01*
X105104752Y-114499818D01*
X105259253Y-114387566D01*
X105274339Y-114370811D01*
X105382621Y-114250552D01*
X105382622Y-114250551D01*
X105387040Y-114245644D01*
X105461086Y-114117393D01*
X105479223Y-114085979D01*
X105479224Y-114085978D01*
X105482527Y-114080256D01*
X105541542Y-113898628D01*
X105561504Y-113708700D01*
X105544638Y-113548225D01*
X105557410Y-113478387D01*
X105580775Y-113446037D01*
X105692134Y-113334484D01*
X105692138Y-113334479D01*
X105697305Y-113329303D01*
X105734274Y-113269329D01*
X105786275Y-113184968D01*
X105786276Y-113184966D01*
X105790115Y-113178738D01*
X105845797Y-113010861D01*
X105847279Y-112996402D01*
X105856172Y-112909598D01*
X105856500Y-112906400D01*
X105856500Y-112105600D01*
X105855001Y-112091149D01*
X105846238Y-112006692D01*
X105846237Y-112006688D01*
X105845526Y-111999834D01*
X105789550Y-111832054D01*
X105696478Y-111681652D01*
X105609891Y-111595216D01*
X105575812Y-111532934D01*
X105580815Y-111462114D01*
X105609736Y-111417025D01*
X105692134Y-111334483D01*
X105697305Y-111329303D01*
X105764751Y-111219886D01*
X105786275Y-111184968D01*
X105786276Y-111184966D01*
X105790115Y-111178738D01*
X105845797Y-111010861D01*
X105856500Y-110906400D01*
X105856500Y-110105600D01*
X105845526Y-109999834D01*
X105789550Y-109832054D01*
X105696478Y-109681652D01*
X105572482Y-109557872D01*
X105538403Y-109495590D01*
X105535500Y-109468699D01*
X105535500Y-109113197D01*
X105555502Y-109045076D01*
X105609158Y-108998583D01*
X105621623Y-108993674D01*
X105669002Y-108977867D01*
X105669004Y-108977866D01*
X105675946Y-108975550D01*
X105757487Y-108925091D01*
X105820120Y-108886332D01*
X105826348Y-108882478D01*
X105951305Y-108757303D01*
X105955146Y-108751072D01*
X106040275Y-108612968D01*
X106040276Y-108612966D01*
X106044115Y-108606738D01*
X106099797Y-108438861D01*
X106110500Y-108334400D01*
X106110500Y-107583600D01*
X106110038Y-107579148D01*
X106100238Y-107484692D01*
X106100237Y-107484688D01*
X106099526Y-107477834D01*
X106059446Y-107357700D01*
X106056862Y-107286751D01*
X106089875Y-107228729D01*
X106344047Y-106974557D01*
X106352337Y-106967013D01*
X106358818Y-106962900D01*
X106405459Y-106913232D01*
X106408213Y-106910391D01*
X106427934Y-106890670D01*
X106430412Y-106887475D01*
X106438118Y-106878453D01*
X106462958Y-106852001D01*
X106468386Y-106846221D01*
X106478146Y-106828468D01*
X106488999Y-106811945D01*
X106496553Y-106802206D01*
X106501413Y-106795941D01*
X106518976Y-106755357D01*
X106524183Y-106744727D01*
X106545495Y-106705960D01*
X106547466Y-106698283D01*
X106547468Y-106698278D01*
X106550532Y-106686342D01*
X106556938Y-106667630D01*
X106561834Y-106656317D01*
X106564981Y-106649045D01*
X106571897Y-106605381D01*
X106574304Y-106593760D01*
X106583328Y-106558611D01*
X106583328Y-106558610D01*
X106585300Y-106550930D01*
X106585300Y-106530669D01*
X106586851Y-106510958D01*
X106588779Y-106498785D01*
X106590019Y-106490957D01*
X106585859Y-106446946D01*
X106585300Y-106435089D01*
X106585300Y-105335067D01*
X106585827Y-105323884D01*
X106587502Y-105316391D01*
X106585362Y-105248314D01*
X106585300Y-105244355D01*
X106585300Y-105216444D01*
X106584795Y-105212444D01*
X106583862Y-105200601D01*
X106582722Y-105164329D01*
X106582473Y-105156410D01*
X106576822Y-105136958D01*
X106572814Y-105117606D01*
X106571267Y-105105363D01*
X106570274Y-105097503D01*
X106567356Y-105090132D01*
X106554000Y-105056397D01*
X106550155Y-105045170D01*
X106549521Y-105042987D01*
X106537818Y-105002707D01*
X106533784Y-104995885D01*
X106533781Y-104995879D01*
X106527506Y-104985268D01*
X106518810Y-104967518D01*
X106514272Y-104956056D01*
X106514269Y-104956051D01*
X106511352Y-104948683D01*
X106485373Y-104912925D01*
X106478857Y-104903007D01*
X106460375Y-104871757D01*
X106456342Y-104864937D01*
X106442018Y-104850613D01*
X106429176Y-104835578D01*
X106417272Y-104819193D01*
X106383206Y-104791011D01*
X106374427Y-104783022D01*
X105603305Y-104011900D01*
X105569279Y-103949588D01*
X105566400Y-103922805D01*
X105566400Y-99953999D01*
X105586402Y-99885878D01*
X105640058Y-99839385D01*
X105692400Y-99827999D01*
X105796229Y-99827999D01*
X105801166Y-99827805D01*
X105829440Y-99825581D01*
X105842041Y-99823280D01*
X105987287Y-99781082D01*
X106001724Y-99774834D01*
X106005372Y-99772677D01*
X106008603Y-99771857D01*
X106008999Y-99771686D01*
X106009027Y-99771750D01*
X106074189Y-99755219D01*
X106133645Y-99772677D01*
X106138071Y-99775294D01*
X106138075Y-99775296D01*
X106144900Y-99779332D01*
X106152511Y-99781543D01*
X106152513Y-99781544D01*
X106203196Y-99796268D01*
X106304063Y-99825573D01*
X106310468Y-99826077D01*
X106310473Y-99826078D01*
X106338797Y-99828307D01*
X106338805Y-99828307D01*
X106341253Y-99828500D01*
X106554870Y-99828500D01*
X106768746Y-99828499D01*
X106805937Y-99825573D01*
X106905243Y-99796722D01*
X106957487Y-99781544D01*
X106957489Y-99781543D01*
X106965100Y-99779332D01*
X106972706Y-99774834D01*
X107100942Y-99698996D01*
X107100943Y-99698996D01*
X107107763Y-99694962D01*
X107132320Y-99670405D01*
X107194632Y-99636379D01*
X107221415Y-99633500D01*
X109787462Y-99633500D01*
X109855583Y-99653502D01*
G37*
%TD.AperFunction*%
%TD*%
M02*
